G04*
G04 #@! TF.GenerationSoftware,Altium Limited,Altium Designer,21.3.2 (30)*
G04*
G04 Layer_Color=255*
%FSTAX24Y24*%
%MOIN*%
G70*
G04*
G04 #@! TF.SameCoordinates,A4DC8701-BC22-4BCE-B91D-7DEF39426184*
G04*
G04*
G04 #@! TF.FilePolarity,Positive*
G04*
G01*
G75*
%ADD21R,0.0335X0.0276*%
%ADD22R,0.0472X0.0315*%
%ADD23R,0.0669X0.0118*%
%ADD24R,0.0118X0.0669*%
G04:AMPARAMS|DCode=25|XSize=39.4mil|YSize=35.4mil|CornerRadius=4.4mil|HoleSize=0mil|Usage=FLASHONLY|Rotation=270.000|XOffset=0mil|YOffset=0mil|HoleType=Round|Shape=RoundedRectangle|*
%AMROUNDEDRECTD25*
21,1,0.0394,0.0266,0,0,270.0*
21,1,0.0305,0.0354,0,0,270.0*
1,1,0.0089,-0.0133,-0.0153*
1,1,0.0089,-0.0133,0.0153*
1,1,0.0089,0.0133,0.0153*
1,1,0.0089,0.0133,-0.0153*
%
%ADD25ROUNDEDRECTD25*%
%ADD26R,0.0276X0.0335*%
%ADD27R,0.0787X0.1575*%
%ADD28R,0.0500X0.0550*%
%ADD29R,0.0394X0.0374*%
%ADD30R,0.0374X0.0394*%
%ADD31R,0.1220X0.0709*%
%ADD32R,0.0669X0.0984*%
%ADD33R,0.0787X0.1614*%
%ADD34R,0.0236X0.0591*%
%ADD35R,0.0984X0.0984*%
%ADD36R,0.0900X0.0250*%
%ADD37O,0.0900X0.0250*%
%ADD38R,0.0394X0.0945*%
%ADD39R,0.1299X0.0945*%
%ADD40R,0.2559X0.2362*%
%ADD41R,0.0984X0.0472*%
%ADD42R,0.0335X0.0472*%
%ADD43R,0.0394X0.0551*%
G04:AMPARAMS|DCode=44|XSize=39.4mil|YSize=35.4mil|CornerRadius=4.4mil|HoleSize=0mil|Usage=FLASHONLY|Rotation=180.000|XOffset=0mil|YOffset=0mil|HoleType=Round|Shape=RoundedRectangle|*
%AMROUNDEDRECTD44*
21,1,0.0394,0.0266,0,0,180.0*
21,1,0.0305,0.0354,0,0,180.0*
1,1,0.0089,-0.0153,0.0133*
1,1,0.0089,0.0153,0.0133*
1,1,0.0089,0.0153,-0.0133*
1,1,0.0089,-0.0153,-0.0133*
%
%ADD44ROUNDEDRECTD44*%
%ADD45O,0.0709X0.0236*%
%ADD82C,0.0200*%
%ADD85R,0.0630X0.0630*%
%ADD86C,0.0630*%
%ADD87C,0.1378*%
%ADD88C,0.1100*%
%ADD89R,0.0630X0.0630*%
G04:AMPARAMS|DCode=90|XSize=122mil|YSize=118.1mil|CornerRadius=29.5mil|HoleSize=0mil|Usage=FLASHONLY|Rotation=0.000|XOffset=0mil|YOffset=0mil|HoleType=Round|Shape=RoundedRectangle|*
%AMROUNDEDRECTD90*
21,1,0.1220,0.0591,0,0,0.0*
21,1,0.0630,0.1181,0,0,0.0*
1,1,0.0591,0.0315,-0.0295*
1,1,0.0591,-0.0315,-0.0295*
1,1,0.0591,-0.0315,0.0295*
1,1,0.0591,0.0315,0.0295*
%
%ADD90ROUNDEDRECTD90*%
%ADD91C,0.0650*%
%ADD92R,0.0591X0.0591*%
%ADD93C,0.0591*%
D21*
X0388Y010094D02*
D03*
Y010606D02*
D03*
X0379Y004506D02*
D03*
Y003994D02*
D03*
X0372Y004506D02*
D03*
Y003994D02*
D03*
X0366Y004506D02*
D03*
Y003994D02*
D03*
X0379Y012206D02*
D03*
Y011694D02*
D03*
X04285Y008094D02*
D03*
Y008606D02*
D03*
X0481Y012144D02*
D03*
Y012656D02*
D03*
X0423Y008094D02*
D03*
Y008606D02*
D03*
X03825Y010606D02*
D03*
Y010094D02*
D03*
X039137Y004506D02*
D03*
Y003994D02*
D03*
X0409Y004506D02*
D03*
Y003994D02*
D03*
X039725D02*
D03*
Y004506D02*
D03*
X03855Y003994D02*
D03*
Y004506D02*
D03*
X040312Y003994D02*
D03*
Y004506D02*
D03*
D22*
X049878Y0052D02*
D03*
X047122D02*
D03*
D23*
X038131Y008283D02*
D03*
Y008086D02*
D03*
Y007889D02*
D03*
Y007692D02*
D03*
Y007495D02*
D03*
Y007298D02*
D03*
Y007102D02*
D03*
Y006905D02*
D03*
Y006708D02*
D03*
Y006511D02*
D03*
Y006314D02*
D03*
Y006117D02*
D03*
X041469D02*
D03*
Y006314D02*
D03*
Y006511D02*
D03*
Y006708D02*
D03*
Y006905D02*
D03*
Y007102D02*
D03*
Y007298D02*
D03*
Y007495D02*
D03*
Y007692D02*
D03*
Y007889D02*
D03*
Y008086D02*
D03*
Y008283D02*
D03*
D24*
X038717Y005531D02*
D03*
X038914D02*
D03*
X039111D02*
D03*
X039308D02*
D03*
X039505D02*
D03*
X039702D02*
D03*
X039898D02*
D03*
X040095D02*
D03*
X040292D02*
D03*
X040489D02*
D03*
X040686D02*
D03*
X040883D02*
D03*
Y008868D02*
D03*
X040686D02*
D03*
X040489D02*
D03*
X040292D02*
D03*
X040095D02*
D03*
X039898D02*
D03*
X039702D02*
D03*
X039505D02*
D03*
X039308D02*
D03*
X039111D02*
D03*
X038914D02*
D03*
X038717D02*
D03*
D25*
X053915Y0107D02*
D03*
X054585D02*
D03*
X046915Y00665D02*
D03*
X047585D02*
D03*
X039802Y0119D02*
D03*
X040471D02*
D03*
X032852Y015253D02*
D03*
X033521D02*
D03*
X047985Y01165D02*
D03*
X047315D02*
D03*
X039121Y0119D02*
D03*
X038452D02*
D03*
X047585Y00735D02*
D03*
X046915D02*
D03*
X032885Y0077D02*
D03*
X032215D02*
D03*
D26*
X056306Y01335D02*
D03*
X055794D02*
D03*
X033606Y00975D02*
D03*
X033094D02*
D03*
X036356Y0078D02*
D03*
X035844D02*
D03*
Y0052D02*
D03*
X036356D02*
D03*
X056744Y01335D02*
D03*
X057256D02*
D03*
D27*
X0359Y015233D02*
D03*
Y01295D02*
D03*
D28*
X03725Y01585D02*
D03*
X03815D02*
D03*
X033636Y016053D02*
D03*
X032736D02*
D03*
D29*
X039345Y0159D02*
D03*
X038755D02*
D03*
X040695D02*
D03*
X040105D02*
D03*
X041945D02*
D03*
X041355D02*
D03*
X036295Y00835D02*
D03*
X035705D02*
D03*
D30*
X042Y013545D02*
D03*
Y012955D02*
D03*
X0427D02*
D03*
Y013545D02*
D03*
X042Y014745D02*
D03*
Y014155D02*
D03*
X0427Y014745D02*
D03*
Y014155D02*
D03*
X0375Y013345D02*
D03*
Y012755D02*
D03*
X03505Y011455D02*
D03*
Y012045D02*
D03*
D31*
X04035Y014884D02*
D03*
Y012916D02*
D03*
D32*
X03845Y013163D02*
D03*
Y014737D02*
D03*
X05185Y009987D02*
D03*
Y008413D02*
D03*
D33*
X0453Y015513D02*
D03*
Y012087D02*
D03*
D34*
X036376Y010459D02*
D03*
X037124D02*
D03*
X03675Y011641D02*
D03*
X036376D02*
D03*
X037124D02*
D03*
D35*
X035322Y00935D02*
D03*
X036778D02*
D03*
D36*
X049087Y012663D02*
D03*
X049087Y012163D02*
D03*
Y011663D02*
D03*
X049087Y011163D02*
D03*
X051513Y012663D02*
D03*
X051513Y012163D02*
D03*
Y011663D02*
D03*
D37*
X051513Y011163D02*
D03*
D38*
X032444Y010608D02*
D03*
X03335D02*
D03*
X034256D02*
D03*
D39*
X03335Y012892D02*
D03*
D40*
X047614Y00915D02*
D03*
D41*
X05035Y01005D02*
D03*
X05035Y00825D02*
D03*
D42*
X048602Y007492D02*
D03*
X04823Y00651D02*
D03*
X048988Y006508D02*
D03*
X034288Y007708D02*
D03*
X03353Y00771D02*
D03*
X033902Y008692D02*
D03*
D43*
X035667Y005752D02*
D03*
Y007248D02*
D03*
X036533Y005752D02*
D03*
Y007248D02*
D03*
D44*
X0395Y010685D02*
D03*
Y010015D02*
D03*
X0402Y010685D02*
D03*
Y010015D02*
D03*
X0409Y010685D02*
D03*
Y010015D02*
D03*
X0417Y003915D02*
D03*
Y004585D02*
D03*
X04325D02*
D03*
Y003915D02*
D03*
X0425Y004585D02*
D03*
Y003915D02*
D03*
X04405Y004585D02*
D03*
Y003915D02*
D03*
X0582Y011735D02*
D03*
Y011065D02*
D03*
Y012985D02*
D03*
Y012315D02*
D03*
D45*
X057312Y0112D02*
D03*
Y0117D02*
D03*
Y0122D02*
D03*
Y0127D02*
D03*
X055088Y0112D02*
D03*
Y0117D02*
D03*
Y0122D02*
D03*
Y0127D02*
D03*
D82*
X037253Y0111D02*
D03*
X037647D02*
D03*
D85*
X0451Y0103D02*
D03*
X05655Y01585D02*
D03*
D86*
X0441Y0103D02*
D03*
X0431D02*
D03*
X0421D02*
D03*
X05755Y01585D02*
D03*
X03025Y00625D02*
D03*
Y00725D02*
D03*
Y00825D02*
D03*
Y00925D02*
D03*
Y01025D02*
D03*
Y01125D02*
D03*
Y01225D02*
D03*
D87*
X0576Y00965D02*
D03*
X0445Y00725D02*
D03*
X0311Y0154D02*
D03*
D88*
X05285D02*
D03*
X05485D02*
D03*
X0485D02*
D03*
X0505D02*
D03*
D89*
X03025Y01325D02*
D03*
D90*
X0555Y008055D02*
D03*
Y003645D02*
D03*
D91*
X052744Y006834D02*
D03*
Y004866D02*
D03*
X058453Y006834D02*
D03*
Y00585D02*
D03*
Y004866D02*
D03*
D92*
X0347Y00495D02*
D03*
D93*
X0317Y004945D02*
D03*
M02*
