M48
;Layer_Color=9474304
;FILE_FORMAT=2:4
INCH,LZ
;TYPE=PLATED
T1F00S00C0.0118
T2F00S00C0.0280
T3F00S00C0.0315
T4F00S00C0.0433
T5F00S00C0.0500
T7F00S00C0.1260
%
T01
X03085Y01145
X0314Y0112
Y0089
X0324Y0086
X0357Y00835
X03565Y00715
X03655Y0065
X03755Y00725
Y007566
X0371Y00825
X03735Y0086
X03925Y008266
X039624Y008318
X040062Y00825
X039712Y007188
X03966Y0061
X040144Y006333
X0409Y0069
X0416Y00565
X04145Y00515
X04165Y0046
X0417Y0038
X0426Y00365
X04325Y003933
X044507Y004243
X0461Y006476
X04685Y0084
Y00865
Y0089
Y00915
Y0094
Y00965
Y0099
Y01015
X04615Y01105
X046Y01145
X0453Y01225
X04355Y01131
X0434Y008928
X042642Y008938
X04285Y0086
Y008086
X04495Y0092
X040884Y009865
X0402Y00995
X0399Y00965
X0386Y011027
X037925Y011425
X037124Y011641
X036376
X037495Y01335
X03845Y0147
X039336Y014544
X0399Y014174
Y013924
X04015
X0404
Y014174
X04065
X0409
Y013924
X04065
Y013674
X0404
X04015
X0399
X04015Y014174
X0409Y013674
X042Y014155
X042695
X04065Y0155
X0397Y01515
X0359Y015233
X03355Y01385
X03335Y01285
Y01155
X0408Y011727
X03865Y0071
X03855Y004506
X039137
X039198Y004849
X039462Y005023
X0403Y0045
X0379Y004506
X0372
X0366Y0045
X036954Y00355
X0453Y015013
X04555
Y015263
Y015513
X0453
Y0155
Y015263
X0471Y01015
Y0099
Y00965
Y0094
Y00915
Y0089
Y00865
Y0084
X04735
Y00865
Y0089
Y00915
Y0094
Y00965
Y0099
Y01015
X0476
X04785
X0481
X04835
X0486
Y0099
Y00965
Y0094
Y00915
Y0089
Y00865
Y0084
X04835
Y00865
Y0089
Y00915
Y0094
Y00965
Y0099
X0481
Y00965
Y0094
Y00915
Y0089
Y00865
Y0084
X04785
Y00865
Y0089
Y00915
Y0094
Y00965
Y0099
X0476
Y00965
Y0094
Y00915
Y0089
Y00865
Y0084
X048988Y006476
X0501Y00955
X05035
Y0098
Y01005
Y0103
X0506
Y01005
Y0098
X05085
Y01005
Y0103
Y00955
X0506
X0501Y0098
Y01005
Y0103
X0551Y0112
X0563Y01285
X057287Y0127
X04555Y015763
Y016013
X0453
Y015763
X03725Y0158
T02
X03045Y0042
X0327Y00385
X0352Y0033
X034719Y01256
X0359Y015233
X03195Y01405
X043942Y013573
X04445Y01495
X0461Y0145
X058574Y014569
X056033Y009606
X0574Y00785
X057218Y003801
X0519Y00375
X04855
X0467Y0161
X0433Y016
X0347
T03
X0317Y004945
X0347Y00495
T04
X03025Y00625
Y00725
Y00825
Y00925
Y01025
Y01125
Y01225
Y01325
X0421Y0103
X0431
X0441
X0451
X052744Y006834
Y004866
X058453
Y00585
Y006834
X05755Y01585
X05655
T05
X0485Y0154
X0505
X05285
X05485
T07
X0311Y0154
X0445Y00725
X0576Y00965
M30
