G04*
G04 #@! TF.GenerationSoftware,Altium Limited,Altium Designer,21.3.2 (30)*
G04*
G04 Layer_Color=16711935*
%FSTAX24Y24*%
%MOIN*%
G70*
G04*
G04 #@! TF.SameCoordinates,A4DC8701-BC22-4BCE-B91D-7DEF39426184*
G04*
G04*
G04 #@! TF.FilePolarity,Negative*
G04*
G01*
G75*
%ADD55R,0.0434X0.0454*%
%ADD72R,0.0710X0.0710*%
%ADD73C,0.0710*%
%ADD74C,0.1458*%
%ADD75C,0.1180*%
%ADD76R,0.0710X0.0710*%
G04:AMPARAMS|DCode=77|XSize=130mil|YSize=126.1mil|CornerRadius=33.5mil|HoleSize=0mil|Usage=FLASHONLY|Rotation=0.000|XOffset=0mil|YOffset=0mil|HoleType=Round|Shape=RoundedRectangle|*
%AMROUNDEDRECTD77*
21,1,0.1300,0.0591,0,0,0.0*
21,1,0.0630,0.1261,0,0,0.0*
1,1,0.0671,0.0315,-0.0295*
1,1,0.0671,-0.0315,-0.0295*
1,1,0.0671,-0.0315,0.0295*
1,1,0.0671,0.0315,0.0295*
%
%ADD77ROUNDEDRECTD77*%
%ADD78C,0.0730*%
%ADD79R,0.0671X0.0671*%
%ADD80C,0.0671*%
%ADD81C,0.0580*%
G04:AMPARAMS|DCode=100|XSize=85.6mil|YSize=31.6mil|CornerRadius=10.4mil|HoleSize=0mil|Usage=FLASHONLY|Rotation=270.000|XOffset=0mil|YOffset=0mil|HoleType=Round|Shape=RoundedRectangle|*
%AMROUNDEDRECTD100*
21,1,0.0856,0.0109,0,0,270.0*
21,1,0.0648,0.0316,0,0,270.0*
1,1,0.0208,-0.0054,-0.0324*
1,1,0.0208,-0.0054,0.0324*
1,1,0.0208,0.0054,0.0324*
1,1,0.0208,0.0054,-0.0324*
%
%ADD100ROUNDEDRECTD100*%
%ADD101R,0.1379X0.1029*%
%ADD102R,0.0631X0.0552*%
%ADD103R,0.0720X0.0980*%
D55*
X042Y012955D02*
D03*
Y013545D02*
D03*
D72*
X0451Y0103D02*
D03*
X05655Y01585D02*
D03*
D73*
X0441Y0103D02*
D03*
X0431D02*
D03*
X0421D02*
D03*
X05755Y01585D02*
D03*
X03025Y00625D02*
D03*
Y00725D02*
D03*
Y00825D02*
D03*
Y00925D02*
D03*
Y01025D02*
D03*
Y01125D02*
D03*
Y01225D02*
D03*
D74*
X0576Y00965D02*
D03*
X0445Y00725D02*
D03*
X0311Y0154D02*
D03*
D75*
X05285D02*
D03*
X05485D02*
D03*
X0485D02*
D03*
X0505D02*
D03*
D76*
X03025Y01325D02*
D03*
D77*
X0555Y008055D02*
D03*
Y003645D02*
D03*
D78*
X052744Y006834D02*
D03*
Y004866D02*
D03*
X058453Y006834D02*
D03*
Y00585D02*
D03*
Y004866D02*
D03*
D79*
X0347Y00495D02*
D03*
D80*
X0317Y004945D02*
D03*
D81*
X04855Y00375D02*
D03*
X0519D02*
D03*
D100*
X03965Y014899D02*
D03*
X04015D02*
D03*
X04065D02*
D03*
X04115D02*
D03*
Y01295D02*
D03*
X04065D02*
D03*
X04015D02*
D03*
X03965D02*
D03*
D101*
X0404Y013924D02*
D03*
D102*
X042749Y012976D02*
D03*
Y012228D02*
D03*
D103*
X0475Y01385D02*
D03*
X04904D02*
D03*
M02*
