G04*
G04 #@! TF.GenerationSoftware,Altium Limited,Altium Designer,21.3.2 (30)*
G04*
G04 Layer_Physical_Order=2*
G04 Layer_Color=16711680*
%FSTAX24Y24*%
%MOIN*%
G70*
G04*
G04 #@! TF.SameCoordinates,A4DC8701-BC22-4BCE-B91D-7DEF39426184*
G04*
G04*
G04 #@! TF.FilePolarity,Positive*
G04*
G01*
G75*
%ADD17C,0.0080*%
%ADD30R,0.0374X0.0394*%
%ADD83C,0.0350*%
%ADD84C,0.0170*%
%ADD85R,0.0630X0.0630*%
%ADD86C,0.0630*%
%ADD87C,0.1378*%
%ADD88C,0.1100*%
%ADD89R,0.0630X0.0630*%
G04:AMPARAMS|DCode=90|XSize=122mil|YSize=118.1mil|CornerRadius=29.5mil|HoleSize=0mil|Usage=FLASHONLY|Rotation=0.000|XOffset=0mil|YOffset=0mil|HoleType=Round|Shape=RoundedRectangle|*
%AMROUNDEDRECTD90*
21,1,0.1220,0.0591,0,0,0.0*
21,1,0.0630,0.1181,0,0,0.0*
1,1,0.0591,0.0315,-0.0295*
1,1,0.0591,-0.0315,-0.0295*
1,1,0.0591,-0.0315,0.0295*
1,1,0.0591,0.0315,0.0295*
%
%ADD90ROUNDEDRECTD90*%
%ADD91C,0.0650*%
%ADD92R,0.0591X0.0591*%
%ADD93C,0.0591*%
%ADD94C,0.0500*%
%ADD95C,0.0236*%
G04:AMPARAMS|DCode=96|XSize=77.6mil|YSize=23.6mil|CornerRadius=6.4mil|HoleSize=0mil|Usage=FLASHONLY|Rotation=270.000|XOffset=0mil|YOffset=0mil|HoleType=Round|Shape=RoundedRectangle|*
%AMROUNDEDRECTD96*
21,1,0.0776,0.0109,0,0,270.0*
21,1,0.0648,0.0236,0,0,270.0*
1,1,0.0128,-0.0054,-0.0324*
1,1,0.0128,-0.0054,0.0324*
1,1,0.0128,0.0054,0.0324*
1,1,0.0128,0.0054,-0.0324*
%
%ADD96ROUNDEDRECTD96*%
%ADD97R,0.1299X0.0949*%
%ADD98R,0.0551X0.0472*%
%ADD99R,0.0640X0.0900*%
G36*
X0593Y00285D02*
X056033D01*
X056023Y0029D01*
X056065Y002917D01*
X056168Y002997D01*
X056248Y0031D01*
X056297Y003221D01*
X056315Y00335D01*
Y003941D01*
X056297Y00407D01*
X056248Y00419D01*
X056168Y004294D01*
X056065Y004373D01*
X055944Y004423D01*
X055815Y00444D01*
X055185D01*
X055056Y004423D01*
X054935Y004373D01*
X054832Y004294D01*
X054752Y00419D01*
X054703Y00407D01*
X054685Y003941D01*
Y00335D01*
X054703Y003221D01*
X054752Y0031D01*
X054832Y002997D01*
X054935Y002917D01*
X054977Y0029D01*
X054967Y00285D01*
X02965D01*
Y005986D01*
X0297Y006D01*
X029738Y005934D01*
X029834Y005838D01*
X029951Y00577D01*
X030082Y005735D01*
X030218D01*
X030349Y00577D01*
X030466Y005838D01*
X030562Y005934D01*
X03063Y006051D01*
X030665Y006182D01*
Y006318D01*
X03063Y006449D01*
X030562Y006566D01*
X030466Y006662D01*
X030362Y006722D01*
X030358Y006738D01*
Y006762D01*
X030362Y006778D01*
X030466Y006838D01*
X030562Y006934D01*
X030579Y006963D01*
X033281D01*
X034752Y005491D01*
X034733Y005445D01*
X034205D01*
Y004455D01*
X035195D01*
Y004983D01*
X035241Y005002D01*
X035432Y004811D01*
X035492Y004766D01*
X035561Y004737D01*
X035635Y004727D01*
X036311D01*
X036335Y004677D01*
X036304Y004623D01*
X036282Y004542D01*
Y004458D01*
X036304Y004377D01*
X036345Y004305D01*
X036355Y004295D01*
Y003904D01*
X036374Y00381D01*
X036427Y003731D01*
X036636Y003522D01*
Y003508D01*
X036658Y003427D01*
X036699Y003355D01*
X036759Y003295D01*
X036831Y003254D01*
X036912Y003232D01*
X036996D01*
X037077Y003254D01*
X037149Y003295D01*
X037209Y003355D01*
X03725Y003427D01*
X037272Y003508D01*
Y003592D01*
X03725Y003673D01*
X037209Y003745D01*
X037149Y003805D01*
X037077Y003846D01*
X036996Y003868D01*
X036982D01*
X036845Y004005D01*
Y004295D01*
X036855Y004305D01*
X036873Y004336D01*
X036931D01*
X036945Y004311D01*
X037005Y004251D01*
X037077Y004209D01*
X037158Y004188D01*
X037242D01*
X037323Y004209D01*
X037395Y004251D01*
X037455Y004311D01*
X037496Y004383D01*
X037518Y004464D01*
X037532Y00447D01*
X037542Y004469D01*
X037588Y004441D01*
X037604Y004383D01*
X037645Y004311D01*
X037705Y004251D01*
X037777Y004209D01*
X037845Y004191D01*
Y004184D01*
X037864Y00409D01*
X037917Y004011D01*
X038301Y003627D01*
X03838Y003574D01*
X038474Y003555D01*
X041495D01*
X041505Y003545D01*
X041577Y003504D01*
X041595Y003499D01*
X041947Y003147D01*
X042006Y003101D01*
X042076Y003072D01*
X04215Y003063D01*
X0456D01*
X045674Y003072D01*
X045744Y003101D01*
X045803Y003147D01*
X047235Y004578D01*
X052304D01*
X052324Y004544D01*
X052422Y004446D01*
X052542Y004377D01*
X052675Y004341D01*
X052813D01*
X052947Y004377D01*
X053066Y004446D01*
X053164Y004544D01*
X053233Y004663D01*
X053269Y004797D01*
Y004935D01*
X053233Y005068D01*
X053164Y005188D01*
X053136Y005216D01*
X053155Y005263D01*
X054481D01*
X055081Y004662D01*
X055141Y004617D01*
X05521Y004588D01*
X055284Y004578D01*
X058013D01*
X058033Y004544D01*
X058131Y004446D01*
X05825Y004377D01*
X058384Y004341D01*
X058522D01*
X058655Y004377D01*
X058775Y004446D01*
X058873Y004544D01*
X058942Y004663D01*
X058978Y004797D01*
Y004935D01*
X058942Y005068D01*
X058873Y005188D01*
X058775Y005286D01*
X058655Y005355D01*
X058522Y005391D01*
X058384D01*
X05825Y005355D01*
X058131Y005286D01*
X058033Y005188D01*
X058013Y005153D01*
X055403D01*
X054887Y005669D01*
X054899Y005728D01*
X054936Y005743D01*
X054995Y005789D01*
X055753Y006547D01*
X058013D01*
X058033Y006512D01*
X058131Y006414D01*
X05825Y006345D01*
X058384Y006309D01*
X058522D01*
X058655Y006345D01*
X058775Y006414D01*
X058873Y006512D01*
X058942Y006632D01*
X058978Y006765D01*
Y006903D01*
X058942Y007037D01*
X058873Y007156D01*
X058775Y007254D01*
X058655Y007323D01*
X058522Y007359D01*
X058384D01*
X05825Y007323D01*
X058131Y007254D01*
X058033Y007156D01*
X058013Y007122D01*
X055634D01*
X05556Y007112D01*
X055491Y007083D01*
X055431Y007038D01*
X054673Y00628D01*
X046792D01*
X046718Y00627D01*
X046648Y006241D01*
X046589Y006195D01*
X044816Y004423D01*
X044767Y004429D01*
X044761Y004439D01*
X044702Y004498D01*
X044629Y00454D01*
X044549Y004561D01*
X044465D01*
X044384Y00454D01*
X044311Y004498D01*
X044301Y004488D01*
X042849D01*
X04283Y004534D01*
X043228Y004932D01*
X043281Y005011D01*
X0433Y005105D01*
Y007704D01*
X043811Y008215D01*
X043864Y008294D01*
X043883Y008388D01*
Y009684D01*
X043864Y009777D01*
X043857Y009788D01*
X043892Y009825D01*
X043901Y00982D01*
X044032Y009785D01*
X044168D01*
X044299Y00982D01*
X044416Y009888D01*
X044512Y009984D01*
X044535Y010024D01*
X044585Y01001D01*
Y009785D01*
X045458D01*
X045479Y009735D01*
X045231Y009487D01*
X045088D01*
X045073Y009496D01*
X044992Y009518D01*
X044908D01*
X044827Y009496D01*
X044755Y009455D01*
X044695Y009395D01*
X044654Y009323D01*
X044632Y009242D01*
Y009158D01*
X044654Y009077D01*
X044695Y009005D01*
X044755Y008945D01*
X044827Y008904D01*
X044908Y008882D01*
X044992D01*
X045073Y008904D01*
X045088Y008913D01*
X04535D01*
X045424Y008922D01*
X045494Y008951D01*
X045553Y008997D01*
X045816Y00926D01*
X045863Y009241D01*
Y008D01*
X045872Y007926D01*
X045901Y007856D01*
X045947Y007797D01*
X046147Y007597D01*
X046206Y007551D01*
X046276Y007522D01*
X04635Y007513D01*
X0536D01*
X053674Y007522D01*
X053744Y007551D01*
X053803Y007597D01*
X054647Y00844D01*
X054694Y008417D01*
X054685Y00835D01*
Y007759D01*
X054703Y00763D01*
X054752Y00751D01*
X054832Y007406D01*
X054935Y007327D01*
X055056Y007277D01*
X055185Y00726D01*
X055815D01*
X055944Y007277D01*
X056065Y007327D01*
X056168Y007406D01*
X056248Y00751D01*
X056297Y00763D01*
X056315Y007759D01*
Y00835D01*
X056297Y008479D01*
X056248Y0086D01*
X056168Y008703D01*
X056065Y008783D01*
X055944Y008833D01*
X055815Y00885D01*
X055185D01*
X055118Y008841D01*
X055095Y008888D01*
X055303Y009097D01*
X055349Y009156D01*
X055378Y009226D01*
X055387Y0093D01*
Y011062D01*
X055396Y011077D01*
X055418Y011158D01*
Y011242D01*
X055396Y011323D01*
X055355Y011395D01*
X055295Y011455D01*
X055223Y011496D01*
X055142Y011518D01*
X055058D01*
X054977Y011496D01*
X054905Y011455D01*
X054845Y011395D01*
X054804Y011323D01*
X054782Y011242D01*
Y011158D01*
X054804Y011077D01*
X054813Y011062D01*
Y009419D01*
X053481Y008087D01*
X049804D01*
Y009066D01*
X049843Y009098D01*
X04985Y009096D01*
X051D01*
X051078Y009112D01*
X051144Y009156D01*
X054044Y012056D01*
X054088Y012122D01*
X054104Y0122D01*
Y015111D01*
X054154Y015121D01*
X054185Y015045D01*
X054267Y014922D01*
X054372Y014817D01*
X054495Y014735D01*
X054631Y014679D01*
X054776Y01465D01*
X054924D01*
X055069Y014679D01*
X055205Y014735D01*
X055328Y014817D01*
X055433Y014922D01*
X055515Y015045D01*
X055571Y015181D01*
X0556Y015326D01*
Y015474D01*
X055571Y015619D01*
X055515Y015755D01*
X055433Y015878D01*
X055328Y015983D01*
X055205Y016065D01*
X055069Y016121D01*
X054924Y01615D01*
X054776D01*
X054631Y016121D01*
X054495Y016065D01*
X054372Y015983D01*
X054267Y015878D01*
X054185Y015755D01*
X054154Y015679D01*
X054104Y015689D01*
Y016D01*
X054088Y016078D01*
X054044Y016144D01*
X053844Y016344D01*
X053778Y016388D01*
X0537Y016404D01*
X05235D01*
X052272Y016388D01*
X052206Y016344D01*
X051791Y015929D01*
X051745Y015954D01*
X051754Y016D01*
X051738Y016078D01*
X051694Y016144D01*
X051494Y016344D01*
X051428Y016388D01*
X05135Y016404D01*
X04995D01*
X049872Y016388D01*
X049806Y016344D01*
X049656Y016194D01*
X049612Y016128D01*
X049596Y01605D01*
Y015084D01*
X049012Y0145D01*
X04852D01*
Y014008D01*
X048066Y013555D01*
X04802Y013574D01*
Y0145D01*
X04698D01*
Y013983D01*
X046655D01*
X046557Y01397D01*
X046466Y013933D01*
X046388Y013872D01*
X045121Y012606D01*
X043224D01*
Y012664D01*
X042387D01*
Y01335D01*
X041613D01*
Y012831D01*
X041608Y012808D01*
Y012704D01*
X041591Y012687D01*
X040989D01*
X04097Y012706D01*
Y013274D01*
X040961Y013343D01*
X040935Y013407D01*
X040892Y013462D01*
X040837Y013504D01*
X040773Y013531D01*
X040704Y01354D01*
X040596D01*
X040527Y013531D01*
X040463Y013504D01*
X040408Y013462D01*
X040392D01*
X040337Y013504D01*
X040273Y013531D01*
X040204Y01354D01*
X040096D01*
X040027Y013531D01*
X039963Y013504D01*
X039908Y013462D01*
X039892D01*
X039837Y013504D01*
X039773Y013531D01*
X039741Y013535D01*
X039623Y013653D01*
Y014309D01*
X039704D01*
X039773Y014318D01*
X039837Y014344D01*
X039892Y014387D01*
X039908D01*
X039963Y014344D01*
X040027Y014318D01*
X040096Y014309D01*
X040204D01*
X040273Y014318D01*
X040337Y014344D01*
X040392Y014387D01*
X040408D01*
X040463Y014344D01*
X040527Y014318D01*
X040596Y014309D01*
X040704D01*
X040773Y014318D01*
X040837Y014344D01*
X040892Y014387D01*
X040908D01*
X040963Y014344D01*
X041027Y014318D01*
X041096Y014309D01*
X041204D01*
X041273Y014318D01*
X041294Y014326D01*
X041422D01*
X041699Y014049D01*
X041704Y014032D01*
X041745Y013959D01*
X041805Y0139D01*
X041805Y0139D01*
X042195D01*
X042195Y0139D01*
X042255Y013959D01*
X042296Y014032D01*
X042318Y014113D01*
Y014197D01*
X042296Y014278D01*
X042255Y01435D01*
X042195Y014409D01*
X042123Y014451D01*
X042105Y014456D01*
X041744Y014817D01*
X041685Y014863D01*
X041615Y014891D01*
X041541Y014901D01*
X04147D01*
Y015223D01*
X041461Y015292D01*
X041435Y015356D01*
X041392Y015411D01*
X041337Y015453D01*
X041273Y01548D01*
X041204Y015489D01*
X041096D01*
X041027Y01548D01*
X041018Y015476D01*
X040968Y01551D01*
Y015542D01*
X040946Y015623D01*
X040923Y015663D01*
X040952Y015713D01*
X041831D01*
X042408Y015136D01*
Y014293D01*
X042399Y014278D01*
X042377Y014197D01*
Y014113D01*
X042399Y014032D01*
X042441Y013959D01*
X0425Y0139D01*
X0425Y0139D01*
X04289D01*
X042891Y0139D01*
X04295Y013959D01*
X042992Y014032D01*
X043013Y014113D01*
Y014197D01*
X042992Y014278D01*
X042983Y014293D01*
Y015255D01*
X042973Y015329D01*
X042944Y015398D01*
X042899Y015458D01*
X042153Y016203D01*
X042094Y016249D01*
X042024Y016278D01*
X04195Y016287D01*
X04025D01*
X040175Y016278D01*
X040106Y016249D01*
X040046Y016203D01*
X039947Y016104D01*
X039901Y016044D01*
X039872Y015975D01*
X039863Y0159D01*
Y015493D01*
X039813Y015464D01*
X039773Y01548D01*
X039704Y015489D01*
X039596D01*
X039527Y01548D01*
X039463Y015453D01*
X039408Y015411D01*
X039365Y015356D01*
X039339Y015292D01*
X039338Y015286D01*
X038749D01*
X038674Y015276D01*
X038605Y015248D01*
X038546Y015202D01*
X038345Y015001D01*
X038327Y014996D01*
X038255Y014955D01*
X038195Y014895D01*
X038154Y014823D01*
X038132Y014742D01*
Y014658D01*
X038154Y014577D01*
X038195Y014505D01*
X038255Y014445D01*
X038327Y014404D01*
X038408Y014382D01*
X038492D01*
X038573Y014404D01*
X038645Y014445D01*
X038705Y014505D01*
X038746Y014577D01*
X038751Y014595D01*
X038868Y014711D01*
X039015D01*
X039031Y014683D01*
X039038Y014661D01*
X039017Y014586D01*
Y014502D01*
X039039Y014421D01*
X039048Y014406D01*
Y013534D01*
X039058Y01346D01*
X039087Y01339D01*
X039132Y013331D01*
X03933Y013134D01*
Y012626D01*
X039339Y012557D01*
X039365Y012493D01*
X039408Y012438D01*
X039463Y012396D01*
X039527Y012369D01*
X039596Y01236D01*
X039704D01*
X039726Y012363D01*
X039777Y012319D01*
X039785Y012257D01*
X039822Y012166D01*
X039883Y012088D01*
X04009Y01188D01*
X040169Y01182D01*
X04026Y011782D01*
X040358Y011769D01*
X040482D01*
X040482Y011769D01*
Y011685D01*
X040504Y011604D01*
X040545Y011532D01*
X040605Y011472D01*
X040677Y01143D01*
X040758Y011409D01*
X040842D01*
X040923Y01143D01*
X040995Y011472D01*
X041028Y011505D01*
X043238D01*
X043267Y011455D01*
X043254Y011433D01*
X043232Y011352D01*
Y011268D01*
X043254Y011187D01*
X043295Y011115D01*
X043305Y011105D01*
Y009772D01*
X043324Y009678D01*
X043377Y009599D01*
X043393Y009582D01*
Y008489D01*
X042882Y007978D01*
X042829Y007899D01*
X04281Y007805D01*
Y005206D01*
X042211Y004607D01*
X042128D01*
X042109Y004653D01*
X042453Y004997D01*
X042499Y005056D01*
X042528Y005126D01*
X042537Y0052D01*
Y007881D01*
X042955Y008299D01*
X042973Y008304D01*
X043045Y008345D01*
X043105Y008405D01*
X043146Y008477D01*
X043168Y008558D01*
Y008642D01*
X043146Y008723D01*
X043105Y008795D01*
X043045Y008855D01*
X042973Y008896D01*
X04296Y0089D01*
Y008979D01*
X042939Y00906D01*
X042897Y009133D01*
X042837Y009192D01*
X042765Y009234D01*
X042684Y009256D01*
X04267D01*
X042345Y009581D01*
Y009847D01*
X042416Y009888D01*
X042512Y009984D01*
X04258Y010101D01*
X042615Y010232D01*
Y010368D01*
X04258Y010499D01*
X042512Y010616D01*
X042416Y010712D01*
X042299Y01078D01*
X042168Y010815D01*
X042032D01*
X041901Y01078D01*
X041784Y010712D01*
X041688Y010616D01*
X04162Y010499D01*
X041585Y010368D01*
Y010232D01*
X04162Y010101D01*
X041688Y009984D01*
X041784Y009888D01*
X041855Y009847D01*
Y009767D01*
X041809Y009747D01*
X040326Y01123D01*
X040267Y011276D01*
X040198Y011304D01*
X040123Y011314D01*
X038738D01*
X038723Y011323D01*
X038642Y011345D01*
X038558D01*
X038477Y011323D01*
X038462Y011314D01*
X037295D01*
X037282Y011364D01*
X037319Y011386D01*
X037379Y011445D01*
X03742Y011518D01*
X037442Y011599D01*
Y011682D01*
X03742Y011763D01*
X037379Y011836D01*
X037319Y011895D01*
X037247Y011937D01*
X037166Y011959D01*
X037082D01*
X037001Y011937D01*
X036986Y011928D01*
X036514D01*
X036499Y011937D01*
X036418Y011959D01*
X036334D01*
X036253Y011937D01*
X036181Y011895D01*
X036121Y011836D01*
X03608Y011763D01*
X036058Y011682D01*
Y011599D01*
X03608Y011518D01*
X036121Y011445D01*
X036181Y011386D01*
X036218Y011364D01*
X036205Y011314D01*
X033992D01*
X033651Y011655D01*
X033646Y011673D01*
X033637Y011688D01*
Y012712D01*
X033646Y012727D01*
X033668Y012808D01*
Y012892D01*
X033646Y012973D01*
X033605Y013045D01*
X03358Y01307D01*
X033723Y013214D01*
X033776Y013293D01*
X033795Y013387D01*
Y013645D01*
X033805Y013655D01*
X033846Y013727D01*
X033868Y013808D01*
Y013892D01*
X033846Y013973D01*
X033805Y014045D01*
X033745Y014105D01*
X033673Y014146D01*
X033592Y014168D01*
X033508D01*
X033427Y014146D01*
X033355Y014105D01*
X033295Y014045D01*
X033254Y013973D01*
X033232Y013892D01*
Y013808D01*
X033254Y013727D01*
X033295Y013655D01*
X033305Y013645D01*
Y013488D01*
X031327Y01151D01*
X031277Y011496D01*
X031218Y011462D01*
X031168Y011483D01*
Y011492D01*
X031146Y011573D01*
X031137Y011588D01*
Y01315D01*
X031128Y013225D01*
X031099Y013294D01*
X031053Y013354D01*
X030954Y013453D01*
X030894Y013499D01*
X030825Y013528D01*
X03075Y013537D01*
X030665D01*
Y013765D01*
X02965D01*
Y01665D01*
X0593D01*
Y00285D01*
D02*
G37*
G36*
X030563Y011636D02*
X030513Y011616D01*
X030466Y011662D01*
X030349Y01173D01*
X030218Y011765D01*
X030082D01*
X029951Y01173D01*
X029834Y011662D01*
X029738Y011566D01*
X0297Y011501D01*
X02965Y011514D01*
Y012735D01*
X030563D01*
Y011636D01*
D02*
G37*
G36*
X0539Y016D02*
Y0122D01*
X051Y0093D01*
X04985D01*
Y0121D01*
X0519Y01415D01*
Y01575D01*
X05235Y0162D01*
X0537D01*
X0539Y016D01*
D02*
G37*
G36*
X05155D02*
X0515Y01595D01*
Y0141D01*
X0496Y0122D01*
Y008D01*
X0465D01*
Y0117D01*
X0498Y015D01*
Y01605D01*
X04995Y0162D01*
X05135D01*
X05155Y016D01*
D02*
G37*
%LPC*%
G36*
X057065Y016365D02*
X056035D01*
Y015335D01*
X057065D01*
Y016365D01*
D02*
G37*
G36*
X031188Y016289D02*
X031012D01*
X030841Y016255D01*
X030679Y016188D01*
X030533Y016091D01*
X030409Y015967D01*
X030312Y015821D01*
X030245Y015659D01*
X030211Y015488D01*
Y015312D01*
X030245Y015141D01*
X030312Y014979D01*
X030409Y014833D01*
X030533Y014709D01*
X030679Y014612D01*
X030841Y014545D01*
X031012Y014511D01*
X031188D01*
X031359Y014545D01*
X031521Y014612D01*
X031667Y014709D01*
X031791Y014833D01*
X031888Y014979D01*
X031955Y015141D01*
X031989Y015312D01*
Y015488D01*
X031955Y015659D01*
X031888Y015821D01*
X031791Y015967D01*
X031667Y016091D01*
X031521Y016188D01*
X031359Y016255D01*
X031188Y016289D01*
D02*
G37*
G36*
X037292Y016118D02*
X037208D01*
X037127Y016096D01*
X037055Y016055D01*
X036995Y015995D01*
X036954Y015923D01*
X036932Y015842D01*
Y015758D01*
X036954Y015677D01*
X036995Y015605D01*
X037055Y015545D01*
X037127Y015504D01*
X037145Y015499D01*
X037208Y015436D01*
Y013488D01*
X037199Y013473D01*
X037177Y013392D01*
Y013308D01*
X037199Y013227D01*
X037241Y013155D01*
X0373Y013095D01*
X037372Y013054D01*
X037453Y013032D01*
X037537D01*
X037618Y013054D01*
X037691Y013095D01*
X03775Y013155D01*
X037792Y013227D01*
X037813Y013308D01*
Y013392D01*
X037792Y013473D01*
X037783Y013488D01*
Y015555D01*
X037773Y015629D01*
X037744Y015698D01*
X037699Y015758D01*
X037551Y015905D01*
X037546Y015923D01*
X037505Y015995D01*
X037445Y016055D01*
X037373Y016096D01*
X037292Y016118D01*
D02*
G37*
G36*
X057688Y010539D02*
X057512D01*
X057341Y010505D01*
X057179Y010438D01*
X057033Y010341D01*
X056909Y010217D01*
X056812Y010071D01*
X056745Y009909D01*
X056711Y009738D01*
Y009562D01*
X056745Y009391D01*
X056812Y009229D01*
X056909Y009083D01*
X057033Y008959D01*
X057179Y008862D01*
X057341Y008795D01*
X057512Y008761D01*
X057688D01*
X057859Y008795D01*
X058021Y008862D01*
X058167Y008959D01*
X058291Y009083D01*
X058388Y009229D01*
X058455Y009391D01*
X058489Y009562D01*
Y009738D01*
X058455Y009909D01*
X058388Y010071D01*
X058291Y010217D01*
X058167Y010341D01*
X058021Y010438D01*
X057859Y010505D01*
X057688Y010539D01*
D02*
G37*
G36*
X044588Y008139D02*
X044412D01*
X044241Y008105D01*
X044079Y008038D01*
X043933Y007941D01*
X043809Y007817D01*
X043712Y007671D01*
X043645Y007509D01*
X043611Y007338D01*
Y007162D01*
X043645Y006991D01*
X043712Y006829D01*
X043809Y006683D01*
X043933Y006559D01*
X044079Y006462D01*
X044241Y006395D01*
X044412Y006361D01*
X044588D01*
X044759Y006395D01*
X044921Y006462D01*
X045067Y006559D01*
X045191Y006683D01*
X045288Y006829D01*
X045355Y006991D01*
X045389Y007162D01*
Y007338D01*
X045355Y007509D01*
X045288Y007671D01*
X045191Y007817D01*
X045067Y007941D01*
X044921Y008038D01*
X044759Y008105D01*
X044588Y008139D01*
D02*
G37*
G36*
X048609Y0042D02*
X048491D01*
X048376Y004169D01*
X048274Y00411D01*
X04819Y004026D01*
X048131Y003924D01*
X0481Y003809D01*
Y003691D01*
X048131Y003576D01*
X04819Y003474D01*
X048274Y00339D01*
X048376Y003331D01*
X048491Y0033D01*
X048609D01*
X048724Y003331D01*
X048826Y00339D01*
X04891Y003474D01*
X048969Y003576D01*
X049Y003691D01*
Y003809D01*
X048969Y003924D01*
X04891Y004026D01*
X048826Y00411D01*
X048724Y004169D01*
X048609Y0042D01*
D02*
G37*
%LPD*%
D17*
X043055Y005105D02*
Y007805D01*
X042312Y004362D02*
X043055Y005105D01*
Y007805D02*
X043638Y008388D01*
X03705Y0089D02*
X03735Y0086D01*
X0314Y0089D02*
X03705D01*
X03809Y004184D02*
Y004316D01*
Y004184D02*
X038474Y0038D01*
X0379Y004506D02*
X03809Y004316D01*
X038474Y0038D02*
X0417D01*
X038856Y0042D02*
X042376D01*
X04242Y004243D01*
X044507D01*
X0366Y003904D02*
Y0045D01*
Y003904D02*
X036954Y00355D01*
X0372Y004506D02*
X037438Y004744D01*
X038106D02*
X03825Y0046D01*
X037438Y004744D02*
X038106D01*
X0401Y00565D02*
X0409Y00645D01*
X0331Y0086D02*
X03605Y00565D01*
X0401D01*
X03825Y00425D02*
Y0046D01*
Y00425D02*
X03846Y00404D01*
X041802D01*
X041926Y003915D02*
X04325D01*
X04145Y00515D02*
X0419Y0056D01*
Y0067D01*
X040884Y007716D02*
X0419Y0067D01*
X040884Y007716D02*
Y009865D01*
X041802Y00404D02*
X041926Y003915D01*
X0409Y00645D02*
Y0069D01*
X040658Y006847D02*
Y009492D01*
X040144Y006333D02*
X040658Y006847D01*
X0402Y00995D02*
X040658Y009492D01*
X03865Y0071D02*
X039287D01*
X0373Y00725D02*
X03755D01*
X03655Y0065D02*
X0373Y00725D01*
X040342Y0045D02*
X04048Y004362D01*
X042312D01*
X0403Y0045D02*
X040342D01*
X03855Y004506D02*
X038856Y0042D01*
X0421Y00948D02*
X042642Y008938D01*
X0421Y00948D02*
Y01045D01*
X043638Y008388D02*
Y009684D01*
X04355Y009772D02*
X043638Y009684D01*
X04355Y009772D02*
Y01131D01*
X040823Y01175D02*
X04694D01*
X0476Y01241D01*
X0408Y011727D02*
X040823Y01175D01*
X03355Y013387D02*
Y01385D01*
X0314Y011237D02*
X03355Y013387D01*
X0314Y0112D02*
Y011237D01*
X0324Y0086D02*
X0331D01*
X039712Y006799D02*
Y007188D01*
X039612Y006699D02*
X039712Y006799D01*
X039287Y0071D02*
X040112Y007926D01*
X040338Y008151D02*
Y009212D01*
X040112Y007926D02*
X040112D01*
X040338Y008151D01*
X039612Y006191D02*
X03966Y006142D01*
X039612Y006191D02*
Y006699D01*
X03966Y0061D02*
Y006142D01*
X041692Y012442D02*
X041853Y012603D01*
X040888Y012442D02*
X041692D01*
X04065Y01268D02*
Y01295D01*
Y01268D02*
X040888Y012442D01*
X041853Y012808D02*
X042Y012955D01*
X041853Y012603D02*
Y012808D01*
X0399Y00965D02*
X040338Y009212D01*
X03565Y00715D02*
X036066Y007566D01*
X03755D01*
X036958Y00835D02*
X037058Y00825D01*
X0371D01*
X0357Y00835D02*
X036958D01*
D30*
X042Y012955D02*
D03*
Y013545D02*
D03*
D83*
X04115D02*
Y013924D01*
X042Y013545D02*
X044645D01*
X04115D02*
X042D01*
X0453Y0142D02*
Y0155D01*
X044645Y013545D02*
X0453Y0142D01*
X0476Y00915D02*
Y01241D01*
X04797Y01278D02*
X04904Y01385D01*
X0476Y01241D02*
X04797Y01278D01*
X04015Y012355D02*
X040358Y012147D01*
X04244D01*
X04015Y012355D02*
Y01295D01*
X04246Y012167D02*
X042687D01*
X04244Y012147D02*
X04246Y012167D01*
X042687D02*
X042749Y012228D01*
X045278D01*
X0453Y01225D01*
X046655Y013605D01*
X052715Y015265D02*
X05285Y0154D01*
X05035Y01005D02*
Y01235D01*
X052715Y014715D02*
Y015265D01*
X05035Y01235D02*
X052715Y014715D01*
X0505Y0142D02*
Y0154D01*
X05015Y01385D02*
X0505Y0142D01*
X04904Y01385D02*
X05015D01*
X04115Y01295D02*
Y013545D01*
X0404Y013924D02*
X04115D01*
X042443Y013523D02*
X042648Y013318D01*
Y013037D02*
Y013318D01*
Y013037D02*
X042709Y012976D01*
X042749D01*
X0475Y01375D02*
Y01385D01*
X046655Y013605D02*
X047355D01*
X0475Y01375D01*
D84*
X04285Y008086D02*
X043387Y008623D01*
Y008915D01*
X0434Y008928D01*
X0563Y01285D02*
X05645Y0127D01*
X057287D01*
X04165Y0046D02*
X04225Y0052D01*
Y008D02*
X04285Y0086D01*
X04225Y0052D02*
Y008D01*
X042537Y008613D02*
X042837D01*
X033873Y011027D02*
X0386D01*
X042837Y008613D02*
X04285Y0086D01*
X0386Y011027D02*
X040123D01*
X042537Y008613D01*
X03335Y01155D02*
X033873Y011027D01*
X0456Y00335D02*
X047116Y004866D01*
X04215Y00335D02*
X0456D01*
X0417Y0038D02*
X04215Y00335D01*
X04325Y003915D02*
Y003933D01*
X0451Y00365D02*
X047Y00555D01*
X0426Y00365D02*
X0451D01*
X04325Y003915D02*
X044715D01*
X046792Y005992D01*
X047116Y004866D02*
X052744D01*
X047Y00555D02*
X0546D01*
X046792Y005992D02*
X054792D01*
X035635Y005015D02*
X038299D01*
X03295Y00825D02*
X035935Y005265D01*
X039202D02*
X039444Y005023D01*
X0334Y00725D02*
X035635Y005015D01*
X039444Y005023D02*
X039462D01*
X035935Y005265D02*
X039202D01*
X038299Y005015D02*
X038465Y004849D01*
X039198D01*
X055634Y006834D02*
X058453D01*
X054792Y005992D02*
X055634Y006834D01*
X04065Y00565D02*
X0416D01*
X039506Y004506D02*
X04065Y00565D01*
X0461Y006476D02*
X048988D01*
X039137Y004506D02*
X039506D01*
X048988Y006476D02*
X052257D01*
X0546Y00555D02*
X055284Y004866D01*
X0431Y009228D02*
X0434Y008928D01*
X0431Y009228D02*
Y0103D01*
X046Y011432D02*
Y01145D01*
X0458Y011232D02*
X046Y011432D01*
X0458Y00965D02*
Y011232D01*
X037196Y012154D02*
X037196D01*
X036433Y012917D02*
Y0147D01*
Y012917D02*
X037196Y012154D01*
X052615Y006834D02*
X052744D01*
X052257Y006476D02*
X052615Y006834D01*
X03085Y01145D02*
Y01315D01*
X03015Y01325D02*
X03075D01*
X03085Y01315D01*
X04635Y0078D02*
X0536D01*
X04615Y008D02*
Y01105D01*
Y008D02*
X04635Y0078D01*
X04535Y0092D02*
X0458Y00965D01*
X036376Y011641D02*
X037124D01*
X04495Y0092D02*
X04535D01*
X0551Y0093D02*
Y0112D01*
X0536Y0078D02*
X0551Y0093D01*
X03015Y00825D02*
X03295D01*
X03015Y00925D02*
X038266D01*
X03925Y008266D01*
X055284Y004866D02*
X058453D01*
X037196Y012154D02*
X037925Y011425D01*
X038832Y009511D02*
X039907Y008435D01*
X038792Y009511D02*
X038832D01*
X040062Y00825D02*
Y008268D01*
X039907Y008423D02*
Y008435D01*
Y008423D02*
X040062Y008268D01*
X037925Y011425D02*
X042125D01*
X0431Y01045D01*
X0377Y01025D02*
X039624Y008326D01*
Y008318D02*
Y008326D01*
X037553Y01075D02*
X038792Y009511D01*
X03065Y01075D02*
X037553D01*
X03015Y01025D02*
X0377D01*
X03015Y01125D02*
X03065Y01075D01*
X03335Y01155D02*
Y01285D01*
X03015Y00725D02*
X0334D01*
X0359Y015233D02*
X036433Y0147D01*
X03725Y0158D02*
X037495Y015555D01*
Y01335D02*
Y015555D01*
X038749Y014999D02*
X03965D01*
X03975D01*
X03845Y0147D02*
X038749Y014999D01*
X03965Y014899D02*
X0397Y014949D01*
X039336Y013534D02*
X03965Y01322D01*
Y01295D02*
Y01322D01*
X039336Y013534D02*
Y014544D01*
X04065Y014899D02*
Y0155D01*
X04015Y0159D02*
X04025Y016D01*
X04195D01*
X042695Y015255D01*
X04015Y014899D02*
Y0159D01*
X042695Y014155D02*
Y015255D01*
X04115Y014647D02*
X041183Y014614D01*
X041541D01*
X042Y014155D01*
X04115Y014647D02*
Y014899D01*
D85*
X0451Y0103D02*
D03*
X05655Y01585D02*
D03*
D86*
X0441Y0103D02*
D03*
X0431D02*
D03*
X0421D02*
D03*
X05755Y01585D02*
D03*
X03025Y00625D02*
D03*
Y00725D02*
D03*
Y00825D02*
D03*
Y00925D02*
D03*
Y01025D02*
D03*
Y01125D02*
D03*
Y01225D02*
D03*
D87*
X0576Y00965D02*
D03*
X0445Y00725D02*
D03*
X0311Y0154D02*
D03*
D88*
X05285D02*
D03*
X05485D02*
D03*
X0485D02*
D03*
X0505D02*
D03*
D89*
X03025Y01325D02*
D03*
D90*
X0555Y008055D02*
D03*
Y003645D02*
D03*
D91*
X052744Y006834D02*
D03*
Y004866D02*
D03*
X058453Y006834D02*
D03*
Y00585D02*
D03*
Y004866D02*
D03*
D92*
X0347Y00495D02*
D03*
D93*
X0317Y004945D02*
D03*
D94*
X057218Y003801D02*
D03*
X0574Y00785D02*
D03*
X056033Y009606D02*
D03*
X058574Y014569D02*
D03*
X034719Y01256D02*
D03*
X03195Y01405D02*
D03*
X0347Y016D02*
D03*
X0359Y015233D02*
D03*
X04445Y01495D02*
D03*
X0461Y0145D02*
D03*
X0433Y016D02*
D03*
X0467Y0161D02*
D03*
X043942Y013573D02*
D03*
X0327Y00385D02*
D03*
X0352Y0033D02*
D03*
X03045Y0042D02*
D03*
X04855Y00375D02*
D03*
X0519D02*
D03*
D95*
X0453Y015013D02*
D03*
X04555D02*
D03*
Y015513D02*
D03*
X0453D02*
D03*
X04555Y015263D02*
D03*
X0453D02*
D03*
X04555Y016013D02*
D03*
X0453D02*
D03*
Y015513D02*
D03*
X04555D02*
D03*
X0453Y015763D02*
D03*
X04555D02*
D03*
X0409Y013924D02*
D03*
Y014174D02*
D03*
X0404D02*
D03*
Y013924D02*
D03*
X04065Y014174D02*
D03*
Y013924D02*
D03*
X0399Y014174D02*
D03*
Y013924D02*
D03*
X0404D02*
D03*
Y014174D02*
D03*
X04015Y013924D02*
D03*
Y014174D02*
D03*
X0399Y013924D02*
D03*
Y013674D02*
D03*
X0404D02*
D03*
Y013924D02*
D03*
X04015Y013674D02*
D03*
Y013924D02*
D03*
X0409Y013674D02*
D03*
Y013924D02*
D03*
X0404D02*
D03*
Y013674D02*
D03*
X04065Y013924D02*
D03*
Y013674D02*
D03*
X0453Y0155D02*
D03*
X04285Y008086D02*
D03*
X0563Y01285D02*
D03*
X057287Y0127D02*
D03*
X04285Y0086D02*
D03*
X0386Y011027D02*
D03*
X04325Y003933D02*
D03*
X0426Y00365D02*
D03*
X0417Y0038D02*
D03*
X044507Y004243D02*
D03*
X0366Y0045D02*
D03*
X036954Y00355D02*
D03*
X0379Y004506D02*
D03*
X0372D02*
D03*
X04145Y00515D02*
D03*
X040884Y009865D02*
D03*
X0409Y0069D02*
D03*
X0461Y006476D02*
D03*
X03865Y0071D02*
D03*
X03655Y0065D02*
D03*
X0403Y0045D02*
D03*
X039137Y004506D02*
D03*
X03855D02*
D03*
X042642Y008938D02*
D03*
X0434Y008928D02*
D03*
X046Y01145D02*
D03*
X048988Y006476D02*
D03*
X03085Y01145D02*
D03*
X03355Y01385D02*
D03*
X0314Y0112D02*
D03*
X04615Y01105D02*
D03*
X036376Y011641D02*
D03*
X037124D02*
D03*
X05035Y01005D02*
D03*
Y0103D02*
D03*
Y0098D02*
D03*
X0506D02*
D03*
Y0103D02*
D03*
Y01005D02*
D03*
X05085Y0098D02*
D03*
Y0103D02*
D03*
Y01005D02*
D03*
X05035Y0098D02*
D03*
Y01005D02*
D03*
Y00955D02*
D03*
X0506D02*
D03*
Y01005D02*
D03*
Y0098D02*
D03*
X05085Y00955D02*
D03*
Y01005D02*
D03*
Y0098D02*
D03*
X0501D02*
D03*
Y01005D02*
D03*
Y00955D02*
D03*
X05035D02*
D03*
Y01005D02*
D03*
Y0098D02*
D03*
X0506Y00955D02*
D03*
Y01005D02*
D03*
Y0098D02*
D03*
X0501Y01005D02*
D03*
Y0103D02*
D03*
Y0098D02*
D03*
X05035D02*
D03*
Y0103D02*
D03*
Y01005D02*
D03*
X0506Y0098D02*
D03*
Y0103D02*
D03*
Y01005D02*
D03*
X0486Y0084D02*
D03*
D03*
Y00865D02*
D03*
Y0084D02*
D03*
Y0089D02*
D03*
Y00915D02*
D03*
Y0099D02*
D03*
Y01015D02*
D03*
Y00965D02*
D03*
Y0094D02*
D03*
Y0084D02*
D03*
D03*
D03*
X04835D02*
D03*
D03*
Y00865D02*
D03*
Y0084D02*
D03*
Y0089D02*
D03*
Y00915D02*
D03*
Y0099D02*
D03*
Y01015D02*
D03*
Y00965D02*
D03*
Y0094D02*
D03*
Y0084D02*
D03*
D03*
D03*
X0481D02*
D03*
D03*
Y00865D02*
D03*
Y0084D02*
D03*
Y0089D02*
D03*
Y00915D02*
D03*
Y0099D02*
D03*
Y01015D02*
D03*
Y00965D02*
D03*
Y0094D02*
D03*
Y0084D02*
D03*
D03*
D03*
X0471D02*
D03*
D03*
Y00865D02*
D03*
Y0084D02*
D03*
Y0089D02*
D03*
Y00915D02*
D03*
Y0099D02*
D03*
Y01015D02*
D03*
Y00965D02*
D03*
Y0094D02*
D03*
Y0084D02*
D03*
D03*
D03*
X04685D02*
D03*
D03*
Y00865D02*
D03*
Y0084D02*
D03*
Y0089D02*
D03*
Y00915D02*
D03*
Y0099D02*
D03*
Y01015D02*
D03*
Y00965D02*
D03*
Y0094D02*
D03*
Y0084D02*
D03*
D03*
D03*
X0471D02*
D03*
X04685D02*
D03*
X0471D02*
D03*
X04685D02*
D03*
X04735D02*
D03*
X0471D02*
D03*
X04735D02*
D03*
D03*
X04685D02*
D03*
X0486D02*
D03*
D03*
X04835D02*
D03*
X0486D02*
D03*
X04835D02*
D03*
D03*
X0481D02*
D03*
X04835D02*
D03*
X0481D02*
D03*
X04835D02*
D03*
X04785D02*
D03*
X0481D02*
D03*
X04785D02*
D03*
D03*
X04835D02*
D03*
X04785Y0094D02*
D03*
Y00965D02*
D03*
Y01015D02*
D03*
Y0099D02*
D03*
Y00915D02*
D03*
Y0089D02*
D03*
Y0084D02*
D03*
Y00865D02*
D03*
X04735Y0094D02*
D03*
Y00965D02*
D03*
Y01015D02*
D03*
Y0099D02*
D03*
Y00915D02*
D03*
Y0089D02*
D03*
Y0084D02*
D03*
Y00865D02*
D03*
Y0084D02*
D03*
X0476D02*
D03*
X04735D02*
D03*
X04785D02*
D03*
X0476D02*
D03*
X04785D02*
D03*
X0476Y00865D02*
D03*
Y0084D02*
D03*
Y0089D02*
D03*
Y00865D02*
D03*
Y00915D02*
D03*
Y0089D02*
D03*
Y0099D02*
D03*
Y01015D02*
D03*
Y00965D02*
D03*
Y0099D02*
D03*
Y0094D02*
D03*
Y00965D02*
D03*
Y0094D02*
D03*
X0551Y0112D02*
D03*
X04495Y0092D02*
D03*
X0324Y0086D02*
D03*
X04355Y01131D02*
D03*
X037925Y011425D02*
D03*
X0402Y00995D02*
D03*
X040062Y00825D02*
D03*
X039712Y007188D02*
D03*
X040144Y006333D02*
D03*
X03966Y0061D02*
D03*
X0408Y011727D02*
D03*
X0314Y0089D02*
D03*
X03735Y0086D02*
D03*
X03755Y00725D02*
D03*
X039624Y008318D02*
D03*
X039462Y005023D02*
D03*
X03925Y008266D02*
D03*
X03755Y007566D02*
D03*
X039198Y004849D02*
D03*
X0371Y00825D02*
D03*
X0399Y00965D02*
D03*
X0416Y00565D02*
D03*
X04165Y0046D02*
D03*
X03335Y01155D02*
D03*
X0476Y00915D02*
D03*
X05035Y01005D02*
D03*
X03565Y00715D02*
D03*
X0357Y00835D02*
D03*
X0359Y015233D02*
D03*
X03335Y01285D02*
D03*
X03725Y0158D02*
D03*
X037495Y01335D02*
D03*
X0397Y01515D02*
D03*
X03845Y0147D02*
D03*
X039336Y014544D02*
D03*
X04065Y0155D02*
D03*
X042695Y014155D02*
D03*
X042D02*
D03*
X0404Y013924D02*
D03*
X0453Y01225D02*
D03*
D96*
X03965Y014899D02*
D03*
X04015D02*
D03*
X04065D02*
D03*
X04115D02*
D03*
Y01295D02*
D03*
X04065D02*
D03*
X04015D02*
D03*
X03965D02*
D03*
D97*
X0404Y013924D02*
D03*
D98*
X042749Y012976D02*
D03*
Y012228D02*
D03*
D99*
X0475Y01385D02*
D03*
X04904D02*
D03*
M02*
