G04*
G04 #@! TF.GenerationSoftware,Altium Limited,Altium Designer,21.3.2 (30)*
G04*
G04 Layer_Color=65535*
%FSTAX24Y24*%
%MOIN*%
G70*
G04*
G04 #@! TF.SameCoordinates,A4DC8701-BC22-4BCE-B91D-7DEF39426184*
G04*
G04*
G04 #@! TF.FilePolarity,Positive*
G04*
G01*
G75*
%ADD10C,0.0098*%
%ADD11C,0.0079*%
%ADD12C,0.0050*%
%ADD13C,0.0070*%
%ADD14C,0.0157*%
%ADD15C,0.0039*%
%ADD16C,0.0236*%
%ADD17C,0.0080*%
%ADD18C,0.0100*%
%ADD19C,0.0040*%
%ADD20R,0.1000X0.0500*%
G36*
X0495Y01455D02*
X04975Y0148D01*
X0496D01*
Y01505D01*
X0494D01*
Y0148D01*
X04925D01*
X0495Y01455D01*
D02*
G37*
G36*
X05385D02*
X0541Y0148D01*
X05395D01*
Y01505D01*
X05375D01*
Y0148D01*
X0536D01*
X05385Y01455D01*
D02*
G37*
D10*
X038432Y008617D02*
G03*
X038432Y008617I-000049J0D01*
G01*
X037508Y011641D02*
G03*
X037508Y011641I-000049J0D01*
G01*
X03208Y010608D02*
G03*
X03208Y010608I-000049J0D01*
G01*
X04835Y00695D02*
G03*
X04835Y00695I-000049J0D01*
G01*
X057361Y010826D02*
G03*
X057361Y010826I-000049J0D01*
G01*
X03365Y00815D02*
G03*
X03365Y00815I-000049J0D01*
G01*
D11*
X040389Y015475D02*
G03*
X040389Y015475I-000039J0D01*
G01*
X0416Y0098D02*
Y0108D01*
X0456D01*
X0416Y0098D02*
X0456D01*
Y0108D01*
X0446Y0098D02*
Y0108D01*
X03856Y00844D02*
X04104D01*
Y00596D02*
Y00844D01*
X03856Y00596D02*
X04104D01*
X03856D02*
Y00844D01*
X0378Y0125D02*
Y015426D01*
Y0125D02*
X037987D01*
X0378Y015426D02*
X03835D01*
X038913Y0125D02*
X0391D01*
X03835Y01535D02*
Y015426D01*
X0378Y01535D02*
X03835D01*
X03855D02*
X0391D01*
X03855D02*
Y015426D01*
X0391Y0125D02*
Y015426D01*
X03855D02*
X0391D01*
X038253Y014107D02*
X038647D01*
X038293Y013832D02*
X03845Y014107D01*
X038647Y013832D01*
X038293D02*
X038647D01*
X03845Y014107D02*
Y014147D01*
Y013753D02*
Y013832D01*
X032031Y011199D02*
X034669D01*
X032031Y012301D02*
X034669D01*
X032031Y011199D02*
Y012301D01*
X034669Y011199D02*
Y012301D01*
X0525Y007724D02*
Y01065D01*
X052313D02*
X0525D01*
X05195Y007724D02*
X0525D01*
X0512Y01065D02*
X051387D01*
X05195Y007724D02*
Y0078D01*
X0525D01*
X0512D02*
X05175D01*
Y007724D02*
Y0078D01*
X0512Y007724D02*
Y01065D01*
Y007724D02*
X05175D01*
X051653Y009043D02*
X052047D01*
X05185D02*
X052007Y009318D01*
X051653D02*
X05185Y009043D01*
X051653Y009318D02*
X052007D01*
X05185Y009003D02*
Y009043D01*
Y009318D02*
Y009397D01*
X05605Y01635D02*
X05805D01*
X05605Y01535D02*
Y01635D01*
Y01535D02*
X05805D01*
Y01635D01*
X03075Y00575D02*
Y01375D01*
X02975D02*
X03075D01*
X02975Y00575D02*
Y01375D01*
Y00575D02*
X03075D01*
X02975Y01275D02*
X03075D01*
X058098Y003409D02*
Y00457D01*
Y00713D02*
Y008291D01*
X056248Y003409D02*
X058098D01*
X052902D02*
X054752D01*
X052902D02*
Y004433D01*
Y005299D02*
Y006401D01*
Y007267D02*
Y008291D01*
X054752D01*
X056248D02*
X058098D01*
X056859Y010946D02*
Y012954D01*
X055541Y010946D02*
Y012954D01*
Y010946D02*
X056859D01*
X055541Y012954D02*
X056859D01*
D12*
X051439Y010833D02*
G03*
X051439Y010833I-000049J0D01*
G01*
X0505Y010753D02*
G03*
X0501Y010753I-0002J0D01*
G01*
X05419Y01086D02*
X05431D01*
X05419Y01054D02*
X05431D01*
X041084Y01512D02*
X041492D01*
Y01268D02*
Y01512D01*
X041084Y01268D02*
X041492D01*
X039208Y01512D02*
X039616D01*
X039208Y01268D02*
Y01512D01*
Y01268D02*
X039616D01*
X0494Y010753D02*
X0512Y010753D01*
X0494Y013073D02*
X0512D01*
X0512Y012883D01*
X0512Y010933D02*
X0512Y010753D01*
X0494Y012873D02*
X0494Y013073D01*
Y010753D02*
Y010933D01*
X04719Y00681D02*
X04731D01*
X04719Y00649D02*
X04731D01*
X040076Y01206D02*
X040196D01*
X040076Y01174D02*
X040196D01*
X03966Y01029D02*
Y01041D01*
X03934Y01029D02*
Y01041D01*
X04036Y01029D02*
Y01041D01*
X04004Y01029D02*
Y01041D01*
X04106Y01029D02*
Y01041D01*
X04074Y01029D02*
Y01041D01*
X04154Y00419D02*
Y00431D01*
X04186Y00419D02*
Y00431D01*
X033126Y015413D02*
X033246D01*
X033126Y015093D02*
X033246D01*
X04341Y00419D02*
Y00431D01*
X04309Y00419D02*
Y00431D01*
X04266Y00419D02*
Y00431D01*
X04234Y00419D02*
Y00431D01*
X04759Y01149D02*
X04771D01*
X04759Y01181D02*
X04771D01*
X04421Y00419D02*
Y00431D01*
X04389Y00419D02*
Y00431D01*
X038726Y01174D02*
X038846D01*
X038726Y01206D02*
X038846D01*
X05836Y01134D02*
Y01146D01*
X05804Y01134D02*
Y01146D01*
X05836Y01259D02*
Y01271D01*
X05804Y01259D02*
Y01271D01*
X04719Y00719D02*
X04731D01*
X04719Y00751D02*
X04731D01*
X03249Y00754D02*
X03261D01*
X03249Y00786D02*
X03261D01*
D13*
X052452Y014946D02*
G03*
X052398Y015I000398J000454D01*
G01*
X054914Y01388D02*
G03*
X054914Y01388I-000064J0D01*
G01*
X052894Y01387D02*
G03*
X052894Y01387I-000064J0D01*
G01*
X05446Y014939D02*
G03*
X054398Y015I00039J000461D01*
G01*
X048102Y014946D02*
G03*
X048048Y015I000398J000454D01*
G01*
X050564Y01388D02*
G03*
X050564Y01388I-000064J0D01*
G01*
X048544Y01387D02*
G03*
X048544Y01387I-000064J0D01*
G01*
X05011Y014939D02*
G03*
X050048Y015I00039J000461D01*
G01*
X05185Y0134D02*
Y01355D01*
X05195D01*
X05185Y0134D02*
X05585D01*
X05185Y015D02*
Y01619D01*
Y0164D02*
X05585D01*
X052425Y014975D02*
X05327Y01582D01*
X05383Y01468D02*
Y01619D01*
X05591Y0136D02*
Y01385D01*
X05585Y0134D02*
Y0149D01*
X05195Y01358D02*
Y01389D01*
X05185D02*
X05195D01*
X05185D02*
Y0164D01*
X05585Y0149D02*
Y0164D01*
X05185Y0144D02*
X05585D01*
X05442Y01497D02*
X05527Y01582D01*
X0475Y0134D02*
Y01355D01*
X0476D01*
X0475Y0134D02*
X0515D01*
X0475Y015D02*
Y01619D01*
Y0164D02*
X0515D01*
X048075Y014975D02*
X04892Y01582D01*
X04948Y01468D02*
Y01619D01*
X05156Y0136D02*
Y01385D01*
X0515Y0134D02*
Y0149D01*
X0476Y01358D02*
Y01389D01*
X0475D02*
X0476D01*
X0475D02*
Y0164D01*
X0515Y0149D02*
Y0164D01*
X0475Y0144D02*
X0515D01*
X05007Y01497D02*
X05092Y01582D01*
D14*
X049986Y007772D02*
G03*
X049986Y007772I-000079J0D01*
G01*
D15*
X03547Y007661D02*
G03*
X03547Y007661I-00002J0D01*
G01*
X03615Y010706D02*
Y011394D01*
X03735Y010706D02*
Y011394D01*
D16*
X056584Y01134D02*
G03*
X056584Y01134I-000118J0D01*
G01*
D17*
X031659Y003505D02*
G03*
X031645Y00352I001539J001448D01*
G01*
X04795Y0075D02*
X04835D01*
X04795Y0065D02*
Y0075D01*
X04885D02*
X04925D01*
Y0065D02*
Y0075D01*
X03455Y0077D02*
Y0087D01*
X03415D02*
X03455D01*
X03325Y0077D02*
Y0087D01*
X03365D01*
D18*
X04961Y00447D02*
Y00492D01*
Y00548D02*
Y00593D01*
X04739D02*
X04961D01*
X04739Y00447D02*
X04961D01*
X048Y00495D02*
X049D01*
X048D02*
Y00545D01*
X049D01*
Y00495D02*
Y00545D01*
X04739Y00447D02*
Y00492D01*
Y00548D02*
Y00593D01*
X037199Y013226D02*
Y015391D01*
X036766Y012793D02*
X037199Y013226D01*
X035034Y012793D02*
X036766D01*
X034601Y013226D02*
Y015391D01*
Y013226D02*
X035034Y012793D01*
X034601Y015391D02*
X037199D01*
X043272Y015828D02*
X047328D01*
X043272Y012528D02*
X044028Y011772D01*
X043272Y012528D02*
Y015828D01*
X044028Y011772D02*
X046572D01*
X047328Y012528D01*
Y015828D01*
X03731Y00994D02*
X03754D01*
X03733Y00876D02*
X03754D01*
Y008759D02*
Y009941D01*
X03745Y008759D02*
Y009941D01*
X03736Y008759D02*
Y009941D01*
X03474D02*
X03736D01*
X03474Y008759D02*
Y009941D01*
Y008759D02*
X03736D01*
X047181Y007851D02*
X048925D01*
X047181Y010449D02*
X048925D01*
X049582Y010202D02*
X049767D01*
Y009907D02*
Y010202D01*
X049582Y009907D02*
X049767D01*
X049767Y008107D02*
Y008402D01*
X049582Y008107D02*
X049767D01*
X049582Y008402D02*
X049767D01*
X048925Y010449D02*
X049582D01*
Y007851D02*
Y010449D01*
X048925Y007851D02*
X049582D01*
X04245Y0061D02*
Y0063D01*
X0425D01*
X04255Y00625D01*
Y0061D01*
Y00625D01*
X0426Y0063D01*
X04265Y00625D01*
Y0061D01*
X0428Y0063D02*
X0429D01*
X04295Y00625D01*
Y0061D01*
X0428D01*
X04275Y00615D01*
X0428Y0062D01*
X04295D01*
X04325Y0063D02*
X0431D01*
X04305Y00625D01*
Y00615D01*
X0431Y0061D01*
X04325D01*
X04335Y0064D02*
Y0061D01*
Y00625D01*
X0434Y0063D01*
X0435D01*
X04355Y00625D01*
Y0061D01*
X044Y00635D02*
Y0063D01*
X04395D01*
X044049D01*
X044D01*
Y00615D01*
X044049Y0061D01*
X044199Y0063D02*
Y0061D01*
Y0062D01*
X044249Y00625D01*
X044299Y0063D01*
X044349D01*
X044549D02*
X044649D01*
X044699Y00625D01*
Y0061D01*
X044549D01*
X044499Y00615D01*
X044549Y0062D01*
X044699D01*
X044799Y0061D02*
Y0063D01*
X044849D01*
X044899Y00625D01*
Y0061D01*
Y00625D01*
X044949Y0063D01*
X044999Y00625D01*
Y0061D01*
X045399Y0064D02*
Y0061D01*
Y00625D01*
X045449Y0063D01*
X045549D01*
X045599Y00625D01*
Y0061D01*
X045749Y0063D02*
X045849D01*
X045899Y00625D01*
Y0061D01*
X045749D01*
X045699Y00615D01*
X045749Y0062D01*
X045899D01*
X045999Y0061D02*
Y0063D01*
X046149D01*
X046199Y00625D01*
Y0061D01*
X04265Y0058D02*
Y0055D01*
X0425D01*
X04245Y00555D01*
Y00565D01*
X0425Y0057D01*
X04265D01*
X0428D02*
X0429D01*
X04295Y00565D01*
Y0055D01*
X0428D01*
X04275Y00555D01*
X0428Y0056D01*
X04295D01*
X04335Y0055D02*
Y0057D01*
X0435D01*
X04355Y00565D01*
Y0055D01*
X0437Y0057D02*
X0438D01*
X04385Y00565D01*
Y0055D01*
X0437D01*
X04365Y00555D01*
X0437Y0056D01*
X04385D01*
X04395Y0055D02*
Y0057D01*
X044099D01*
X044149Y00565D01*
Y0055D01*
X044349Y0054D02*
X044399D01*
X044449Y00545D01*
Y0057D01*
X044299D01*
X044249Y00565D01*
Y00555D01*
X044299Y0055D01*
X044449D01*
X0495Y0039D02*
Y003633D01*
Y003767D01*
X049567Y003833D01*
X049633Y0039D01*
X0497D01*
X0499D02*
Y0037D01*
X049967Y003633D01*
X050166D01*
Y0039D01*
X0503Y003633D02*
Y0039D01*
X0505D01*
X050566Y003833D01*
Y003633D01*
X050833Y0035D02*
X0509D01*
X050966Y003567D01*
Y0039D01*
X050766D01*
X0507Y003833D01*
Y0037D01*
X050766Y003633D01*
X050966D01*
X0577Y015D02*
X05775Y01505D01*
Y01515D01*
X0577Y0152D01*
X05765D01*
X0576Y01515D01*
Y01505D01*
X05755Y015D01*
X0575D01*
X05745Y01505D01*
Y01515D01*
X0575Y0152D01*
X05745Y01475D02*
Y01485D01*
X0575Y0149D01*
X0576D01*
X05765Y01485D01*
Y01475D01*
X0576Y0147D01*
X05755D01*
Y0149D01*
X05745Y0146D02*
X05765D01*
Y01445D01*
X0576Y0144D01*
X05745D01*
X0576Y0143D02*
Y0141D01*
X05665Y015D02*
X0567Y01505D01*
Y01515D01*
X05665Y0152D01*
X0566D01*
X05655Y01515D01*
Y01505D01*
X0565Y015D01*
X05645D01*
X0564Y01505D01*
Y01515D01*
X05645Y0152D01*
X0564Y01475D02*
Y01485D01*
X05645Y0149D01*
X05655D01*
X0566Y01485D01*
Y01475D01*
X05655Y0147D01*
X0565D01*
Y0149D01*
X0564Y0146D02*
X0566D01*
Y01445D01*
X05655Y0144D01*
X0564D01*
X05655Y0143D02*
Y0141D01*
X05665Y0142D02*
X05645D01*
X0552Y0142D02*
Y0139D01*
Y01405D01*
X05525Y0141D01*
X05535D01*
X0554Y01405D01*
Y0139D01*
X0555Y01405D02*
X0557D01*
X05215Y01415D02*
Y01385D01*
Y014D01*
X0522Y01405D01*
X0523D01*
X05235Y014D01*
Y01385D01*
X05245Y014D02*
X05265D01*
X05255Y0141D02*
Y0139D01*
X0477Y013983D02*
X047767Y01405D01*
X0479D01*
X047967Y013983D01*
Y013717D01*
X0479Y01365D01*
X047767D01*
X0477Y013717D01*
Y013983D01*
X0481Y01385D02*
X048366D01*
X048233Y013983D02*
Y013717D01*
X050267Y01365D02*
X05D01*
X050267Y013917D01*
Y013983D01*
X0502Y01405D01*
X050067D01*
X05Y013983D01*
X0506Y01365D02*
Y01405D01*
X0504Y01385D01*
X050666D01*
X0508D02*
X051066D01*
X050933Y013983D02*
Y013717D01*
X042Y00925D02*
X0421D01*
X04205D01*
Y00945D01*
X042D01*
X0423Y00925D02*
X0424D01*
X04245Y0093D01*
Y0094D01*
X0424Y00945D01*
X0423D01*
X04225Y0094D01*
Y0093D01*
X0423Y00925D01*
X04285Y0095D02*
X0429Y00955D01*
X043D01*
X04305Y0095D01*
Y0093D01*
X043Y00925D01*
X0429D01*
X04285Y0093D01*
Y0095D01*
X043649Y00945D02*
X0435D01*
X04345Y0094D01*
Y0093D01*
X0435Y00925D01*
X043649D01*
X043749D02*
X043849D01*
X043799D01*
Y00955D01*
X043749D01*
X043999Y00925D02*
Y00955D01*
Y00935D02*
X044149Y00945D01*
X043999Y00935D02*
X044149Y00925D01*
X044599Y0095D02*
X044649Y00955D01*
X044749D01*
X044799Y0095D01*
Y00945D01*
X044749Y0094D01*
X044699D01*
X044749D01*
X044799Y00935D01*
Y0093D01*
X044749Y00925D01*
X044649D01*
X044599Y0093D01*
X044899Y00925D02*
Y0093D01*
X044949D01*
Y00925D01*
X044899D01*
X045149Y0095D02*
X045199Y00955D01*
X045299D01*
X045349Y0095D01*
Y00945D01*
X045299Y0094D01*
X045249D01*
X045299D01*
X045349Y00935D01*
Y0093D01*
X045299Y00925D01*
X045199D01*
X045149Y0093D01*
X03085Y00615D02*
X03115D01*
Y00635D01*
X03085Y00665D02*
Y00645D01*
X03115D01*
Y00665D01*
X031Y00645D02*
Y00655D01*
X03085Y00675D02*
X03115D01*
Y0069D01*
X0311Y00695D01*
X0309D01*
X03085Y0069D01*
Y00675D01*
X03115Y00735D02*
X03095D01*
X03085Y00745D01*
X03095Y00755D01*
X03115D01*
X031D01*
Y00735D01*
X03085Y007849D02*
Y00765D01*
X031D01*
X03095Y007749D01*
Y007799D01*
X031Y007849D01*
X0311D01*
X03115Y007799D01*
Y007699D01*
X0311Y00765D01*
X03115Y008249D02*
X03095D01*
X03085Y008349D01*
X03095Y008449D01*
X03115D01*
X031D01*
Y008249D01*
X03085Y008549D02*
Y008749D01*
X0309D01*
X0311Y008549D01*
X03115D01*
Y009149D02*
X03095D01*
X03085Y009249D01*
X03095Y009349D01*
X03115D01*
X031D01*
Y009149D01*
X0309Y009449D02*
X03085Y009499D01*
Y009599D01*
X0309Y009649D01*
X0311D01*
X03115Y009599D01*
Y009499D01*
X0311Y009449D01*
X0309D01*
X03085Y010049D02*
X03115D01*
Y010199D01*
X0311Y010249D01*
X03105D01*
X031Y010199D01*
Y010049D01*
Y010199D01*
X03095Y010249D01*
X0309D01*
X03085Y010199D01*
Y010049D01*
Y010349D02*
Y010549D01*
X0309D01*
X0311Y010349D01*
X03115D01*
X03085Y010948D02*
X03115D01*
Y011098D01*
X0311Y011148D01*
X03105D01*
X031Y011098D01*
Y010948D01*
Y011098D01*
X03095Y011148D01*
X0309D01*
X03085Y011098D01*
Y010948D01*
Y011448D02*
X0309Y011348D01*
X031Y011248D01*
X0311D01*
X03115Y011298D01*
Y011398D01*
X0311Y011448D01*
X03105D01*
X031Y011398D01*
Y011248D01*
X0309Y011848D02*
X03085Y011898D01*
Y011998D01*
X0309Y012048D01*
X0311D01*
X03115Y011998D01*
Y011898D01*
X0311Y011848D01*
X0309D01*
Y012448D02*
X03085Y012498D01*
Y012598D01*
X0309Y012648D01*
X03095D01*
X031Y012598D01*
Y012548D01*
Y012598D01*
X03105Y012648D01*
X0311D01*
X03115Y012598D01*
Y012498D01*
X0311Y012448D01*
X03095Y012748D02*
X03115Y012848D01*
X03095Y012948D01*
X0309Y013048D02*
X03085Y013098D01*
Y013198D01*
X0309Y013248D01*
X03095D01*
X031Y013198D01*
Y013148D01*
Y013198D01*
X03105Y013248D01*
X0311D01*
X03115Y013198D01*
Y013098D01*
X0311Y013048D01*
X034145Y00493D02*
X033745D01*
X033945Y00473D02*
Y00513D01*
D19*
X03815Y01615D02*
Y0162D01*
X03725D02*
X03815D01*
X03725Y01615D02*
Y0162D01*
X03815Y0155D02*
Y01555D01*
X03725Y0155D02*
X03815D01*
X03725D02*
Y01555D01*
X03901Y01574D02*
X03909D01*
X03901Y01606D02*
X03909D01*
X03852Y01613D02*
X03959D01*
Y01567D02*
Y01613D01*
X03852Y01567D02*
X03959D01*
X03852D02*
Y01613D01*
X04036Y01574D02*
X04044D01*
X04036Y01606D02*
X04044D01*
X03987Y01613D02*
X04094D01*
Y01567D02*
Y01613D01*
X03987Y01567D02*
X04094D01*
X03987D02*
Y01613D01*
X04218Y01567D02*
Y01613D01*
X04111D02*
X04218D01*
X04111Y01567D02*
Y01613D01*
Y01567D02*
X04218D01*
X04161Y01574D02*
X04169D01*
X04161Y01606D02*
X04169D01*
X04177Y01378D02*
X04223D01*
X04177Y01271D02*
Y01378D01*
Y01271D02*
X04223D01*
Y01378D01*
X04216Y01321D02*
Y01329D01*
X04184Y01321D02*
Y01329D01*
X04254Y01321D02*
Y01329D01*
X04286Y01321D02*
Y01329D01*
X04293Y01271D02*
Y01378D01*
X04247Y01271D02*
X04293D01*
X04247D02*
Y01378D01*
X04293D01*
X04177Y01498D02*
X04223D01*
X04177Y01391D02*
Y01498D01*
Y01391D02*
X04223D01*
Y01498D01*
X04216Y01441D02*
Y01449D01*
X04184Y01441D02*
Y01449D01*
X04247Y01498D02*
X04293D01*
X04247Y01391D02*
Y01498D01*
Y01391D02*
X04293D01*
Y01498D01*
X04286Y01441D02*
Y01449D01*
X04254Y01441D02*
Y01449D01*
X03727Y01358D02*
X03773D01*
X03727Y01251D02*
Y01358D01*
Y01251D02*
X03773D01*
Y01358D01*
X03766Y01301D02*
Y01309D01*
X03734Y01301D02*
Y01309D01*
X03482Y01122D02*
X03528D01*
Y01229D01*
X03482D02*
X03528D01*
X03482Y01122D02*
Y01229D01*
X03489Y01171D02*
Y01179D01*
X03521Y01171D02*
Y01179D01*
X03653Y00812D02*
Y00858D01*
X03546D02*
X03653D01*
X03546Y00812D02*
Y00858D01*
Y00812D02*
X03653D01*
X03596Y00819D02*
X03604D01*
X03596Y00851D02*
X03604D01*
X032736Y015703D02*
Y015753D01*
Y015703D02*
X033636D01*
Y015753D01*
X032736Y016353D02*
Y016403D01*
X033636D01*
Y016353D02*
Y016403D01*
X05208Y011243D02*
X052013D01*
X052047D01*
Y011043D01*
X05208Y011076D01*
X04855Y011116D02*
X048517Y011083D01*
X04845D01*
X048417Y011116D01*
Y011149D01*
X04845Y011183D01*
X048417Y011216D01*
Y011249D01*
X04845Y011283D01*
X048517D01*
X04855Y011249D01*
Y011216D01*
X048517Y011183D01*
X04855Y011149D01*
Y011116D01*
X048517Y011183D02*
X04845D01*
D20*
X0485Y0052D02*
D03*
M02*
