G04*
G04 #@! TF.GenerationSoftware,Altium Limited,Altium Designer,21.3.2 (30)*
G04*
G04 Layer_Physical_Order=1*
G04 Layer_Color=255*
%FSTAX24Y24*%
%MOIN*%
G70*
G04*
G04 #@! TF.SameCoordinates,A4DC8701-BC22-4BCE-B91D-7DEF39426184*
G04*
G04*
G04 #@! TF.FilePolarity,Positive*
G04*
G01*
G75*
%ADD17C,0.0080*%
%ADD21R,0.0335X0.0276*%
%ADD22R,0.0472X0.0315*%
%ADD23R,0.0669X0.0118*%
%ADD24R,0.0118X0.0669*%
G04:AMPARAMS|DCode=25|XSize=39.4mil|YSize=35.4mil|CornerRadius=4.4mil|HoleSize=0mil|Usage=FLASHONLY|Rotation=270.000|XOffset=0mil|YOffset=0mil|HoleType=Round|Shape=RoundedRectangle|*
%AMROUNDEDRECTD25*
21,1,0.0394,0.0266,0,0,270.0*
21,1,0.0305,0.0354,0,0,270.0*
1,1,0.0089,-0.0133,-0.0153*
1,1,0.0089,-0.0133,0.0153*
1,1,0.0089,0.0133,0.0153*
1,1,0.0089,0.0133,-0.0153*
%
%ADD25ROUNDEDRECTD25*%
%ADD26R,0.0276X0.0335*%
%ADD27R,0.0787X0.1575*%
%ADD28R,0.0500X0.0550*%
%ADD29R,0.0394X0.0374*%
%ADD30R,0.0374X0.0394*%
%ADD31R,0.1220X0.0709*%
%ADD32R,0.0669X0.0984*%
%ADD33R,0.0787X0.1614*%
%ADD34R,0.0236X0.0591*%
%ADD35R,0.0984X0.0984*%
%ADD36R,0.0900X0.0250*%
%ADD37O,0.0900X0.0250*%
%ADD38R,0.0394X0.0945*%
%ADD39R,0.1299X0.0945*%
%ADD40R,0.2559X0.2362*%
%ADD41R,0.0984X0.0472*%
%ADD42R,0.0335X0.0472*%
%ADD43R,0.0394X0.0551*%
G04:AMPARAMS|DCode=44|XSize=39.4mil|YSize=35.4mil|CornerRadius=4.4mil|HoleSize=0mil|Usage=FLASHONLY|Rotation=180.000|XOffset=0mil|YOffset=0mil|HoleType=Round|Shape=RoundedRectangle|*
%AMROUNDEDRECTD44*
21,1,0.0394,0.0266,0,0,180.0*
21,1,0.0305,0.0354,0,0,180.0*
1,1,0.0089,-0.0153,0.0133*
1,1,0.0089,0.0153,0.0133*
1,1,0.0089,0.0153,-0.0133*
1,1,0.0089,-0.0153,-0.0133*
%
%ADD44ROUNDEDRECTD44*%
%ADD45O,0.0709X0.0236*%
%ADD82C,0.0200*%
%ADD83C,0.0350*%
%ADD84C,0.0170*%
%ADD85R,0.0630X0.0630*%
%ADD86C,0.0630*%
%ADD87C,0.1378*%
%ADD88C,0.1100*%
%ADD89R,0.0630X0.0630*%
G04:AMPARAMS|DCode=90|XSize=122mil|YSize=118.1mil|CornerRadius=29.5mil|HoleSize=0mil|Usage=FLASHONLY|Rotation=0.000|XOffset=0mil|YOffset=0mil|HoleType=Round|Shape=RoundedRectangle|*
%AMROUNDEDRECTD90*
21,1,0.1220,0.0591,0,0,0.0*
21,1,0.0630,0.1181,0,0,0.0*
1,1,0.0591,0.0315,-0.0295*
1,1,0.0591,-0.0315,-0.0295*
1,1,0.0591,-0.0315,0.0295*
1,1,0.0591,0.0315,0.0295*
%
%ADD90ROUNDEDRECTD90*%
%ADD91C,0.0650*%
%ADD92R,0.0591X0.0591*%
%ADD93C,0.0591*%
%ADD94C,0.0500*%
%ADD95C,0.0236*%
G36*
X0593Y00285D02*
X056033D01*
X056023Y0029D01*
X056065Y002917D01*
X056168Y002997D01*
X056248Y0031D01*
X056297Y003221D01*
X056315Y00335D01*
Y003941D01*
X056297Y00407D01*
X056248Y00419D01*
X056168Y004294D01*
X056065Y004373D01*
X055944Y004423D01*
X055815Y00444D01*
X055185D01*
X055056Y004423D01*
X054935Y004373D01*
X054832Y004294D01*
X054752Y00419D01*
X054703Y00407D01*
X054685Y003941D01*
Y00335D01*
X054703Y003221D01*
X054752Y0031D01*
X054832Y002997D01*
X054935Y002917D01*
X054977Y0029D01*
X054967Y00285D01*
X02965D01*
Y005986D01*
X0297Y006D01*
X029738Y005934D01*
X029834Y005838D01*
X029951Y00577D01*
X030082Y005735D01*
X030218D01*
X030349Y00577D01*
X030466Y005838D01*
X030562Y005934D01*
X030629Y006051D01*
X030638D01*
X030712Y00606D01*
X030782Y006089D01*
X030841Y006135D01*
X031053Y006347D01*
X031099Y006406D01*
X031128Y006476D01*
X031137Y00655D01*
Y008642D01*
X031187Y008663D01*
X031205Y008645D01*
X031277Y008604D01*
X031358Y008582D01*
X031442D01*
X031523Y008604D01*
X031595Y008645D01*
X031655Y008705D01*
X031696Y008777D01*
X031718Y008858D01*
Y008942D01*
X031696Y009023D01*
X031655Y009095D01*
X031645Y009105D01*
Y010995D01*
X031655Y011005D01*
X031696Y011077D01*
X031718Y011158D01*
Y011242D01*
X031696Y011323D01*
X031655Y011395D01*
X031595Y011455D01*
X031523Y011496D01*
X031442Y011518D01*
X031358D01*
X031277Y011496D01*
X031218Y011462D01*
X031168Y011483D01*
Y011492D01*
X031146Y011573D01*
X031105Y011645D01*
X031045Y011705D01*
X030973Y011746D01*
X030892Y011768D01*
X030808D01*
X030727Y011746D01*
X030655Y011705D01*
X030595Y011645D01*
X030575Y01161D01*
X030525Y011603D01*
X030466Y011662D01*
X030349Y01173D01*
X030218Y011765D01*
X030082D01*
X029951Y01173D01*
X029834Y011662D01*
X029738Y011566D01*
X0297Y011501D01*
X02965Y011514D01*
Y012735D01*
X030665D01*
Y012872D01*
X0325D01*
Y012219D01*
X0342D01*
Y013564D01*
X033785D01*
X033764Y013614D01*
X033805Y013655D01*
X033846Y013727D01*
X033868Y013808D01*
Y013892D01*
X033846Y013973D01*
X033805Y014045D01*
X033795Y014055D01*
Y014901D01*
X03383Y014924D01*
X033884Y015005D01*
X033903Y015101D01*
Y015406D01*
X033884Y015501D01*
X03383Y015582D01*
X033749Y015636D01*
X033654Y015655D01*
X033388D01*
X033293Y015636D01*
X033236Y015598D01*
X033186Y015625D01*
Y016528D01*
X032286D01*
Y015578D01*
X032487D01*
X032511Y015534D01*
X032489Y015501D01*
X03247Y015406D01*
Y015101D01*
X032489Y015005D01*
X032543Y014924D01*
X032623Y01487D01*
X032719Y014852D01*
X032984D01*
X03308Y01487D01*
X033154Y01492D01*
X033174Y014925D01*
X033198D01*
X033218Y01492D01*
X033293Y01487D01*
X033305Y014868D01*
Y014055D01*
X033295Y014045D01*
X033254Y013973D01*
X033232Y013892D01*
Y013808D01*
X033254Y013727D01*
X033295Y013655D01*
X033336Y013614D01*
X033315Y013564D01*
X033035D01*
X033011Y013567D01*
X032873D01*
X032859Y013578D01*
X032768Y013615D01*
X03267Y013628D01*
X030665D01*
Y013765D01*
X02965D01*
Y01665D01*
X0593D01*
Y00285D01*
D02*
G37*
%LPC*%
G36*
X0377Y016325D02*
X0368D01*
Y015375D01*
X0377D01*
Y016325D01*
D02*
G37*
G36*
X052924Y01615D02*
X052776D01*
X052631Y016121D01*
X052495Y016065D01*
X052372Y015983D01*
X052267Y015878D01*
X052185Y015755D01*
X052129Y015619D01*
X0521Y015474D01*
Y015326D01*
X052129Y015181D01*
X052185Y015045D01*
X052267Y014922D01*
X052372Y014817D01*
X052495Y014735D01*
X052631Y014679D01*
X052776Y01465D01*
X052924D01*
X053069Y014679D01*
X053205Y014735D01*
X053328Y014817D01*
X053433Y014922D01*
X053515Y015045D01*
X053571Y015181D01*
X0536Y015326D01*
Y015474D01*
X053571Y015619D01*
X053515Y015755D01*
X053433Y015878D01*
X053328Y015983D01*
X053205Y016065D01*
X053069Y016121D01*
X052924Y01615D01*
D02*
G37*
G36*
X050574D02*
X050426D01*
X050281Y016121D01*
X050145Y016065D01*
X050022Y015983D01*
X049917Y015878D01*
X049835Y015755D01*
X049779Y015619D01*
X04975Y015474D01*
Y015326D01*
X049779Y015181D01*
X049835Y015045D01*
X049917Y014922D01*
X050022Y014817D01*
X050145Y014735D01*
X050281Y014679D01*
X050426Y01465D01*
X050574D01*
X050719Y014679D01*
X050855Y014735D01*
X050978Y014817D01*
X051083Y014922D01*
X051165Y015045D01*
X051221Y015181D01*
X05125Y015326D01*
Y015474D01*
X051221Y015619D01*
X051165Y015755D01*
X051083Y015878D01*
X050978Y015983D01*
X050855Y016065D01*
X050719Y016121D01*
X050574Y01615D01*
D02*
G37*
G36*
X031188Y016289D02*
X031012D01*
X030841Y016255D01*
X030679Y016188D01*
X030533Y016091D01*
X030409Y015967D01*
X030312Y015821D01*
X030245Y015659D01*
X030211Y015488D01*
Y015312D01*
X030245Y015141D01*
X030312Y014979D01*
X030409Y014833D01*
X030533Y014709D01*
X030679Y014612D01*
X030841Y014545D01*
X031012Y014511D01*
X031188D01*
X031359Y014545D01*
X031521Y014612D01*
X031667Y014709D01*
X031791Y014833D01*
X031888Y014979D01*
X031955Y015141D01*
X031989Y015312D01*
Y015488D01*
X031955Y015659D01*
X031888Y015821D01*
X031791Y015967D01*
X031667Y016091D01*
X031521Y016188D01*
X031359Y016255D01*
X031188Y016289D01*
D02*
G37*
G36*
X041752Y016287D02*
X038358D01*
Y015513D01*
X038365D01*
Y01543D01*
X037915D01*
Y014045D01*
X038985D01*
Y014432D01*
X039035Y014438D01*
X039039Y014421D01*
X039081Y014349D01*
X03914Y01429D01*
X039213Y014248D01*
X039294Y014226D01*
X039377D01*
X039458Y014248D01*
X039531Y01429D01*
X039571Y01433D01*
X04116D01*
Y015439D01*
X040983D01*
X040968Y015458D01*
Y015513D01*
X041752D01*
Y016287D01*
D02*
G37*
G36*
X05565Y016404D02*
X053953D01*
X053921Y016397D01*
X053888Y016393D01*
X053882Y01639D01*
X053875Y016388D01*
X053847Y01637D01*
X053819Y016353D01*
X053815Y016348D01*
X053809Y016344D01*
X05379Y016317D01*
X05377Y01629D01*
X053768Y016284D01*
X053765Y016278D01*
X053758Y016246D01*
X05375Y016214D01*
X05365Y01471D01*
X052132Y012054D01*
X05195D01*
Y01205D01*
X05053D01*
X050472Y012038D01*
X050406Y011994D01*
X050362Y011928D01*
X050346Y01185D01*
Y01075D01*
X050346Y01075D01*
X050348Y010743D01*
X050316Y010704D01*
X04985D01*
X049772Y010688D01*
X049706Y010644D01*
X049662Y010578D01*
X049646Y0105D01*
Y0093D01*
X049662Y009222D01*
X049706Y009156D01*
X049772Y009112D01*
X04985Y009096D01*
X050789D01*
X051315Y00857D01*
Y00772D01*
X052099D01*
X052118Y007674D01*
X050381Y005937D01*
X046594D01*
X046579Y005987D01*
X046638Y006027D01*
X04686Y006248D01*
X047048D01*
X047144Y006267D01*
X047218Y006317D01*
X047238Y006322D01*
X047262D01*
X047282Y006317D01*
X047356Y006267D01*
X047452Y006248D01*
X047718D01*
X047813Y006267D01*
X047819Y006271D01*
X047863Y006248D01*
Y006074D01*
X048597D01*
Y006946D01*
X047915D01*
X047894Y006979D01*
Y007021D01*
X047921Y007063D01*
X048235D01*
Y007056D01*
X048969D01*
Y007205D01*
X049336D01*
X049411Y007214D01*
X04948Y007243D01*
X049539Y007289D01*
X050064Y007814D01*
X051042D01*
Y008686D01*
X049658D01*
Y00822D01*
X049217Y00778D01*
X049093D01*
Y010531D01*
X046134D01*
Y007769D01*
X046671D01*
Y007722D01*
X046606Y007679D01*
X046552Y007598D01*
X046533Y007503D01*
Y007197D01*
X046552Y007102D01*
X046606Y007021D01*
Y006979D01*
X046552Y006898D01*
X046533Y006803D01*
Y006614D01*
X046364Y006445D01*
X044985D01*
X04497Y006495D01*
X045067Y006559D01*
X045191Y006683D01*
X045288Y006829D01*
X045355Y006991D01*
X045389Y007162D01*
Y007338D01*
X045355Y007509D01*
X045288Y007671D01*
X045191Y007817D01*
X045067Y007941D01*
X044921Y008038D01*
X044759Y008105D01*
X044588Y008139D01*
X044412D01*
X044241Y008105D01*
X044079Y008038D01*
X043933Y007941D01*
X043809Y007817D01*
X043712Y007671D01*
X043645Y007509D01*
X043611Y007338D01*
Y007162D01*
X043645Y006991D01*
X043712Y006829D01*
X043809Y006683D01*
X043933Y006559D01*
X04403Y006495D01*
X044015Y006445D01*
X043151D01*
X042321Y007275D01*
X042242Y007328D01*
X042148Y007346D01*
X042003D01*
Y007475D01*
X042042Y007507D01*
X04205Y007505D01*
X042981D01*
X043074Y007524D01*
X043154Y007577D01*
X043423Y007846D01*
X043476Y007926D01*
X043495Y008019D01*
Y008681D01*
X043476Y008774D01*
X043423Y008854D01*
X043368Y008909D01*
X043387Y008955D01*
X044745D01*
X044755Y008945D01*
X044827Y008904D01*
X044908Y008882D01*
X044992D01*
X045073Y008904D01*
X045145Y008945D01*
X045205Y009005D01*
X045246Y009077D01*
X045268Y009158D01*
Y009242D01*
X045246Y009323D01*
X045205Y009395D01*
X045145Y009455D01*
X045073Y009496D01*
X044992Y009518D01*
X044908D01*
X044827Y009496D01*
X044755Y009455D01*
X044745Y009445D01*
X044106D01*
X044087Y009491D01*
X044273Y009677D01*
X044326Y009756D01*
X044344Y009846D01*
X044416Y009888D01*
X044512Y009984D01*
X044535Y010024D01*
X044585Y01001D01*
Y009785D01*
X045615D01*
Y010763D01*
X046012D01*
X046027Y010754D01*
X046108Y010732D01*
X046192D01*
X046273Y010754D01*
X046288Y010763D01*
X048649D01*
X048724Y010772D01*
X048793Y010801D01*
X048841Y010838D01*
X049737D01*
Y011338D01*
X049737D01*
Y011838D01*
Y012488D01*
X048437D01*
Y012482D01*
X047733D01*
Y012017D01*
X047676Y011979D01*
X047675Y011978D01*
X047638D01*
X047618Y011983D01*
X047544Y012033D01*
X047448Y012052D01*
X047182D01*
X047087Y012033D01*
X047006Y011979D01*
X046979Y011937D01*
X046218D01*
X046144Y011928D01*
X046074Y011899D01*
X046015Y011853D01*
X045944Y011782D01*
X045894Y011803D01*
Y013094D01*
X045106D01*
X045081Y013098D01*
X043092D01*
X043087Y013103D01*
Y013758D01*
Y014552D01*
X041613D01*
Y013758D01*
Y013313D01*
X04116D01*
Y01347D01*
X03954D01*
Y012793D01*
X037887D01*
Y012948D01*
Y013742D01*
X037113D01*
Y012948D01*
Y012793D01*
X036494D01*
Y013937D01*
X035306D01*
Y011963D01*
X035522D01*
Y011833D01*
X035437D01*
Y011852D01*
X034663D01*
Y011833D01*
X03446D01*
X034362Y01182D01*
X034271Y011782D01*
X034192Y011722D01*
X03401Y01154D01*
X03395Y011461D01*
X033912Y01137D01*
X0339Y011281D01*
X033859D01*
Y010117D01*
X033747D01*
Y011281D01*
X033637D01*
Y011412D01*
X033646Y011427D01*
X033668Y011508D01*
Y011592D01*
X033646Y011673D01*
X033605Y011745D01*
X033545Y011805D01*
X033473Y011846D01*
X033392Y011868D01*
X033308D01*
X033227Y011846D01*
X033155Y011805D01*
X033095Y011745D01*
X033054Y011673D01*
X033032Y011592D01*
Y011508D01*
X033054Y011427D01*
X033063Y011412D01*
Y011281D01*
X032953D01*
Y009936D01*
X033268D01*
Y009383D01*
X033537D01*
X033589Y009331D01*
Y009128D01*
X033535D01*
Y008256D01*
X034269D01*
Y009128D01*
X034164D01*
Y00945D01*
X034176Y009466D01*
X034224Y009472D01*
X034294Y009501D01*
X034353Y009547D01*
X034459Y009652D01*
X034504Y009712D01*
X034533Y009781D01*
X034543Y009856D01*
Y009936D01*
X03463D01*
Y008658D01*
X035034D01*
Y00845D01*
X035044Y008375D01*
X035073Y008306D01*
X035118Y008246D01*
X035218Y008147D01*
X035278Y008101D01*
X035308Y008088D01*
Y007963D01*
X035506D01*
Y007724D01*
X03527D01*
Y006772D01*
X036064D01*
Y007433D01*
X036182D01*
Y007963D01*
X036665D01*
X036679Y007949D01*
Y007313D01*
X036698Y00722D01*
X036751Y00714D01*
X037356Y006535D01*
X037357Y006529D01*
X037089Y006261D01*
X037036Y006182D01*
X037017Y006088D01*
Y005682D01*
X036976Y005641D01*
X03693Y005661D01*
Y006228D01*
X036795D01*
Y006295D01*
X036805Y006305D01*
X036846Y006377D01*
X036868Y006458D01*
Y006542D01*
X036846Y006623D01*
X036805Y006695D01*
X036745Y006755D01*
X036673Y006796D01*
X036592Y006818D01*
X036508D01*
X036427Y006796D01*
X036355Y006755D01*
X036295Y006695D01*
X036254Y006623D01*
X036232Y006542D01*
Y006458D01*
X036254Y006377D01*
X036295Y006305D01*
X036305Y006295D01*
Y006228D01*
X036136D01*
Y005567D01*
X036018D01*
Y004833D01*
X036233D01*
Y004168D01*
X041267D01*
Y004297D01*
X041357D01*
X041367Y004282D01*
X041372Y004262D01*
Y004225D01*
X041371Y004224D01*
X041317Y004144D01*
X041298Y004048D01*
Y003795D01*
X037159D01*
X037149Y003805D01*
X037077Y003846D01*
X036996Y003868D01*
X036912D01*
X036831Y003846D01*
X036759Y003805D01*
X036699Y003745D01*
X036658Y003673D01*
X036636Y003592D01*
Y003508D01*
X036658Y003427D01*
X036699Y003355D01*
X036759Y003295D01*
X036831Y003254D01*
X036912Y003232D01*
X036996D01*
X037077Y003254D01*
X037149Y003295D01*
X037159Y003305D01*
X042115D01*
X042209Y003324D01*
X042288Y003377D01*
X042356Y003445D01*
X042405Y003395D01*
X042477Y003354D01*
X042558Y003332D01*
X042642D01*
X042723Y003354D01*
X042795Y003395D01*
X042855Y003455D01*
X042896Y003527D01*
X042905Y003557D01*
X042962Y003579D01*
X043002Y003552D01*
X043097Y003533D01*
X043403D01*
X043498Y003552D01*
X043579Y003606D01*
X043622Y003672D01*
X043626Y003673D01*
X043674Y003673D01*
X043678Y003672D01*
X043721Y003606D01*
X043802Y003552D01*
X043897Y003533D01*
X044049D01*
X044091Y003501D01*
X044161Y003472D01*
X044235Y003463D01*
X048201D01*
X048274Y00339D01*
X048376Y003331D01*
X048491Y0033D01*
X048609D01*
X048724Y003331D01*
X048826Y00339D01*
X04891Y003474D01*
X048969Y003576D01*
X049Y003691D01*
Y003809D01*
X048969Y003924D01*
X04891Y004026D01*
X048826Y00411D01*
X048724Y004169D01*
X048609Y0042D01*
X048491D01*
X048376Y004169D01*
X048274Y00411D01*
X048201Y004037D01*
X044813D01*
X044784Y004087D01*
X044803Y004121D01*
X044825Y004201D01*
Y004285D01*
X044803Y004366D01*
X044761Y004439D01*
X044702Y004498D01*
X044629Y00454D01*
X044549Y004561D01*
X044465D01*
X044452Y004572D01*
Y004718D01*
X044433Y004813D01*
X044404Y004855D01*
X044431Y004905D01*
X046686D01*
Y004843D01*
X047558D01*
Y005363D01*
X0505D01*
X050574Y005372D01*
X050644Y005401D01*
X050703Y005447D01*
X054119Y008862D01*
X054164Y008922D01*
X054193Y008991D01*
X054203Y009065D01*
Y010357D01*
X054224Y010371D01*
X054225Y010372D01*
X054262D01*
X054282Y010367D01*
X054356Y010317D01*
X054452Y010298D01*
X054718D01*
X054813Y010317D01*
X054894Y010371D01*
X054921Y010413D01*
X056576D01*
X05665Y010422D01*
X05672Y010451D01*
X056779Y010497D01*
X057162Y010879D01*
X057548D01*
X057631Y01089D01*
X057686Y010913D01*
X057802D01*
X057817Y010837D01*
X057871Y010756D01*
X057952Y010702D01*
X058047Y010683D01*
X058353D01*
X058448Y010702D01*
X058529Y010756D01*
X058583Y010837D01*
X058602Y010932D01*
Y011198D01*
X058583Y011294D01*
X058529Y011374D01*
X058528Y011375D01*
Y011425D01*
X058529Y011426D01*
X058583Y011506D01*
X058602Y011602D01*
Y011868D01*
X058583Y011963D01*
X058541Y012025D01*
X058583Y012087D01*
X058602Y012182D01*
Y012448D01*
X058583Y012544D01*
X058529Y012624D01*
X058476Y01266D01*
Y012807D01*
X058397Y012886D01*
X058003D01*
X057924Y012807D01*
Y01266D01*
X057871Y012624D01*
X057817Y012544D01*
X057803Y012469D01*
X057758Y012448D01*
X057748Y012448D01*
X057709Y012478D01*
X057631Y01251D01*
X057548Y012521D01*
X057076D01*
X057069Y01252D01*
X057032Y012553D01*
Y012983D01*
X057082D01*
Y013717D01*
X057032D01*
Y014006D01*
X057022Y01408D01*
X056993Y01415D01*
X056947Y014209D01*
X056917Y014239D01*
Y01517D01*
X056908Y015244D01*
X056891Y015285D01*
X056923Y015335D01*
X057065D01*
Y016365D01*
X056035D01*
Y015335D01*
X056263D01*
Y01525D01*
X056272Y015176D01*
X056301Y015106D01*
X056343Y015052D01*
Y01412D01*
X056352Y014046D01*
X056381Y013976D01*
X056427Y013917D01*
X056457Y013887D01*
Y013717D01*
X056406D01*
Y012983D01*
X056457D01*
Y0123D01*
X056466Y012225D01*
X056495Y012156D01*
X056541Y012096D01*
X05664Y011997D01*
X0567Y011951D01*
X056769Y011922D01*
X056789Y01192D01*
X056808Y011874D01*
X056798Y01186D01*
X056766Y011783D01*
X056755Y0117D01*
X056766Y011617D01*
X056798Y01154D01*
X056849Y011473D01*
Y011427D01*
X056798Y01136D01*
X056776Y011306D01*
X056457Y010987D01*
X055915D01*
X055894Y011037D01*
X055997Y011141D01*
X056043Y0112D01*
X056072Y01127D01*
X056082Y011344D01*
Y012983D01*
X056132D01*
Y013717D01*
X055855D01*
X055831Y013761D01*
X055838Y013772D01*
X055854Y01385D01*
Y0162D01*
X055838Y016278D01*
X055794Y016344D01*
X055728Y016388D01*
X05565Y016404D01*
D02*
G37*
G36*
X057688Y010539D02*
X057512D01*
X057341Y010505D01*
X057179Y010438D01*
X057033Y010341D01*
X056909Y010217D01*
X056812Y010071D01*
X056745Y009909D01*
X056711Y009738D01*
Y009562D01*
X056745Y009391D01*
X056812Y009229D01*
X056909Y009083D01*
X057033Y008959D01*
X057179Y008862D01*
X057341Y008795D01*
X057512Y008761D01*
X057688D01*
X057859Y008795D01*
X058021Y008862D01*
X058167Y008959D01*
X058291Y009083D01*
X058388Y009229D01*
X058455Y009391D01*
X058489Y009562D01*
Y009738D01*
X058455Y009909D01*
X058388Y010071D01*
X058291Y010217D01*
X058167Y010341D01*
X058021Y010438D01*
X057859Y010505D01*
X057688Y010539D01*
D02*
G37*
G36*
X055815Y00885D02*
X055185D01*
X055056Y008833D01*
X054935Y008783D01*
X054832Y008703D01*
X054752Y0086D01*
X054703Y008479D01*
X054685Y00835D01*
Y007759D01*
X054703Y00763D01*
X054752Y00751D01*
X054832Y007406D01*
X054935Y007327D01*
X055056Y007277D01*
X055185Y00726D01*
X055815D01*
X055944Y007277D01*
X056065Y007327D01*
X056168Y007406D01*
X056248Y00751D01*
X056297Y00763D01*
X056315Y007759D01*
Y00835D01*
X056297Y008479D01*
X056248Y0086D01*
X056168Y008703D01*
X056065Y008783D01*
X055944Y008833D01*
X055815Y00885D01*
D02*
G37*
G36*
X058522Y007359D02*
X058384D01*
X05825Y007323D01*
X058131Y007254D01*
X058033Y007156D01*
X057964Y007037D01*
X057928Y006903D01*
Y006765D01*
X057964Y006632D01*
X058033Y006512D01*
X058131Y006414D01*
X05825Y006345D01*
X058384Y006309D01*
X058522D01*
X058655Y006345D01*
X058775Y006414D01*
X058873Y006512D01*
X058942Y006632D01*
X058978Y006765D01*
Y006903D01*
X058942Y007037D01*
X058873Y007156D01*
X058775Y007254D01*
X058655Y007323D01*
X058522Y007359D01*
D02*
G37*
G36*
X032442Y008918D02*
X032358D01*
X032277Y008896D01*
X032205Y008855D01*
X032145Y008795D01*
X032104Y008723D01*
X032092Y008681D01*
X032047Y008635D01*
X032001Y008576D01*
X031972Y008506D01*
X031963Y008432D01*
Y008066D01*
X031906Y008029D01*
X031852Y007948D01*
X031833Y007853D01*
Y007547D01*
X031852Y007452D01*
X031906Y007371D01*
X031987Y007317D01*
X032082Y007298D01*
X032348D01*
X032444Y007317D01*
X032518Y007367D01*
X032538Y007372D01*
X032562D01*
X032582Y007367D01*
X032656Y007317D01*
X032752Y007298D01*
X033018D01*
X033113Y007317D01*
X033119Y007321D01*
X033163Y007298D01*
Y007274D01*
X033872D01*
X033921Y007272D01*
X033946Y007272D01*
X034001D01*
Y006608D01*
X03401Y006534D01*
X034039Y006464D01*
X034085Y006405D01*
X034413Y006077D01*
Y005445D01*
X034205D01*
Y004455D01*
X035195D01*
Y005445D01*
X034987D01*
Y006196D01*
X034978Y006271D01*
X034949Y00634D01*
X034903Y006399D01*
X034575Y006727D01*
Y007272D01*
X034655D01*
Y008144D01*
X033946D01*
X033897Y008146D01*
X033872Y008146D01*
X033163D01*
Y008102D01*
X033119Y008079D01*
X033113Y008083D01*
X033018Y008102D01*
X032752D01*
X032656Y008083D01*
X032587Y008037D01*
X032547Y008051D01*
X032537Y008059D01*
Y008312D01*
X032595Y008345D01*
X032655Y008405D01*
X032696Y008477D01*
X032718Y008558D01*
Y008642D01*
X032696Y008723D01*
X032655Y008795D01*
X032595Y008855D01*
X032523Y008896D01*
X032442Y008918D01*
D02*
G37*
G36*
X058522Y005391D02*
X058384D01*
X05825Y005355D01*
X058131Y005286D01*
X058033Y005188D01*
X057964Y005068D01*
X057928Y004935D01*
Y004797D01*
X057964Y004663D01*
X058033Y004544D01*
X058131Y004446D01*
X05825Y004377D01*
X058384Y004341D01*
X058522D01*
X058655Y004377D01*
X058775Y004446D01*
X058873Y004544D01*
X058942Y004663D01*
X058978Y004797D01*
Y004935D01*
X058942Y005068D01*
X058873Y005188D01*
X058775Y005286D01*
X058655Y005355D01*
X058522Y005391D01*
D02*
G37*
G36*
X052813D02*
X052675D01*
X052542Y005355D01*
X052422Y005286D01*
X052324Y005188D01*
X052255Y005068D01*
X052219Y004935D01*
Y004797D01*
X052255Y004663D01*
X052324Y004544D01*
X052422Y004446D01*
X052542Y004377D01*
X052675Y004341D01*
X052813D01*
X052947Y004377D01*
X053066Y004446D01*
X053164Y004544D01*
X053233Y004663D01*
X053269Y004797D01*
Y004935D01*
X053233Y005068D01*
X053164Y005188D01*
X053066Y005286D01*
X052947Y005355D01*
X052813Y005391D01*
D02*
G37*
%LPD*%
G36*
X03855Y011703D02*
X038629Y011624D01*
X038776D01*
X038812Y011571D01*
X038893Y011517D01*
X038988Y011498D01*
X039254D01*
X039349Y011517D01*
X03943Y011571D01*
X039436Y011581D01*
X039486D01*
X039493Y011571D01*
X039557Y011528D01*
Y011445D01*
X039573Y011364D01*
X039545Y011314D01*
X038738D01*
X038723Y011323D01*
X038642Y011345D01*
X038558D01*
X038477Y011323D01*
X038462Y011314D01*
X038132D01*
X038058Y011304D01*
X037989Y011276D01*
X037929Y01123D01*
X037901Y011202D01*
X03785Y011221D01*
X037838Y011278D01*
X037794Y011344D01*
X037728Y011388D01*
X03765Y011404D01*
X037442D01*
Y011563D01*
X037451D01*
X037525Y011573D01*
X037595Y011602D01*
X037654Y011648D01*
X037875Y011868D01*
X038267D01*
Y011974D01*
X03855D01*
Y011703D01*
D02*
G37*
G36*
X03765Y011D02*
X03725D01*
Y0112D01*
X03765D01*
Y011D01*
D02*
G37*
G36*
X040498Y010555D02*
X04049Y010548D01*
X040451Y010532D01*
X040397Y010586D01*
X040003D01*
X039924Y010507D01*
Y01036D01*
X039883Y010332D01*
X03985Y010328D01*
X039817Y010332D01*
X039776Y01036D01*
Y010507D01*
X039697Y010586D01*
X039303D01*
X039224Y010507D01*
Y010408D01*
X039217Y010404D01*
X039167Y010432D01*
Y010432D01*
X038087D01*
Y010575D01*
X038252Y010739D01*
X038462D01*
X038477Y01073D01*
X038558Y010709D01*
X038642D01*
X038723Y01073D01*
X038738Y010739D01*
X040498D01*
Y010555D01*
D02*
G37*
G36*
X05565Y01385D02*
X0525Y0107D01*
X0506D01*
X05055Y01075D01*
Y01185D01*
X05225D01*
X05385Y01465D01*
X053953Y0162D01*
X05565D01*
Y01385D01*
D02*
G37*
G36*
X043761Y010689D02*
X043688Y010616D01*
X04362Y010499D01*
X043585Y010368D01*
Y010232D01*
X04362Y010101D01*
X043688Y009984D01*
X043784Y009888D01*
X043785Y009881D01*
X04351Y009606D01*
X04119D01*
X041183Y009616D01*
X041193Y009683D01*
X041229Y009706D01*
X041283Y009787D01*
X041302Y009882D01*
Y010148D01*
X041283Y010244D01*
X041233Y010318D01*
X041228Y010338D01*
Y010362D01*
X041233Y010382D01*
X041283Y010456D01*
X041302Y010552D01*
Y010739D01*
X04174D01*
X041761Y010689D01*
X041688Y010616D01*
X04162Y010499D01*
X041585Y010368D01*
Y010232D01*
X04162Y010101D01*
X041688Y009984D01*
X041784Y009888D01*
X041901Y00982D01*
X042032Y009785D01*
X042168D01*
X042299Y00982D01*
X042416Y009888D01*
X042512Y009984D01*
X04258Y010101D01*
X042615Y010232D01*
Y010368D01*
X04258Y010499D01*
X042512Y010616D01*
X042439Y010689D01*
X04246Y010739D01*
X04374D01*
X043761Y010689D01*
D02*
G37*
G36*
X0511Y0093D02*
X04985D01*
Y0105D01*
X0511D01*
Y0093D01*
D02*
G37*
G36*
X038932Y008308D02*
Y008224D01*
X038954Y008143D01*
X038995Y00807D01*
X039055Y008011D01*
X039127Y007969D01*
X039208Y007948D01*
X039292D01*
X039373Y007969D01*
X039445Y008011D01*
X039472Y008038D01*
X039501Y008022D01*
X039582Y008D01*
X039666D01*
X039747Y008022D01*
X039806Y008056D01*
X039807Y008055D01*
X039867Y007995D01*
X039939Y007954D01*
X040016Y007933D01*
X04003Y007909D01*
X04004Y007886D01*
X039657Y007503D01*
X039589Y007485D01*
X039516Y007443D01*
X039457Y007384D01*
X039415Y007311D01*
X039394Y00723D01*
Y007146D01*
X039415Y007065D01*
X039457Y006993D01*
X039516Y006934D01*
X039589Y006892D01*
X03967Y00687D01*
X039754D01*
X039835Y006892D01*
X039907Y006934D01*
X039966Y006993D01*
X040008Y007065D01*
X04003Y007146D01*
Y007184D01*
X040888Y008042D01*
X040915Y008031D01*
X040934Y008017D01*
Y007754D01*
Y007218D01*
X040858D01*
X040777Y007196D01*
X040705Y007155D01*
X040645Y007095D01*
X040604Y007023D01*
X040582Y006942D01*
Y006858D01*
X040604Y006777D01*
X040645Y006705D01*
X040705Y006645D01*
X040777Y006604D01*
X040858Y006582D01*
X040934D01*
Y006066D01*
X040398D01*
X040377Y006116D01*
X040398Y006137D01*
X04044Y00621D01*
X040462Y006291D01*
Y006374D01*
X04044Y006455D01*
X040398Y006528D01*
X040339Y006587D01*
X040266Y006629D01*
X040185Y006651D01*
X040102D01*
X040021Y006629D01*
X039948Y006587D01*
X039889Y006528D01*
X039847Y006455D01*
X039838Y006422D01*
X039783Y006396D01*
X039702Y006418D01*
X039618D01*
X039538Y006396D01*
X039465Y006355D01*
X039406Y006295D01*
X039364Y006223D01*
X039342Y006142D01*
Y006066D01*
X038666D01*
Y006449D01*
Y006782D01*
X038692D01*
X038773Y006804D01*
X038845Y006845D01*
X038905Y006905D01*
X038946Y006977D01*
X038968Y007058D01*
Y007142D01*
X038946Y007223D01*
X038905Y007295D01*
X038845Y007355D01*
X038773Y007396D01*
X038692Y007418D01*
X038666D01*
Y007827D01*
Y008334D01*
X038912D01*
X038932Y008308D01*
D02*
G37*
D17*
X041469Y008086D02*
X04285D01*
X0364Y005619D02*
X03655Y005769D01*
X0364Y005194D02*
Y005619D01*
X036356Y00515D02*
X0364Y005194D01*
X03655Y005769D02*
Y0065D01*
X035667Y007248D02*
X0358Y007381D01*
Y007806D02*
X035844Y00785D01*
X0358Y007381D02*
Y007806D01*
X036356Y0078D02*
X036403Y007753D01*
Y007378D02*
X036533Y007248D01*
X036403Y007378D02*
Y007753D01*
X0358Y005244D02*
Y005619D01*
Y005244D02*
X035844Y0052D01*
X035667Y005752D02*
X0358Y005619D01*
X0423Y008606D02*
X04285D01*
Y0086D02*
Y008606D01*
X038914Y009514D02*
X0391Y0097D01*
Y010645D01*
X038914Y008868D02*
Y009514D01*
X038717Y008868D02*
Y010011D01*
X0388Y010094D01*
X0375Y004776D02*
Y0061D01*
X037341Y004617D02*
X037341D01*
X0375Y004776D01*
X03723Y004506D02*
X037341Y004617D01*
X036954Y00355D02*
X042115D01*
X037262Y006088D02*
X037677Y006503D01*
X0366Y004506D02*
Y004919D01*
X037262Y005581D01*
Y006088D01*
X0372Y004506D02*
X03723D01*
X0375Y0061D02*
X037696Y006296D01*
X0379Y005886D02*
X038131Y006117D01*
X0379Y004506D02*
Y005886D01*
X04085Y009697D02*
Y009865D01*
X04145Y00515D02*
X047072D01*
X047122Y0052D01*
X040884Y009865D02*
X0409Y009881D01*
Y010015D01*
X037696Y006296D02*
X038114D01*
X039162Y006688D02*
X040584D01*
X040905Y006905D02*
X041469D01*
X040584Y006688D02*
X040668Y006604D01*
X040662Y00661D02*
X040668Y006604D01*
X0409Y0069D02*
X040905Y006905D01*
X040662Y00661D02*
Y007798D01*
X04095Y008086D01*
X040686Y004986D02*
Y005531D01*
X040668Y005549D02*
X040686Y005531D01*
X040668Y005549D02*
Y006604D01*
X04305Y0062D02*
X046465D01*
X046761Y006496D01*
X046779D02*
X046915Y006633D01*
X042148Y007102D02*
X04305Y0062D01*
X046915Y006633D02*
Y00665D01*
X046761Y006496D02*
X046779D01*
X038914Y006936D02*
X039162Y006688D01*
X038914Y006936D02*
Y008868D01*
X038649Y007101D02*
X03865Y0071D01*
X038132Y007101D02*
X038649D01*
X040095Y006242D02*
X040144Y00629D01*
X040095Y005531D02*
Y006242D01*
X040144Y00629D02*
Y006333D01*
X0403Y0045D02*
X040307D01*
X040283Y004506D02*
X040312D01*
X040307Y0045D02*
X040312Y004506D01*
X039898Y00489D02*
X040283Y004506D01*
X039898Y00489D02*
Y005531D01*
X039108Y004506D02*
X039137D01*
X038914Y0047D02*
Y005531D01*
Y0047D02*
X039108Y004506D01*
X042642Y008938D02*
X042993D01*
X04325Y008019D02*
Y008681D01*
X042993Y008938D02*
X04325Y008681D01*
X041036Y008414D02*
X041822Y0092D01*
X0411Y009361D02*
X043611D01*
X0441Y00985D01*
X041822Y0092D02*
X04495D01*
X040883Y009144D02*
X0411Y009361D01*
X03355Y01385D02*
Y015224D01*
X033521Y015253D02*
X03355Y015224D01*
X0314Y0089D02*
Y0112D01*
X039848Y011398D02*
X043452D01*
X04354Y01131D01*
X04355D01*
X039802Y011445D02*
X039848Y011398D01*
X039802Y011445D02*
Y0119D01*
X040062Y00825D02*
Y00826D01*
X039898Y008423D02*
Y008868D01*
Y008423D02*
X040062Y00826D01*
X039712Y007212D02*
X040914Y008414D01*
X039712Y007188D02*
Y007212D01*
X040914Y008414D02*
X041036D01*
X04095Y008086D02*
X041469D01*
X03966Y0061D02*
X039684Y006077D01*
Y005549D02*
Y006077D01*
Y005549D02*
X039702Y005531D01*
X04077Y011757D02*
X0408Y011727D01*
X040602Y011762D02*
X040608Y011757D01*
X04077D01*
X040602Y011762D02*
Y011769D01*
X035474Y016053D02*
X0359Y015627D01*
Y015233D02*
Y015627D01*
X033636Y016053D02*
X035474D01*
X032736D02*
X032852Y015938D01*
Y015253D02*
Y015938D01*
X03735Y0083D02*
Y0086D01*
Y0083D02*
X037564Y008086D01*
X038131D01*
X042981Y00775D02*
X04325Y008019D01*
X04205Y00775D02*
X042981D01*
X041911Y007889D02*
X04205Y00775D01*
X041469Y007889D02*
X041911D01*
X0441Y00985D02*
Y01045D01*
X040883Y008868D02*
Y009144D01*
X03925Y008266D02*
X039261D01*
X039624Y008318D02*
Y00836D01*
X037559Y006905D02*
X038131D01*
X039701Y008868D02*
X039702Y008868D01*
X039261Y008266D02*
X039308Y008313D01*
Y008868D01*
X0371Y007363D02*
Y00825D01*
X039701Y008437D02*
Y008868D01*
X039624Y00836D02*
X039701Y008437D01*
X038131Y007102D02*
X038132Y007101D01*
X039462Y005023D02*
X039487Y005048D01*
Y005514D01*
X039505Y005531D01*
X039198Y004849D02*
Y004891D01*
X039111Y004978D02*
X039198Y004891D01*
X039111Y004978D02*
Y005531D01*
X037592Y007566D02*
X037663Y007495D01*
X0371Y007363D02*
X037559Y006905D01*
X03755Y00725D02*
X037637D01*
X037685Y007298D01*
X038131D01*
X03755Y007566D02*
X037592D01*
X037663Y007495D02*
X038131D01*
X040803Y00965D02*
X04085Y009697D01*
X0399Y00965D02*
X040803D01*
X041947Y008283D02*
X04227Y008606D01*
X039702Y004529D02*
Y005531D01*
Y004529D02*
X039725Y004506D01*
X04248Y003915D02*
X0425D01*
X042115Y00355D02*
X04248Y003915D01*
X040606Y003994D02*
Y004906D01*
X0395Y010015D02*
X039505Y010011D01*
Y008868D02*
Y010011D01*
X040606Y004906D02*
X040686Y004986D01*
X041469Y008283D02*
X041947D01*
X039121Y0119D02*
X039802D01*
X040471D02*
X040602Y011769D01*
X046915Y008452D02*
X047614Y00915D01*
X041469Y007102D02*
X042148D01*
X046915Y00735D02*
Y008452D01*
X040883Y004523D02*
Y005531D01*
Y004523D02*
X0409Y004506D01*
X03855Y00485D02*
X038717Y005017D01*
Y005531D01*
X03855Y004506D02*
Y00485D01*
X037677Y006503D02*
X038124D01*
X038131Y006511D01*
X038114Y006296D02*
X038131Y006314D01*
X036924Y007313D02*
Y00805D01*
Y007313D02*
X037529Y006708D01*
X038131D01*
X036624Y00835D02*
X036924Y00805D01*
X035667Y006303D02*
X036533Y007169D01*
X035667Y005752D02*
Y006303D01*
X036533Y007169D02*
Y007248D01*
D21*
X0388Y010094D02*
D03*
Y010606D02*
D03*
X0379Y004506D02*
D03*
Y003994D02*
D03*
X0372Y004506D02*
D03*
Y003994D02*
D03*
X0366Y004506D02*
D03*
Y003994D02*
D03*
X0379Y012206D02*
D03*
Y011694D02*
D03*
X04285Y008094D02*
D03*
Y008606D02*
D03*
X0481Y012144D02*
D03*
Y012656D02*
D03*
X0423Y008094D02*
D03*
Y008606D02*
D03*
X03825Y010606D02*
D03*
Y010094D02*
D03*
X039137Y004506D02*
D03*
Y003994D02*
D03*
X0409Y004506D02*
D03*
Y003994D02*
D03*
X039725D02*
D03*
Y004506D02*
D03*
X03855Y003994D02*
D03*
Y004506D02*
D03*
X040312Y003994D02*
D03*
Y004506D02*
D03*
D22*
X049878Y0052D02*
D03*
X047122D02*
D03*
D23*
X038131Y008283D02*
D03*
Y008086D02*
D03*
Y007889D02*
D03*
Y007692D02*
D03*
Y007495D02*
D03*
Y007298D02*
D03*
Y007102D02*
D03*
Y006905D02*
D03*
Y006708D02*
D03*
Y006511D02*
D03*
Y006314D02*
D03*
Y006117D02*
D03*
X041469D02*
D03*
Y006314D02*
D03*
Y006511D02*
D03*
Y006708D02*
D03*
Y006905D02*
D03*
Y007102D02*
D03*
Y007298D02*
D03*
Y007495D02*
D03*
Y007692D02*
D03*
Y007889D02*
D03*
Y008086D02*
D03*
Y008283D02*
D03*
D24*
X038717Y005531D02*
D03*
X038914D02*
D03*
X039111D02*
D03*
X039308D02*
D03*
X039505D02*
D03*
X039702D02*
D03*
X039898D02*
D03*
X040095D02*
D03*
X040292D02*
D03*
X040489D02*
D03*
X040686D02*
D03*
X040883D02*
D03*
Y008868D02*
D03*
X040686D02*
D03*
X040489D02*
D03*
X040292D02*
D03*
X040095D02*
D03*
X039898D02*
D03*
X039702D02*
D03*
X039505D02*
D03*
X039308D02*
D03*
X039111D02*
D03*
X038914D02*
D03*
X038717D02*
D03*
D25*
X053915Y0107D02*
D03*
X054585D02*
D03*
X046915Y00665D02*
D03*
X047585D02*
D03*
X039802Y0119D02*
D03*
X040471D02*
D03*
X032852Y015253D02*
D03*
X033521D02*
D03*
X047985Y01165D02*
D03*
X047315D02*
D03*
X039121Y0119D02*
D03*
X038452D02*
D03*
X047585Y00735D02*
D03*
X046915D02*
D03*
X032885Y0077D02*
D03*
X032215D02*
D03*
D26*
X056306Y01335D02*
D03*
X055794D02*
D03*
X033606Y00975D02*
D03*
X033094D02*
D03*
X036356Y0078D02*
D03*
X035844D02*
D03*
Y0052D02*
D03*
X036356D02*
D03*
X056744Y01335D02*
D03*
X057256D02*
D03*
D27*
X0359Y015233D02*
D03*
Y01295D02*
D03*
D28*
X03725Y01585D02*
D03*
X03815D02*
D03*
X033636Y016053D02*
D03*
X032736D02*
D03*
D29*
X039345Y0159D02*
D03*
X038755D02*
D03*
X040695D02*
D03*
X040105D02*
D03*
X041945D02*
D03*
X041355D02*
D03*
X036295Y00835D02*
D03*
X035705D02*
D03*
D30*
X042Y013545D02*
D03*
Y012955D02*
D03*
X0427D02*
D03*
Y013545D02*
D03*
X042Y014745D02*
D03*
Y014155D02*
D03*
X0427Y014745D02*
D03*
Y014155D02*
D03*
X0375Y013345D02*
D03*
Y012755D02*
D03*
X03505Y011455D02*
D03*
Y012045D02*
D03*
D31*
X04035Y014884D02*
D03*
Y012916D02*
D03*
D32*
X03845Y013163D02*
D03*
Y014737D02*
D03*
X05185Y009987D02*
D03*
Y008413D02*
D03*
D33*
X0453Y015513D02*
D03*
Y012087D02*
D03*
D34*
X036376Y010459D02*
D03*
X037124D02*
D03*
X03675Y011641D02*
D03*
X036376D02*
D03*
X037124D02*
D03*
D35*
X035322Y00935D02*
D03*
X036778D02*
D03*
D36*
X049087Y012663D02*
D03*
X049087Y012163D02*
D03*
Y011663D02*
D03*
X049087Y011163D02*
D03*
X051513Y012663D02*
D03*
X051513Y012163D02*
D03*
Y011663D02*
D03*
D37*
X051513Y011163D02*
D03*
D38*
X032444Y010608D02*
D03*
X03335D02*
D03*
X034256D02*
D03*
D39*
X03335Y012892D02*
D03*
D40*
X047614Y00915D02*
D03*
D41*
X05035Y01005D02*
D03*
X05035Y00825D02*
D03*
D42*
X048602Y007492D02*
D03*
X04823Y00651D02*
D03*
X048988Y006508D02*
D03*
X034288Y007708D02*
D03*
X03353Y00771D02*
D03*
X033902Y008692D02*
D03*
D43*
X035667Y005752D02*
D03*
Y007248D02*
D03*
X036533Y005752D02*
D03*
Y007248D02*
D03*
D44*
X0395Y010685D02*
D03*
Y010015D02*
D03*
X0402Y010685D02*
D03*
Y010015D02*
D03*
X0409Y010685D02*
D03*
Y010015D02*
D03*
X0417Y003915D02*
D03*
Y004585D02*
D03*
X04325D02*
D03*
Y003915D02*
D03*
X0425Y004585D02*
D03*
Y003915D02*
D03*
X04405Y004585D02*
D03*
Y003915D02*
D03*
X0582Y011735D02*
D03*
Y011065D02*
D03*
Y012985D02*
D03*
Y012315D02*
D03*
D45*
X057312Y0112D02*
D03*
Y0117D02*
D03*
Y0122D02*
D03*
Y0127D02*
D03*
X055088Y0112D02*
D03*
Y0117D02*
D03*
Y0122D02*
D03*
Y0127D02*
D03*
D82*
X037253Y0111D02*
D03*
X037647D02*
D03*
D83*
X0453Y0155D02*
Y015513D01*
Y015099D02*
Y0155D01*
Y015513D02*
X045413Y0154D01*
X0359Y01166D02*
Y012609D01*
X05185Y009987D02*
Y011613D01*
X0519Y011663D02*
X052563D01*
X05185Y011613D02*
X0519Y011663D01*
X050667Y009753D02*
X05185Y00857D01*
X050667Y009753D02*
Y009989D01*
X050606Y01005D02*
X050667Y009989D01*
X05035Y01005D02*
X050606D01*
X05185Y008413D02*
Y00857D01*
X05485Y01395D02*
Y0154D01*
X052563Y011663D02*
X05485Y01395D01*
X049087Y012663D02*
X049087Y012663D01*
X051513D01*
X032795Y012045D02*
X03505D01*
X03179D02*
X032795D01*
X03015Y01225D02*
X031586D01*
X03179Y012045D01*
X035233Y015233D02*
X0359D01*
X03505Y012045D02*
Y01505D01*
X035233Y015233D01*
X03505Y011455D02*
X035695D01*
X0359Y01166D01*
X034277Y01063D02*
Y011272D01*
X03446Y011455D01*
X03505D01*
X034256Y010608D02*
X034277Y01063D01*
X032444Y010608D02*
Y011694D01*
X032795Y012045D01*
X033011Y013189D02*
X03335Y01285D01*
X032731Y013189D02*
X033011D01*
X03267Y01325D02*
X032731Y013189D01*
X03015Y01325D02*
X03267D01*
X03845Y0147D02*
Y014895D01*
X038743Y015188D02*
Y015888D01*
X03845Y014895D02*
X038743Y015188D01*
X0427Y013545D02*
Y014155D01*
X040369Y012935D02*
X041988D01*
X04035Y012916D02*
X040369Y012935D01*
X042Y012947D02*
Y012955D01*
X041988Y012935D02*
X042Y012947D01*
X041945Y015188D02*
X041988Y015145D01*
Y014757D02*
X042Y014745D01*
X041988Y014757D02*
Y015145D01*
X041945Y015188D02*
Y0159D01*
X03845Y01332D02*
X03861Y01348D01*
X038767D01*
X039212Y013924D01*
X0404D01*
X038743Y015888D02*
X038755Y0159D01*
X040695D02*
X041355D01*
X044946Y014745D02*
X0453Y015099D01*
X0427Y014745D02*
X044946D01*
X042D02*
X0427D01*
X045081Y012719D02*
X0453Y012501D01*
Y01225D02*
Y012501D01*
X0427Y012945D02*
Y012955D01*
Y012945D02*
X042712Y012933D01*
X042722D01*
X042935Y012719D01*
X045081D01*
X042Y013545D02*
Y014155D01*
X045413Y0154D02*
X0485D01*
D84*
X04285Y008086D02*
Y008094D01*
X0361Y015434D02*
Y0162D01*
X0362Y0163D01*
X0359Y015233D02*
X0361Y015434D01*
X0362Y0163D02*
X03805D01*
X03815Y0162D01*
Y01585D02*
Y0162D01*
X040606Y003994D02*
X0409D01*
X040312D02*
X040606D01*
X039725D02*
X040312D01*
X039137D02*
X039725D01*
X03855D02*
X039137D01*
X0379D02*
X03855D01*
X0485Y0154D02*
X0495Y0164D01*
X057D01*
X05755Y01585D01*
X0563Y01285D02*
X056303Y012853D01*
Y013347D02*
X056306Y01335D01*
X056303Y012853D02*
Y013347D01*
X057287Y0127D02*
X057312D01*
X0386Y011027D02*
X040689D01*
X038132D02*
X0386D01*
X03825Y010094D02*
X0388D01*
X0378Y010694D02*
X038132Y011027D01*
X0379Y010094D02*
X03825D01*
X0378Y010194D02*
Y010694D01*
Y010194D02*
X0379Y010094D01*
X037815Y0111D02*
X037913Y011198D01*
X037647Y0111D02*
X037815D01*
X0379Y011413D02*
Y011694D01*
X037913Y011198D02*
Y011413D01*
X0391Y010645D02*
X039461D01*
X038289D02*
X0391D01*
X0395Y010685D02*
X0402D01*
X039461Y010645D02*
X0395Y010685D01*
X03825Y010606D02*
X038289Y010645D01*
X05755Y01435D02*
Y01585D01*
X057256Y014056D02*
X05755Y01435D01*
X05655Y01525D02*
X05663Y01517D01*
X05655Y01525D02*
Y01585D01*
X034288Y006608D02*
X0347Y006196D01*
Y00495D02*
Y006196D01*
X0317Y004945D02*
Y0086D01*
X032444Y009344D01*
Y009906D01*
X042587Y003663D02*
Y003828D01*
X0425Y003915D02*
X042587Y003828D01*
Y003663D02*
X0426Y00365D01*
X044494Y004231D02*
X044507Y004243D01*
X044385Y004231D02*
X044494D01*
X04407Y003915D02*
X044385Y004231D01*
X0372Y003994D02*
X0379D01*
X0366D02*
X0372D01*
X036006D02*
X0366D01*
X035844Y004156D02*
Y00515D01*
Y004156D02*
X036006Y003994D01*
X0461Y00645D02*
Y0083D01*
X04325Y004585D02*
X04405D01*
X04405Y004585D01*
Y003915D02*
X04407D01*
X045509Y008891D02*
X0461Y0083D01*
X0416Y00565D02*
X0505D01*
X0434Y008928D02*
X043418D01*
X043456Y008891D01*
X045509D01*
X046Y01145D02*
X046018D01*
X046218Y01165D01*
X047315D01*
X04407Y003915D02*
X044235Y00375D01*
X04855D01*
X048988Y006476D02*
Y006508D01*
X0519Y00515D02*
Y00599D01*
Y00375D02*
Y00515D01*
X05185Y0052D02*
X0519Y00515D01*
X049878Y0052D02*
X05185D01*
X053728Y00585D02*
X058453D01*
X052744Y006834D02*
X053728Y00585D01*
X0519Y00599D02*
X052744Y006834D01*
X030238Y006338D02*
X030638D01*
X03015Y00625D02*
X030238Y006338D01*
X030638D02*
X03085Y00655D01*
Y01145D01*
X048762Y011163D02*
X049087D01*
X048649Y01105D02*
X048762Y011163D01*
X044903Y01105D02*
X048649D01*
X037157Y011851D02*
X037451D01*
X037753Y012153D02*
X037847D01*
X037451Y011851D02*
X037753Y012153D01*
X037847D02*
X0379Y012206D01*
X037124Y011818D02*
X037157Y011851D01*
X037124Y011641D02*
Y011818D01*
X0359Y012556D02*
X036206Y01225D01*
X037856D01*
X0379Y012206D01*
X0359Y012814D02*
X036209Y012505D01*
X0359Y012556D02*
Y012609D01*
X0551Y0112D02*
X05565D01*
X055088D02*
X0551D01*
X0505Y00565D02*
X053915Y009065D01*
Y0107D01*
X04482Y01053D02*
X04487D01*
X040689Y011027D02*
X044323D01*
X04487Y01053D02*
X0451Y0103D01*
X044323Y011027D02*
X04482Y01053D01*
X043691Y012262D02*
X04445Y011503D01*
Y011503D02*
Y011503D01*
X038232Y012262D02*
X043691D01*
X04445Y011503D02*
X044903Y01105D01*
X038229Y012259D02*
X038232Y012262D01*
X037953Y012259D02*
X038229D01*
X032215Y0077D02*
X03225Y007735D01*
Y008432D01*
X0324Y008582D02*
Y0086D01*
X03225Y008432D02*
X0324Y008582D01*
X032444Y009906D02*
Y010608D01*
X033876Y008718D02*
X033902Y008692D01*
X033876Y008718D02*
Y00945D01*
X034288Y006608D02*
Y007708D01*
X033525Y007705D02*
X03353Y00771D01*
X032885Y0077D02*
X03289Y007705D01*
X033525D01*
X033606Y00972D02*
Y00975D01*
Y00972D02*
X033876Y00945D01*
X032444Y009906D02*
X0326Y00975D01*
X033094D01*
X034256Y009856D02*
Y010608D01*
X03415Y00975D02*
X034256Y009856D01*
X033606Y00975D02*
X03415D01*
X037913Y011413D02*
X037925Y011425D01*
X040689Y011027D02*
X040788Y010927D01*
Y010777D02*
Y010927D01*
X04088Y010685D02*
X0409D01*
X040788Y010777D02*
X04088Y010685D01*
X0425Y004585D02*
X04325D01*
X0417D02*
X0425D01*
X041008D02*
X0417D01*
X04093Y004506D02*
X041008Y004585D01*
X0409Y004506D02*
X04093D01*
X047585Y00665D02*
X048148D01*
X04823Y00651D02*
Y006568D01*
X048148Y00665D02*
X04823Y006568D01*
X048602Y007432D02*
Y007492D01*
X047585Y00735D02*
X04852D01*
X048602Y007432D01*
X050094Y00825D02*
X05035D01*
X048602Y007492D02*
X049336D01*
X050094Y00825D01*
X047985Y01165D02*
X047991Y011656D01*
X049081D02*
X049087Y011663D01*
X047991Y011656D02*
X049081D01*
X049078Y012153D02*
X049087Y012163D01*
X0481Y012144D02*
X048109Y012153D01*
X049078D01*
X048103Y012659D02*
X049083D01*
X049087Y012663D01*
X0481Y012656D02*
X048103Y012659D01*
X038265Y011694D02*
X038452Y01188D01*
X0379Y011694D02*
X038265D01*
X038452Y01188D02*
Y0119D01*
X036209Y012505D02*
X039706D01*
X0359Y012609D02*
Y012814D01*
X03335Y010608D02*
Y01155D01*
X056576Y0107D02*
X057076Y0112D01*
X057312D01*
X054585Y0107D02*
X056576D01*
X05565Y0112D02*
X055794Y011344D01*
Y01335D01*
X057748Y012985D02*
X0582D01*
X057561Y012798D02*
X057748Y012985D01*
X057561Y012731D02*
Y012798D01*
X057531Y0127D02*
X057561Y012731D01*
X057312Y0127D02*
X057531D01*
X057964Y011158D02*
X058108D01*
X057922Y0112D02*
X057964Y011158D01*
X058108D02*
X0582Y011065D01*
X057312Y0112D02*
X057922D01*
X057601Y011735D02*
X0582D01*
X057566Y0117D02*
X057601Y011735D01*
X057312Y0117D02*
X057566D01*
X0582Y011735D02*
Y012315D01*
X056844Y0122D02*
X057312D01*
X056744Y0123D02*
Y01335D01*
Y0123D02*
X056844Y0122D01*
X057256Y012731D02*
Y01335D01*
Y012731D02*
X057287Y0127D01*
X057256Y01335D02*
Y014056D01*
X05663Y01412D02*
X056744Y014006D01*
X05663Y01412D02*
Y01517D01*
X056744Y01335D02*
Y014006D01*
X036395Y00835D02*
X036624D01*
X036445Y009017D02*
X036778Y00935D01*
X036748Y008474D02*
Y009319D01*
X036624Y00835D02*
X036748Y008474D01*
X036778Y00935D02*
X037124Y009696D01*
X036748Y009319D02*
X036778Y00935D01*
X035421Y00835D02*
X0357D01*
X035322Y00845D02*
Y00935D01*
Y00845D02*
X035421Y00835D01*
X037124Y009696D02*
Y010459D01*
X036376D02*
X037124D01*
X035322Y010628D02*
X035793Y0111D01*
X0369D01*
X035322Y00935D02*
Y010628D01*
X03675Y01125D02*
Y011641D01*
X03675Y011641D01*
X03675Y01125D02*
X0369Y0111D01*
X03725D01*
X03335Y01285D02*
X03345Y01295D01*
X0359Y012814D02*
Y01295D01*
X03725Y0158D02*
Y01585D01*
X037495Y01335D02*
X0375Y013345D01*
X0359Y01484D02*
X036209Y014531D01*
X037239D01*
X03845Y01332D01*
Y013163D02*
Y01332D01*
X039706Y012505D02*
X039825Y012624D01*
Y012646D01*
X040094Y012916D01*
X04035D01*
X03934Y014549D02*
Y015895D01*
X039336Y014544D02*
X03934Y014549D01*
Y015895D02*
X039345Y0159D01*
X040209Y0156D02*
Y015798D01*
X040308Y0155D02*
X04065D01*
X040105Y0159D02*
X040107D01*
X040209Y015798D01*
Y0156D02*
X040308Y0155D01*
X042695Y014155D02*
X0427D01*
D85*
X0451Y0103D02*
D03*
X05655Y01585D02*
D03*
D86*
X0441Y0103D02*
D03*
X0431D02*
D03*
X0421D02*
D03*
X05755Y01585D02*
D03*
X03025Y00625D02*
D03*
Y00725D02*
D03*
Y00825D02*
D03*
Y00925D02*
D03*
Y01025D02*
D03*
Y01125D02*
D03*
Y01225D02*
D03*
D87*
X0576Y00965D02*
D03*
X0445Y00725D02*
D03*
X0311Y0154D02*
D03*
D88*
X05285D02*
D03*
X05485D02*
D03*
X0485D02*
D03*
X0505D02*
D03*
D89*
X03025Y01325D02*
D03*
D90*
X0555Y008055D02*
D03*
Y003645D02*
D03*
D91*
X052744Y006834D02*
D03*
Y004866D02*
D03*
X058453Y006834D02*
D03*
Y00585D02*
D03*
Y004866D02*
D03*
D92*
X0347Y00495D02*
D03*
D93*
X0317Y004945D02*
D03*
D94*
X057218Y003801D02*
D03*
X0574Y00785D02*
D03*
X056033Y009606D02*
D03*
X058574Y014569D02*
D03*
X034719Y01256D02*
D03*
X03195Y01405D02*
D03*
X0347Y016D02*
D03*
X0359Y015233D02*
D03*
X04445Y01495D02*
D03*
X0461Y0145D02*
D03*
X0433Y016D02*
D03*
X0467Y0161D02*
D03*
X043942Y013573D02*
D03*
X0327Y00385D02*
D03*
X0352Y0033D02*
D03*
X03045Y0042D02*
D03*
X04855Y00375D02*
D03*
X0519D02*
D03*
D95*
X0453Y015013D02*
D03*
X04555D02*
D03*
Y015513D02*
D03*
X0453D02*
D03*
X04555Y015263D02*
D03*
X0453D02*
D03*
X04555Y016013D02*
D03*
X0453D02*
D03*
Y015513D02*
D03*
X04555D02*
D03*
X0453Y015763D02*
D03*
X04555D02*
D03*
X0409Y013924D02*
D03*
Y014174D02*
D03*
X0404D02*
D03*
Y013924D02*
D03*
X04065Y014174D02*
D03*
Y013924D02*
D03*
X0399Y014174D02*
D03*
Y013924D02*
D03*
X0404D02*
D03*
Y014174D02*
D03*
X04015Y013924D02*
D03*
Y014174D02*
D03*
X0399Y013924D02*
D03*
Y013674D02*
D03*
X0404D02*
D03*
Y013924D02*
D03*
X04015Y013674D02*
D03*
Y013924D02*
D03*
X0409Y013674D02*
D03*
Y013924D02*
D03*
X0404D02*
D03*
Y013674D02*
D03*
X04065Y013924D02*
D03*
Y013674D02*
D03*
X0453Y0155D02*
D03*
X04285Y008086D02*
D03*
X0563Y01285D02*
D03*
X057287Y0127D02*
D03*
X04285Y0086D02*
D03*
X0386Y011027D02*
D03*
X04325Y003933D02*
D03*
X0426Y00365D02*
D03*
X0417Y0038D02*
D03*
X044507Y004243D02*
D03*
X0366Y0045D02*
D03*
X036954Y00355D02*
D03*
X0379Y004506D02*
D03*
X0372D02*
D03*
X04145Y00515D02*
D03*
X040884Y009865D02*
D03*
X0409Y0069D02*
D03*
X0461Y006476D02*
D03*
X03865Y0071D02*
D03*
X03655Y0065D02*
D03*
X0403Y0045D02*
D03*
X039137Y004506D02*
D03*
X03855D02*
D03*
X042642Y008938D02*
D03*
X0434Y008928D02*
D03*
X046Y01145D02*
D03*
X048988Y006476D02*
D03*
X03085Y01145D02*
D03*
X03355Y01385D02*
D03*
X0314Y0112D02*
D03*
X04615Y01105D02*
D03*
X036376Y011641D02*
D03*
X037124D02*
D03*
X05035Y01005D02*
D03*
Y0103D02*
D03*
Y0098D02*
D03*
X0506D02*
D03*
Y0103D02*
D03*
Y01005D02*
D03*
X05085Y0098D02*
D03*
Y0103D02*
D03*
Y01005D02*
D03*
X05035Y0098D02*
D03*
Y01005D02*
D03*
Y00955D02*
D03*
X0506D02*
D03*
Y01005D02*
D03*
Y0098D02*
D03*
X05085Y00955D02*
D03*
Y01005D02*
D03*
Y0098D02*
D03*
X0501D02*
D03*
Y01005D02*
D03*
Y00955D02*
D03*
X05035D02*
D03*
Y01005D02*
D03*
Y0098D02*
D03*
X0506Y00955D02*
D03*
Y01005D02*
D03*
Y0098D02*
D03*
X0501Y01005D02*
D03*
Y0103D02*
D03*
Y0098D02*
D03*
X05035D02*
D03*
Y0103D02*
D03*
Y01005D02*
D03*
X0506Y0098D02*
D03*
Y0103D02*
D03*
Y01005D02*
D03*
X0486Y0084D02*
D03*
D03*
Y00865D02*
D03*
Y0084D02*
D03*
Y0089D02*
D03*
Y00915D02*
D03*
Y0099D02*
D03*
Y01015D02*
D03*
Y00965D02*
D03*
Y0094D02*
D03*
Y0084D02*
D03*
D03*
D03*
X04835D02*
D03*
D03*
Y00865D02*
D03*
Y0084D02*
D03*
Y0089D02*
D03*
Y00915D02*
D03*
Y0099D02*
D03*
Y01015D02*
D03*
Y00965D02*
D03*
Y0094D02*
D03*
Y0084D02*
D03*
D03*
D03*
X0481D02*
D03*
D03*
Y00865D02*
D03*
Y0084D02*
D03*
Y0089D02*
D03*
Y00915D02*
D03*
Y0099D02*
D03*
Y01015D02*
D03*
Y00965D02*
D03*
Y0094D02*
D03*
Y0084D02*
D03*
D03*
D03*
X0471D02*
D03*
D03*
Y00865D02*
D03*
Y0084D02*
D03*
Y0089D02*
D03*
Y00915D02*
D03*
Y0099D02*
D03*
Y01015D02*
D03*
Y00965D02*
D03*
Y0094D02*
D03*
Y0084D02*
D03*
D03*
D03*
X04685D02*
D03*
D03*
Y00865D02*
D03*
Y0084D02*
D03*
Y0089D02*
D03*
Y00915D02*
D03*
Y0099D02*
D03*
Y01015D02*
D03*
Y00965D02*
D03*
Y0094D02*
D03*
Y0084D02*
D03*
D03*
D03*
X0471D02*
D03*
X04685D02*
D03*
X0471D02*
D03*
X04685D02*
D03*
X04735D02*
D03*
X0471D02*
D03*
X04735D02*
D03*
D03*
X04685D02*
D03*
X0486D02*
D03*
D03*
X04835D02*
D03*
X0486D02*
D03*
X04835D02*
D03*
D03*
X0481D02*
D03*
X04835D02*
D03*
X0481D02*
D03*
X04835D02*
D03*
X04785D02*
D03*
X0481D02*
D03*
X04785D02*
D03*
D03*
X04835D02*
D03*
X04785Y0094D02*
D03*
Y00965D02*
D03*
Y01015D02*
D03*
Y0099D02*
D03*
Y00915D02*
D03*
Y0089D02*
D03*
Y0084D02*
D03*
Y00865D02*
D03*
X04735Y0094D02*
D03*
Y00965D02*
D03*
Y01015D02*
D03*
Y0099D02*
D03*
Y00915D02*
D03*
Y0089D02*
D03*
Y0084D02*
D03*
Y00865D02*
D03*
Y0084D02*
D03*
X0476D02*
D03*
X04735D02*
D03*
X04785D02*
D03*
X0476D02*
D03*
X04785D02*
D03*
X0476Y00865D02*
D03*
Y0084D02*
D03*
Y0089D02*
D03*
Y00865D02*
D03*
Y00915D02*
D03*
Y0089D02*
D03*
Y0099D02*
D03*
Y01015D02*
D03*
Y00965D02*
D03*
Y0099D02*
D03*
Y0094D02*
D03*
Y00965D02*
D03*
Y0094D02*
D03*
X0551Y0112D02*
D03*
X04495Y0092D02*
D03*
X0324Y0086D02*
D03*
X04355Y01131D02*
D03*
X037925Y011425D02*
D03*
X0402Y00995D02*
D03*
X040062Y00825D02*
D03*
X039712Y007188D02*
D03*
X040144Y006333D02*
D03*
X03966Y0061D02*
D03*
X0408Y011727D02*
D03*
X0314Y0089D02*
D03*
X03735Y0086D02*
D03*
X03755Y00725D02*
D03*
X039624Y008318D02*
D03*
X039462Y005023D02*
D03*
X03925Y008266D02*
D03*
X03755Y007566D02*
D03*
X039198Y004849D02*
D03*
X0371Y00825D02*
D03*
X0399Y00965D02*
D03*
X0416Y00565D02*
D03*
X04165Y0046D02*
D03*
X03335Y01155D02*
D03*
X0476Y00915D02*
D03*
X05035Y01005D02*
D03*
X03565Y00715D02*
D03*
X0357Y00835D02*
D03*
X0359Y015233D02*
D03*
X03335Y01285D02*
D03*
X03725Y0158D02*
D03*
X037495Y01335D02*
D03*
X0397Y01515D02*
D03*
X03845Y0147D02*
D03*
X039336Y014544D02*
D03*
X04065Y0155D02*
D03*
X042695Y014155D02*
D03*
X042D02*
D03*
X0404Y013924D02*
D03*
X0453Y01225D02*
D03*
M02*
