G04*
G04 #@! TF.GenerationSoftware,Altium Limited,Altium Designer,21.3.2 (30)*
G04*
G04 Layer_Color=8388736*
%FSTAX25Y25*%
%MOIN*%
G70*
G04*
G04 #@! TF.SameCoordinates,0A4AD645-AEA6-451A-A6B0-79CA1E045321*
G04*
G04*
G04 #@! TF.FilePolarity,Negative*
G04*
G01*
G75*
%ADD41R,0.01781X0.07293*%
%ADD42R,0.07293X0.01781*%
%ADD43R,0.08674X0.16942*%
%ADD44R,0.05524X0.04147*%
G04:AMPARAMS|DCode=45|XSize=47.37mil|YSize=43.43mil|CornerRadius=8.43mil|HoleSize=0mil|Usage=FLASHONLY|Rotation=90.000|XOffset=0mil|YOffset=0mil|HoleType=Round|Shape=RoundedRectangle|*
%AMROUNDEDRECTD45*
21,1,0.04737,0.02657,0,0,90.0*
21,1,0.03051,0.04343,0,0,90.0*
1,1,0.01686,0.01329,0.01526*
1,1,0.01686,0.01329,-0.01526*
1,1,0.01686,-0.01329,-0.01526*
1,1,0.01686,-0.01329,0.01526*
%
%ADD45ROUNDEDRECTD45*%
%ADD46R,0.04147X0.03556*%
%ADD47R,0.03556X0.04147*%
%ADD48R,0.04737X0.06312*%
%ADD49R,0.05524X0.03950*%
G04:AMPARAMS|DCode=50|XSize=47.37mil|YSize=43.43mil|CornerRadius=8.43mil|HoleSize=0mil|Usage=FLASHONLY|Rotation=0.000|XOffset=0mil|YOffset=0mil|HoleType=Round|Shape=RoundedRectangle|*
%AMROUNDEDRECTD50*
21,1,0.04737,0.02657,0,0,0.0*
21,1,0.03051,0.04343,0,0,0.0*
1,1,0.01686,0.01526,-0.01329*
1,1,0.01686,-0.01526,-0.01329*
1,1,0.01686,-0.01526,0.01329*
1,1,0.01686,0.01526,0.01329*
%
%ADD50ROUNDEDRECTD50*%
%ADD51R,0.05800X0.06300*%
G04:AMPARAMS|DCode=52|XSize=143.83mil|YSize=78.87mil|CornerRadius=0mil|HoleSize=0mil|Usage=FLASHONLY|Rotation=315.000|XOffset=0mil|YOffset=0mil|HoleType=Round|Shape=Rectangle|*
%AMROTATEDRECTD52*
4,1,4,-0.07873,0.02297,-0.02297,0.07873,0.07873,-0.02297,0.02297,-0.07873,-0.07873,0.02297,0.0*
%
%ADD52ROTATEDRECTD52*%

%ADD53R,0.08674X0.16548*%
%ADD54R,0.10642X0.05524*%
%ADD55R,0.26391X0.24422*%
%ADD56R,0.07493X0.10642*%
%ADD57R,0.04340X0.04537*%
G04:AMPARAMS|DCode=58|XSize=41.47mil|YSize=35.56mil|CornerRadius=0mil|HoleSize=0mil|Usage=FLASHONLY|Rotation=135.000|XOffset=0mil|YOffset=0mil|HoleType=Round|Shape=Rectangle|*
%AMROTATEDRECTD58*
4,1,4,0.02723,-0.00209,0.00209,-0.02723,-0.02723,0.00209,-0.00209,0.02723,0.02723,-0.00209,0.0*
%
%ADD58ROTATEDRECTD58*%

%ADD59O,0.07887X0.03162*%
%ADD60R,0.04537X0.04340*%
%ADD61R,0.13005X0.07887*%
%ADD62C,0.07099*%
%ADD63R,0.07099X0.07099*%
%ADD64R,0.07099X0.07099*%
G04:AMPARAMS|DCode=65|XSize=130.05mil|YSize=126.11mil|CornerRadius=33.53mil|HoleSize=0mil|Usage=FLASHONLY|Rotation=0.000|XOffset=0mil|YOffset=0mil|HoleType=Round|Shape=RoundedRectangle|*
%AMROUNDEDRECTD65*
21,1,0.13005,0.05906,0,0,0.0*
21,1,0.06299,0.12611,0,0,0.0*
1,1,0.06706,0.03150,-0.02953*
1,1,0.06706,-0.03150,-0.02953*
1,1,0.06706,-0.03150,0.02953*
1,1,0.06706,0.03150,0.02953*
%
%ADD65ROUNDEDRECTD65*%
%ADD66C,0.07296*%
%ADD67R,0.06706X0.06706*%
%ADD68C,0.06706*%
%ADD69C,0.11800*%
%ADD70C,0.12800*%
D41*
X0335173Y0299685D02*
D03*
X0337142D02*
D03*
X033911D02*
D03*
X0341079D02*
D03*
X0343047D02*
D03*
X0345016D02*
D03*
X0346984D02*
D03*
X0348953D02*
D03*
X0350921D02*
D03*
X035289D02*
D03*
X0354858D02*
D03*
X0356827D02*
D03*
Y0266315D02*
D03*
X0354858D02*
D03*
X035289D02*
D03*
X0350921D02*
D03*
X0348953D02*
D03*
X0346984D02*
D03*
X0345016D02*
D03*
X0343047D02*
D03*
X0341079D02*
D03*
X033911D02*
D03*
X0337142D02*
D03*
X0335173D02*
D03*
D42*
X0362685Y0293827D02*
D03*
Y0291858D02*
D03*
Y028989D02*
D03*
Y0287921D02*
D03*
Y0285953D02*
D03*
Y0283984D02*
D03*
Y0282016D02*
D03*
Y0280047D02*
D03*
Y0278079D02*
D03*
Y027611D02*
D03*
Y0274142D02*
D03*
Y0272173D02*
D03*
X0329315D02*
D03*
Y0274142D02*
D03*
Y027611D02*
D03*
Y0278079D02*
D03*
Y0280047D02*
D03*
Y0282016D02*
D03*
Y0283984D02*
D03*
Y0285953D02*
D03*
Y0287921D02*
D03*
Y028989D02*
D03*
Y0291858D02*
D03*
Y0293827D02*
D03*
D43*
X0394Y0384126D02*
D03*
Y0349874D02*
D03*
D44*
X0379421Y033398D02*
D03*
X03696Y03377D02*
D03*
X0369579Y033012D02*
D03*
X0374579Y021262D02*
D03*
X03746Y02202D02*
D03*
X0384421Y021648D02*
D03*
D45*
X0376346Y0344D02*
D03*
X0369654D02*
D03*
X0312154Y0305D02*
D03*
X0318847D02*
D03*
X0384347Y02735D02*
D03*
X0377654D02*
D03*
X0416847Y0266D02*
D03*
X0410153D02*
D03*
X0376346Y03235D02*
D03*
X0369654D02*
D03*
D46*
X0304Y0265559D02*
D03*
Y0260441D02*
D03*
X0372Y0291941D02*
D03*
Y0297059D02*
D03*
X0315Y0265559D02*
D03*
Y0260441D02*
D03*
X03095Y0265559D02*
D03*
Y0260441D02*
D03*
X03775Y0291941D02*
D03*
Y0297059D02*
D03*
X0383Y0291941D02*
D03*
Y0297059D02*
D03*
X0339375Y0256059D02*
D03*
Y0250941D02*
D03*
X0357Y0256059D02*
D03*
Y0250941D02*
D03*
X034525D02*
D03*
Y0256059D02*
D03*
X03335Y0250941D02*
D03*
Y0256059D02*
D03*
X0351125Y0250941D02*
D03*
Y0256059D02*
D03*
D47*
X0318059Y02985D02*
D03*
X0312941D02*
D03*
Y02715D02*
D03*
X0318059D02*
D03*
X0337059Y0309D02*
D03*
X0331941D02*
D03*
X0391941Y0266D02*
D03*
X0397059D02*
D03*
X0417441Y02995D02*
D03*
X0422559D02*
D03*
D48*
X0311169Y027752D02*
D03*
Y029248D02*
D03*
X0319831Y027752D02*
D03*
Y029248D02*
D03*
D49*
X030772Y03255D02*
D03*
X0335279D02*
D03*
D50*
X03625Y0336653D02*
D03*
Y0343347D02*
D03*
X0343Y0320847D02*
D03*
Y0314154D02*
D03*
X03495Y0320847D02*
D03*
Y0314154D02*
D03*
X0357Y0320847D02*
D03*
Y0314154D02*
D03*
X0365Y0250153D02*
D03*
Y0256846D02*
D03*
X03805D02*
D03*
Y0250153D02*
D03*
X0373Y0256846D02*
D03*
Y0250153D02*
D03*
X0392Y0285653D02*
D03*
Y0292347D02*
D03*
X04005Y0293807D02*
D03*
Y03005D02*
D03*
X0326Y0256846D02*
D03*
Y0250153D02*
D03*
X03625Y0329847D02*
D03*
Y0323153D02*
D03*
X0406Y0293807D02*
D03*
Y03005D02*
D03*
X0392Y0273654D02*
D03*
Y0280346D02*
D03*
X0432Y0277847D02*
D03*
Y0271153D02*
D03*
Y0290347D02*
D03*
Y0283653D02*
D03*
X03745Y0227654D02*
D03*
Y0234347D02*
D03*
D51*
X032Y0313D02*
D03*
X0311D02*
D03*
X03245Y0388D02*
D03*
X03155D02*
D03*
D52*
X0412275Y0340275D02*
D03*
X0427725Y0355725D02*
D03*
D53*
X0302Y0359D02*
D03*
Y0381835D02*
D03*
D54*
X0387882Y0326963D02*
D03*
X0387882Y0308963D02*
D03*
D55*
X0415244Y0317963D02*
D03*
D56*
X03275Y0376874D02*
D03*
Y0361126D02*
D03*
D57*
X037Y0364953D02*
D03*
Y0359047D02*
D03*
X0363D02*
D03*
Y0364953D02*
D03*
X0318Y0357047D02*
D03*
Y0362953D02*
D03*
X0363Y0371047D02*
D03*
Y0376953D02*
D03*
X037Y0371047D02*
D03*
Y0376953D02*
D03*
D58*
X042931Y034281D02*
D03*
X0425691Y0339191D02*
D03*
D59*
X0423122Y02725D02*
D03*
Y02775D02*
D03*
Y02825D02*
D03*
Y02875D02*
D03*
X0400878Y02725D02*
D03*
Y02775D02*
D03*
Y02825D02*
D03*
Y02875D02*
D03*
D60*
X0330547Y03885D02*
D03*
X0336453D02*
D03*
X0344047D02*
D03*
X0349953D02*
D03*
X0356547D02*
D03*
X0362453D02*
D03*
D61*
X03465Y0358658D02*
D03*
Y0378343D02*
D03*
D62*
X0447Y02915D02*
D03*
X03235Y0342D02*
D03*
X03335D02*
D03*
X03435D02*
D03*
X0293Y02655D02*
D03*
Y02755D02*
D03*
Y02855D02*
D03*
Y02955D02*
D03*
Y03055D02*
D03*
Y03155D02*
D03*
Y03255D02*
D03*
X03115Y02345D02*
D03*
D63*
X0447Y02815D02*
D03*
X0293Y03355D02*
D03*
X03115Y02245D02*
D03*
D64*
X03535Y0342D02*
D03*
D65*
X04215Y0256547D02*
D03*
Y0212453D02*
D03*
D66*
X0393941Y0244342D02*
D03*
Y0224658D02*
D03*
X0451028Y0244342D02*
D03*
Y02345D02*
D03*
Y0224658D02*
D03*
D67*
X03615Y02245D02*
D03*
D68*
X03315Y022445D02*
D03*
D69*
X04265Y0382D02*
D03*
X04465D02*
D03*
D70*
X0447Y0331D02*
D03*
Y0351D02*
D03*
M02*
