G04*
G04 #@! TF.GenerationSoftware,Altium Limited,Altium Designer,21.3.2 (30)*
G04*
G04 Layer_Color=16711935*
%FSTAX25Y25*%
%MOIN*%
G70*
G04*
G04 #@! TF.SameCoordinates,665701D7-0C42-49A3-A721-B3261F62B861*
G04*
G04*
G04 #@! TF.FilePolarity,Negative*
G04*
G01*
G75*
%ADD69C,0.07099*%
%ADD70R,0.07099X0.07099*%
%ADD71C,0.06706*%
%ADD72R,0.06706X0.06706*%
G04:AMPARAMS|DCode=73|XSize=130.05mil|YSize=126.11mil|CornerRadius=33.53mil|HoleSize=0mil|Usage=FLASHONLY|Rotation=0.000|XOffset=0mil|YOffset=0mil|HoleType=Round|Shape=RoundedRectangle|*
%AMROUNDEDRECTD73*
21,1,0.13005,0.05906,0,0,0.0*
21,1,0.06299,0.12611,0,0,0.0*
1,1,0.06706,0.03150,-0.02953*
1,1,0.06706,-0.03150,-0.02953*
1,1,0.06706,-0.03150,0.02953*
1,1,0.06706,0.03150,0.02953*
%
%ADD73ROUNDEDRECTD73*%
%ADD74C,0.07296*%
%ADD75R,0.09800X0.08800*%
%ADD76O,0.09800X0.08800*%
%ADD77R,0.06706X0.06706*%
%ADD78C,0.11800*%
%ADD79C,0.08800*%
%ADD101R,0.07200X0.09800*%
%ADD102R,0.13792X0.10288*%
G04:AMPARAMS|DCode=103|XSize=85.56mil|YSize=31.62mil|CornerRadius=10.38mil|HoleSize=0mil|Usage=FLASHONLY|Rotation=270.000|XOffset=0mil|YOffset=0mil|HoleType=Round|Shape=RoundedRectangle|*
%AMROUNDEDRECTD103*
21,1,0.08556,0.01087,0,0,270.0*
21,1,0.06480,0.03162,0,0,270.0*
1,1,0.02076,-0.00543,-0.03240*
1,1,0.02076,-0.00543,0.03240*
1,1,0.02076,0.00543,0.03240*
1,1,0.02076,0.00543,-0.03240*
%
%ADD103ROUNDEDRECTD103*%
D69*
X02385Y02895D02*
D03*
Y02995D02*
D03*
Y03095D02*
D03*
Y03195D02*
D03*
Y03295D02*
D03*
Y03395D02*
D03*
Y03495D02*
D03*
X0306Y02205D02*
D03*
X04485Y03155D02*
D03*
Y03055D02*
D03*
D70*
X02385Y03595D02*
D03*
X0306Y02105D02*
D03*
D71*
X0346Y0331D02*
D03*
Y0321D02*
D03*
Y0311D02*
D03*
Y0301D02*
D03*
X02525Y022295D02*
D03*
D72*
X0346Y0291D02*
D03*
D73*
X0416Y02505D02*
D03*
Y0206405D02*
D03*
D74*
X0388441Y0238295D02*
D03*
Y021861D02*
D03*
X0445528Y0238295D02*
D03*
Y0228453D02*
D03*
Y021861D02*
D03*
D75*
X04485Y03355D02*
D03*
D76*
Y03255D02*
D03*
D77*
X02825Y0223D02*
D03*
D78*
X04265Y0382D02*
D03*
X04465D02*
D03*
D79*
X0348Y036361D02*
D03*
Y037739D02*
D03*
X0446Y0369D02*
D03*
X0426D02*
D03*
D101*
X04313Y03555D02*
D03*
X04467D02*
D03*
D102*
X0389Y0370244D02*
D03*
D103*
X03815Y03605D02*
D03*
X03865D02*
D03*
X03915D02*
D03*
X03965D02*
D03*
Y0379988D02*
D03*
X03915D02*
D03*
X03865D02*
D03*
X03815D02*
D03*
M02*
