G04*
G04 #@! TF.GenerationSoftware,Altium Limited,Altium Designer,21.3.2 (30)*
G04*
G04 Layer_Color=128*
%FSTAX25Y25*%
%MOIN*%
G70*
G04*
G04 #@! TF.SameCoordinates,0A4AD645-AEA6-451A-A6B0-79CA1E045321*
G04*
G04*
G04 #@! TF.FilePolarity,Positive*
G04*
G01*
G75*
%ADD25R,0.03347X0.02756*%
%ADD36R,0.03740X0.03937*%
%ADD86R,0.05512X0.04724*%
%ADD87R,0.03740X0.03543*%
%ADD88R,0.06400X0.09000*%
G04:AMPARAMS|DCode=90|XSize=77.56mil|YSize=23.62mil|CornerRadius=6.38mil|HoleSize=0mil|Usage=FLASHONLY|Rotation=270.000|XOffset=0mil|YOffset=0mil|HoleType=Round|Shape=RoundedRectangle|*
%AMROUNDEDRECTD90*
21,1,0.07756,0.01087,0,0,270.0*
21,1,0.06480,0.02362,0,0,270.0*
1,1,0.01276,-0.00543,-0.03240*
1,1,0.01276,-0.00543,0.03240*
1,1,0.01276,0.00543,0.03240*
1,1,0.01276,0.00543,-0.03240*
%
%ADD90ROUNDEDRECTD90*%
G36*
X0346467Y0365063D02*
Y0368211D01*
X0341587D01*
Y0365063D01*
X0346467D01*
D02*
G37*
G36*
X0346467Y0369276D02*
Y0372433D01*
X0341587D01*
Y0369276D01*
X0346467D01*
D02*
G37*
G36*
X0352422Y0365063D02*
Y0368212D01*
X0347532D01*
Y0365063D01*
X0352422D01*
D02*
G37*
G36*
X0352427Y0369276D02*
Y0372434D01*
X0347532D01*
Y0369276D01*
X0352427D01*
D02*
G37*
D25*
X03195Y0275441D02*
D03*
Y0280559D02*
D03*
X0325Y0275441D02*
D03*
Y0280559D02*
D03*
D36*
X0363Y0364953D02*
D03*
Y0359047D02*
D03*
D86*
X0370487Y0359258D02*
D03*
Y0351777D02*
D03*
D87*
X0435Y0345201D02*
D03*
Y0332799D02*
D03*
D88*
X04273Y03695D02*
D03*
X04427D02*
D03*
D90*
X03395Y0359D02*
D03*
X03445D02*
D03*
X03495D02*
D03*
X03545D02*
D03*
Y0378488D02*
D03*
X03495D02*
D03*
X03445D02*
D03*
X03395D02*
D03*
M02*
