G04*
G04 #@! TF.GenerationSoftware,Altium Limited,Altium Designer,21.3.2 (30)*
G04*
G04 Layer_Color=65535*
%FSTAX25Y25*%
%MOIN*%
G70*
G04*
G04 #@! TF.SameCoordinates,665701D7-0C42-49A3-A721-B3261F62B861*
G04*
G04*
G04 #@! TF.FilePolarity,Positive*
G04*
G01*
G75*
%ADD10C,0.01575*%
%ADD11C,0.00394*%
%ADD12C,0.00984*%
%ADD13C,0.02362*%
%ADD14C,0.00800*%
%ADD15C,0.00787*%
%ADD16C,0.00700*%
%ADD17C,0.00500*%
%ADD18C,0.01000*%
%ADD19C,0.00400*%
%ADD20C,0.00591*%
%ADD21C,0.02500*%
%ADD22R,0.10000X0.05000*%
G36*
X04365Y03735D02*
X0439Y0376D01*
X04375D01*
Y03785D01*
X04355D01*
Y0376D01*
X0434D01*
X04365Y03735D01*
D02*
G37*
D10*
X0392598Y0345243D02*
G03*
X0392598Y0345243I-0000787J0D01*
G01*
D11*
X0261201Y0307114D02*
G03*
X0261201Y0307114I-0000197J0D01*
G01*
D12*
X0419614Y026376D02*
G03*
X0419614Y026376I-0000492J0D01*
G01*
X0371992Y0333508D02*
G03*
X0371992Y0333508I-0000492J0D01*
G01*
X0284319Y0307673D02*
G03*
X0284319Y0307673I-0000492J0D01*
G01*
X0246492Y0252992D02*
G03*
X0246492Y0252992I-0000492J0D01*
G01*
X0335181Y0362917D02*
G03*
X0335181Y0362917I-0000492J0D01*
G01*
D13*
X0411839Y0268898D02*
G03*
X0411839Y0268898I-0001181J0D01*
G01*
D14*
X025209Y020855D02*
G03*
X025195Y02087I0015387J0014482D01*
G01*
X0366Y0343D02*
X0376D01*
X0366Y0339D02*
Y0343D01*
Y033D02*
X0376D01*
X0366D02*
Y0334D01*
X02415Y02435D02*
X02515D01*
Y02475D01*
X02415Y02565D02*
X02515D01*
Y02525D02*
Y02565D01*
D15*
X0388894Y0385748D02*
G03*
X0388894Y0385748I-0000394J0D01*
G01*
X0393094Y0316398D02*
X0404906D01*
X0393094Y0303602D02*
X0404906D01*
X0416Y03609D02*
X0423D01*
X0416Y03471D02*
X0423D01*
Y0355607D02*
Y03609D01*
Y03471D02*
Y0352556D01*
X0416Y03471D02*
Y0352556D01*
Y0355607D02*
Y03609D01*
X03695Y0368531D02*
Y0369319D01*
Y0372075D02*
Y0372468D01*
X0367925Y0369319D02*
X0371468D01*
X03695Y0372075D02*
X0371468Y0369319D01*
X0367925D02*
X03695Y0372075D01*
X0367531D02*
X0371468D01*
X03705Y0385264D02*
X0376D01*
Y0356D02*
Y0385264D01*
X03705Y03845D02*
Y0385264D01*
Y03845D02*
X0376D01*
X0363D02*
X03685D01*
Y0385264D01*
X0374126Y0356D02*
X0376D01*
X0363Y0385264D02*
X03685D01*
X0363Y0356D02*
X0364874D01*
X0363D02*
Y0385264D01*
X02435Y02845D02*
Y03645D01*
X02335D02*
X02435D01*
X02335Y02845D02*
Y03645D01*
Y02845D02*
X02435D01*
X02335Y03545D02*
X02435D01*
X0301Y02055D02*
Y02255D01*
Y02055D02*
X0311D01*
Y02255D01*
X0301D02*
X0311D01*
X0341Y0286D02*
X0351D01*
X0341D02*
Y0336D01*
X0351Y0286D02*
Y0336D01*
X0341D02*
X0351D01*
X0441984Y0204043D02*
Y0215657D01*
Y0241248D02*
Y0252862D01*
X042348Y0204043D02*
X0441984D01*
X0390016D02*
X040852D01*
X0390016D02*
Y021428D01*
Y0222941D02*
Y0233965D01*
Y0242626D02*
Y0252862D01*
X040852D01*
X042348D02*
X0441984D01*
X0414595Y0264961D02*
Y0285039D01*
X0401405Y0264961D02*
Y0285039D01*
Y0264961D02*
X0414595D01*
X0401405Y0285039D02*
X0414595D01*
X0432031Y0329626D02*
X0435968D01*
X0434D02*
X0435575Y0332382D01*
X0432031D02*
X0434Y0329626D01*
X0432031Y0332382D02*
X0435575D01*
X0434Y0328839D02*
Y0329626D01*
Y0332382D02*
Y0333563D01*
X0285598Y0305902D02*
X0310402D01*
Y0281098D02*
Y0305902D01*
X0285598Y0281098D02*
X0310402D01*
X0285598D02*
Y0305902D01*
X0308311Y0357012D02*
X0334689D01*
X0308311Y0345988D02*
X0334689D01*
Y0357012D01*
X0308311Y0345988D02*
Y0357012D01*
D16*
X0422524Y0377456D02*
G03*
X0421982Y0377995I0003976J0004544D01*
G01*
X044714Y03668D02*
G03*
X044714Y03668I-000064J0D01*
G01*
X042694Y03667D02*
G03*
X042694Y03667I-000064J0D01*
G01*
X0442596Y0377395D02*
G03*
X0441982Y0377995I0003904J0004605D01*
G01*
X0422213Y0353116D02*
Y0354917D01*
X0416813Y0353116D02*
Y0354917D01*
X04165Y0362D02*
Y03635D01*
X04175D01*
X04165Y0362D02*
X04565D01*
X04165Y0378D02*
Y03899D01*
Y0392D02*
X04565D01*
X042225Y037775D02*
X04307Y03862D01*
X04363Y03748D02*
Y03899D01*
X04571Y0364D02*
Y03665D01*
X04565Y0362D02*
Y0377D01*
X04175Y03638D02*
Y03669D01*
X04165D02*
X04175D01*
X04165D02*
Y0392D01*
X04565Y0377D02*
Y0392D01*
X04165Y0372D02*
X04565D01*
X04422Y03777D02*
X04507Y03862D01*
D17*
X03079Y03274D02*
Y03286D01*
X03111Y03274D02*
Y03286D01*
X03674Y02479D02*
Y02491D01*
X03706Y02479D02*
Y02491D01*
X03594Y02479D02*
Y02491D01*
X03626Y02479D02*
Y02491D01*
X03759Y02479D02*
Y02491D01*
X03791Y02479D02*
Y02491D01*
X03764Y02669D02*
X03776D01*
X03764Y02701D02*
X03776D01*
X03864Y02834D02*
Y02846D01*
X03896Y02834D02*
Y02846D01*
X03949Y0291553D02*
Y0292754D01*
X03981Y0291553D02*
Y0292754D01*
X02934Y03274D02*
Y03286D01*
X02966Y03274D02*
Y03286D01*
X03549Y03074D02*
Y03086D01*
X03581Y03074D02*
Y03086D01*
X03076Y02359D02*
Y02371D01*
X03044Y02359D02*
Y02371D01*
X03549Y03299D02*
Y03311D01*
X03581Y03299D02*
Y03311D01*
X02669Y03139D02*
X02681D01*
X02669Y03171D02*
X02681D01*
X030065Y03274D02*
Y03286D01*
X030385Y03274D02*
Y03286D01*
X04004Y0291553D02*
Y0292754D01*
X04036Y0291553D02*
Y0292754D01*
X03864Y02714D02*
Y02726D01*
X03896Y02714D02*
Y02726D01*
X04084Y02594D02*
X04096D01*
X04084Y02626D02*
X04096D01*
X04296Y02689D02*
Y02701D01*
X04264Y02689D02*
Y02701D01*
X03719Y03239D02*
X03731D01*
X03719Y03271D02*
X03731D01*
X04296Y02814D02*
Y02826D01*
X04264Y02814D02*
Y02826D01*
X03719Y03486D02*
X03731D01*
X03719Y03454D02*
X03731D01*
X02399Y02639D02*
Y02651D01*
X02431Y02639D02*
Y02651D01*
X0377083Y0357795D02*
X0381163D01*
X0377083D02*
Y0382205D01*
X0381163D01*
X0395837Y0357795D02*
X0399917D01*
Y0382205D01*
X0395837D02*
X0399917D01*
D18*
X0395059Y0344455D02*
X0401629D01*
X0395059Y031847D02*
Y0344455D01*
Y031847D02*
X0401629D01*
X0393213Y0338943D02*
X0395059D01*
X0393213Y0341896D02*
X0395059D01*
X0393213Y0338943D02*
Y0341896D01*
X0393213Y0323896D02*
X0395058D01*
X0393213Y0320943D02*
Y0323896D01*
Y0320943D02*
X0395058D01*
X0401629Y031847D02*
X0419075D01*
X0401629Y0344455D02*
X0419075D01*
X02901Y03407D02*
Y03452D01*
Y03508D02*
Y03553D01*
X02679D02*
X02901D01*
X02679Y03407D02*
X02901D01*
X0274Y03455D02*
X0284D01*
X0274D02*
Y03505D01*
X0284D01*
Y03455D02*
Y03505D01*
X02679Y03407D02*
Y03452D01*
Y03508D02*
Y03553D01*
X0335584Y02845D02*
X0335001Y0285083D01*
Y0286249D01*
X0335584Y0286833D01*
X0336167D01*
X0336751Y0286249D01*
Y0285666D01*
Y0286249D01*
X0337334Y0286833D01*
X0337917D01*
X03385Y0286249D01*
Y0285083D01*
X0337917Y02845D01*
X03385Y0287999D02*
X0337917D01*
Y0288582D01*
X03385D01*
Y0287999D01*
X0335584Y0290915D02*
X0335001Y0291498D01*
Y0292664D01*
X0335584Y0293247D01*
X0336167D01*
X0336751Y0292664D01*
Y0292081D01*
Y0292664D01*
X0337334Y0293247D01*
X0337917D01*
X03385Y0292664D01*
Y0291498D01*
X0337917Y0290915D01*
X0336167Y0300245D02*
Y0298496D01*
X0336751Y0297912D01*
X0337917D01*
X03385Y0298496D01*
Y0300245D01*
Y0301411D02*
Y0302577D01*
Y0301994D01*
X0335001D01*
Y0301411D01*
X03385Y0304327D02*
X0335001D01*
X0337334D02*
X0336167Y0306076D01*
X0337334Y0304327D02*
X03385Y0306076D01*
X0335584Y0311325D02*
X0335001Y0311908D01*
Y0313074D01*
X0335584Y0313657D01*
X0337917D01*
X03385Y0313074D01*
Y0311908D01*
X0337917Y0311325D01*
X0335584D01*
X03385Y0318322D02*
Y0319489D01*
Y0318905D01*
X0336167D01*
Y0318322D01*
X03385Y0321821D02*
Y0322988D01*
X0337917Y0323571D01*
X0336751D01*
X0336167Y0322988D01*
Y0321821D01*
X0336751Y0321238D01*
X0337917D01*
X03385Y0321821D01*
X03355Y0362999D02*
X0338166D01*
X0336833Y0364332D02*
Y0361666D01*
X0342164Y0364999D02*
X0339499D01*
Y0362999D01*
X0340832Y0363666D01*
X0341498D01*
X0342164Y0362999D01*
Y0361666D01*
X0341498Y0361D01*
X0340165D01*
X0339499Y0361666D01*
X0339Y0378832D02*
X0339666Y0379499D01*
X0340999D01*
X0341666Y0378832D01*
Y0376166D01*
X0340999Y03755D01*
X0339666D01*
X0339Y0376166D01*
Y0378832D01*
X027695Y0222801D02*
X0272951D01*
X0274951Y0220802D02*
Y02248D01*
D19*
X04097Y03688D02*
X04143D01*
X04097Y03581D02*
Y03688D01*
Y03581D02*
X04143D01*
Y03688D01*
X04136Y03631D02*
Y03639D01*
X04104Y03631D02*
Y03639D01*
X0272Y03265D02*
Y0327D01*
X0263D02*
X0272D01*
X0263Y03265D02*
Y0327D01*
X0272Y032D02*
Y03205D01*
X0263Y032D02*
X0272D01*
X0263D02*
Y03205D01*
X03702Y03877D02*
Y03923D01*
Y03877D02*
X03809D01*
Y03923D01*
X03702D02*
X03809D01*
X03751Y03916D02*
X03759D01*
X03751Y03884D02*
X03759D01*
X04034Y03631D02*
Y03639D01*
X04066Y03631D02*
Y03639D01*
X04073Y03581D02*
Y03688D01*
X04027Y03581D02*
X04073D01*
X04027D02*
Y03688D01*
X04073D01*
X03574Y03611D02*
Y03619D01*
X03606Y03611D02*
Y03619D01*
X03613Y03561D02*
Y03668D01*
X03567Y03561D02*
X03613D01*
X03567D02*
Y03668D01*
X03613D01*
X03837Y03877D02*
Y03923D01*
Y03877D02*
X03944D01*
Y03923D01*
X03837D02*
X03944D01*
X03886Y03916D02*
X03894D01*
X03886Y03884D02*
X03894D01*
X0361Y03725D02*
X03615D01*
Y03815D01*
X0361D02*
X03615D01*
X03545Y03725D02*
X0355D01*
X03545D02*
Y03815D01*
X0355D01*
X04034Y03751D02*
Y03759D01*
X04066Y03751D02*
Y03759D01*
X04073Y03701D02*
Y03808D01*
X04027Y03701D02*
X04073D01*
X04027D02*
Y03808D01*
X04073D01*
X04011Y03916D02*
X04019D01*
X04011Y03884D02*
X04019D01*
X03961Y03877D02*
X04068D01*
X03961D02*
Y03923D01*
X04068D01*
Y03877D02*
Y03923D01*
X0394053Y03541D02*
X0394853D01*
X0394053Y03509D02*
X0394853D01*
X0389053Y03502D02*
X0399753D01*
X0389053D02*
Y03548D01*
X0399753D01*
Y03502D02*
Y03548D01*
X04104Y03751D02*
Y03759D01*
X04136Y03751D02*
Y03759D01*
X04143Y03701D02*
Y03808D01*
X04097Y03701D02*
X04143D01*
X04097D02*
Y03808D01*
X04143D01*
D20*
X0430394Y0340256D02*
X0431343D01*
X0430394Y0322201D02*
Y0340256D01*
Y0321701D02*
Y0322201D01*
Y0321701D02*
X0433D01*
Y0322201D01*
X0430394D02*
X0433D01*
X0435D02*
X0437606D01*
X0435Y0321701D02*
Y0322201D01*
Y0321701D02*
X0437606D01*
Y0322201D01*
Y0340256D01*
X0436657D02*
X0437606D01*
D21*
X0439602Y0345264D02*
X0462122D01*
Y0295736D02*
Y0345264D01*
X0439602Y0295736D02*
X0462122D01*
X0439602D02*
Y0345264D01*
D22*
X0279Y0348D02*
D03*
M02*
