G04*
G04 #@! TF.GenerationSoftware,Altium Limited,Altium Designer,21.3.2 (30)*
G04*
G04 Layer_Color=65535*
%FSTAX25Y25*%
%MOIN*%
G70*
G04*
G04 #@! TF.SameCoordinates,0A4AD645-AEA6-451A-A6B0-79CA1E045321*
G04*
G04*
G04 #@! TF.FilePolarity,Positive*
G04*
G01*
G75*
%ADD10C,0.00984*%
%ADD11C,0.00394*%
%ADD12C,0.01575*%
%ADD13C,0.02362*%
%ADD14C,0.00800*%
%ADD15C,0.00787*%
%ADD16C,0.01000*%
%ADD17C,0.00500*%
%ADD18C,0.00400*%
%ADD19R,0.10000X0.05000*%
D10*
X0332319Y0297173D02*
G03*
X0332319Y0297173I-0000492J0D01*
G01*
X0374492Y0336992D02*
G03*
X0374492Y0336992I-0000492J0D01*
G01*
X0423614Y026876D02*
G03*
X0423614Y026876I-0000492J0D01*
G01*
X0379492Y0219492D02*
G03*
X0379492Y0219492I-0000492J0D01*
G01*
D11*
X0309201Y0296614D02*
G03*
X0309201Y0296614I-0000197J0D01*
G01*
D12*
X0393098Y0331743D02*
G03*
X0393098Y0331743I-0000787J0D01*
G01*
D13*
X0415839Y0273898D02*
G03*
X0415839Y0273898I-0001181J0D01*
G01*
D14*
X0331089Y021005D02*
G03*
X033095Y02102I0015387J0014482D01*
G01*
X03795Y03365D02*
Y03405D01*
X03695D02*
X03795D01*
Y03275D02*
Y03315D01*
X03695Y03275D02*
X03795D01*
X03745Y021D02*
X03845D01*
Y0214D01*
X03745Y0223D02*
X03845D01*
Y0219D02*
Y0223D01*
D15*
X0346894Y0384248D02*
G03*
X0346894Y0384248I-0000394J0D01*
G01*
X0333598Y0270598D02*
Y0295402D01*
Y0270598D02*
X0358402D01*
Y0295402D01*
X0333598D02*
X0358402D01*
X0442Y02765D02*
Y02965D01*
Y02765D02*
X0452D01*
Y02965D01*
X0442D02*
X0452D01*
X0420348Y03393D02*
X04287Y0347652D01*
X04113Y0348348D02*
X0419652Y03567D01*
X03485Y0337D02*
Y0347D01*
X03585Y0337D02*
Y0347D01*
X03185Y0337D02*
X03585D01*
X03185Y0347D02*
X03585D01*
X03185Y0337D02*
Y0347D01*
X03275Y0367032D02*
Y0367819D01*
Y0370575D02*
Y0370969D01*
X0325925Y0367819D02*
X0329468D01*
X03275Y0370575D02*
X0329468Y0367819D01*
X0325925D02*
X03275Y0370575D01*
X0325532D02*
X0329468D01*
X03285Y0383764D02*
X0334D01*
Y03545D02*
Y0383764D01*
X03285Y0383D02*
Y0383764D01*
Y0383D02*
X0334D01*
X0321D02*
X03265D01*
Y0383764D01*
X0332126Y03545D02*
X0334D01*
X0321Y0383764D02*
X03265D01*
X0321Y03545D02*
X0322874D01*
X0321D02*
Y0383764D01*
X0298Y02605D02*
Y03405D01*
X0288D02*
X0298D01*
X0288Y02605D02*
Y03405D01*
Y02605D02*
X0298D01*
X0288Y03305D02*
X0298D01*
X03065Y02195D02*
Y02395D01*
Y02195D02*
X03165D01*
Y02395D01*
X03065D02*
X03165D01*
X0447484Y021009D02*
Y0221705D01*
Y0247295D02*
Y025891D01*
X042898Y021009D02*
X0447484D01*
X0395516D02*
X041402D01*
X0395516D02*
Y0220327D01*
Y0228988D02*
Y0240012D01*
Y0248673D02*
Y025891D01*
X041402D01*
X042898D02*
X0447484D01*
X0418595Y0269961D02*
Y0290039D01*
X0405406Y0269961D02*
Y0290039D01*
Y0269961D02*
X0418595D01*
X0405406Y0290039D02*
X0418595D01*
D16*
X0373724Y0387276D02*
X0414276D01*
X0373724Y0354276D02*
X0381276Y0346724D01*
X0373724Y0354276D02*
Y0387276D01*
X0381276Y0346724D02*
X0406724D01*
X0414276Y0354276D01*
Y0387276D01*
X03104Y03283D02*
Y03328D01*
Y03182D02*
Y03227D01*
X03265Y0323D02*
Y0328D01*
X03165D02*
X03265D01*
X03165Y0323D02*
Y0328D01*
Y0323D02*
X03265D01*
X03104Y03182D02*
X03326D01*
X03104Y03328D02*
X03326D01*
Y03283D02*
Y03328D01*
Y03182D02*
Y03227D01*
X0289008Y038341D02*
X0314992D01*
X0289008Y0361756D02*
X0293339Y0357425D01*
X0289008Y0361756D02*
Y038341D01*
X0293339Y0357425D02*
X0310661D01*
X0314992Y0361756D01*
Y038341D01*
X0395559Y0330955D02*
X0402129D01*
X0395559Y030497D02*
Y0330955D01*
Y030497D02*
X0402129D01*
X0393713Y0325443D02*
X0395559D01*
X0393713Y0328396D02*
X0395559D01*
X0393713Y0325443D02*
Y0328396D01*
X0393713Y0310396D02*
X0395559D01*
X0393713Y0307443D02*
Y0310396D01*
Y0307443D02*
X0395559D01*
X0402129Y030497D02*
X0419575D01*
X0402129Y0330955D02*
X0419575D01*
X0291969Y0208D02*
X0289303D01*
Y0208666D01*
X0289969Y0209333D01*
X0291969D01*
X0289969D01*
X0289303Y0209999D01*
X0289969Y0210666D01*
X0291969D01*
X0289303Y0212665D02*
Y0213998D01*
X0289969Y0214665D01*
X0291969D01*
Y0212665D01*
X0291302Y0211999D01*
X0290636Y0212665D01*
Y0214665D01*
X0289303Y0218663D02*
Y0216664D01*
X0289969Y0215997D01*
X0291302D01*
X0291969Y0216664D01*
Y0218663D01*
X028797Y0219996D02*
X0291969D01*
X0289969D01*
X0289303Y0220663D01*
Y0221995D01*
X0289969Y0222662D01*
X0291969D01*
X0288636Y022866D02*
X0289303D01*
Y0227994D01*
Y0229327D01*
Y022866D01*
X0291302D01*
X0291969Y0229327D01*
X0289303Y0231326D02*
X0291969D01*
X0290636D01*
X0289969Y0231992D01*
X0289303Y0232659D01*
Y0233325D01*
Y0235991D02*
Y0237324D01*
X0289969Y023799D01*
X0291969D01*
Y0235991D01*
X0291302Y0235325D01*
X0290636Y0235991D01*
Y023799D01*
X0291969Y0239323D02*
X0289303D01*
Y023999D01*
X0289969Y0240656D01*
X0291969D01*
X0289969D01*
X0289303Y0241323D01*
X0289969Y0241989D01*
X0291969D01*
X028797Y0247321D02*
X0291969D01*
X0289969D01*
X0289303Y0247987D01*
Y024932D01*
X0289969Y0249987D01*
X0291969D01*
X0289303Y0251986D02*
Y0253319D01*
X0289969Y0253985D01*
X0291969D01*
Y0251986D01*
X0291302Y0251319D01*
X0290636Y0251986D01*
Y0253985D01*
X0291969Y0255318D02*
X0289303D01*
Y0257317D01*
X0289969Y0257984D01*
X0291969D01*
X0295168Y0210666D02*
X0299167D01*
Y0208666D01*
X0298501Y0208D01*
X0297168D01*
X0296501Y0208666D01*
Y0210666D01*
Y0212665D02*
Y0213998D01*
X0297168Y0214665D01*
X0299167D01*
Y0212665D01*
X0298501Y0211999D01*
X0297834Y0212665D01*
Y0214665D01*
X0299167Y0219996D02*
X0296501D01*
Y0221995D01*
X0297168Y0222662D01*
X0299167D01*
X0296501Y0224661D02*
Y0225994D01*
X0297168Y0226661D01*
X0299167D01*
Y0224661D01*
X0298501Y0223995D01*
X0297834Y0224661D01*
Y0226661D01*
X0299167Y0227994D02*
X0296501D01*
Y0229993D01*
X0297168Y0230659D01*
X0299167D01*
X03005Y0233325D02*
Y0233992D01*
X0299834Y0234658D01*
X0296501D01*
Y0232659D01*
X0297168Y0231992D01*
X0298501D01*
X0299167Y0232659D01*
Y0234658D01*
X0318501Y0233D02*
X0321167D01*
X0319834D01*
X0319168Y0233666D01*
X0318501Y0234333D01*
Y0234999D01*
Y0236999D02*
X0320501D01*
X0321167Y0237665D01*
Y0239665D01*
X0318501D01*
X0321167Y0240997D02*
X0318501D01*
Y0242997D01*
X0319168Y0243663D01*
X0321167D01*
X03225Y0246329D02*
Y0246995D01*
X0321834Y0247662D01*
X0318501D01*
Y0245663D01*
X0319168Y0244996D01*
X0320501D01*
X0321167Y0245663D01*
Y0247662D01*
X0440166Y0301332D02*
X0439499Y0301999D01*
X0438166D01*
X04375Y0301332D01*
Y0300666D01*
X0438166Y0299999D01*
X0439499D01*
X0440166Y0299333D01*
Y0298666D01*
X0439499Y0298D01*
X0438166D01*
X04375Y0298666D01*
X0443498Y0298D02*
X0442165D01*
X0441499Y0298666D01*
Y0299999D01*
X0442165Y0300666D01*
X0443498D01*
X0444165Y0299999D01*
Y0299333D01*
X0441499D01*
X0445497Y0298D02*
Y0300666D01*
X0447497D01*
X0448163Y0299999D01*
Y0298D01*
X0449496Y0299999D02*
X0452162D01*
X0440666Y0274832D02*
X0439999Y0275499D01*
X0438666D01*
X0438Y0274832D01*
Y0274166D01*
X0438666Y0273499D01*
X0439999D01*
X0440666Y0272833D01*
Y0272166D01*
X0439999Y02715D01*
X0438666D01*
X0438Y0272166D01*
X0443998Y02715D02*
X0442665D01*
X0441999Y0272166D01*
Y0273499D01*
X0442665Y0274166D01*
X0443998D01*
X0444664Y0273499D01*
Y0272833D01*
X0441999D01*
X0445997Y02715D02*
Y0274166D01*
X0447997D01*
X0448663Y0273499D01*
Y02715D01*
X0449996Y0273499D02*
X0452662D01*
X0451329Y0274832D02*
Y0272166D01*
X04365Y0323999D02*
Y032D01*
Y0321999D01*
X0437166Y0322666D01*
X0438499D01*
X0439166Y0321999D01*
Y032D01*
X0442498D02*
X0441165D01*
X0440499Y0320666D01*
Y0321999D01*
X0441165Y0322666D01*
X0442498D01*
X0443164Y0321999D01*
Y0321333D01*
X0440499D01*
X0445164Y0322666D02*
X0446497D01*
X0447163Y0321999D01*
Y032D01*
X0445164D01*
X0444497Y0320666D01*
X0445164Y0321333D01*
X0447163D01*
X0449163Y0323332D02*
Y0322666D01*
X0448496D01*
X0449829D01*
X0449163D01*
Y0320666D01*
X0449829Y032D01*
X0451828Y0321999D02*
X0454494D01*
X0437Y0362999D02*
Y0359D01*
Y0360999D01*
X0437666Y0361666D01*
X0438999D01*
X0439666Y0360999D01*
Y0359D01*
X0442998D02*
X0441665D01*
X0440999Y0359666D01*
Y0360999D01*
X0441665Y0361666D01*
X0442998D01*
X0443665Y0360999D01*
Y0360333D01*
X0440999D01*
X0445664Y0361666D02*
X0446997D01*
X0447663Y0360999D01*
Y0359D01*
X0445664D01*
X0444997Y0359666D01*
X0445664Y0360333D01*
X0447663D01*
X0449663Y0362332D02*
Y0361666D01*
X0448996D01*
X0450329D01*
X0449663D01*
Y0359666D01*
X0450329Y0359D01*
X0452328Y0360999D02*
X0454994D01*
X0453661Y0362332D02*
Y0359666D01*
X0423Y0373332D02*
X0423666Y0373999D01*
X0424999D01*
X0425666Y0373332D01*
Y0370666D01*
X0424999Y037D01*
X0423666D01*
X0423Y0370666D01*
Y0373332D01*
X0426999Y0371999D02*
X0429665D01*
X0428332Y0373332D02*
Y0370666D01*
X0444166Y037D02*
X04415D01*
X0444166Y0372666D01*
Y0373332D01*
X0443499Y0373999D01*
X0442166D01*
X04415Y0373332D01*
X0447498Y037D02*
Y0373999D01*
X0445499Y0371999D01*
X0448165D01*
X0449497D02*
X0452163D01*
X045083Y0373332D02*
Y0370666D01*
X0315Y03485D02*
X0316333D01*
X0315666D01*
Y0351166D01*
X0315D01*
X0318999Y03485D02*
X0320332D01*
X0320998Y0349166D01*
Y0350499D01*
X0320332Y0351166D01*
X0318999D01*
X0318332Y0350499D01*
Y0349166D01*
X0318999Y03485D01*
X032633Y0351832D02*
X0326996Y0352499D01*
X0328329D01*
X0328995Y0351832D01*
Y0349166D01*
X0328329Y03485D01*
X0326996D01*
X032633Y0349166D01*
Y0351832D01*
X0336993Y0351166D02*
X0334994D01*
X0334327Y0350499D01*
Y0349166D01*
X0334994Y03485D01*
X0336993D01*
X0338326D02*
X0339659D01*
X0338992D01*
Y0352499D01*
X0338326D01*
X0341658Y03485D02*
Y0352499D01*
Y0349833D02*
X0343657Y0351166D01*
X0341658Y0349833D02*
X0343657Y03485D01*
X0349656Y0351832D02*
X0350322Y0352499D01*
X0351655D01*
X0352321Y0351832D01*
Y0351166D01*
X0351655Y0350499D01*
X0350988D01*
X0351655D01*
X0352321Y0349833D01*
Y0349166D01*
X0351655Y03485D01*
X0350322D01*
X0349656Y0349166D01*
X0353654Y03485D02*
Y0349166D01*
X0354321D01*
Y03485D01*
X0353654D01*
X0356986Y0351832D02*
X0357653Y0352499D01*
X0358986D01*
X0359652Y0351832D01*
Y0351166D01*
X0358986Y0350499D01*
X0358319D01*
X0358986D01*
X0359652Y0349833D01*
Y0349166D01*
X0358986Y03485D01*
X0357653D01*
X0356986Y0349166D01*
X0300001Y0258D02*
X03035D01*
Y0260333D01*
X0300001Y0263831D02*
Y0261499D01*
X03035D01*
Y0263831D01*
X0301751Y0261499D02*
Y0262665D01*
X0300001Y0264998D02*
X03035D01*
Y0266747D01*
X0302917Y026733D01*
X0300584D01*
X0300001Y0266747D01*
Y0264998D01*
X03035Y0271995D02*
X0301167D01*
X0300001Y0273162D01*
X0301167Y0274328D01*
X03035D01*
X0301751D01*
Y0271995D01*
X0300001Y0277827D02*
Y0275494D01*
X0301751D01*
X0301167Y0276661D01*
Y0277244D01*
X0301751Y0277827D01*
X0302917D01*
X03035Y0277244D01*
Y0276078D01*
X0302917Y0275494D01*
X03035Y0282492D02*
X0301167D01*
X0300001Y0283658D01*
X0301167Y0284825D01*
X03035D01*
X0301751D01*
Y0282492D01*
X0300001Y0285991D02*
Y0288323D01*
X0300584D01*
X0302917Y0285991D01*
X03035D01*
Y0292989D02*
X0301167D01*
X0300001Y0294155D01*
X0301167Y0295321D01*
X03035D01*
X0301751D01*
Y0292989D01*
X0300584Y0296488D02*
X0300001Y0297071D01*
Y0298237D01*
X0300584Y029882D01*
X0302917D01*
X03035Y0298237D01*
Y0297071D01*
X0302917Y0296488D01*
X0300584D01*
X0300001Y0303485D02*
X03035D01*
Y0305235D01*
X0302917Y0305818D01*
X0302334D01*
X0301751Y0305235D01*
Y0303485D01*
Y0305235D01*
X0301167Y0305818D01*
X0300584D01*
X0300001Y0305235D01*
Y0303485D01*
Y0306984D02*
Y0309317D01*
X0300584D01*
X0302917Y0306984D01*
X03035D01*
X0300001Y0313982D02*
X03035D01*
Y0315731D01*
X0302917Y0316315D01*
X0302334D01*
X0301751Y0315731D01*
Y0313982D01*
Y0315731D01*
X0301167Y0316315D01*
X0300584D01*
X0300001Y0315731D01*
Y0313982D01*
Y0319813D02*
X0300584Y0318647D01*
X0301751Y0317481D01*
X0302917D01*
X03035Y0318064D01*
Y031923D01*
X0302917Y0319813D01*
X0302334D01*
X0301751Y031923D01*
Y0317481D01*
X0300584Y0324479D02*
X0300001Y0325062D01*
Y0326228D01*
X0300584Y0326811D01*
X0302917D01*
X03035Y0326228D01*
Y0325062D01*
X0302917Y0324479D01*
X0300584D01*
Y0331476D02*
X0300001Y0332059D01*
Y0333226D01*
X0300584Y0333809D01*
X0301167D01*
X0301751Y0333226D01*
Y0332643D01*
Y0333226D01*
X0302334Y0333809D01*
X0302917D01*
X03035Y0333226D01*
Y0332059D01*
X0302917Y0331476D01*
X0301167Y0334975D02*
X03035Y0336141D01*
X0301167Y0337308D01*
X0300584Y0338474D02*
X0300001Y0339057D01*
Y0340223D01*
X0300584Y0340807D01*
X0301167D01*
X0301751Y0340223D01*
Y033964D01*
Y0340223D01*
X0302334Y0340807D01*
X0302917D01*
X03035Y0340223D01*
Y0339057D01*
X0302917Y0338474D01*
X035595Y0224301D02*
X0351951D01*
X0353951Y0222302D02*
Y02263D01*
D17*
X03724Y03424D02*
X03736D01*
X03724Y03456D02*
X03736D01*
X03609Y03394D02*
Y03406D01*
X03641Y03394D02*
Y03406D01*
X03446Y03169D02*
Y03181D01*
X03414Y03169D02*
Y03181D01*
X03511Y03169D02*
Y03181D01*
X03479Y03169D02*
Y03181D01*
X03586Y03169D02*
Y03181D01*
X03554Y03169D02*
Y03181D01*
X03634Y02529D02*
Y02541D01*
X03666Y02529D02*
Y02541D01*
X03149Y03066D02*
X03161D01*
X03149Y03034D02*
X03161D01*
X03821Y02529D02*
Y02541D01*
X03789Y02529D02*
Y02541D01*
X03746Y02529D02*
Y02541D01*
X03714Y02529D02*
Y02541D01*
X03804Y02719D02*
X03816D01*
X03804Y02751D02*
X03816D01*
X03904Y02884D02*
Y02896D01*
X03936Y02884D02*
Y02896D01*
X03989Y0296553D02*
Y0297754D01*
X04021Y0296553D02*
Y0297754D01*
X03276Y02529D02*
Y02541D01*
X03244Y02529D02*
Y02541D01*
X03641Y03259D02*
Y03271D01*
X03609Y03259D02*
Y03271D01*
X04044Y0296553D02*
Y0297754D01*
X04076Y0296553D02*
Y0297754D01*
X03904Y02764D02*
Y02776D01*
X03936Y02764D02*
Y02776D01*
X04129Y02644D02*
X04141D01*
X04129Y02676D02*
X04141D01*
X04336Y02739D02*
Y02751D01*
X04304Y02739D02*
Y02751D01*
X04336Y02864D02*
Y02876D01*
X04304Y02864D02*
Y02876D01*
X03724Y03219D02*
X03736D01*
X03724Y03251D02*
X03736D01*
X03729Y02304D02*
Y02316D01*
X03761Y02304D02*
Y02316D01*
X0335083Y0356295D02*
X0339163D01*
X0335083D02*
Y0380705D01*
X0339163D01*
X0353837Y0356295D02*
X0357917D01*
Y0380705D01*
X0353837D02*
X0357917D01*
D18*
X0311Y03095D02*
Y031D01*
Y03095D02*
X032D01*
Y031D01*
X0311Y0316D02*
Y03165D01*
X032D01*
Y0316D02*
Y03165D01*
X03677Y03673D02*
X03723D01*
X03677Y03566D02*
Y03673D01*
Y03566D02*
X03723D01*
Y03673D01*
X03716Y03616D02*
Y03624D01*
X03684Y03616D02*
Y03624D01*
X03282Y03862D02*
Y03908D01*
Y03862D02*
X03389D01*
Y03908D01*
X03282D02*
X03389D01*
X03331Y03901D02*
X03339D01*
X03331Y03869D02*
X03339D01*
X03614Y03616D02*
Y03624D01*
X03646Y03616D02*
Y03624D01*
X03653Y03566D02*
Y03673D01*
X03607Y03566D02*
X03653D01*
X03607D02*
Y03673D01*
X03653D01*
X03164Y03596D02*
Y03604D01*
X03196Y03596D02*
Y03604D01*
X03203Y03546D02*
Y03653D01*
X03157Y03546D02*
X03203D01*
X03157D02*
Y03653D01*
X03203D01*
X03417Y03862D02*
Y03908D01*
Y03862D02*
X03524D01*
Y03908D01*
X03417D02*
X03524D01*
X03466Y03901D02*
X03474D01*
X03466Y03869D02*
X03474D01*
X03155Y03845D02*
Y0385D01*
Y03845D02*
X03245D01*
Y0385D01*
X03155Y0391D02*
Y03915D01*
X03245D01*
Y0391D02*
Y03915D01*
X03614Y03736D02*
Y03744D01*
X03646Y03736D02*
Y03744D01*
X03653Y03686D02*
Y03793D01*
X03607Y03686D02*
X03653D01*
X03607D02*
Y03793D01*
X03653D01*
X03591Y03901D02*
X03599D01*
X03591Y03869D02*
X03599D01*
X03541Y03862D02*
X03648D01*
X03541D02*
Y03908D01*
X03648D01*
Y03862D02*
Y03908D01*
X03684Y03736D02*
Y03744D01*
X03716Y03736D02*
Y03744D01*
X03723Y03686D02*
Y03793D01*
X03677Y03686D02*
X03723D01*
X03677D02*
Y03793D01*
X03723D01*
D19*
X03215Y03255D02*
D03*
M02*
