M48
;Layer_Color=9474304
;FILE_FORMAT=2:5
INCH,LZ
;TYPE=PLATED
T1F00S00C0.01181
T2F00S00C0.01575
T3F00S00C0.03150
T4F00S00C0.03543
T5F00S00C0.04331
T6F00S00C0.05000
%
T01
X03245Y03005
X0348Y0283
X0388Y02905
X041Y02955
X04175Y03095
X0418
X04185
X0419Y031
Y03105
Y0311
X04185Y03115
X04175
X0417Y0311
Y031
X0418Y03105
X0433Y0302
X0419Y02775
X0306Y02715
X0300984Y0281984
X0295Y02845
X029Y02855
X0292516Y0292516
X0293Y0304
X03035Y0303
Y02975
X0276Y02905
X0271Y0276059
X028Y02635
X02525Y0273
X0241773Y0272773
X0273Y031
X0279Y03175
X0298Y0318
X0303Y03195
X0303551Y0325129
X0302346Y0331347
X0289Y0328
X03095Y03215
X031Y0317
X0265Y0348
X03215Y034
X0326559Y03265
X037Y0341
X03655Y0347
X03675Y0362626
X03685
X03695
Y0362626
X0369Y0363626
X0368
X0367
X03675Y0364626
X03685
X03695
X037Y0363626
X03855Y037
X03865
X03875
X0388Y0371
X0387
X0386
X0385
X03855Y0372
X03865
X03875
X03935
X0391414Y0385619
X0378644Y0389809
X04095Y0374
X0412Y03505
X04195Y0350291
X04325Y0344223
X04335
X0434Y0343723
Y0343223
Y0342723
X04335Y0342223
X0433
X04325
X0432Y0342723
Y0343723
X0433Y0343223
X0432857Y0316643
X03965Y0356
X03915Y0354633
T02
X0360653Y0251847
X0369
X03775
X03565Y02635
X0356Y02685
X0356247Y0311347
X0272Y0303
X0263169Y028741
X02655Y0271
X026
X0271
X0291375Y0266559
X0297126Y0268374
X0303Y0268472
X0319Y0381
X0380777Y0379108
X03975Y0379598
T03
X04485Y03055
X02825Y0223
X02525Y022295
X04485Y03155
Y03255
Y03355
T04
X0346Y0291
Y0301
Y0311
Y0321
Y0331
X0348Y036361
Y037739
X0426Y0369
X0446
T05
X0388441Y021861
Y0238295
X0445528
Y0228453
Y021861
X0306Y02205
Y02105
X02385Y02895
Y02995
Y03095
Y03195
Y03295
Y03395
Y03495
Y03595
T06
X04265Y0382
X04465
M30
