G04*
G04 #@! TF.GenerationSoftware,Altium Limited,Altium Designer,21.3.2 (30)*
G04*
G04 Layer_Color=255*
%FSTAX25Y25*%
%MOIN*%
G70*
G04*
G04 #@! TF.SameCoordinates,0A4AD645-AEA6-451A-A6B0-79CA1E045321*
G04*
G04*
G04 #@! TF.FilePolarity,Positive*
G04*
G01*
G75*
%ADD25R,0.03347X0.02756*%
%ADD36R,0.03740X0.03937*%
%ADD75C,0.06299*%
%ADD76R,0.06299X0.06299*%
%ADD77R,0.06299X0.06299*%
G04:AMPARAMS|DCode=78|XSize=122.05mil|YSize=118.11mil|CornerRadius=29.53mil|HoleSize=0mil|Usage=FLASHONLY|Rotation=0.000|XOffset=0mil|YOffset=0mil|HoleType=Round|Shape=RoundedRectangle|*
%AMROUNDEDRECTD78*
21,1,0.12205,0.05906,0,0,0.0*
21,1,0.06299,0.11811,0,0,0.0*
1,1,0.05906,0.03150,-0.02953*
1,1,0.05906,-0.03150,-0.02953*
1,1,0.05906,-0.03150,0.02953*
1,1,0.05906,0.03150,0.02953*
%
%ADD78ROUNDEDRECTD78*%
%ADD79C,0.06496*%
%ADD80R,0.05906X0.05906*%
%ADD81C,0.05906*%
%ADD86R,0.05512X0.04724*%
%ADD87R,0.03740X0.03543*%
%ADD88R,0.06400X0.09000*%
%ADD89R,0.12992X0.09488*%
G04:AMPARAMS|DCode=90|XSize=77.56mil|YSize=23.62mil|CornerRadius=6.38mil|HoleSize=0mil|Usage=FLASHONLY|Rotation=270.000|XOffset=0mil|YOffset=0mil|HoleType=Round|Shape=RoundedRectangle|*
%AMROUNDEDRECTD90*
21,1,0.07756,0.01087,0,0,270.0*
21,1,0.06480,0.02362,0,0,270.0*
1,1,0.01276,-0.00543,-0.03240*
1,1,0.01276,-0.00543,0.03240*
1,1,0.01276,0.00543,0.03240*
1,1,0.01276,0.00543,-0.03240*
%
%ADD90ROUNDEDRECTD90*%
D25*
X03195Y0275441D02*
D03*
Y0280559D02*
D03*
X0325Y0275441D02*
D03*
Y0280559D02*
D03*
D36*
X0363Y0364953D02*
D03*
Y0359047D02*
D03*
D75*
X0447Y02915D02*
D03*
X03235Y0342D02*
D03*
X03335D02*
D03*
X03435D02*
D03*
X0293Y02655D02*
D03*
Y02755D02*
D03*
Y02855D02*
D03*
Y02955D02*
D03*
Y03055D02*
D03*
Y03155D02*
D03*
Y03255D02*
D03*
X03115Y02345D02*
D03*
D76*
X0447Y02815D02*
D03*
X0293Y03355D02*
D03*
X03115Y02245D02*
D03*
D77*
X03535Y0342D02*
D03*
D78*
X04215Y0256547D02*
D03*
Y0212453D02*
D03*
D79*
X0393941Y0244342D02*
D03*
Y0224658D02*
D03*
X0451028Y0244342D02*
D03*
Y02345D02*
D03*
Y0224658D02*
D03*
D80*
X03615Y02245D02*
D03*
D81*
X03315Y022445D02*
D03*
D86*
X0370487Y0359258D02*
D03*
Y0351777D02*
D03*
D87*
X0435Y0345201D02*
D03*
Y0332799D02*
D03*
D88*
X04273Y03695D02*
D03*
X04427D02*
D03*
D89*
X0347Y0368744D02*
D03*
D90*
X03395Y0359D02*
D03*
X03445D02*
D03*
X03495D02*
D03*
X03545D02*
D03*
Y0378488D02*
D03*
X03495D02*
D03*
X03445D02*
D03*
X03395D02*
D03*
M02*
