G04*
G04 #@! TF.GenerationSoftware,Altium Limited,Altium Designer,21.3.2 (30)*
G04*
G04 Layer_Physical_Order=1*
G04 Layer_Color=255*
%FSTAX25Y25*%
%MOIN*%
G70*
G04*
G04 #@! TF.SameCoordinates,0A4AD645-AEA6-451A-A6B0-79CA1E045321*
G04*
G04*
G04 #@! TF.FilePolarity,Positive*
G04*
G01*
G75*
%ADD14C,0.00800*%
%ADD20R,0.01181X0.06693*%
%ADD21R,0.06693X0.01181*%
%ADD22R,0.07874X0.16142*%
%ADD23R,0.04724X0.03347*%
G04:AMPARAMS|DCode=24|XSize=39.37mil|YSize=35.43mil|CornerRadius=4.43mil|HoleSize=0mil|Usage=FLASHONLY|Rotation=90.000|XOffset=0mil|YOffset=0mil|HoleType=Round|Shape=RoundedRectangle|*
%AMROUNDEDRECTD24*
21,1,0.03937,0.02657,0,0,90.0*
21,1,0.03051,0.03543,0,0,90.0*
1,1,0.00886,0.01329,0.01526*
1,1,0.00886,0.01329,-0.01526*
1,1,0.00886,-0.01329,-0.01526*
1,1,0.00886,-0.01329,0.01526*
%
%ADD24ROUNDEDRECTD24*%
%ADD25R,0.03347X0.02756*%
%ADD26R,0.02756X0.03347*%
%ADD27R,0.03937X0.05512*%
%ADD28R,0.04724X0.03150*%
G04:AMPARAMS|DCode=29|XSize=39.37mil|YSize=35.43mil|CornerRadius=4.43mil|HoleSize=0mil|Usage=FLASHONLY|Rotation=0.000|XOffset=0mil|YOffset=0mil|HoleType=Round|Shape=RoundedRectangle|*
%AMROUNDEDRECTD29*
21,1,0.03937,0.02657,0,0,0.0*
21,1,0.03051,0.03543,0,0,0.0*
1,1,0.00886,0.01526,-0.01329*
1,1,0.00886,-0.01526,-0.01329*
1,1,0.00886,-0.01526,0.01329*
1,1,0.00886,0.01526,0.01329*
%
%ADD29ROUNDEDRECTD29*%
%ADD30R,0.05000X0.05500*%
G04:AMPARAMS|DCode=31|XSize=135.83mil|YSize=70.87mil|CornerRadius=0mil|HoleSize=0mil|Usage=FLASHONLY|Rotation=315.000|XOffset=0mil|YOffset=0mil|HoleType=Round|Shape=Rectangle|*
%AMROTATEDRECTD31*
4,1,4,-0.07308,0.02297,-0.02297,0.07308,0.07308,-0.02297,0.02297,-0.07308,-0.07308,0.02297,0.0*
%
%ADD31ROTATEDRECTD31*%

%ADD32R,0.07874X0.15748*%
%ADD33R,0.09843X0.04724*%
%ADD34R,0.25591X0.23622*%
%ADD35R,0.06693X0.09843*%
%ADD36R,0.03740X0.03937*%
G04:AMPARAMS|DCode=37|XSize=33.47mil|YSize=27.56mil|CornerRadius=0mil|HoleSize=0mil|Usage=FLASHONLY|Rotation=135.000|XOffset=0mil|YOffset=0mil|HoleType=Round|Shape=Rectangle|*
%AMROTATEDRECTD37*
4,1,4,0.02158,-0.00209,0.00209,-0.02158,-0.02158,0.00209,-0.00209,0.02158,0.02158,-0.00209,0.0*
%
%ADD37ROTATEDRECTD37*%

%ADD38O,0.07087X0.02362*%
%ADD39R,0.03937X0.03740*%
%ADD40R,0.12205X0.07087*%
%ADD71C,0.01700*%
%ADD72C,0.03500*%
%ADD73C,0.05000*%
%ADD74C,0.15500*%
%ADD75C,0.06299*%
%ADD76R,0.06299X0.06299*%
%ADD77R,0.06299X0.06299*%
G04:AMPARAMS|DCode=78|XSize=122.05mil|YSize=118.11mil|CornerRadius=29.53mil|HoleSize=0mil|Usage=FLASHONLY|Rotation=0.000|XOffset=0mil|YOffset=0mil|HoleType=Round|Shape=RoundedRectangle|*
%AMROUNDEDRECTD78*
21,1,0.12205,0.05906,0,0,0.0*
21,1,0.06299,0.11811,0,0,0.0*
1,1,0.05906,0.03150,-0.02953*
1,1,0.05906,-0.03150,-0.02953*
1,1,0.05906,-0.03150,0.02953*
1,1,0.05906,0.03150,0.02953*
%
%ADD78ROUNDEDRECTD78*%
%ADD79C,0.06496*%
%ADD80R,0.05906X0.05906*%
%ADD81C,0.05906*%
%ADD82C,0.05000*%
%ADD83C,0.02362*%
%ADD84C,0.11000*%
%ADD85C,0.12000*%
G36*
X0454869Y0385335D02*
X0454368Y038521D01*
X0453726Y0386411D01*
X0452683Y0387683D01*
X0451411Y0388726D01*
X0449961Y0389502D01*
X0448387Y0389979D01*
X044675Y039014D01*
X0445113Y0389979D01*
X0443539Y0389502D01*
X0442089Y0388726D01*
X0440817Y0387683D01*
X0439774Y0386411D01*
X0438998Y0384961D01*
X0438521Y0383387D01*
X043836Y038175D01*
Y035125D01*
X0438521Y0349613D01*
X0438998Y0348039D01*
X0439774Y0346588D01*
X0440817Y0345317D01*
X0442089Y0344274D01*
X0443539Y0343498D01*
X0445113Y0343021D01*
X044675Y034286D01*
X0448387Y0343021D01*
X0449961Y0343498D01*
X0451411Y0344274D01*
X0452683Y0345317D01*
X0453726Y0346588D01*
X0454368Y034779D01*
X0454869Y0347665D01*
Y0341649D01*
X04355D01*
X0435041Y0341459D01*
X0425731Y0332149D01*
X0415309D01*
X0415145Y033238D01*
X0415064Y0332611D01*
X0420431Y0337978D01*
X0415957Y0342452D01*
X0415972Y0342607D01*
X0416726Y0343361D01*
X0420078D01*
X0423362Y0340077D01*
X0422684Y0339399D01*
X0423246Y0338837D01*
X0422657Y0338248D01*
X0422305Y0338178D01*
X0421716Y0337784D01*
X0421322Y0337195D01*
X0421184Y03365D01*
X0421322Y0335805D01*
X0421716Y0335216D01*
X0422305Y0334822D01*
X0423Y0334684D01*
X0423695Y0334822D01*
X0424284Y0335216D01*
X0424678Y0335805D01*
X0424748Y0336157D01*
X0425337Y0336747D01*
X0425899Y0336184D01*
X0428696Y0338982D01*
X0425482Y0342196D01*
X0424804Y0341519D01*
X0421221Y0345102D01*
X042089Y0345323D01*
X04205Y0345401D01*
X0416304D01*
X0415913Y0345323D01*
X0415583Y0345102D01*
X0414829Y0344348D01*
X0414828D01*
X0414438Y034427D01*
X0414258Y034415D01*
X0409978Y0348431D01*
X0404118Y0342571D01*
X0414078Y0332611D01*
X0413997Y033238D01*
X0413833Y0332149D01*
X04D01*
X0399541Y0331959D01*
X0399351Y03315D01*
Y03045D01*
X0399541Y0304041D01*
X039932Y0303854D01*
X0399216Y0303784D01*
X0398822Y0303195D01*
X0398753Y0302848D01*
X0398568Y0302811D01*
X0398222Y0302581D01*
X0397992Y0302236D01*
X0397911Y0301829D01*
Y0299171D01*
X0397957Y0298941D01*
X0397744Y0298728D01*
Y0295579D01*
X0397957Y0295366D01*
X0397911Y0295136D01*
Y0292478D01*
X0397992Y0292071D01*
X0398222Y0291726D01*
X0398568Y0291496D01*
X0398974Y0291415D01*
X0399022D01*
Y0289316D01*
X0398516D01*
X0397821Y0289178D01*
X0397232Y0288784D01*
X0396838Y0288195D01*
X03967Y02875D01*
X0396838Y0286805D01*
X0397232Y0286216D01*
X0397821Y0285822D01*
X0398516Y0285684D01*
X040324D01*
X0403935Y0285822D01*
X0404524Y0286216D01*
X0404918Y0286805D01*
X0405022Y0287326D01*
X0405522Y0287277D01*
Y0284108D01*
X0405392Y0283978D01*
X0404234D01*
X0403935Y0284178D01*
X040324Y0284316D01*
X0398516D01*
X0397821Y0284178D01*
X0397522Y0283978D01*
X0394873D01*
X0394589Y0284325D01*
Y0286982D01*
X0394543Y0287212D01*
X0394756Y0287425D01*
Y0289197D01*
Y0290575D01*
X0393969Y0291362D01*
X0391015D01*
Y0291665D01*
X0390854Y0291362D01*
X0390032D01*
X0389588Y0291546D01*
Y0296932D01*
X038951Y0297322D01*
X0389289Y0297653D01*
X037852Y0308422D01*
Y0311539D01*
X0378784Y0311716D01*
X0379178Y0312305D01*
X0379316Y0313D01*
X0379178Y0313695D01*
X0378784Y0314284D01*
X0378195Y0314678D01*
X03775Y0314816D01*
X0376805Y0314678D01*
X0376216Y0314284D01*
X0375822Y0313695D01*
X0375684Y0313D01*
X0375822Y0312305D01*
X0376216Y0311716D01*
X037648Y0311539D01*
Y0308D01*
X0376558Y030761D01*
X0376779Y0307279D01*
X0384559Y0299499D01*
X0384368Y0299037D01*
X0380727D01*
Y0297905D01*
X0379773D01*
Y0299037D01*
X0375227D01*
Y0298201D01*
X0374727Y0298152D01*
X0374619Y0298695D01*
X0374225Y0299284D01*
X0373636Y0299678D01*
X0372941Y0299816D01*
X0372246Y0299678D01*
X0371657Y0299284D01*
X0371492Y0299037D01*
X0369727D01*
Y0297905D01*
X03685D01*
X036811Y0297828D01*
X0367779Y0297607D01*
X036519Y0295017D01*
X0358739D01*
Y0294846D01*
X0358327D01*
X0357937Y0294769D01*
X0357606Y0294548D01*
X0353279Y0290221D01*
X0353058Y028989D01*
X035298Y02895D01*
Y0275169D01*
X035248Y0274961D01*
X0351553Y0275889D01*
Y02745D01*
X0351739Y0273564D01*
X035227Y027277D01*
X0352916Y0272123D01*
X0352775Y0271783D01*
X0353797Y0270761D01*
X0353737Y0270261D01*
X0349972D01*
Y0271047D01*
X0349895Y0271437D01*
X0349674Y0271768D01*
X0348254Y0273188D01*
X0348316Y02735D01*
X0348178Y0274195D01*
X0347784Y0274784D01*
X0347195Y0275178D01*
X03465Y0275316D01*
X0345805Y0275178D01*
X0345216Y0274784D01*
X0344822Y0274195D01*
X0344684Y02735D01*
X0344822Y0272805D01*
X0345216Y0272216D01*
X0345805Y0271822D01*
X03465Y0271684D01*
X0346812Y0271746D01*
X0347797Y0270761D01*
X0347604Y0270261D01*
X0344067D01*
Y027468D01*
X0343989Y027507D01*
X0343768Y0275401D01*
X0343209Y027596D01*
X0343316Y02765D01*
X0343178Y0277195D01*
X0342784Y0277784D01*
X0342195Y0278178D01*
X03415Y0278316D01*
X0340805Y0278178D01*
X0340216Y0277784D01*
X0339822Y0277195D01*
X0339684Y02765D01*
X0339822Y0275805D01*
X0339962Y0275596D01*
X0339793Y0275331D01*
X0339632Y027519D01*
X0339Y0275316D01*
X0338305Y0275178D01*
X0337716Y0274784D01*
X0337322Y0274195D01*
X0337184Y02735D01*
X0337322Y0272805D01*
X0337716Y0272216D01*
X0338035Y0272002D01*
Y0270261D01*
X0333983D01*
Y0262368D01*
X0334154D01*
Y0258037D01*
X0331227D01*
Y0256101D01*
X0331124D01*
X0330734Y0256023D01*
X0330403Y0255802D01*
X0329218Y0254616D01*
X0328756Y0254808D01*
Y0255075D01*
X0328543Y0255288D01*
X0328589Y0255518D01*
Y0258175D01*
X0328508Y0258582D01*
X0328277Y0258927D01*
X0327933Y0259158D01*
X0327755Y0259193D01*
X0327816Y02595D01*
X0327678Y0260195D01*
X0327284Y0260784D01*
X0326695Y0261178D01*
X0326025Y0261311D01*
X0325956Y0261414D01*
X0325791Y0261784D01*
X0330036Y026603D01*
X0330257Y026636D01*
X0330334Y0266751D01*
Y0270983D01*
X0333261D01*
Y0272951D01*
Y0277059D01*
X033395D01*
X0334305Y0276822D01*
X0335Y0276684D01*
X0335695Y0276822D01*
X0336284Y0277216D01*
X0336678Y0277805D01*
X0336816Y02785D01*
X0336754Y0278812D01*
X0342422Y028448D01*
X0344039D01*
X0344216Y0284216D01*
X0344805Y0283822D01*
X03455Y0283684D01*
X0346195Y0283822D01*
X0346784Y0284216D01*
X0347178Y0284805D01*
X0347316Y02855D01*
X0347178Y0286195D01*
X0346784Y0286784D01*
X0346195Y0287178D01*
X034593Y028723D01*
X0345979Y028773D01*
X0347798D01*
X0347769Y0287769D01*
X0347104Y0288279D01*
X034633Y0288599D01*
X03455Y0288709D01*
X034467Y0288599D01*
X0343896Y0288279D01*
X0343543Y0288008D01*
X0343247Y0288059D01*
X0343064Y0288583D01*
X034425Y028977D01*
X0342885D01*
X0342694Y0290231D01*
X0344942Y029248D01*
X0346539D01*
X0346716Y0292216D01*
X0347305Y0291822D01*
X0348Y0291684D01*
X0348695Y0291822D01*
X0349284Y0292216D01*
X0349678Y0292805D01*
X0349816Y02935D01*
X0349678Y0294195D01*
X0349284Y0294784D01*
X0348695Y0295178D01*
X0348389Y0295239D01*
X0348438Y0295739D01*
X0358017D01*
Y0301612D01*
X0366131D01*
X0366522Y030169D01*
X0366852Y030191D01*
X0373299Y0308356D01*
X037361Y0308295D01*
X0374305Y0308433D01*
X0374895Y0308826D01*
X0375288Y0309416D01*
X0375427Y031011D01*
X0375288Y0310805D01*
X0374895Y0311395D01*
X0374305Y0311788D01*
X037361Y0311927D01*
X0372916Y0311788D01*
X0372326Y0311395D01*
X0371933Y0310805D01*
X0371795Y031011D01*
X0371856Y0309799D01*
X0365709Y0303651D01*
X0357017D01*
X0356919Y0303631D01*
X0352727D01*
X0352535Y0304093D01*
X0352922Y030448D01*
X0364D01*
X036439Y0304558D01*
X0364721Y0304779D01*
X0376688Y0316746D01*
X0377Y0316684D01*
X0377695Y0316822D01*
X0378284Y0317216D01*
X0378678Y0317805D01*
X0378816Y03185D01*
X0378678Y0319195D01*
X0378284Y0319784D01*
X0377695Y0320178D01*
X0377Y0320316D01*
X0376305Y0320178D01*
X0375716Y0319784D01*
X0375322Y0319195D01*
X0375184Y03185D01*
X0375246Y0318188D01*
X0363578Y030652D01*
X0361254D01*
X0360987Y030702D01*
X0361178Y0307305D01*
X0361316Y0308D01*
X0361178Y0308695D01*
X0360784Y0309284D01*
X0360195Y0309678D01*
X03595Y0309816D01*
X0358805Y0309678D01*
X0358216Y0309284D01*
X0358039Y030902D01*
X0357142D01*
X035699Y030952D01*
X0357284Y0309716D01*
X0357678Y0310305D01*
X0357816Y0311D01*
X0357764Y0311262D01*
X0358174Y0311761D01*
X0358526D01*
X0358932Y0311842D01*
X0359278Y0312073D01*
X0359508Y0312418D01*
X0359589Y0312825D01*
Y0315482D01*
X0359543Y0315712D01*
X0359756Y0315925D01*
Y0319075D01*
X0359543Y0319288D01*
X0359589Y0319518D01*
Y0322175D01*
X0359508Y0322582D01*
X0359278Y0322927D01*
X0358932Y0323158D01*
X0358526Y0323238D01*
X0357478D01*
Y03395D01*
X0357366Y0340066D01*
X035725Y034024D01*
Y034575D01*
X0354275D01*
Y0346704D01*
X0354162Y034727D01*
X0353842Y0347749D01*
X0348978Y0352612D01*
Y0354514D01*
X0353202D01*
Y0356261D01*
X036261D01*
X036261Y0356261D01*
X0363527Y0356444D01*
X0363579Y0356479D01*
X036547D01*
Y0361616D01*
X036053D01*
Y0361053D01*
X0353202D01*
Y0362801D01*
X0339798D01*
Y0354514D01*
X0342154D01*
Y0353543D01*
X0341508Y0352896D01*
X0320543D01*
X0319896Y0353543D01*
Y0354479D01*
X032047D01*
Y0359616D01*
X031553D01*
Y0359443D01*
X0306537D01*
Y0367474D01*
X0297463D01*
Y0355272D01*
X0295876D01*
X0295876Y0355272D01*
X0294959Y035509D01*
X0294182Y035457D01*
X0291306Y0351694D01*
X0290786Y0350917D01*
X0290604Y035D01*
X0290604Y035D01*
Y033925D01*
X028925D01*
Y033175D01*
X029675D01*
Y0334022D01*
X0297888D01*
X0298022Y0333888D01*
Y0267612D01*
X0297388Y0266978D01*
X0296446D01*
X0296275Y0267391D01*
X0295674Y0268174D01*
X0294891Y0268775D01*
X0293979Y0269153D01*
X0293Y0269282D01*
X0292021Y0269153D01*
X0291109Y0268775D01*
X0290326Y0268174D01*
X0289725Y0267391D01*
X0289347Y0266479D01*
X0289218Y02655D01*
X0289347Y0264521D01*
X0289725Y0263609D01*
X0290326Y0262826D01*
X0291109Y0262225D01*
X0292021Y0261847D01*
X0293Y0261718D01*
X0293979Y0261847D01*
X0294891Y0262225D01*
X0295674Y0262826D01*
X0296275Y0263609D01*
X0296446Y0264022D01*
X0298D01*
X0298566Y0264134D01*
X0299045Y0264455D01*
X0300545Y0265955D01*
X0300866Y0266434D01*
X0300978Y0267D01*
Y03345D01*
X0300866Y0335066D01*
X0300545Y0335545D01*
X0299545Y0336545D01*
X0299066Y0336866D01*
X02985Y0336978D01*
X029675D01*
Y033925D01*
X0295396D01*
Y0349008D01*
X0296868Y035048D01*
X0299813D01*
X0299813Y035048D01*
X0300044Y0350526D01*
X0303609D01*
Y0341592D01*
X0303721Y0341026D01*
X0304042Y0340547D01*
X0305208Y0339381D01*
X0305322Y0338805D01*
X0305716Y0338216D01*
X0306305Y0337822D01*
X0307Y0337684D01*
X0307695Y0337822D01*
X0308284Y0338216D01*
X0308678Y0338805D01*
X0308816Y03395D01*
X0308678Y0340195D01*
X0308284Y0340784D01*
X0307695Y0341178D01*
X0307567Y0341203D01*
X0306565Y0342205D01*
Y0352D01*
X0306537Y0352143D01*
Y0354651D01*
X0315104D01*
Y035255D01*
X0315104Y035255D01*
X0315286Y0351633D01*
X0315806Y0350856D01*
X0317856Y0348806D01*
X0317856Y0348806D01*
X0318633Y0348286D01*
X031955Y0348104D01*
X031955Y0348104D01*
X03425D01*
X03425Y0348104D01*
X0343417Y0348286D01*
X0344194Y0348806D01*
X0346055Y0350666D01*
X0346074Y035068D01*
X0346629Y0350717D01*
X0346729Y0350681D01*
X035116Y034625D01*
X0350953Y034575D01*
X034975D01*
Y033825D01*
X0354522D01*
Y0327127D01*
X0354022Y032692D01*
X0350221Y0330721D01*
X034989Y0330942D01*
X03495Y033102D01*
X0338461D01*
X0338284Y0331284D01*
X0337695Y0331678D01*
X0337Y0331816D01*
X0336305Y0331678D01*
X0335716Y0331284D01*
X0335478Y0330929D01*
X0334978Y033108D01*
Y0332458D01*
X0334731Y0332269D01*
X0334221Y0331604D01*
X0333901Y033083D01*
X0333791Y033D01*
X0333901Y032917D01*
X0334221Y0328396D01*
X0334731Y0327731D01*
X0334978Y0327541D01*
Y032892D01*
X0335478Y0329071D01*
X0335716Y0328716D01*
X0336305Y0328322D01*
X0337Y0328184D01*
X0337695Y0328322D01*
X0338284Y0328716D01*
X0338461Y032898D01*
X0349078D01*
X0352634Y0325424D01*
Y0319369D01*
X0352134Y0319197D01*
X0351468Y0319862D01*
X0347532D01*
X0346744Y0319075D01*
Y0317598D01*
X034625Y0317268D01*
X0345756Y0317598D01*
Y0319075D01*
X0344969Y0319862D01*
X0341032D01*
X0340306Y0319137D01*
X0340244Y0319075D01*
Y0315925D01*
X0340457Y0315712D01*
X0340411Y0315482D01*
Y0312825D01*
X0340492Y0312418D01*
X0340722Y0312073D01*
X0341068Y0311842D01*
X0341299Y0311796D01*
Y0304597D01*
X0341377Y0304206D01*
X0341427Y0304132D01*
X034116Y0303631D01*
X0338079D01*
Y0305031D01*
X033748D01*
X0337434Y0305263D01*
X0336904Y0306057D01*
X0336039Y0306921D01*
Y030561D01*
X033554Y0305402D01*
X0333919Y0307023D01*
Y0311273D01*
X0329963D01*
Y0306727D01*
X0331775D01*
Y0306705D01*
X0331853Y0306315D01*
X0332074Y0305984D01*
X0333943Y0304115D01*
X0333983Y0303631D01*
X0333983D01*
Y0295739D01*
X0334154D01*
Y0291845D01*
X0334062Y0291784D01*
X0333761Y0291334D01*
X0333261Y0291485D01*
Y0295017D01*
X0325368D01*
Y0292878D01*
X0324564D01*
X032384Y0293601D01*
Y0302679D01*
X0323763Y0303069D01*
X0323542Y03034D01*
X0322539Y0304403D01*
X0322208Y0304624D01*
X0321818Y0304701D01*
X0321238D01*
Y0306526D01*
X0321158Y0306932D01*
X0320927Y0307277D01*
X0320582Y0307508D01*
X0320175Y0307589D01*
X0317518D01*
X0317288Y0307543D01*
X0317075Y0307756D01*
X0313925D01*
X0313712Y0307543D01*
X0313482Y0307589D01*
X0312686D01*
X0312598Y0308034D01*
X0312478Y0308212D01*
Y030965D01*
X03141D01*
Y031635D01*
X03079D01*
Y030965D01*
X0309522D01*
Y03077D01*
X0309634Y0307134D01*
X0309753Y0306956D01*
Y0305922D01*
X0309762Y0305882D01*
Y0303474D01*
X0309842Y0303067D01*
X0310073Y0302723D01*
X0310418Y0302492D01*
X0310825Y0302411D01*
X0313482D01*
X0313712Y0302457D01*
X0313925Y0302244D01*
X0317075D01*
X0317288Y0302457D01*
X0317518Y0302411D01*
X0320175D01*
X0320582Y0302492D01*
X0320837Y0302662D01*
X0321396D01*
X0321801Y0302257D01*
Y0293179D01*
X0321879Y0292789D01*
X03221Y0292458D01*
X0323421Y0291137D01*
X0323751Y0290916D01*
X0324142Y0290839D01*
X0325368D01*
Y0286972D01*
X0323756D01*
X0323316Y0287281D01*
X0323178Y0287976D01*
X0322784Y0288565D01*
X0322195Y0288959D01*
X03215Y0289097D01*
X0320805Y0288959D01*
X0320216Y0288565D01*
X0319822Y0287976D01*
X0319684Y0287281D01*
X0319822Y0286586D01*
X0320216Y0285997D01*
X0320805Y0285603D01*
X0321305Y0285504D01*
X0321256Y0285004D01*
X0320984D01*
X0320594Y0284926D01*
X0320263Y0284705D01*
X031911Y0283552D01*
X0318889Y0283221D01*
X0318811Y0282831D01*
Y0280876D01*
X0317262D01*
Y0274164D01*
X0316998Y0273773D01*
X0316081D01*
Y0269227D01*
X0320037D01*
Y0271682D01*
X0320809Y0272455D01*
X032113Y0272934D01*
X0321242Y02735D01*
Y0274164D01*
X032198D01*
Y0265422D01*
X0317735Y0261177D01*
X0317273Y0261368D01*
Y0262419D01*
X0312727D01*
Y0258463D01*
X0312946D01*
X0313276Y0257963D01*
X0313184Y02575D01*
X0313322Y0256805D01*
X0313716Y0256216D01*
X031401Y025602D01*
X0313858Y025552D01*
X0311213D01*
X0311178Y0255695D01*
X0310784Y0256284D01*
X031052Y0256461D01*
Y0258463D01*
X0311773D01*
Y0262419D01*
X0307227D01*
Y0258463D01*
X030848D01*
Y0256461D01*
X0308216Y0256284D01*
X0307822Y0255695D01*
X0307684Y0255D01*
X0307822Y0254305D01*
X0308013Y025402D01*
X0307746Y025352D01*
X0305461D01*
X0305284Y0253784D01*
X030502Y0253961D01*
Y0258463D01*
X0306273D01*
Y0262419D01*
X0301727D01*
Y0258463D01*
X030298D01*
Y0253961D01*
X0302716Y0253784D01*
X0302322Y0253195D01*
X0302184Y02525D01*
X0302322Y0251805D01*
X0302716Y0251216D01*
X0303305Y0250822D01*
X0304Y0250684D01*
X0304695Y0250822D01*
X0305284Y0251216D01*
X0305461Y025148D01*
X0315064D01*
X0315455Y0251558D01*
X0315785Y0251779D01*
X0323452Y0259446D01*
X0323956Y0259243D01*
X0323957Y0259171D01*
X0323918Y0259058D01*
X0323723Y0258927D01*
X0323492Y0258582D01*
X0323411Y0258175D01*
Y0255518D01*
X0323457Y0255288D01*
X0323244Y0255075D01*
Y0251925D01*
X0323457Y0251712D01*
X0323411Y0251482D01*
Y0251173D01*
X0318653D01*
X0318263Y0251096D01*
X0317933Y0250874D01*
X0310779Y0243721D01*
X0310558Y024339D01*
X031048Y0243D01*
Y0238136D01*
X0309609Y0237775D01*
X0308826Y0237174D01*
X0308225Y0236391D01*
X0307847Y0235479D01*
X0307718Y02345D01*
X0307847Y0233521D01*
X0308225Y0232609D01*
X0308826Y0231826D01*
X0309609Y0231225D01*
X0310521Y0230847D01*
X03115Y0230718D01*
X0312479Y0230847D01*
X0313391Y0231225D01*
X0314174Y0231826D01*
X0314775Y0232609D01*
X0315153Y0233521D01*
X0315282Y02345D01*
X0315153Y0235479D01*
X0314775Y0236391D01*
X0314174Y0237174D01*
X0313391Y0237775D01*
X031252Y0238136D01*
Y0242578D01*
X0319076Y0249134D01*
X0323411D01*
Y0248825D01*
X0323492Y0248418D01*
X0323723Y0248073D01*
X0324067Y0247842D01*
X0324474Y0247762D01*
X0327526D01*
X0327933Y0247842D01*
X0328277Y0248073D01*
X0328508Y0248418D01*
X0328589Y0248825D01*
Y0251104D01*
X0331547Y0254062D01*
X0332522D01*
X0332621Y0254081D01*
X0335773D01*
Y0256595D01*
X0335894Y0256716D01*
X0336115Y0257047D01*
X0336193Y0257437D01*
Y0259658D01*
X0336693Y0259865D01*
X0338021Y0258537D01*
X0337814Y0258037D01*
X0337102D01*
Y0254081D01*
X0341648D01*
Y0258037D01*
X0340395D01*
Y0258625D01*
X0340317Y0259015D01*
X0340096Y0259346D01*
X0338161Y0261281D01*
Y0262368D01*
X034423D01*
Y0261711D01*
X0343966Y0261534D01*
X0343572Y0260945D01*
X0343434Y026025D01*
X0343572Y0259555D01*
X0343966Y0258966D01*
X034423Y0258789D01*
Y0258037D01*
X0342977D01*
Y0254081D01*
X0347523D01*
Y0258037D01*
X034627D01*
Y0258789D01*
X0346534Y0258966D01*
X034675Y0259289D01*
X0346886Y0259317D01*
X0347328Y0259254D01*
X0347632Y02588D01*
X0348221Y0258406D01*
X0348483Y0258354D01*
X0348852Y0258037D01*
Y0254081D01*
X0353398D01*
Y0258037D01*
X0351851D01*
Y0258168D01*
X0351774Y0258559D01*
X0351553Y0258889D01*
X035067Y0259772D01*
X0350732Y0260084D01*
X0350594Y0260779D01*
X03502Y0261368D01*
X0349611Y0261762D01*
X0349075Y0261869D01*
X0349124Y0262368D01*
X035408D01*
Y0265031D01*
X0354217Y0265152D01*
X035458Y0265351D01*
X0354858Y0265295D01*
X0355136Y0265351D01*
X0355499Y0265152D01*
X0355636Y0265031D01*
Y0262368D01*
X0355807D01*
Y0258037D01*
X0354727D01*
Y0254081D01*
X0359273D01*
Y0254974D01*
X0362244D01*
Y0251925D01*
X0362457Y0251712D01*
X0362411Y0251482D01*
Y0248825D01*
X0362492Y0248418D01*
X0362722Y0248073D01*
X0363068Y0247842D01*
X0363474Y0247762D01*
X0363522D01*
Y0246D01*
X0363634Y0245434D01*
X0363955Y0244955D01*
X0364502Y0244407D01*
X0364572Y0244055D01*
X0364966Y0243466D01*
X0365555Y0243072D01*
X0365907Y0243002D01*
X0366455Y0242455D01*
X0366934Y0242134D01*
X03675Y0242022D01*
X0381388D01*
X0392462Y0230947D01*
Y022821D01*
X0392Y0228019D01*
X0391196Y0227402D01*
X039058Y0226598D01*
X0390192Y0225662D01*
X039006Y0224658D01*
X0390192Y0223653D01*
X039058Y0222717D01*
X0391196Y0221913D01*
X0392Y0221296D01*
X0392936Y0220908D01*
X0393941Y0220776D01*
X0394946Y0220908D01*
X0395882Y0221296D01*
X0396685Y0221913D01*
X0397302Y0222717D01*
X039769Y0223653D01*
X0397822Y0224658D01*
X039769Y0225662D01*
X0397302Y0226598D01*
X0396685Y0227402D01*
X0395882Y0228019D01*
X0395419Y022821D01*
Y0231283D01*
X0395919Y023149D01*
X0403797Y0223612D01*
X0404277Y0223292D01*
X0404843Y0223179D01*
X0447475D01*
X0447666Y0222717D01*
X0448283Y0221913D01*
X0449087Y0221296D01*
X0450023Y0220908D01*
X0451028Y0220776D01*
X0452032Y0220908D01*
X0452968Y0221296D01*
X0453772Y0221913D01*
X0454368Y0222691D01*
X045442Y0222694D01*
X0454869Y0222475D01*
Y0206131D01*
X0426917D01*
X0426747Y0206631D01*
X0427183Y0206966D01*
X0427753Y0207708D01*
X0428111Y0208573D01*
X0428233Y02095D01*
Y0215406D01*
X0428111Y0216333D01*
X0427753Y0217197D01*
X0427183Y0217939D01*
X0426441Y0218509D01*
X0425577Y0218867D01*
X042465Y0218989D01*
X041835D01*
X0417423Y0218867D01*
X0416559Y0218509D01*
X0415816Y0217939D01*
X0415247Y0217197D01*
X0414889Y0216333D01*
X0414767Y0215406D01*
Y02095D01*
X0414889Y0208573D01*
X0415247Y0207708D01*
X0415816Y0206966D01*
X0416253Y0206631D01*
X0416083Y0206131D01*
X0288131D01*
Y0390869D01*
X0309813D01*
X0309862Y0390369D01*
X0309083Y0390214D01*
X0308306Y0389694D01*
X0307786Y0388917D01*
X0307604Y0388D01*
X0307786Y0387083D01*
X0308306Y0386306D01*
X0309083Y0385786D01*
X031Y0385604D01*
X03124D01*
Y038465D01*
X0312039Y0384313D01*
X0309273D01*
X031Y0384218D01*
X0311D01*
Y038325D01*
X0315139D01*
X0314777Y0383612D01*
X0314Y0384131D01*
X0313904Y038415D01*
X0313953Y038465D01*
X03186D01*
Y0390869D01*
X0327979D01*
Y038603D01*
X0328151D01*
Y0382488D01*
X0328058Y0382395D01*
X0323553D01*
Y0371353D01*
X0331447D01*
Y0375212D01*
X0339798D01*
Y0374199D01*
X0353202D01*
Y0382486D01*
X0350591D01*
X035044Y0382986D01*
X0350784Y0383216D01*
X0351178Y0383805D01*
X0351316Y03845D01*
X0351178Y0385195D01*
X0350954Y038553D01*
X0351221Y038603D01*
X0352521D01*
Y0386104D01*
X0353979D01*
Y038603D01*
X0359116D01*
Y0390869D01*
X0360868D01*
X0361019Y0390369D01*
X0360758Y0390194D01*
X0360239Y0389417D01*
X0360057Y03885D01*
X0360239Y0387583D01*
X0360516Y0387169D01*
Y0389474D01*
X0364876D01*
X0364694Y0389745D01*
X0364694Y0389745D01*
X0364245Y0390194D01*
X0363985Y0390369D01*
X0364136Y0390869D01*
X0454869D01*
Y0385335D01*
D02*
G37*
G36*
X0341479Y038603D02*
X034298D01*
Y0384969D01*
X0343058Y0384578D01*
X0343279Y0384248D01*
X0343748Y0383779D01*
X0344078Y0383558D01*
X0344469Y038348D01*
X0348039D01*
X0348216Y0383216D01*
X034856Y0382986D01*
X0348409Y0382486D01*
X0339798D01*
Y0380004D01*
X0332978D01*
X0332711Y0380504D01*
X0332761Y0380579D01*
X0332943Y0381496D01*
X0332943Y0381496D01*
Y038603D01*
X0333116D01*
Y0390869D01*
X0333884D01*
Y038603D01*
X0335433D01*
Y0385414D01*
X0335169Y0385237D01*
X0334775Y0384648D01*
X0334637Y0383953D01*
X0334775Y0383258D01*
X0335169Y0382669D01*
X0335758Y0382275D01*
X0336453Y0382137D01*
X0337148Y0382275D01*
X0337737Y0382669D01*
X033813Y0383258D01*
X0338269Y0383953D01*
X033813Y0384648D01*
X0337737Y0385237D01*
X0337472Y0385414D01*
Y038603D01*
X0339021D01*
Y0390869D01*
X0341479D01*
Y038603D01*
D02*
G37*
G36*
X0454869Y0313369D02*
X0453947Y0312447D01*
X0453947Y0312447D01*
X0446091Y0304591D01*
X0445871Y03045D01*
X0400054D01*
X04Y0304629D01*
Y0331371D01*
X0400038Y0331462D01*
X0400129Y03315D01*
X0426D01*
X042619Y033169D01*
X042619Y033169D01*
X0435409Y0340909D01*
X0435629Y0341D01*
X0454869D01*
Y0313369D01*
D02*
G37*
G36*
X0387549Y029651D02*
Y0290784D01*
X0387158Y0290575D01*
X0387049Y0290571D01*
X0386387Y0290703D01*
X0385692Y0290565D01*
X0385103Y0290171D01*
X0384926Y0289907D01*
X0368535D01*
X0368103Y0290339D01*
X036831Y0290839D01*
X0382917D01*
X0383308Y0290916D01*
X0383638Y0291137D01*
X0383721Y029122D01*
X0383797Y0291334D01*
X0369127D01*
X0368841Y029162D01*
X0368047Y029215D01*
X0368032Y0292154D01*
Y029248D01*
Y0292878D01*
X0366632D01*
Y0293575D01*
X0368922Y0295866D01*
X0369727D01*
Y0295081D01*
X0374273D01*
Y0295866D01*
X0375227D01*
Y0295081D01*
X0379773D01*
Y0295866D01*
X0380727D01*
Y0295081D01*
X0385273D01*
Y0298132D01*
X0385735Y0298323D01*
X0387549Y029651D01*
D02*
G37*
G36*
X0337659Y030067D02*
X033792Y0300507D01*
Y0295739D01*
X0340059D01*
Y0295211D01*
X0339637Y0294789D01*
X03395Y0294816D01*
X0338805Y0294678D01*
X0338216Y0294284D01*
X0337822Y0293695D01*
X0337684Y0293D01*
X0337822Y0292305D01*
X0338216Y0291716D01*
X0338805Y0291322D01*
X03395Y0291184D01*
X0340195Y0291322D01*
X0340509Y0290931D01*
X0333723Y0284145D01*
X0333261Y0284336D01*
Y0289515D01*
X0333761Y0289666D01*
X0334062Y0289216D01*
X0334651Y0288822D01*
X0335347Y0288684D01*
X0336041Y0288822D01*
X0336631Y0289216D01*
X0337024Y0289805D01*
X0337162Y02905D01*
X0337024Y0291195D01*
X0336631Y0291784D01*
X0336193Y0292077D01*
Y0295739D01*
X0336364D01*
Y030005D01*
X0336764Y030048D01*
X0337154Y0300558D01*
X033742Y0300736D01*
X0337659Y030067D01*
D02*
G37*
G36*
X0454869Y0311797D02*
Y0246525D01*
X045442Y0246306D01*
X0454368Y0246309D01*
X0453772Y0247087D01*
X0452968Y0247704D01*
X0452032Y0248092D01*
X0451028Y0248224D01*
X0450023Y0248092D01*
X0449087Y0247704D01*
X0448283Y0247087D01*
X0447666Y0246283D01*
X0447475Y0245821D01*
X041577D01*
X0410392Y0251199D01*
X0409912Y0251519D01*
X0409346Y0251632D01*
X0383634D01*
X0383256Y0251925D01*
Y0255075D01*
X0383322Y0255235D01*
X0384817D01*
X0385305Y0254909D01*
X0386Y0254771D01*
X0386695Y0254909D01*
X0387284Y0255303D01*
X0387678Y0255892D01*
X0387816Y0256587D01*
X0387678Y0257282D01*
X0387284Y0257871D01*
X0386695Y0258265D01*
X0386Y0258403D01*
X0385305Y0258265D01*
X0385196Y0258192D01*
X0383086D01*
X0383008Y0258582D01*
X0382778Y0258927D01*
X0382433Y0259158D01*
X0382026Y0259239D01*
X0378974D01*
X0378568Y0259158D01*
X0378222Y0258927D01*
X0377992Y0258582D01*
X0377914Y0258192D01*
X0375586D01*
X0375508Y0258582D01*
X0375277Y0258927D01*
X0374933Y0259158D01*
X0374526Y0259239D01*
X0371474D01*
X0371068Y0259158D01*
X0370723Y0258927D01*
X0370492Y0258582D01*
X0370414Y0258192D01*
X0367586D01*
X0367508Y0258582D01*
X0367278Y0258927D01*
X0366933Y0259158D01*
X0366526Y0259239D01*
X0364243D01*
X0363977Y0259738D01*
X0364007Y0259792D01*
X0364193Y025998D01*
X0409D01*
X040939Y0260058D01*
X0409721Y0260279D01*
X0410875Y0261433D01*
X0411096Y0261763D01*
X0411173Y0262154D01*
Y0263411D01*
X0411482D01*
X0411712Y0263457D01*
X0411925Y0263244D01*
X0415075D01*
X0415288Y0263457D01*
X0415518Y0263411D01*
X0417202D01*
X0417302Y0262911D01*
X0416559Y0262603D01*
X0415816Y0262034D01*
X0415247Y0261292D01*
X0414889Y0260427D01*
X0414767Y02595D01*
Y0253594D01*
X0414889Y0252667D01*
X0415247Y0251803D01*
X0415816Y0251061D01*
X0416559Y0250491D01*
X0417423Y0250133D01*
X041835Y0250011D01*
X042465D01*
X0425577Y0250133D01*
X0426441Y0250491D01*
X0427183Y0251061D01*
X0427753Y0251803D01*
X0428111Y0252667D01*
X0428233Y0253594D01*
Y02595D01*
X0428111Y0260427D01*
X0427753Y0261292D01*
X0427183Y0262034D01*
X0426441Y0262603D01*
X0425577Y0262961D01*
X042465Y0263083D01*
X0418871D01*
X0418719Y0263583D01*
X0418927Y0263722D01*
X0419158Y0264068D01*
X0419239Y0264474D01*
Y0264522D01*
X04215D01*
X0422066Y0264634D01*
X0422545Y0264955D01*
X0424167Y0266577D01*
X0424488Y0267056D01*
X0424601Y0267622D01*
Y0270684D01*
X0425389D01*
X0426118Y0269955D01*
X0426598Y0269634D01*
X0427164Y0269522D01*
X0429471D01*
X0429492Y0269418D01*
X0429722Y0269073D01*
X0430067Y0268842D01*
X0430474Y0268761D01*
X0433526D01*
X0433932Y0268842D01*
X0434277Y0269073D01*
X0434508Y0269418D01*
X0434589Y0269825D01*
Y0272482D01*
X0434543Y0272712D01*
X0434756Y0272925D01*
Y0276075D01*
X0434543Y0276288D01*
X0434589Y0276518D01*
Y0279175D01*
X0434508Y0279582D01*
X0434277Y0279927D01*
X0433932Y0280158D01*
X0433526Y0280239D01*
X0433478D01*
Y0281261D01*
X0433526D01*
X0433932Y0281342D01*
X0434277Y0281573D01*
X0434508Y0281918D01*
X0434589Y0282325D01*
Y0284982D01*
X0434543Y0285212D01*
X0434756Y0285425D01*
Y0287098D01*
Y0288575D01*
X0434386Y0288945D01*
X0433968Y0289362D01*
X0430031D01*
X0429244Y0288575D01*
Y0288575D01*
Y0285425D01*
X0429457Y0285212D01*
X0429411Y0284982D01*
Y0282325D01*
X0429492Y0281918D01*
X0429722Y0281573D01*
X0430067Y0281342D01*
X0430474Y0281261D01*
X0430522D01*
Y0280239D01*
X0430474D01*
X0430067Y0280158D01*
X0429722Y0279927D01*
X0429492Y0279582D01*
X0429411Y0279175D01*
Y0279105D01*
X0426288D01*
X0426179Y0279178D01*
X0425484Y0279316D01*
X042076D01*
X0420065Y0279178D01*
X0419476Y0278784D01*
X0419082Y0278195D01*
X0418944Y02775D01*
X0419082Y0276805D01*
X0419476Y0276216D01*
X0420065Y0275822D01*
X042076Y0275684D01*
X0425484D01*
X0426179Y0275822D01*
X0426667Y0276148D01*
X0428774D01*
X0429244Y0275661D01*
Y0272925D01*
X0428984Y0272478D01*
X0427776D01*
X0427187Y0273067D01*
X0427162Y0273195D01*
X0426768Y0273784D01*
X0426179Y0274178D01*
X0425484Y0274316D01*
X042076D01*
X0420065Y0274178D01*
X0419476Y0273784D01*
X0419082Y0273195D01*
X0418944Y02725D01*
X0419082Y0271805D01*
X0419476Y0271216D01*
X0420065Y0270822D01*
X042076Y0270684D01*
X0421644D01*
Y0268234D01*
X0420888Y0267478D01*
X0419239D01*
Y0267526D01*
X0419158Y0267933D01*
X0418927Y0268278D01*
X0418582Y0268508D01*
X0418175Y0268589D01*
X0415518D01*
X0415288Y0268543D01*
X0415075Y0268756D01*
X0411925D01*
X0411712Y0268543D01*
X0411482Y0268589D01*
X0408825D01*
X0408607Y0268546D01*
X0408361Y0269006D01*
X0409371Y0270016D01*
X0408825D01*
X0407872Y0269827D01*
X0407064Y0269287D01*
X0406524Y0268479D01*
X0406334Y0267526D01*
Y026698D01*
X0407344Y0267989D01*
X0407805Y0267743D01*
X0407761Y0267526D01*
Y0264474D01*
X0407842Y0264068D01*
X0408073Y0263722D01*
X0408418Y0263492D01*
X0408825Y0263411D01*
X0409134D01*
Y0262576D01*
X0408578Y026202D01*
X0363961D01*
X0363784Y0262284D01*
X0363195Y0262678D01*
X03625Y0262816D01*
X0361805Y0262678D01*
X0361216Y0262284D01*
X0360822Y0261695D01*
X0360684Y0261D01*
X0360822Y0260305D01*
X0361216Y0259716D01*
X0361805Y0259322D01*
X0362327Y0259218D01*
X0362556Y0258797D01*
X036257Y0258699D01*
X0362492Y0258582D01*
X0362411Y0258175D01*
Y0257931D01*
X0359273D01*
Y0258037D01*
X0357846D01*
Y0262368D01*
X0358017D01*
Y0270261D01*
X0357846D01*
Y0271673D01*
X0357769Y0272063D01*
X0357548Y0272394D01*
X035502Y0274922D01*
Y0288254D01*
X035552Y0288303D01*
X0355558Y028811D01*
X0355779Y0287779D01*
X035611Y0287558D01*
X03565Y028748D01*
X035689Y0287558D01*
X0357221Y0287779D01*
X0357355Y0287913D01*
X0357576Y0288244D01*
X0357653Y0288634D01*
Y0289711D01*
X0358277Y0290335D01*
X0358739Y0290143D01*
Y0286731D01*
Y0282794D01*
Y0278857D01*
Y027492D01*
Y0270983D01*
X0366632D01*
Y027492D01*
Y0279028D01*
X0369547D01*
X0369937Y0279105D01*
X0370268Y0279326D01*
X0373188Y0282246D01*
X03735Y0282184D01*
X0374195Y0282322D01*
X0374784Y0282716D01*
X0375178Y0283305D01*
X0375316Y0284D01*
X0375178Y0284695D01*
X0374784Y0285284D01*
X0374195Y0285678D01*
X03735Y0285816D01*
X0372805Y0285678D01*
X0372216Y0285284D01*
X0371822Y0284695D01*
X0371684Y0284D01*
X0371746Y0283688D01*
X0369125Y0281067D01*
X0366632D01*
Y0284762D01*
Y0288219D01*
X0367131Y0288427D01*
X0367392Y0288166D01*
X0367723Y0287945D01*
X0368113Y0287867D01*
X0384926D01*
X0385103Y0287603D01*
X0385692Y0287209D01*
X0386387Y0287071D01*
X0387049Y0287203D01*
X0387057Y0287202D01*
X0387086Y0287182D01*
X0387292Y0286734D01*
X0380812Y0280254D01*
X03805Y0280316D01*
X0379805Y0280178D01*
X0379216Y0279784D01*
X0378822Y0279195D01*
X0378684Y02785D01*
X0378822Y0277805D01*
X0379216Y0277216D01*
X0379805Y0276822D01*
X0380138Y0276756D01*
X0380089Y0276256D01*
X0379425D01*
X0379212Y0276043D01*
X0378982Y0276089D01*
X0376325D01*
X0375918Y0276008D01*
X0375573Y0275778D01*
X0375342Y0275432D01*
X0375261Y0275026D01*
Y027255D01*
X0370231Y026752D01*
X0367461D01*
X0367284Y0267784D01*
X0366695Y0268178D01*
X0366Y0268316D01*
X0365305Y0268178D01*
X0364716Y0267784D01*
X0364322Y0267195D01*
X0364184Y02665D01*
X0364322Y0265805D01*
X0364716Y0265216D01*
X0365305Y0264822D01*
X0366Y0264684D01*
X0366695Y0264822D01*
X0367284Y0265216D01*
X0367461Y026548D01*
X0370654D01*
X0371044Y0265558D01*
X0371375Y0265779D01*
X0376506Y0270911D01*
X0378982D01*
X0379212Y0270957D01*
X0379425Y0270744D01*
X0382575D01*
X0382788Y0270957D01*
X0383018Y0270911D01*
X0385675D01*
X0386082Y0270992D01*
X0386427Y0271222D01*
X0386658Y0271568D01*
X0386738Y0271974D01*
Y0272098D01*
X0389456D01*
X0389492Y0271918D01*
X0389722Y0271573D01*
X0390068Y0271342D01*
X0390474Y0271262D01*
X0393526D01*
X0393933Y0271342D01*
X0394278Y0271573D01*
X0394508Y0271918D01*
X0394589Y0272325D01*
Y0273955D01*
X0395717Y0275082D01*
X0395804Y0275213D01*
X0396486Y0275895D01*
X0397712D01*
X0397821Y0275822D01*
X0398516Y0275684D01*
X040324D01*
X0403935Y0275822D01*
X0404524Y0276216D01*
X0404918Y0276805D01*
X0405056Y02775D01*
X0404918Y0278195D01*
X0404524Y0278784D01*
X0403935Y0279178D01*
X040324Y0279316D01*
X0398516D01*
X0397821Y0279178D01*
X0397333Y0278852D01*
X0395873D01*
X0395307Y0278739D01*
X0395214Y0278677D01*
X0394965Y0278621D01*
X0394589Y0279017D01*
X0394589Y0279018D01*
Y0281022D01*
X0397522D01*
X0397821Y0280822D01*
X0398516Y0280684D01*
X040324D01*
X0403935Y0280822D01*
X0404234Y0281022D01*
X0406004D01*
X040657Y0281134D01*
X040705Y0281455D01*
X0408045Y0282451D01*
X0408366Y028293D01*
X0408478Y0283496D01*
Y0292027D01*
X0408508Y0292071D01*
X0408589Y0292478D01*
Y0295136D01*
X0408543Y0295366D01*
X0408756Y0295579D01*
Y0297252D01*
Y0298728D01*
X0407969Y0299516D01*
X0404032D01*
X0403577Y0299061D01*
X0403351Y0299112D01*
X0403089Y029928D01*
Y0301829D01*
X0403008Y0302236D01*
X0402777Y0302581D01*
X0402432Y0302811D01*
X0402247Y0302848D01*
X0402178Y0303195D01*
X0402074Y0303351D01*
X0402341Y0303851D01*
X0446D01*
X0446459Y0304041D01*
X0454407Y0311988D01*
X0454869Y0311797D01*
D02*
G37*
G36*
X0389411Y0285262D02*
Y0284325D01*
X0389492Y0283918D01*
X0389722Y0283573D01*
X0390068Y0283342D01*
X0390474Y0283261D01*
X0390522D01*
Y0282738D01*
X0390474D01*
X0390068Y0282658D01*
X0389722Y0282427D01*
X0389492Y0282082D01*
X0389411Y0281675D01*
Y0279018D01*
X0389457Y0278788D01*
X0389244Y0278575D01*
Y0275425D01*
X0388907Y0275055D01*
X0386733D01*
X0386658Y0275432D01*
X0386427Y0275778D01*
X0386082Y0276008D01*
X0385675Y0276089D01*
X0383018D01*
X0382788Y0276043D01*
X0382575Y0276256D01*
X0380911D01*
X0380861Y0276756D01*
X0381195Y0276822D01*
X0381784Y0277216D01*
X0382178Y0277805D01*
X0382316Y02785D01*
X0382254Y0278812D01*
X0388911Y0285469D01*
X0389411Y0285262D01*
D02*
G37*
G36*
X0370244Y0255075D02*
Y0251925D01*
X0370457Y0251712D01*
X0370411Y0251482D01*
Y0248825D01*
X0370492Y0248418D01*
X0370723Y0248073D01*
X0371068Y0247842D01*
X0371474Y0247762D01*
X0373498D01*
X0375819Y024544D01*
X0375628Y0244978D01*
X0368112D01*
X0367998Y0245093D01*
X0367928Y0245445D01*
X0367534Y0246034D01*
X0366945Y0246428D01*
X0366593Y0246498D01*
X0366478Y0246612D01*
Y0247762D01*
X0366526D01*
X0366933Y0247842D01*
X0367278Y0248073D01*
X0367508Y0248418D01*
X0367589Y0248825D01*
Y0251482D01*
X0367543Y0251712D01*
X0367756Y0251925D01*
Y0255075D01*
X0367822Y0255235D01*
X0370178D01*
X0370244Y0255075D01*
D02*
G37*
G36*
X0414112Y0243297D02*
X0414592Y0242977D01*
X0415158Y0242864D01*
X0447475D01*
X0447666Y0242402D01*
X0448283Y0241598D01*
X0449087Y0240981D01*
X0450023Y0240594D01*
X0451028Y0240461D01*
X0452032Y0240594D01*
X0452968Y0240981D01*
X0453772Y0241598D01*
X0454368Y0242375D01*
X045442Y0242379D01*
X0454869Y024216D01*
Y022684D01*
X045442Y0226621D01*
X0454368Y0226624D01*
X0453772Y0227402D01*
X0452968Y0228019D01*
X0452032Y0228407D01*
X0451028Y0228539D01*
X0450023Y0228407D01*
X0449087Y0228019D01*
X0448283Y0227402D01*
X0447666Y0226598D01*
X0447475Y0226136D01*
X0405455D01*
X0384545Y0247045D01*
X0384066Y0247366D01*
X03835Y0247478D01*
X0382788D01*
X0382636Y0247978D01*
X0382778Y0248073D01*
X0383008Y0248418D01*
X0383059Y0248675D01*
X0408734D01*
X0414112Y0243297D01*
D02*
G37*
%LPC*%
G36*
X03245Y0389478D02*
X0324478Y0389474D01*
X0324522D01*
X03245Y0389478D01*
D02*
G37*
G36*
X0322636Y0383795D02*
X0322153D01*
Y0383313D01*
X0322636Y0383795D01*
D02*
G37*
G36*
X032Y0385341D02*
X0319455Y0384795D01*
X0319134Y0384316D01*
X0319022Y038375D01*
Y038325D01*
X032D01*
Y0385341D01*
D02*
G37*
G36*
X037387Y0375016D02*
X035913D01*
Y0372241D01*
X036003Y0373141D01*
X036053Y0372934D01*
Y0368479D01*
X0360604D01*
Y0367521D01*
X036053D01*
Y0362384D01*
X036547D01*
Y0367521D01*
X0365396D01*
Y0368479D01*
X036547D01*
Y0373616D01*
X0361515D01*
X0361266Y0374116D01*
X0361435Y0374338D01*
X036288D01*
X036288Y0374338D01*
X0363797Y0374521D01*
X0363851Y0374557D01*
X037387D01*
Y0375016D01*
D02*
G37*
G36*
X0354602Y0374491D02*
X0352911Y0372799D01*
X0354602D01*
Y0374491D01*
D02*
G37*
G36*
X0322153Y0371436D02*
Y0369953D01*
X0323637D01*
X0322153Y0371436D01*
D02*
G37*
G36*
X032187Y0366921D02*
X0319891D01*
X032187Y0364942D01*
Y0366921D01*
D02*
G37*
G36*
X037247Y0373616D02*
X036753D01*
Y0368479D01*
X0367604D01*
Y0367521D01*
X036753D01*
Y0362384D01*
X037247D01*
Y0367521D01*
X0372396D01*
Y0368479D01*
X037247D01*
Y0373616D01*
D02*
G37*
G36*
X032047Y0365521D02*
X031553D01*
Y0360384D01*
X032047D01*
Y0365521D01*
D02*
G37*
G36*
X0437649Y0385337D02*
X0437141Y0383661D01*
X0437Y0382229D01*
Y03545D01*
X0436953Y0354453D01*
Y0353534D01*
X0437459Y0354041D01*
X0437649Y03545D01*
Y0385337D01*
D02*
G37*
G36*
X0374575Y0346756D02*
X0371425D01*
X0371212Y0346543D01*
X0370982Y0346589D01*
X0368325D01*
X0367918Y0346508D01*
X0367573Y0346277D01*
X0367342Y0345933D01*
X0367262Y0345526D01*
Y0344107D01*
X0367236Y0343978D01*
X0367236Y0343978D01*
Y0339973D01*
X0366638D01*
Y0335427D01*
X0368983D01*
X03696Y0335304D01*
X0370217Y0335427D01*
X0372562D01*
Y0339973D01*
X0372028D01*
Y0341244D01*
X0374575D01*
X0374636Y0341305D01*
X0375199Y0341242D01*
X0375216Y0341216D01*
X0375805Y0340822D01*
X03765Y0340684D01*
X0377195Y0340822D01*
X0377784Y0341216D01*
X0377951Y0341466D01*
X0378082Y0341492D01*
X0378427Y0341722D01*
X0378658Y0342068D01*
X0378738Y0342474D01*
Y0345526D01*
X0378658Y0345933D01*
X0378427Y0346277D01*
X0378082Y0346508D01*
X0377675Y0346589D01*
X0375018D01*
X0374788Y0346543D01*
X0374575Y0346756D01*
D02*
G37*
G36*
X037247Y0361616D02*
X036753D01*
Y0356479D01*
X037247D01*
Y0356651D01*
X0387968D01*
X0389463Y0355156D01*
Y0341203D01*
X0398537D01*
Y0358545D01*
X0392851D01*
X0390655Y0360741D01*
X0389878Y0361261D01*
X0388961Y0361443D01*
X0388961Y0361443D01*
X037247D01*
Y0361616D01*
D02*
G37*
G36*
X0432918Y0341302D02*
X0431198Y0339582D01*
X04315Y0339522D01*
X0432066Y0339634D01*
X0432545Y0339955D01*
X0432866Y0340434D01*
X0432978Y0341D01*
X0432918Y0341302D01*
D02*
G37*
G36*
X03435Y0345782D02*
X0342521Y0345653D01*
X0341609Y0345275D01*
X0340826Y0344674D01*
X0340225Y0343891D01*
X0339847Y0342979D01*
X0339718Y0342D01*
X0339847Y0341021D01*
X0340225Y0340109D01*
X0340826Y0339326D01*
X0341609Y0338725D01*
X0342521Y0338347D01*
X03435Y0338218D01*
X0344479Y0338347D01*
X0345391Y0338725D01*
X0346174Y0339326D01*
X0346775Y0340109D01*
X0347153Y0341021D01*
X0347282Y0342D01*
X0347153Y0342979D01*
X0346775Y0343891D01*
X0346174Y0344674D01*
X0345391Y0345275D01*
X0344479Y0345653D01*
X03435Y0345782D01*
D02*
G37*
G36*
X03235D02*
X0322521Y0345653D01*
X0321609Y0345275D01*
X0320826Y0344674D01*
X0320225Y0343891D01*
X0319847Y0342979D01*
X0319718Y0342D01*
X0319847Y0341021D01*
X0320225Y0340109D01*
X0320826Y0339326D01*
X0321609Y0338725D01*
X0322521Y0338347D01*
X03235Y0338218D01*
X0324479Y0338347D01*
X0325391Y0338725D01*
X0326174Y0339326D01*
X0326775Y0340109D01*
X0327153Y0341021D01*
X0327282Y0342D01*
X0327153Y0342979D01*
X0326775Y0343891D01*
X0326174Y0344674D01*
X0325391Y0345275D01*
X0324479Y0345653D01*
X03235Y0345782D01*
D02*
G37*
G36*
X03855Y0336396D02*
X0385399Y0336376D01*
X0379421D01*
X0378804Y0336253D01*
X0376459D01*
Y0331707D01*
X0378804D01*
X0379421Y0331584D01*
X038548D01*
X038548Y0331584D01*
X0386397Y0331766D01*
X0387174Y0332286D01*
X0387194Y0332306D01*
X0387714Y0333083D01*
X0387896Y0334D01*
X0387714Y0334917D01*
X0387194Y0335694D01*
X0386417Y0336214D01*
X03855Y0336396D01*
D02*
G37*
G36*
X0372541Y0332393D02*
X0366617D01*
Y0327847D01*
X0368634D01*
Y0326089D01*
X0368325D01*
X0367918Y0326008D01*
X0367573Y0325778D01*
X0367342Y0325432D01*
X0367262Y0325026D01*
Y0321974D01*
X0367342Y0321568D01*
X0367573Y0321222D01*
X0367918Y0320992D01*
X0368325Y0320911D01*
X0370982D01*
X0371212Y0320957D01*
X0371425Y0320744D01*
X0372149D01*
X037234Y0320282D01*
X0371681Y0319623D01*
X0371936Y0319673D01*
X0372744Y0320213D01*
X0373098Y0320744D01*
X0374082D01*
X0374329Y0320244D01*
X0374221Y0320104D01*
X0373901Y031933D01*
X0373844Y0318902D01*
X0375722Y032078D01*
X0375943Y0321111D01*
X0376021Y0321501D01*
Y0321538D01*
X0375832Y032146D01*
X0375362Y0321806D01*
Y0324646D01*
Y0325468D01*
X0374575Y0326256D01*
X0371425D01*
X0371212Y0326043D01*
X0370982Y0326089D01*
X0370673D01*
Y0327847D01*
X0372541D01*
Y03291D01*
X0378458D01*
X0381316Y0326242D01*
X0381647Y0326021D01*
X0382037Y0325943D01*
X0382361D01*
Y0324D01*
X0393403D01*
Y0329925D01*
X0382361D01*
Y0328734D01*
X0381899Y0328543D01*
X0379601Y0330841D01*
X037927Y0331062D01*
X037888Y033114D01*
X0372541D01*
Y0332393D01*
D02*
G37*
G36*
X0310683Y0327675D02*
X0304758D01*
Y0323325D01*
X0310683D01*
Y0327675D01*
D02*
G37*
G36*
X035865Y034715D02*
X0358512D01*
Y0325925D01*
X035859Y0325535D01*
X035881Y0325204D01*
X0360707Y0323308D01*
X0360469Y0323664D01*
X0360754Y0324138D01*
X0364469D01*
X0365256Y0324925D01*
Y0326402D01*
Y0328075D01*
X0365043Y0328288D01*
X0365089Y0328518D01*
Y0331175D01*
X0365008Y0331582D01*
X0364777Y0331927D01*
X0364433Y0332158D01*
X0364321Y033218D01*
X0364126Y0332728D01*
X0364178Y0332805D01*
X0364316Y03335D01*
X0364178Y0334195D01*
X0364222Y03343D01*
X0364433Y0334342D01*
X0364777Y0334573D01*
X0365008Y0334918D01*
X0365089Y0335325D01*
Y0337982D01*
X0365043Y0338212D01*
X0365256Y0338425D01*
Y0341575D01*
X0365043Y0341788D01*
X0365089Y0342018D01*
Y0344675D01*
X0365008Y0345082D01*
X0364777Y0345427D01*
X0364433Y0345658D01*
X0364026Y0345739D01*
X0360974D01*
X0360551Y0346164D01*
Y0347082D01*
X0360021Y0346976D01*
X0359213Y0346436D01*
X035915Y0346341D01*
X035865Y0346493D01*
Y034715D01*
D02*
G37*
G36*
X0366011Y0321084D02*
X0366024Y0321021D01*
X0366564Y0320213D01*
X0367372Y0319673D01*
X0367435Y0319661D01*
X0366011Y0321084D01*
D02*
G37*
G36*
X0371163Y031952D02*
X0368144D01*
X0368325Y0319484D01*
X0370982D01*
X0371163Y031952D01*
D02*
G37*
G36*
X0392Y0312816D02*
X0391305Y0312678D01*
X0391Y0312474D01*
X0390695Y0312678D01*
X039Y0312816D01*
X0389305Y0312678D01*
X0389Y0312474D01*
X0388695Y0312678D01*
X0388Y0312816D01*
X0387305Y0312678D01*
X0387Y0312474D01*
X0386695Y0312678D01*
X0386Y0312816D01*
X0385305Y0312678D01*
X0385Y0312474D01*
X0384695Y0312678D01*
X0384Y0312816D01*
X0383305Y0312678D01*
X0382716Y0312284D01*
X0382476Y0311925D01*
X0382361D01*
Y0311752D01*
X0382322Y0311695D01*
X0382184Y0311D01*
X0382322Y0310305D01*
X0382361Y0310248D01*
Y0309752D01*
X0382322Y0309695D01*
X0382184Y0309D01*
X0382322Y0308305D01*
X0382361Y0308248D01*
Y0307752D01*
X0382322Y0307695D01*
X0382184Y0307D01*
X0382322Y0306305D01*
X0382361Y0306248D01*
Y0306D01*
X0382526D01*
X0382716Y0305716D01*
X0383305Y0305322D01*
X0384Y0305184D01*
X0384695Y0305322D01*
X0385Y0305526D01*
X0385305Y0305322D01*
X0386Y0305184D01*
X0386695Y0305322D01*
X0387Y0305526D01*
X0387305Y0305322D01*
X0388Y0305184D01*
X0388695Y0305322D01*
X0389Y0305526D01*
X0389305Y0305322D01*
X039Y0305184D01*
X0390695Y0305322D01*
X0391Y0305526D01*
X0391305Y0305322D01*
X0392Y0305184D01*
X0392695Y0305322D01*
X0393284Y0305716D01*
X0393678Y0306305D01*
X0393816Y0307D01*
X0393678Y0307695D01*
X0393474Y0308D01*
X0393678Y0308305D01*
X0393816Y0309D01*
X0393678Y0309695D01*
X0393474Y031D01*
X0393678Y0310305D01*
X0393816Y0311D01*
X0393678Y0311695D01*
X0393284Y0312284D01*
X0392695Y0312678D01*
X0392Y0312816D01*
D02*
G37*
G36*
X0293Y0319282D02*
X0292021Y0319153D01*
X0291109Y0318775D01*
X0290326Y0318174D01*
X0289725Y0317391D01*
X0289347Y0316479D01*
X0289218Y03155D01*
X0289347Y0314521D01*
X0289725Y0313609D01*
X0290326Y0312826D01*
X0291109Y0312225D01*
X0292021Y0311847D01*
X0293Y0311718D01*
X0293979Y0311847D01*
X0294891Y0312225D01*
X0295674Y0312826D01*
X0296275Y0313609D01*
X0296653Y0314521D01*
X0296782Y03155D01*
X0296653Y0316479D01*
X0296275Y0317391D01*
X0295674Y0318174D01*
X0294891Y0318775D01*
X0293979Y0319153D01*
X0293Y0319282D01*
D02*
G37*
G36*
X0335319Y0312673D02*
X0328563D01*
Y0311472D01*
X0329112Y0312022D01*
X0334388D01*
X0335053Y0311356D01*
Y0309528D01*
X0335165Y0308962D01*
X0335319Y0308732D01*
Y0312673D01*
D02*
G37*
G36*
X0293Y0309282D02*
X0292021Y0309153D01*
X0291109Y0308775D01*
X0290326Y0308174D01*
X0289725Y0307391D01*
X0289347Y0306479D01*
X0289218Y03055D01*
X0289347Y0304521D01*
X0289725Y0303609D01*
X0290326Y0302826D01*
X0291109Y0302225D01*
X0292021Y0301847D01*
X0293Y0301718D01*
X0293979Y0301847D01*
X0294891Y0302225D01*
X0295674Y0302826D01*
X0296275Y0303609D01*
X0296653Y0304521D01*
X0296782Y03055D01*
X0296653Y0306479D01*
X0296275Y0307391D01*
X0295674Y0308174D01*
X0294891Y0308775D01*
X0293979Y0309153D01*
X0293Y0309282D01*
D02*
G37*
G36*
X0324522Y0304439D02*
Y03D01*
X0324634Y0299434D01*
X0324955Y0298955D01*
X0325268Y0298745D01*
Y0302679D01*
X0325082Y0303616D01*
X0324551Y030441D01*
X0324522Y0304439D01*
D02*
G37*
G36*
X0390991Y0297053D02*
X039098Y0297D01*
Y0292347D01*
X0391015Y0292171D01*
Y0296932D01*
X0390991Y0297053D01*
D02*
G37*
G36*
X0293Y0299282D02*
X0292021Y0299153D01*
X0291109Y0298775D01*
X0290326Y0298174D01*
X0289725Y0297391D01*
X0289347Y0296479D01*
X0289218Y02955D01*
X0289347Y0294521D01*
X0289725Y0293609D01*
X0290326Y0292826D01*
X0291109Y0292225D01*
X0292021Y0291847D01*
X0293Y0291718D01*
X0293979Y0291847D01*
X0294891Y0292225D01*
X0295674Y0292826D01*
X0296275Y0293609D01*
X0296653Y0294521D01*
X0296782Y02955D01*
X0296653Y0296479D01*
X0296275Y0297391D01*
X0295674Y0298174D01*
X0294891Y0298775D01*
X0293979Y0299153D01*
X0293Y0299282D01*
D02*
G37*
G36*
X0320374Y0297868D02*
Y0293179D01*
X032056Y0292243D01*
X0321091Y0291449D01*
X0321232Y0291307D01*
X0321309Y0291693D01*
Y029248D01*
X0321197Y0293046D01*
X0320876Y0293526D01*
X0320579Y0293823D01*
Y0297163D01*
X0320466Y0297729D01*
X0320374Y0297868D01*
D02*
G37*
G36*
X0314919Y0300773D02*
X0310963D01*
Y0298318D01*
X0310854Y0298208D01*
X0310533Y0297729D01*
X0310421Y0297163D01*
Y0295836D01*
X0308601D01*
Y0289124D01*
X0313738D01*
Y0295836D01*
X0314002Y0296227D01*
X0314919D01*
Y0300773D01*
D02*
G37*
G36*
X0320566Y0290337D02*
X0319896Y029006D01*
X0319231Y028955D01*
X0318721Y0288885D01*
X0318444Y0288215D01*
X0320566Y0290337D01*
D02*
G37*
G36*
X0315138Y0289091D02*
X0313771Y0287724D01*
X0315138D01*
Y0289091D01*
D02*
G37*
G36*
X0293Y0289282D02*
X0292021Y0289153D01*
X0291109Y0288775D01*
X0290326Y0288174D01*
X0289725Y0287391D01*
X0289347Y0286479D01*
X0289218Y02855D01*
X0289347Y0284521D01*
X0289725Y0283609D01*
X0290326Y0282826D01*
X0291109Y0282225D01*
X0292021Y0281847D01*
X0293Y0281718D01*
X0293979Y0281847D01*
X0294891Y0282225D01*
X0295674Y0282826D01*
X0296275Y0283609D01*
X0296653Y0284521D01*
X0296782Y02855D01*
X0296653Y0286479D01*
X0296275Y0287391D01*
X0295674Y0288174D01*
X0294891Y0288775D01*
X0293979Y0289153D01*
X0293Y0289282D01*
D02*
G37*
G36*
Y0279282D02*
X0292021Y0279153D01*
X0291109Y0278775D01*
X0290326Y0278174D01*
X0289725Y0277391D01*
X0289347Y0276479D01*
X0289218Y02755D01*
X0289347Y0274521D01*
X0289725Y0273609D01*
X0290326Y0272826D01*
X0291109Y0272225D01*
X0292021Y0271847D01*
X0293Y0271718D01*
X0293979Y0271847D01*
X0294891Y0272225D01*
X0295674Y0272826D01*
X0296275Y0273609D01*
X0296653Y0274521D01*
X0296782Y02755D01*
X0296653Y0276479D01*
X0296275Y0277391D01*
X0295674Y0278174D01*
X0294891Y0278775D01*
X0293979Y0279153D01*
X0293Y0279282D01*
D02*
G37*
G36*
X03745Y0239816D02*
X0373805Y0239678D01*
X0373216Y0239284D01*
X0372822Y0238695D01*
X0372684Y0238D01*
X0372822Y0237305D01*
X0372873Y0237228D01*
X0372643Y0236673D01*
X0372568Y0236658D01*
X0372222Y0236427D01*
X0371992Y0236082D01*
X0371911Y0235675D01*
Y0233018D01*
X0371957Y0232788D01*
X0371744Y0232575D01*
Y0229425D01*
X0371957Y0229212D01*
X0371911Y0228982D01*
Y0226325D01*
X0371992Y0225918D01*
X0372222Y0225573D01*
X0372568Y0225342D01*
X0372974Y0225261D01*
X0373072D01*
Y0222473D01*
X0371638D01*
Y0217927D01*
X0377562D01*
Y0222473D01*
X0376028D01*
Y0225262D01*
X0376432Y0225342D01*
X0376778Y0225573D01*
X0377008Y0225918D01*
X0377089Y0226325D01*
Y0228982D01*
X0377043Y0229212D01*
X0377256Y0229425D01*
Y0232575D01*
X0377043Y0232788D01*
X0377089Y0233018D01*
Y0235675D01*
X0377008Y0236082D01*
X0376778Y0236427D01*
X0376432Y0236658D01*
X0376357Y0236673D01*
X0376127Y0237228D01*
X0376178Y0237305D01*
X0376316Y0238D01*
X0376178Y0238695D01*
X0375784Y0239284D01*
X0375195Y0239678D01*
X03745Y0239816D01*
D02*
G37*
G36*
X03805Y0238816D02*
X0379805Y0238678D01*
X0379216Y0238284D01*
X0378822Y0237695D01*
X0378684Y0237D01*
X0378822Y0236305D01*
X0379216Y0235716D01*
X0379805Y0235322D01*
X0380157Y0235252D01*
X0384522Y0230888D01*
Y0218753D01*
X0381459D01*
Y0214207D01*
X0387384D01*
Y021716D01*
X0387412Y0217303D01*
Y0217724D01*
X0387478Y0218059D01*
Y02315D01*
X0387366Y0232066D01*
X0387045Y0232545D01*
X0382248Y0237343D01*
X0382178Y0237695D01*
X0381784Y0238284D01*
X0381195Y0238678D01*
X03805Y0238816D01*
D02*
G37*
G36*
X0365053Y0228053D02*
X0357947D01*
Y0220947D01*
X0360022D01*
Y0216D01*
X0360134Y0215434D01*
X0360455Y0214955D01*
X0363835Y0211575D01*
X0364314Y0211254D01*
X036488Y0211142D01*
X0371617D01*
Y0210347D01*
X0377541D01*
Y0214893D01*
X0371617D01*
Y0214099D01*
X0365492D01*
X0362978Y0216612D01*
Y0220947D01*
X0365053D01*
Y0228053D01*
D02*
G37*
G36*
X0419419Y0301773D02*
X0415463D01*
Y0301554D01*
X0414963Y0301224D01*
X04145Y0301316D01*
X0413805Y0301178D01*
X0413216Y0300784D01*
X0412822Y0300195D01*
X0412684Y02995D01*
X0412822Y0298805D01*
X0413216Y0298216D01*
X0413805Y0297822D01*
X04145Y0297684D01*
X0414963Y0297776D01*
X0415463Y0297446D01*
Y0297227D01*
X0419419D01*
Y0301773D01*
D02*
G37*
G36*
X0425484Y0284316D02*
X042076D01*
X0420065Y0284178D01*
X0419476Y0283784D01*
X0419082Y0283195D01*
X0418944Y02825D01*
X0419082Y0281805D01*
X0419476Y0281216D01*
X0420065Y0280822D01*
X042076Y0280684D01*
X0425484D01*
X0426179Y0280822D01*
X0426768Y0281216D01*
X0427162Y0281805D01*
X04273Y02825D01*
X0427162Y0283195D01*
X0426768Y0283784D01*
X0426179Y0284178D01*
X0425484Y0284316D01*
D02*
G37*
G36*
X045075Y028525D02*
X044325D01*
Y027775D01*
X045075D01*
Y028525D01*
D02*
G37*
G36*
X040324Y0274316D02*
X0398516D01*
X0397821Y0274178D01*
X0397232Y0273784D01*
X0396999Y0273435D01*
X0396974Y0273419D01*
X0391828Y0268273D01*
X0389963D01*
Y0263727D01*
X0393919D01*
Y0266182D01*
X0398436Y02707D01*
X0398516Y0270684D01*
X040324D01*
X0403935Y0270822D01*
X0404524Y0271216D01*
X0404918Y0271805D01*
X0405056Y02725D01*
X0404918Y0273195D01*
X0404524Y0273784D01*
X0403935Y0274178D01*
X040324Y0274316D01*
D02*
G37*
G36*
X0405854Y0270681D02*
X0405059Y0269886D01*
X0405509Y0270231D01*
X0405854Y0270681D01*
D02*
G37*
G36*
X0397189Y0267478D02*
X0396836D01*
X039627Y0267366D01*
X0395791Y0267045D01*
X039547Y0266566D01*
X0395358Y0266D01*
X0395416Y0265705D01*
X0397189Y0267478D01*
D02*
G37*
%LPD*%
D14*
X0412275Y0340775D02*
X0415881Y0344381D01*
X04205D01*
X0356634Y0288634D02*
Y0290134D01*
X0358358Y0291858D01*
X03565Y02885D02*
X0356634Y0288634D01*
X0372Y0291858D02*
X03775D01*
X0362685D02*
X0372D01*
X03775D02*
X0382917D01*
X03505Y02755D02*
X0354858Y0271142D01*
X03505Y02755D02*
Y02885D01*
X0364042Y0321611D02*
Y0321785D01*
X0367154Y03185D02*
X0372D01*
X0362674Y0323153D02*
X0364042Y0321785D01*
X0362303Y0323153D02*
X0362674D01*
X0364042Y0321611D02*
X0367154Y03185D01*
X0372D02*
X0375001Y0321501D01*
Y0322155D01*
X0376346Y03235D01*
X0359531Y0325925D02*
X0362303Y0323153D01*
X0359531Y0349532D02*
X0364Y0354D01*
X0359531Y0325925D02*
Y0349532D01*
X0335Y02785D02*
X0342Y02855D01*
X0334579Y0278079D02*
X0335Y02785D01*
X0329315Y0278079D02*
X0334579D01*
X0324Y02805D02*
X0324453Y0280047D01*
X0329315D01*
X0321642Y0287281D02*
X032297Y0285953D01*
X03215Y0287281D02*
X0321642D01*
X03105Y02715D02*
X0312941D01*
X0362685Y0280047D02*
X0369547D01*
X03735Y0284D01*
X03745Y0234347D02*
Y0238D01*
X03775Y0308D02*
Y0313D01*
X0388568Y0286568D02*
Y0296932D01*
X03775Y0308D02*
X0388568Y0296932D01*
X0307636Y0325436D02*
X0307937D01*
X0356Y0313154D02*
X0357Y0314154D01*
X0337Y033D02*
X03495D01*
X0353654Y0325847D01*
Y0314622D02*
X0354122Y0314154D01*
X0353654Y0314622D02*
Y0325847D01*
X0354122Y0314154D02*
X0357D01*
X0356Y0311D02*
Y0313154D01*
X0335173Y0290673D02*
X0335347Y02905D01*
X0335173Y0290673D02*
Y0299685D01*
X031075Y02545D02*
X0315085D01*
X03244Y0263815D02*
Y0273673D01*
X0315Y02575D02*
Y0260441D01*
X0315085Y02545D02*
X03244Y0263815D01*
X0315986Y0258063D02*
X0316063D01*
X0315423Y02575D02*
X0315986Y0258063D01*
X0316063D02*
X0323Y0265D01*
X0315Y02575D02*
X0315423D01*
X0329315Y0266751D02*
Y0272173D01*
X0304Y02525D02*
X0315064D01*
X0329315Y0266751D01*
X03095Y0255D02*
X0309799Y0254701D01*
X0310549D02*
X031075Y02545D01*
X0309799Y0254701D02*
X0310549D01*
X03095Y0255D02*
Y0260441D01*
X0304Y02525D02*
Y0260441D01*
X032Y02245D02*
X03335Y0238D01*
Y0250941D01*
X03115Y02345D02*
Y0243D01*
X0318653Y0250153D01*
X03115Y02245D02*
X032D01*
X0318653Y0250153D02*
X0326D01*
X03805Y02785D02*
X0388568Y0286568D01*
X036711Y028989D02*
X0368113Y0288887D01*
X0386387D01*
X0362685Y028989D02*
X036711D01*
X0377654Y0273326D02*
Y02735D01*
X0376285Y0271958D02*
X0377654Y0273326D01*
X0370654Y02665D02*
X0376112Y0271958D01*
X0366Y02665D02*
X0370654D01*
X0376112Y0271958D02*
X0376285D01*
X0348916Y0260084D02*
X0350832Y0258168D01*
X0347Y0262D02*
X0348916Y0260084D01*
X03625Y0261D02*
X0409D01*
X0356827Y0256232D02*
Y0266315D01*
Y0256232D02*
X0357Y0256059D01*
X0409Y0261D02*
X0410153Y0262154D01*
X0356827Y0266315D02*
Y0271673D01*
X0410153Y0262154D02*
Y0266D01*
X03465Y02735D02*
X0348953Y0271047D01*
X0372941Y0296886D02*
X0382827D01*
X03685D02*
X0372D01*
X03525Y0308D02*
X03595D01*
X0364Y03055D02*
X0377Y03185D01*
X03525Y03055D02*
X0364D01*
X0350921Y0303921D02*
X03525Y03055D01*
X03495Y0311D02*
X03525Y0308D01*
X0366131Y0302631D02*
X037361Y031011D01*
X0382827Y0296886D02*
X0383Y0297059D01*
X0356827Y0302441D02*
X0357017Y0302631D01*
X0366131D01*
X0356827Y0299685D02*
Y0302441D01*
X03625Y0342969D02*
Y0343347D01*
X0350921Y0299685D02*
Y0303921D01*
X03495Y0311D02*
Y0314154D01*
X0318059Y02985D02*
Y0299059D01*
X032297Y0285953D02*
X0329315D01*
X0320984Y0283984D02*
X0329315D01*
X0319831Y0282831D02*
X0320984Y0283984D01*
X03115Y02905D02*
Y02915D01*
X0343047Y0266315D02*
Y027468D01*
X03415Y0276227D02*
Y02765D01*
Y0276227D02*
X0343047Y027468D01*
X0311169Y0273564D02*
Y027752D01*
X0337059Y0309D02*
Y0319559D01*
X0338347Y0320847D01*
X0321818Y0303682D02*
X0322821Y0302679D01*
X0318847Y0305D02*
X0320165Y0303682D01*
X0321818D01*
X0322821Y0293179D02*
Y0302679D01*
Y0293179D02*
X0324142Y0291858D01*
X0329315D01*
X03425Y03255D02*
X0343Y0325D01*
Y0320847D02*
Y0325D01*
X0335279Y03255D02*
X03425D01*
X0338347Y0320847D02*
X0343D01*
X03495D01*
X035025Y028875D02*
X03505Y02885D01*
X034175Y028875D02*
X035025D01*
X0348953Y0266315D02*
Y0271047D01*
X0342Y02855D02*
X03455D01*
X03445Y0305077D02*
Y03055D01*
X0339055Y026637D02*
Y0273445D01*
X0333238Y0280238D02*
X034175Y028875D01*
X0329315Y0282016D02*
X0329505Y0282206D01*
X0354858Y0266315D02*
Y0271142D01*
X0346876Y0299794D02*
Y0309586D01*
X0339055Y026637D02*
X033911Y0266315D01*
X0336764Y03015D02*
X0337059Y0301795D01*
X0346876Y0299794D02*
X0346984Y0299685D01*
X0354Y02745D02*
X0356827Y0271673D01*
X0329505Y0282206D02*
X0333226D01*
X0354Y02745D02*
Y02895D01*
X0333226Y0282206D02*
X034452Y02935D01*
X0348D01*
X0358327Y0293827D02*
X0362685D01*
X0354Y02895D02*
X0358327Y0293827D01*
X0339Y02735D02*
X0339055Y0273445D01*
X0329505Y0280238D02*
X0333238D01*
X0329315Y0280047D02*
X0329505Y0280238D01*
X0346876Y0309586D02*
X0347Y030971D01*
X0358358Y0291858D02*
X0362685D01*
X03395Y029321D02*
X0341079Y0294789D01*
X0346767Y0309944D02*
X0347Y030971D01*
X0345016Y0299685D02*
Y0304561D01*
X03445Y0305077D02*
X0345016Y0304561D01*
X03395Y0293D02*
Y029321D01*
X0341079Y0294789D02*
Y0299685D01*
X0342319Y0304597D02*
Y0313472D01*
X0343Y0314154D01*
X0343047Y0299685D02*
Y0303868D01*
X0342319Y0304597D02*
X0343047Y0303868D01*
X0337059Y0301795D02*
Y0309D01*
X0331941D02*
X0332795Y0308146D01*
X0335173Y0299685D02*
Y0304327D01*
X0332795Y0306705D02*
Y0308146D01*
Y0306705D02*
X0335173Y0304327D01*
X0392Y0292347D02*
Y0297D01*
X0326197Y0250153D02*
X0331124Y0255081D01*
X0332522D01*
X0326Y0250153D02*
X0326197D01*
X0332522Y0255081D02*
X03335Y0256059D01*
X0347Y0262D02*
Y0266299D01*
X0350832Y0256352D02*
X0351125Y0256059D01*
X0350832Y0256352D02*
Y0258168D01*
X0346984Y0266315D02*
X0347Y0266299D01*
X034525Y026025D02*
Y0263325D01*
Y0256059D02*
Y026025D01*
X0339375Y0256375D02*
Y0258625D01*
Y0256059D02*
Y0256375D01*
X0323Y0265D02*
Y0275D01*
X0324869Y0274142D02*
X0329315D01*
X03244Y0273673D02*
X0324869Y0274142D01*
X032411Y027611D02*
X0329315D01*
X0323Y0275D02*
X032411Y027611D01*
X0311641Y0273095D02*
X0312413Y0272323D01*
X03095Y02705D02*
X03105Y02715D01*
X03095Y0265559D02*
Y02705D01*
X0311638Y0273095D02*
X0311641D01*
X0311169Y0273564D02*
X0311638Y0273095D01*
X0319831Y027752D02*
Y0282831D01*
X0335173Y0257437D02*
Y0266315D01*
X0333795Y0256059D02*
X0335173Y0257437D01*
X03335Y0256059D02*
X0333795D01*
X0337142Y0260858D02*
X0339375Y0258625D01*
X0337142Y0260858D02*
Y0266315D01*
X0345016Y0263559D02*
X034525Y0263325D01*
X0345016Y0263559D02*
Y0266315D01*
X0382917Y0291858D02*
X0383Y0291941D01*
X0365441Y0293827D02*
X03685Y0296886D01*
X0362685Y0293827D02*
X0365441D01*
X037888Y033012D02*
X0382037Y0326963D01*
X0369579Y033012D02*
X037888D01*
X0412275Y0340275D02*
Y0340775D01*
X0369654Y03235D02*
Y0330045D01*
X0369579Y033012D02*
X0369654Y0330045D01*
X0382037Y0326963D02*
X0387882D01*
X0425691Y0339191D02*
Y0339191D01*
X04205Y0344381D02*
X0425691Y0339191D01*
X0427725Y0353725D02*
Y0355725D01*
X0425Y0351D02*
X0427725Y0353725D01*
X0425Y0347119D02*
Y0351D01*
X042931Y034281D02*
Y034281D01*
X0425Y0347119D02*
X042931Y034281D01*
X0336453Y0383953D02*
Y03885D01*
X0339Y0377608D02*
Y0377988D01*
Y03775D02*
Y0377608D01*
X0344Y0388453D02*
X0344047Y03885D01*
X0344469Y03845D02*
X03495D01*
X0344Y0384969D02*
Y0388453D01*
Y0384969D02*
X0344469Y03845D01*
X0363Y03705D02*
Y0371047D01*
D20*
X0335173Y0299685D02*
D03*
X0337142D02*
D03*
X033911D02*
D03*
X0341079D02*
D03*
X0343047D02*
D03*
X0345016D02*
D03*
X0346984D02*
D03*
X0348953D02*
D03*
X0350921D02*
D03*
X035289D02*
D03*
X0354858D02*
D03*
X0356827D02*
D03*
Y0266315D02*
D03*
X0354858D02*
D03*
X035289D02*
D03*
X0350921D02*
D03*
X0348953D02*
D03*
X0346984D02*
D03*
X0345016D02*
D03*
X0343047D02*
D03*
X0341079D02*
D03*
X033911D02*
D03*
X0337142D02*
D03*
X0335173D02*
D03*
D21*
X0362685Y0293827D02*
D03*
Y0291858D02*
D03*
Y028989D02*
D03*
Y0287921D02*
D03*
Y0285953D02*
D03*
Y0283984D02*
D03*
Y0282016D02*
D03*
Y0280047D02*
D03*
Y0278079D02*
D03*
Y027611D02*
D03*
Y0274142D02*
D03*
Y0272173D02*
D03*
X0329315D02*
D03*
Y0274142D02*
D03*
Y027611D02*
D03*
Y0278079D02*
D03*
Y0280047D02*
D03*
Y0282016D02*
D03*
Y0283984D02*
D03*
Y0285953D02*
D03*
Y0287921D02*
D03*
Y028989D02*
D03*
Y0291858D02*
D03*
Y0293827D02*
D03*
D22*
X0394Y0384126D02*
D03*
Y0349874D02*
D03*
D23*
X0379421Y033398D02*
D03*
X03696Y03377D02*
D03*
X0369579Y033012D02*
D03*
X0374579Y021262D02*
D03*
X03746Y02202D02*
D03*
X0384421Y021648D02*
D03*
D24*
X0376346Y0344D02*
D03*
X0369654D02*
D03*
X0312154Y0305D02*
D03*
X0318847D02*
D03*
X0384347Y02735D02*
D03*
X0377654D02*
D03*
X0416847Y0266D02*
D03*
X0410153D02*
D03*
X0376346Y03235D02*
D03*
X0369654D02*
D03*
D25*
X0304Y0265559D02*
D03*
Y0260441D02*
D03*
X0372Y0291941D02*
D03*
Y0297059D02*
D03*
X0315Y0265559D02*
D03*
Y0260441D02*
D03*
X03095Y0265559D02*
D03*
Y0260441D02*
D03*
X03775Y0291941D02*
D03*
Y0297059D02*
D03*
X0383Y0291941D02*
D03*
Y0297059D02*
D03*
X0339375Y0256059D02*
D03*
Y0250941D02*
D03*
X0357Y0256059D02*
D03*
Y0250941D02*
D03*
X034525D02*
D03*
Y0256059D02*
D03*
X03335Y0250941D02*
D03*
Y0256059D02*
D03*
X0351125Y0250941D02*
D03*
Y0256059D02*
D03*
D26*
X0318059Y02985D02*
D03*
X0312941D02*
D03*
Y02715D02*
D03*
X0318059D02*
D03*
X0337059Y0309D02*
D03*
X0331941D02*
D03*
X0391941Y0266D02*
D03*
X0397059D02*
D03*
X0417441Y02995D02*
D03*
X0422559D02*
D03*
D27*
X0311169Y027752D02*
D03*
Y029248D02*
D03*
X0319831Y027752D02*
D03*
Y029248D02*
D03*
D28*
X030772Y03255D02*
D03*
X0335279D02*
D03*
D29*
X03625Y0336653D02*
D03*
Y0343347D02*
D03*
X0343Y0320847D02*
D03*
Y0314154D02*
D03*
X03495Y0320847D02*
D03*
Y0314154D02*
D03*
X0357Y0320847D02*
D03*
Y0314154D02*
D03*
X0365Y0250153D02*
D03*
Y0256846D02*
D03*
X03805D02*
D03*
Y0250153D02*
D03*
X0373Y0256846D02*
D03*
Y0250153D02*
D03*
X0392Y0285653D02*
D03*
Y0292347D02*
D03*
X04005Y0293807D02*
D03*
Y03005D02*
D03*
X0326Y0256846D02*
D03*
Y0250153D02*
D03*
X03625Y0329847D02*
D03*
Y0323153D02*
D03*
X0406Y0293807D02*
D03*
Y03005D02*
D03*
X0392Y0273654D02*
D03*
Y0280346D02*
D03*
X0432Y0277847D02*
D03*
Y0271153D02*
D03*
Y0290347D02*
D03*
Y0283653D02*
D03*
X03745Y0227654D02*
D03*
Y0234347D02*
D03*
D30*
X032Y0313D02*
D03*
X0311D02*
D03*
X03245Y0388D02*
D03*
X03155D02*
D03*
D31*
X0412275Y0340275D02*
D03*
X0427725Y0355725D02*
D03*
D32*
X0302Y0359D02*
D03*
Y0381835D02*
D03*
D33*
X0387882Y0326963D02*
D03*
X0387882Y0308963D02*
D03*
D34*
X0415244Y0317963D02*
D03*
D35*
X03275Y0376874D02*
D03*
Y0361126D02*
D03*
D36*
X037Y0364953D02*
D03*
Y0359047D02*
D03*
X0363D02*
D03*
Y0364953D02*
D03*
X0318Y0357047D02*
D03*
Y0362953D02*
D03*
X0363Y0371047D02*
D03*
Y0376953D02*
D03*
X037Y0371047D02*
D03*
Y0376953D02*
D03*
D37*
X042931Y034281D02*
D03*
X0425691Y0339191D02*
D03*
D38*
X0423122Y02725D02*
D03*
Y02775D02*
D03*
Y02825D02*
D03*
Y02875D02*
D03*
X0400878Y02725D02*
D03*
Y02775D02*
D03*
Y02825D02*
D03*
Y02875D02*
D03*
D39*
X0330547Y03885D02*
D03*
X0336453D02*
D03*
X0344047D02*
D03*
X0349953D02*
D03*
X0356547D02*
D03*
X0362453D02*
D03*
D40*
X03465Y0358658D02*
D03*
Y0378343D02*
D03*
D71*
X03805Y0237D02*
X0386Y02315D01*
X0385933Y0217992D02*
X0386Y0218059D01*
Y02315D01*
X038511Y021648D02*
X0385933Y0217303D01*
X0384421Y021648D02*
X038511D01*
X0385933Y0217303D02*
Y0217992D01*
X03205Y0376514D02*
Y038375D01*
X0319493Y0375507D02*
X03205Y0376514D01*
Y038375D02*
X03245Y038775D01*
Y0388D01*
X031155Y022445D02*
X03315D01*
X03115Y02245D02*
X031155Y022445D01*
X036625Y024475D02*
X03675Y02435D01*
X0365Y0246D02*
X036625Y024475D01*
X03675Y02435D02*
X0382D01*
X0393941Y0231559D01*
X03625Y03335D02*
Y0336653D01*
Y0329847D02*
Y03335D01*
X0357394Y0256453D02*
X0364606D01*
X0365Y0256846D01*
X0365133Y0256714D02*
X0385873D01*
X0357Y0256059D02*
X0357394Y0256453D01*
X0372Y0297059D02*
X0372941Y0298D01*
X03475Y0352D02*
Y0357658D01*
Y0352D02*
X0352796Y0346704D01*
X03465Y0358658D02*
X03475Y0357658D01*
X0352796Y0342704D02*
X0356Y03395D01*
X0352796Y0342704D02*
Y0346704D01*
X0356Y0320847D02*
Y03395D01*
X03285Y03135D02*
X0335D01*
X03205D02*
X03285D01*
X0326Y03D02*
Y0311D01*
X03285Y03135D01*
X0311169Y0273272D02*
Y0273564D01*
X03115Y0283362D02*
X0319831Y0291693D01*
Y029248D01*
X03115Y027785D02*
Y0283362D01*
X0311169Y027752D02*
X03115Y027785D01*
X0311899Y0297163D02*
X0312941Y0298205D01*
X0311899Y029321D02*
Y0297163D01*
X0312941Y0298205D02*
Y02985D01*
X0311169Y029248D02*
X0311899Y029321D01*
X03335Y0326492D02*
Y0342D01*
Y0326492D02*
X0334492Y03255D01*
X0335279D01*
X0335Y03135D02*
X0336531Y0311969D01*
Y0309528D02*
X0337059Y0309D01*
X0336531Y0309528D02*
Y0311969D01*
X032Y0313D02*
X03205Y03135D01*
X0311232Y0305922D02*
X0312154Y0305D01*
X0311232Y0305922D02*
Y0307468D01*
X0311Y03077D02*
X0311232Y0307468D01*
X0311Y03077D02*
Y0313D01*
X0391941Y0266295D02*
X0398019Y0272373D01*
X0391941Y0266D02*
Y0266295D01*
X0400751Y0272373D02*
X0400878Y02725D01*
X0398019Y0272373D02*
X0400751D01*
X0391941Y0266D02*
X0392D01*
X04005D02*
X0403264D01*
X0397059D02*
X04005D01*
X0396836D02*
X0397059D01*
X0311169Y0273272D02*
X0312941Y02715D01*
X0319101Y029321D02*
Y0297163D01*
Y029321D02*
X0319831Y029248D01*
X0318059Y0298205D02*
Y02985D01*
Y0298205D02*
X0319101Y0297163D01*
X0319764Y0277453D02*
X0319831Y027752D01*
X0319764Y02735D02*
Y0277453D01*
X0318059Y02715D02*
Y0271795D01*
X0319764Y02735D01*
X03095Y0265559D02*
X0315D01*
X0304D02*
X03095D01*
X0351125Y0250941D02*
X0357D01*
X034525D02*
X0351125D01*
X0339375D02*
X034525D01*
X03335D02*
X0339375D01*
X0305087Y0341592D02*
X0307Y0339679D01*
Y03395D02*
Y0339679D01*
X0305087Y0341592D02*
Y0352D01*
X0302Y0355087D02*
X0305087Y0352D01*
X0403264Y0266D02*
X0413Y0275736D01*
X0417Y02875D02*
X0423122D01*
X0413Y0275736D02*
Y02835D01*
X0417Y02875D01*
X0302Y0357583D02*
Y0359D01*
X0365Y0256846D02*
X0365133Y0256714D01*
X0385873D02*
X0386Y0256587D01*
X03745Y0227654D02*
X037455Y0227604D01*
Y022025D02*
X03746Y02202D01*
X037455Y022025D02*
Y0227604D01*
X03615Y0216D02*
X036488Y021262D01*
X03615Y0216D02*
Y02245D01*
X036488Y021262D02*
X0374579D01*
X0393941Y0224658D02*
Y0231559D01*
X0365Y0246D02*
Y0250153D01*
X0402658Y0244342D02*
X04125Y02345D01*
X0393941Y0244342D02*
X0402658D01*
X04125Y02345D02*
X0451028D01*
X03835Y0246D02*
X0404843Y0224658D01*
X0451028D01*
X037735Y0246D02*
X03835D01*
X0374118Y0249232D02*
X037735Y0246D01*
X0374Y0249232D02*
X0374118D01*
X0373078Y0250153D02*
X0374Y0249232D01*
X0409346Y0250153D02*
X0415158Y0244342D01*
X03805Y0250153D02*
X0409346D01*
X0415158Y0244342D02*
X0451028D01*
X0432Y0290347D02*
X0432577Y0290923D01*
X0446423D01*
X0447Y02915D01*
X04145Y02995D02*
X0417441D01*
X0423037Y02825D02*
X0423122D01*
Y0267622D02*
Y02725D01*
X04215Y0266D02*
X0423122Y0267622D01*
X0416347Y0266D02*
X04215D01*
X0427164Y0271D02*
X0431847D01*
X0432Y0271153D01*
X0425664Y02725D02*
X0427164Y0271D01*
X0423122Y02725D02*
X0425664D01*
X043178Y0277627D02*
X0432Y0277847D01*
X0423122Y02775D02*
X0423249Y0277627D01*
X043178D01*
X0432Y0277847D02*
Y0283653D01*
X0422559Y0290653D02*
Y02995D01*
Y0287806D02*
Y0290653D01*
X0422866Y0290347D02*
X0432D01*
X0422559Y0290653D02*
X0422866Y0290347D01*
X0422559Y0287806D02*
X0422865Y02875D01*
X0392197Y0273654D02*
X0394671Y0276128D01*
Y0276171D01*
X0395873Y0277373D01*
X0392Y0273654D02*
X0392197D01*
X0395873Y0277373D02*
X0400751D01*
X0400878Y02775D01*
X0391923Y0273577D02*
X0392Y0273654D01*
X0384347Y02735D02*
X0384423Y0273577D01*
X0391923D01*
X0392Y0283D02*
Y0285653D01*
Y0280346D02*
Y0283D01*
X03925Y02825D02*
X0400878D01*
X0392Y0283D02*
X03925Y02825D01*
X0407Y0283496D02*
Y0292885D01*
X0400878Y02825D02*
X0406004D01*
X0407Y0283496D01*
X0406Y0293807D02*
X0406078D01*
X0407Y0292885D01*
X04005Y0287806D02*
Y0293807D01*
Y0287806D02*
X0400806Y02875D01*
X0400878D01*
X04005Y03005D02*
Y03025D01*
X0423Y03365D02*
X0425691Y0339191D01*
X0429691Y034281D02*
X04315Y0341D01*
X042931Y034281D02*
X0429691D01*
X02985Y03355D02*
X02995Y03345D01*
X0293Y03355D02*
X02985D01*
X02995Y0267D02*
Y03345D01*
X0298Y02655D02*
X02995Y0267D01*
X0293Y02655D02*
X0298D01*
D72*
X03465Y0358658D02*
X036261D01*
X03005Y0353563D02*
Y0357583D01*
X0302D02*
X0302535Y0357047D01*
X0302Y0381917D02*
X0313083D01*
X0299813Y0352876D02*
X03005Y0353563D01*
X0295876Y0352876D02*
X0299813D01*
X0293Y035D02*
X0295876Y0352876D01*
X0293Y03355D02*
Y035D01*
X03275Y0361126D02*
X0327874D01*
X037Y0359047D02*
X0388961D01*
X0394Y0354008D01*
Y0349874D02*
Y0354008D01*
X036261Y0358658D02*
X0362782Y0358829D01*
X0346344Y0358658D02*
X03465D01*
X036288Y0358829D02*
X0363Y0358949D01*
X0362782Y0358829D02*
X036288D01*
X0363Y0358949D02*
Y0359047D01*
X0369632Y0337732D02*
Y0343978D01*
X03696Y03377D02*
X0369632Y0337732D01*
Y0343978D02*
X0369654Y0344D01*
X038548Y033398D02*
X03855Y0334D01*
X0379421Y033398D02*
X038548D01*
X0387882Y0308963D02*
X0387919Y0309D01*
X0388D01*
X04265Y036163D02*
Y0382D01*
X0425428Y0358022D02*
Y0360558D01*
Y0358022D02*
X0427725Y0355725D01*
X0425428Y0360558D02*
X04265Y036163D01*
X037Y0376953D02*
X0390961D01*
X044675Y035125D02*
X0447Y0351D01*
X04465Y0382D02*
X044675Y038175D01*
X031Y0388D02*
X03155D01*
X0318Y0362953D02*
Y0363D01*
X0313083Y0381917D02*
X0319493Y0375507D01*
Y0370708D02*
X03275Y0362701D01*
X0319493Y0370708D02*
Y0375507D01*
X0302535Y0357047D02*
X03175D01*
Y035255D02*
Y0357047D01*
Y035255D02*
X031955Y03505D01*
X035Y03685D02*
X0352D01*
X0334874D02*
X035D01*
X034455Y0356864D02*
X0346344Y0358658D01*
X034455Y035255D02*
Y0356864D01*
X03425Y03505D02*
X034455Y035255D01*
X031955Y03505D02*
X03425D01*
X0339Y0377608D02*
X0345766D01*
X0328234D02*
X0339D01*
X0363Y0364953D02*
Y03705D01*
X03275Y0378449D02*
X0330547Y0381496D01*
Y03885D01*
X03275Y0376874D02*
Y0378449D01*
X0360234Y0376734D02*
X036288D01*
X0352Y03685D02*
X0360234Y0376734D01*
X0363Y0376854D02*
Y0376953D01*
X036288Y0376734D02*
X0363Y0376854D01*
X03275Y0362701D02*
X0329097Y0364297D01*
X0330671D01*
X0334874Y03685D01*
X0345766Y0377608D02*
X03465Y0378343D01*
X03275Y0376874D02*
X0328234Y0377608D01*
X0349953Y03885D02*
X0356547D01*
X0363Y0376953D02*
Y0388051D01*
X0362551Y03885D02*
X0363Y0388051D01*
X0362453Y03885D02*
X0362551D01*
X0390961Y0376953D02*
X0394Y0379992D01*
Y0384126D01*
X0363Y0376953D02*
X037D01*
Y0364953D02*
Y0371047D01*
X0394Y0384126D02*
X0396126Y0382D01*
D73*
X04265D01*
D74*
X044675Y035125D02*
Y038175D01*
D75*
X0447Y02915D02*
D03*
X03235Y0342D02*
D03*
X03335D02*
D03*
X03435D02*
D03*
X0293Y02655D02*
D03*
Y02755D02*
D03*
Y02855D02*
D03*
Y02955D02*
D03*
Y03055D02*
D03*
Y03155D02*
D03*
Y03255D02*
D03*
X03115Y02345D02*
D03*
D76*
X0447Y02815D02*
D03*
X0293Y03355D02*
D03*
X03115Y02245D02*
D03*
D77*
X03535Y0342D02*
D03*
D78*
X04215Y0256547D02*
D03*
Y0212453D02*
D03*
D79*
X0393941Y0244342D02*
D03*
Y0224658D02*
D03*
X0451028Y0244342D02*
D03*
Y02345D02*
D03*
Y0224658D02*
D03*
D80*
X03615Y02245D02*
D03*
D81*
X03315Y022445D02*
D03*
D82*
X0328176Y0237537D02*
D03*
X0344686Y0214779D02*
D03*
X0443077Y021411D02*
D03*
X0408718Y023709D02*
D03*
X0438614Y0253823D02*
D03*
X0443077Y0265202D02*
D03*
X0432367Y029733D02*
D03*
X0414296Y0287067D02*
D03*
X0412Y02775D02*
D03*
X03185Y0378D02*
D03*
X0327874Y0361126D02*
D03*
X0380821Y0368508D02*
D03*
X0303Y0372D02*
D03*
X035Y028D02*
D03*
X02945Y03745D02*
D03*
X03755Y03835D02*
D03*
X0406Y03755D02*
D03*
X0402Y0215D02*
D03*
X043Y0233D02*
D03*
X0347Y0232D02*
D03*
X0323Y02175D02*
D03*
X0303Y02155D02*
D03*
X03005Y02375D02*
D03*
X02965Y0247D02*
D03*
D83*
X0348Y03685D02*
D03*
X035D02*
D03*
X0344Y03665D02*
D03*
X0352Y03705D02*
D03*
Y03685D02*
D03*
X0346Y03705D02*
D03*
X0344Y03685D02*
D03*
X035Y03705D02*
D03*
X0352Y03665D02*
D03*
X0346Y03685D02*
D03*
X0348Y03705D02*
D03*
X0344D02*
D03*
X0348Y03665D02*
D03*
X0346D02*
D03*
X035D02*
D03*
X03565Y02885D02*
D03*
X03805Y0237D02*
D03*
X0364Y0354D02*
D03*
X0335Y02785D02*
D03*
X0324Y02805D02*
D03*
X03215Y0287281D02*
D03*
X03735Y0284D02*
D03*
X03745Y0238D02*
D03*
X0307937Y0325436D02*
D03*
X0337Y033D02*
D03*
X0356Y0311D02*
D03*
X0335347Y02905D02*
D03*
X0315Y02575D02*
D03*
X03095Y0255D02*
D03*
X0304Y02525D02*
D03*
X036625Y024475D02*
D03*
X0373078Y0250153D02*
D03*
X03805D02*
D03*
X03625Y03335D02*
D03*
X03775Y0313D02*
D03*
X0386387Y0288887D02*
D03*
X03805Y02785D02*
D03*
X0366Y02665D02*
D03*
X0348916Y0260084D02*
D03*
X03625Y0261D02*
D03*
X03465Y02735D02*
D03*
X0372941Y0298D02*
D03*
X03595Y0308D02*
D03*
X037361Y031011D02*
D03*
X03765Y03425D02*
D03*
X03625Y0342969D02*
D03*
X0377Y03185D02*
D03*
X0326Y03D02*
D03*
X0318059Y0299059D02*
D03*
X03115Y02915D02*
D03*
X03415Y02765D02*
D03*
X03505Y02885D02*
D03*
X03455Y02855D02*
D03*
X0348Y02935D02*
D03*
X0339Y02735D02*
D03*
X03395Y0293D02*
D03*
X0346767Y0309944D02*
D03*
X03445Y03055D02*
D03*
X03335Y0250941D02*
D03*
X0326Y02595D02*
D03*
X0392Y0266D02*
D03*
X04005D02*
D03*
X0392Y0297D02*
D03*
X034525Y026025D02*
D03*
X0339375Y0256375D02*
D03*
X0307Y03395D02*
D03*
X0386Y0256587D02*
D03*
X04145Y02995D02*
D03*
X0423037Y02825D02*
D03*
X04005Y03025D02*
D03*
X0406D02*
D03*
X0423Y03365D02*
D03*
X04315Y0341D02*
D03*
X0302Y03815D02*
D03*
X0327874Y0361126D02*
D03*
X03855Y0334D02*
D03*
X0414987Y0340293D02*
D03*
X0412159Y0343121D02*
D03*
X0409331Y0340293D02*
D03*
X0410745Y0341707D02*
D03*
X0413573Y033605D02*
D03*
X0410745Y0344536D02*
D03*
X0414987Y0337464D02*
D03*
X0413573Y0341707D02*
D03*
X0412159Y0337464D02*
D03*
X0412159Y0340293D02*
D03*
X0410745Y0338879D02*
D03*
X0407916Y0341707D02*
D03*
X0409331Y0343121D02*
D03*
X0413573Y0338879D02*
D03*
X0416402Y0338879D02*
D03*
X039Y0307D02*
D03*
X0386D02*
D03*
X0388D02*
D03*
X0384Y0311D02*
D03*
X0388D02*
D03*
X0386Y0309D02*
D03*
X0392Y0307D02*
D03*
X039Y0311D02*
D03*
X0384Y0309D02*
D03*
X0386Y0311D02*
D03*
X0392Y0309D02*
D03*
Y0311D02*
D03*
X0384Y0307D02*
D03*
X039Y0309D02*
D03*
X0388D02*
D03*
X0376Y0377D02*
D03*
X031Y0388D02*
D03*
X0318Y0363D02*
D03*
X0336453Y0383953D02*
D03*
X0339Y0377988D02*
D03*
X03495Y03845D02*
D03*
X0363Y03705D02*
D03*
X037Y0371047D02*
D03*
X035Y03685D02*
D03*
X0394Y03495D02*
D03*
D84*
X04265Y0382D02*
D03*
X04465D02*
D03*
D85*
X0447Y0331D02*
D03*
Y0351D02*
D03*
M02*
