G04*
G04 #@! TF.GenerationSoftware,Altium Limited,Altium Designer,21.3.2 (30)*
G04*
G04 Layer_Physical_Order=2*
G04 Layer_Color=16711680*
%FSTAX25Y25*%
%MOIN*%
G70*
G04*
G04 #@! TF.SameCoordinates,0A4AD645-AEA6-451A-A6B0-79CA1E045321*
G04*
G04*
G04 #@! TF.FilePolarity,Positive*
G04*
G01*
G75*
%ADD14C,0.00800*%
%ADD25R,0.03347X0.02756*%
%ADD36R,0.03740X0.03937*%
%ADD71C,0.01700*%
%ADD72C,0.03500*%
%ADD75C,0.06299*%
%ADD76R,0.06299X0.06299*%
%ADD77R,0.06299X0.06299*%
G04:AMPARAMS|DCode=78|XSize=122.05mil|YSize=118.11mil|CornerRadius=29.53mil|HoleSize=0mil|Usage=FLASHONLY|Rotation=0.000|XOffset=0mil|YOffset=0mil|HoleType=Round|Shape=RoundedRectangle|*
%AMROUNDEDRECTD78*
21,1,0.12205,0.05906,0,0,0.0*
21,1,0.06299,0.11811,0,0,0.0*
1,1,0.05906,0.03150,-0.02953*
1,1,0.05906,-0.03150,-0.02953*
1,1,0.05906,-0.03150,0.02953*
1,1,0.05906,0.03150,0.02953*
%
%ADD78ROUNDEDRECTD78*%
%ADD79C,0.06496*%
%ADD80R,0.05906X0.05906*%
%ADD81C,0.05906*%
%ADD82C,0.05000*%
%ADD83C,0.02362*%
%ADD84C,0.11000*%
%ADD85C,0.12000*%
%ADD86R,0.05512X0.04724*%
%ADD87R,0.03740X0.03543*%
%ADD88R,0.06400X0.09000*%
%ADD89R,0.12992X0.09488*%
G04:AMPARAMS|DCode=90|XSize=77.56mil|YSize=23.62mil|CornerRadius=6.38mil|HoleSize=0mil|Usage=FLASHONLY|Rotation=270.000|XOffset=0mil|YOffset=0mil|HoleType=Round|Shape=RoundedRectangle|*
%AMROUNDEDRECTD90*
21,1,0.07756,0.01087,0,0,270.0*
21,1,0.06480,0.02362,0,0,270.0*
1,1,0.01276,-0.00543,-0.03240*
1,1,0.01276,-0.00543,0.03240*
1,1,0.01276,0.00543,0.03240*
1,1,0.01276,0.00543,-0.03240*
%
%ADD90ROUNDEDRECTD90*%
%ADD91C,0.02000*%
G36*
X0443738Y0388974D02*
X0442947Y0388646D01*
X0441719Y0387826D01*
X0440674Y0386781D01*
X0439854Y0385553D01*
X0439288Y0384188D01*
X0439Y0382739D01*
Y0381261D01*
X0439288Y0379812D01*
X0439854Y0378447D01*
X0440674Y0377219D01*
X0441393Y03765D01*
X0441186Y0376D01*
X04375D01*
Y0363D01*
X04479D01*
Y0369212D01*
X0448374Y0369576D01*
X0449174Y0370376D01*
X0449776Y0371159D01*
X0450153Y0372071D01*
X0450282Y037305D01*
Y0375507D01*
X0451281Y0376174D01*
X0452326Y0377219D01*
X0452974Y0378189D01*
X0453474Y0378038D01*
Y0356547D01*
X0452974Y035634D01*
X04521Y0357214D01*
X0450789Y0358089D01*
X0449333Y0358693D01*
X0447788Y0359D01*
X0446212D01*
X0444666Y0358693D01*
X0443211Y0358089D01*
X0442578Y0357667D01*
X04417Y0357782D01*
X0408285D01*
X0408093Y0358244D01*
X0415567Y0365718D01*
X04221D01*
Y0363D01*
X04325D01*
Y0376D01*
X04221D01*
Y0373282D01*
X0414D01*
X0413021Y0373153D01*
X0412109Y0372776D01*
X0411326Y0372175D01*
X0392433Y0353282D01*
X0375242D01*
Y0356139D01*
X036687D01*
Y0363016D01*
X035913D01*
Y0357814D01*
X0359083Y0357577D01*
Y035716D01*
X0359053Y035701D01*
Y0356197D01*
X0352704D01*
Y036224D01*
X0352613Y0362929D01*
X0352347Y036357D01*
X0351925Y0364122D01*
X0351374Y0364544D01*
X0350732Y036481D01*
X0350043Y0364901D01*
X0348957D01*
X0348268Y036481D01*
X0347626Y0364544D01*
X0347075Y0364122D01*
X0346925D01*
X0346374Y0364544D01*
X0345732Y036481D01*
X0345043Y0364901D01*
X0343957D01*
X0343268Y036481D01*
X0342626Y0364544D01*
X0342075Y0364122D01*
X0341925D01*
X0341374Y0364544D01*
X0340732Y036481D01*
X0340043Y0364901D01*
X0339757D01*
X03389Y0365758D01*
Y0372538D01*
X0338957Y0372587D01*
X0340043D01*
X0340732Y0372678D01*
X0341374Y0372944D01*
X0341925Y0373367D01*
X0342075D01*
X0342626Y0372944D01*
X0343268Y0372678D01*
X0343957Y0372587D01*
X0345043D01*
X0345732Y0372678D01*
X0346374Y0372944D01*
X0346925Y0373367D01*
X0347075D01*
X0347626Y0372944D01*
X0348268Y0372678D01*
X0348957Y0372587D01*
X0350043D01*
X0350732Y0372678D01*
X0351374Y0372944D01*
X0351925Y0373367D01*
X0352075D01*
X0352626Y0372944D01*
X0353268Y0372678D01*
X0353957Y0372587D01*
X0355043D01*
X0355732Y0372678D01*
X0356374Y0372944D01*
X0356709Y0373201D01*
X0356838D01*
X0359819Y037022D01*
Y0370081D01*
X0360036Y0369272D01*
X0360455Y0368547D01*
X0361047Y0367954D01*
X0361772Y0367536D01*
X0362581Y0367319D01*
X0363419D01*
X0364228Y0367536D01*
X0364953Y0367954D01*
X0365546Y0368547D01*
X0365964Y0369272D01*
X0366181Y0370081D01*
Y0370919D01*
X0365964Y0371728D01*
X0365546Y0372453D01*
X0364953Y0373045D01*
X0364228Y0373464D01*
X0363419Y0373681D01*
X036328D01*
X0359582Y0377378D01*
X0358788Y0377909D01*
X0357852Y0378095D01*
X0357704D01*
Y0381728D01*
X0357613Y0382417D01*
X0357347Y0383059D01*
X0356925Y038361D01*
X0356374Y0384032D01*
X0356324Y0384053D01*
X0356423Y0384553D01*
X0364986D01*
X0367553Y0381986D01*
Y0373099D01*
X0367455Y0373001D01*
X0367036Y0372275D01*
X0366819Y0371466D01*
Y0370628D01*
X0367036Y0369819D01*
X0367455Y0369094D01*
X0368047Y0368502D01*
X0368772Y0368083D01*
X0369581Y0367866D01*
X0370419D01*
X0371228Y0368083D01*
X0371953Y0368502D01*
X0372546Y0369094D01*
X0372964Y0369819D01*
X0373181Y0370628D01*
Y0371466D01*
X0372964Y0372275D01*
X0372546Y0373001D01*
X0372447Y0373099D01*
Y0383D01*
X0372261Y0383936D01*
X037173Y038473D01*
X036773Y038873D01*
X0367366Y0388974D01*
X0367517Y0389474D01*
X0443639D01*
X0443738Y0388974D01*
D02*
G37*
G36*
X0345634D02*
X034527Y038873D01*
X034277Y038623D01*
X0342239Y0385436D01*
X0342053Y03845D01*
Y0384141D01*
X0341553Y0383895D01*
X0341374Y0384032D01*
X0340732Y0384298D01*
X0340043Y0384389D01*
X0339629D01*
X0339417Y0385181D01*
X0338998Y0385906D01*
X0338406Y0386498D01*
X0337681Y0386917D01*
X0336872Y0387134D01*
X0336034D01*
X0335225Y0386917D01*
X03345Y0386498D01*
X0333907Y0385906D01*
X0333488Y0385181D01*
X0333272Y0384372D01*
Y0383534D01*
X0333488Y0382725D01*
X0333907Y0381999D01*
X0334006Y0381901D01*
Y0364744D01*
X0334192Y0363808D01*
X0334722Y0363014D01*
X0336296Y036144D01*
Y035576D01*
X0336387Y0355071D01*
X0336653Y035443D01*
X0337075Y0353878D01*
X0337626Y0353456D01*
X0338268Y035319D01*
X0338957Y0353099D01*
X0340043D01*
X0340342Y0353139D01*
X0340718Y0352809D01*
Y035155D01*
X0340846Y0350571D01*
X0341224Y0349659D01*
X0341826Y0348876D01*
X034309Y0347611D01*
X0342898Y034715D01*
X0342822D01*
X0341512Y0346799D01*
X0340338Y0346121D01*
X0339379Y0345162D01*
X0338701Y0343988D01*
X033835Y0342678D01*
Y0341322D01*
X0338701Y0340012D01*
X0338881Y0339701D01*
X0338537Y0339297D01*
X0329664D01*
X0328436Y0340525D01*
X032865Y0341322D01*
Y0342678D01*
X0328299Y0343988D01*
X0327621Y0345162D01*
X0326662Y0346121D01*
X0325488Y0346799D01*
X0324178Y034715D01*
X0322822D01*
X0321512Y0346799D01*
X0320338Y0346121D01*
X0319379Y0345162D01*
X0318701Y0343988D01*
X031835Y0342678D01*
Y0341322D01*
X0318701Y0340012D01*
X0319379Y0338838D01*
X0319843Y0338375D01*
X0319636Y0337875D01*
X0312691D01*
X0310011Y0340554D01*
X0309964Y0340728D01*
X0309545Y0341453D01*
X0308953Y0342045D01*
X0308228Y0342464D01*
X0307419Y0342681D01*
X0306581D01*
X0305772Y0342464D01*
X0305047Y0342045D01*
X0304454Y0341453D01*
X0304036Y0340728D01*
X0303819Y0339919D01*
Y0339081D01*
X0304036Y0338272D01*
X0304454Y0337547D01*
X0305047Y0336954D01*
X0305772Y0336536D01*
X0305945Y0336489D01*
X0309467Y0332967D01*
X0310063Y033251D01*
X0310664Y0332261D01*
X0310757Y0331956D01*
X0310758Y0331719D01*
X0307657Y0328618D01*
X0307518D01*
X0306709Y0328401D01*
X0305983Y0327982D01*
X0305391Y032739D01*
X0304972Y0326664D01*
X0304755Y0325855D01*
Y0325018D01*
X0304972Y0324209D01*
X0305391Y0323483D01*
X0305983Y0322891D01*
X0306709Y0322472D01*
X0307518Y0322255D01*
X0308355D01*
X0309164Y0322472D01*
X030989Y0322891D01*
X0310482Y0323483D01*
X0310901Y0324209D01*
X0311118Y0325018D01*
Y0325157D01*
X0313514Y0327553D01*
X0334948D01*
X0335047Y0327454D01*
X0335772Y0327036D01*
X0336581Y0326819D01*
X0337419D01*
X0338228Y0327036D01*
X0338953Y0327454D01*
X0339545Y0328047D01*
X0339848Y0328087D01*
X0347755Y032018D01*
X034801Y0319563D01*
X0348053Y0319507D01*
Y031359D01*
X0347591Y0313399D01*
X034335Y031764D01*
X0342723Y0318121D01*
X0341994Y0318423D01*
X034121Y0318526D01*
X0297199D01*
X0297121Y0318662D01*
X0296162Y0319621D01*
X0294988Y0320299D01*
X0293678Y032065D01*
X0292322D01*
X0291012Y0320299D01*
X0290026Y0319729D01*
X0289526Y0319973D01*
Y033035D01*
X029815D01*
Y034065D01*
X0289526D01*
Y0389474D01*
X0306049D01*
X0306359Y0389081D01*
X0306346Y0388974D01*
X0306218Y0388D01*
Y03705D01*
X0306347Y0369521D01*
X0306724Y0368609D01*
X0307326Y0367826D01*
X0314826Y0360326D01*
X0315609Y0359724D01*
X0316521Y0359347D01*
X03175Y0359218D01*
X0318479Y0359347D01*
X0319391Y0359724D01*
X0320175Y0360326D01*
X0320776Y0361109D01*
X0321153Y0362021D01*
X0321282Y0363D01*
X0321153Y0363979D01*
X0320776Y0364891D01*
X0320175Y0365674D01*
X0313782Y0372067D01*
Y0388D01*
X0313654Y0388974D01*
X0313641Y0389081D01*
X0313951Y0389474D01*
X0345483D01*
X0345634Y0388974D01*
D02*
G37*
G36*
X0439Y0350212D02*
X0439168Y034937D01*
X043885Y0348983D01*
X0435D01*
X0434919Y0348972D01*
X043113D01*
Y0341429D01*
X0434919D01*
X0435Y0341418D01*
X0441023D01*
X0442002Y0341547D01*
X0442914Y0341925D01*
X0443698Y0342526D01*
X0444534Y0343362D01*
X0444666Y0343307D01*
X0446212Y0343D01*
X0447788D01*
X0449333Y0343307D01*
X0450789Y0343911D01*
X04521Y0344786D01*
X0452974Y034566D01*
X0453474Y0345453D01*
Y0336547D01*
X0452974Y033634D01*
X04521Y0337214D01*
X0450789Y0338089D01*
X0449333Y0338693D01*
X0447788Y0339D01*
X0446212D01*
X0444666Y0338693D01*
X0443211Y0338089D01*
X04419Y0337214D01*
X0441268Y0336582D01*
X0435D01*
X0434919Y0336571D01*
X043113D01*
Y0329028D01*
X0434919D01*
X0435Y0329017D01*
X0439238D01*
X0439307Y0328666D01*
X0439911Y0327211D01*
X0440786Y03259D01*
X04419Y0324786D01*
X0443211Y032391D01*
X0444666Y0323307D01*
X0446212Y0323D01*
X0447788D01*
X0449333Y0323307D01*
X0450789Y032391D01*
X04521Y0324786D01*
X0452974Y032566D01*
X0453474Y0325453D01*
Y0249492D01*
X0452974Y0249254D01*
X0451719Y024959D01*
X0450337D01*
X0449002Y0249233D01*
X0447805Y0248542D01*
X0446828Y0247565D01*
X0446137Y0246368D01*
X044578Y0245033D01*
Y0243652D01*
X0446137Y0242317D01*
X0446828Y024112D01*
X0447805Y0240143D01*
X0449002Y0239452D01*
X0450337Y0239094D01*
X0451719D01*
X0452974Y0239431D01*
X0453474Y0239193D01*
Y0229807D01*
X0452974Y0229569D01*
X0451719Y0229906D01*
X0450337D01*
X0449002Y0229548D01*
X0447805Y0228857D01*
X0446828Y022788D01*
X0446137Y0226683D01*
X044578Y0225348D01*
Y0223967D01*
X0446137Y0222632D01*
X0446828Y0221435D01*
X0447805Y0220458D01*
X0449002Y0219767D01*
X0450337Y0219409D01*
X0451719D01*
X0452974Y0219746D01*
X0453474Y0219508D01*
Y0207526D01*
X0429643D01*
X0429365Y0207942D01*
X0429475Y0208207D01*
X0429645Y02095D01*
Y0215406D01*
X0429475Y0216698D01*
X0428976Y0217903D01*
X0428182Y0218938D01*
X0427147Y0219732D01*
X0425943Y0220231D01*
X042465Y0220401D01*
X041835D01*
X0417058Y0220231D01*
X0415853Y0219732D01*
X0414818Y0218938D01*
X0414024Y0217903D01*
X0413525Y0216698D01*
X0413355Y0215406D01*
Y02095D01*
X0413525Y0208207D01*
X0413635Y0207942D01*
X0413357Y0207526D01*
X0289526D01*
Y0261027D01*
X0290026Y0261271D01*
X0291012Y0260701D01*
X0292322Y026035D01*
X0293678D01*
X0294988Y0260701D01*
X0296162Y0261379D01*
X0297121Y0262338D01*
X0297799Y0263512D01*
X029815Y0264822D01*
Y0266178D01*
X0297799Y0267488D01*
X0297709Y0267642D01*
X0298048Y0268055D01*
X0298663Y0267974D01*
X03365D01*
X0337283Y0268077D01*
X0338013Y0268379D01*
X033864Y026886D01*
X034018Y0270401D01*
X0340231Y0270399D01*
X0340434Y0269894D01*
X0332486Y0261947D01*
X0328052D01*
X0327953Y0262046D01*
X0327228Y0262464D01*
X0326419Y0262681D01*
X0325581D01*
X0324772Y0262464D01*
X0324047Y0262046D01*
X0323454Y0261453D01*
X0323036Y0260728D01*
X0322819Y0259919D01*
Y0259081D01*
X0323036Y0258272D01*
X0323454Y0257547D01*
X0324047Y0256955D01*
X0324772Y0256536D01*
X0325581Y0256319D01*
X0326419D01*
X0327228Y0256536D01*
X0327953Y0256955D01*
X0328052Y0257053D01*
X03335D01*
X0334436Y0257239D01*
X033523Y025777D01*
X034573Y026827D01*
X0346261Y0269064D01*
X0346447Y027D01*
Y0270319D01*
X0346919D01*
X0347728Y0270536D01*
X0348453Y0270954D01*
X0349045Y0271547D01*
X0349464Y0272272D01*
X0349681Y0273081D01*
Y0273919D01*
X0349464Y0274728D01*
X0349045Y0275453D01*
X0348947Y0275552D01*
Y0281966D01*
X034973Y028275D01*
X0350261Y0283543D01*
X0350447Y028448D01*
Y0288486D01*
X036123Y029927D01*
X0361761Y0300064D01*
X0361947Y0301D01*
Y0304834D01*
X0362409Y0305026D01*
X036976Y0297675D01*
Y0297581D01*
X0369977Y0296772D01*
X0370395Y0296047D01*
X0370988Y0295455D01*
X0371713Y0295036D01*
X0372522Y0294819D01*
X0372616D01*
X0389125Y0278309D01*
Y0267383D01*
X0389036Y0267228D01*
X0388819Y0266419D01*
Y0265581D01*
X0389036Y0264772D01*
X0389455Y0264047D01*
X0390047Y0263455D01*
X0390772Y0263036D01*
X0391581Y0262819D01*
X0392419D01*
X0393228Y0263036D01*
X0393953Y0263455D01*
X0394546Y0264047D01*
X0394964Y0264772D01*
X0395181Y0265581D01*
Y0266419D01*
X0394964Y0267228D01*
X0394875Y0267383D01*
Y02795D01*
X0394777Y0280244D01*
X039449Y0280937D01*
X0394033Y0281533D01*
X0388782Y0286783D01*
X0388933Y0286934D01*
X0389351Y0287659D01*
X0389568Y0288468D01*
Y0289306D01*
X0389351Y0290115D01*
X0388933Y029084D01*
X038834Y0291433D01*
X0387615Y0291851D01*
X0386924Y0292037D01*
X0372314Y0306647D01*
X0372572Y0307095D01*
X0373192Y0306929D01*
X0374029D01*
X0374838Y0307146D01*
X0375564Y0307565D01*
X0376156Y0308157D01*
X0376575Y0308883D01*
X0376713Y03094D01*
X0377081Y0309819D01*
X0377919D01*
X0378064Y0309858D01*
X0378461Y0309554D01*
Y0305D01*
X0378616Y030422D01*
X0379058Y0303558D01*
X037972Y0303116D01*
X03805Y0302961D01*
X0397287D01*
X0397319Y0302919D01*
Y0302081D01*
X0397536Y0301272D01*
X0397955Y0300547D01*
X0398547Y0299955D01*
X0399272Y0299536D01*
X0400081Y0299319D01*
X0400919D01*
X0401728Y0299536D01*
X0402453Y0299955D01*
X0403046Y0300547D01*
X0403464Y0301272D01*
X0403681Y0302081D01*
Y0302919D01*
X0403464Y0303728D01*
X0403256Y0304089D01*
Y0312691D01*
X0424054Y0333489D01*
X0424228Y0333536D01*
X0424953Y0333955D01*
X0425546Y0334547D01*
X0425964Y0335272D01*
X0426181Y0336081D01*
Y0336919D01*
X0425964Y0337728D01*
X0425546Y0338453D01*
X0424953Y0339046D01*
X0424228Y0339464D01*
X0423419Y0339681D01*
X0422616D01*
X0422442Y0339942D01*
X0412628Y0349756D01*
X0412819Y0350218D01*
X0439D01*
Y0350212D01*
D02*
G37*
G36*
X0383053Y0338986D02*
Y0336849D01*
X0382825Y0336674D01*
X0382224Y0335891D01*
X0381846Y0334979D01*
X0381718Y0334D01*
X0381846Y0333021D01*
X0382224Y0332109D01*
X0382825Y0331326D01*
X0383609Y0330724D01*
X0384521Y0330346D01*
X038517Y0330261D01*
X0385349Y0329733D01*
X0379909Y0324293D01*
X0379447Y0324484D01*
Y0341242D01*
X0379464Y0341272D01*
X037959Y0341742D01*
X0380148Y0341892D01*
X0383053Y0338986D01*
D02*
G37*
G36*
X036025Y0345218D02*
X0359955Y0344922D01*
X0359536Y0344197D01*
X0359319Y0343388D01*
Y034255D01*
X0359536Y0341741D01*
X0359955Y0341016D01*
X0360547Y0340423D01*
X0361272Y0340005D01*
X0362081Y0339788D01*
X0362919D01*
X0363728Y0340005D01*
X0364453Y0340423D01*
X0365045Y0341016D01*
X0365464Y0341741D01*
X0365681Y034255D01*
Y0342689D01*
X0366514Y0343522D01*
X037307D01*
X0373374Y0343125D01*
X0373319Y0342919D01*
Y0342081D01*
X0373536Y0341272D01*
X0373955Y0340547D01*
X0374547Y0339954D01*
X0374553Y0339951D01*
Y0320552D01*
X0374454Y0320453D01*
X0374313Y0320208D01*
X0373817Y0320143D01*
X0364947Y0329014D01*
Y0331448D01*
X0365045Y0331547D01*
X0365464Y0332272D01*
X0365681Y0333081D01*
Y0333919D01*
X0365464Y0334728D01*
X0365045Y0335453D01*
X0364453Y0336046D01*
X0363728Y0336464D01*
X0362919Y0336681D01*
X0362081D01*
X0361272Y0336464D01*
X0360547Y0336046D01*
X0359955Y0335453D01*
X0359536Y0334728D01*
X0359319Y0333919D01*
Y0333081D01*
X0359536Y0332272D01*
X0359955Y0331547D01*
X0360053Y0331448D01*
Y0328258D01*
X0359553Y0328051D01*
X0351216Y0336388D01*
X0351407Y033685D01*
X035865D01*
Y0345718D01*
X0360043D01*
X036025Y0345218D01*
D02*
G37*
G36*
X0342822Y033685D02*
X0343833D01*
X0370429Y0310254D01*
Y0309692D01*
X0370595Y0309072D01*
X0370147Y0308814D01*
X0342533Y0336428D01*
X0342783Y0336861D01*
X0342822Y033685D01*
D02*
G37*
G36*
X0343405Y0309026D02*
X0343198Y0308526D01*
X0297199D01*
X0297121Y0308662D01*
X0296162Y0309621D01*
X0295121Y0310222D01*
X0295077Y0310381D01*
Y0310619D01*
X0295121Y0310778D01*
X0296162Y0311379D01*
X0297121Y0312338D01*
X0297199Y0312474D01*
X0339957D01*
X0343405Y0309026D01*
D02*
G37*
G36*
X0421Y03385D02*
Y0338D01*
X0398Y0315D01*
Y0305D01*
X03805D01*
Y0322D01*
X0409Y03505D01*
X0421Y03385D01*
D02*
G37*
G36*
X0348053Y0304537D02*
Y0301014D01*
X034377Y029673D01*
X0343239Y0295936D01*
X0343053Y0295D01*
Y0293963D01*
X0342553Y0293897D01*
X0342464Y0294228D01*
X0342045Y0294953D01*
X0341453Y0295546D01*
X0340934Y0295845D01*
X033914Y029764D01*
X0338513Y029812D01*
X0337783Y0298423D01*
X0337Y0298526D01*
X0297199D01*
X0297121Y0298662D01*
X0296162Y0299621D01*
X0295121Y0300221D01*
X0295077Y0300381D01*
Y0300619D01*
X0295121Y0300779D01*
X0296162Y0301379D01*
X0297121Y0302338D01*
X0297199Y0302474D01*
X0343502D01*
X0344081Y0302319D01*
X0344919D01*
X0345728Y0302536D01*
X0346453Y0302955D01*
X0347045Y0303547D01*
X0347464Y0304272D01*
X0347553Y0304603D01*
X0348053Y0304537D01*
D02*
G37*
G36*
X0332524Y0291974D02*
X0332382Y0291728D01*
X0332165Y0290919D01*
Y0290081D01*
X0332382Y0289272D01*
X0332801Y0288547D01*
X0333322Y0288026D01*
X0333263Y0287734D01*
X033314Y0287526D01*
X0324681D01*
Y02877D01*
X0324464Y0288509D01*
X0324045Y0289234D01*
X0323453Y0289827D01*
X0322728Y0290245D01*
X0321919Y0290462D01*
X0321081D01*
X0320272Y0290245D01*
X0319547Y0289827D01*
X0319167Y0289447D01*
X0317014D01*
X0314681Y0291779D01*
Y0291919D01*
X0314639Y0292077D01*
X0314943Y0292474D01*
X0332236D01*
X0332524Y0291974D01*
D02*
G37*
G36*
X0308361Y0292077D02*
X0308319Y0291919D01*
Y0291081D01*
X0308536Y0290272D01*
X0308955Y0289547D01*
X0309547Y0288954D01*
X0310272Y0288536D01*
X0311081Y0288319D01*
X0311221D01*
X0311552Y0287988D01*
X031136Y0287526D01*
X0297777D01*
X0297121Y0288662D01*
X0296162Y0289621D01*
X0295121Y0290222D01*
X0295077Y0290381D01*
Y0290619D01*
X0295121Y0290778D01*
X0296162Y0291379D01*
X0297121Y0292338D01*
X0297199Y0292474D01*
X0308057D01*
X0308361Y0292077D01*
D02*
G37*
G36*
X0296321Y0281474D02*
X0296321Y0281474D01*
X0332247D01*
X0332861Y028086D01*
X0332454Y0280453D01*
X0332036Y0279728D01*
X0331819Y0278919D01*
Y027878D01*
X0330986Y0277947D01*
X0328673D01*
Y0278819D01*
X0315827D01*
Y0274026D01*
X0299917D01*
X029815Y0275793D01*
Y0276178D01*
X0297799Y0277488D01*
X0297121Y0278662D01*
X0296162Y0279621D01*
X0295121Y0280222D01*
X0295077Y0280381D01*
Y0280619D01*
X0295121Y0280779D01*
X0296162Y0281379D01*
X0296264Y0281482D01*
X0296321Y0281474D01*
D02*
G37*
%LPC*%
G36*
X0414919Y0302681D02*
X0414081D01*
X0413272Y0302464D01*
X0412547Y0302045D01*
X0411954Y0301453D01*
X0411536Y0300728D01*
X0411319Y0299919D01*
Y0299081D01*
X0411536Y0298272D01*
X0411954Y0297547D01*
X0412547Y0296954D01*
X0413272Y0296536D01*
X0414081Y0296319D01*
X0414919D01*
X041559Y0296499D01*
X0416436D01*
X0420163Y0292772D01*
Y0283883D01*
X0420073Y0283728D01*
X0419856Y0282919D01*
Y0282081D01*
X0420073Y0281272D01*
X0420492Y0280547D01*
X0421084Y0279955D01*
X042181Y0279536D01*
X0422619Y0279319D01*
X0423456D01*
X0424265Y0279536D01*
X0424421Y0279625D01*
X044185D01*
Y027635D01*
X045215D01*
Y028665D01*
X044185D01*
Y0285375D01*
X0425912D01*
Y0293963D01*
X0425814Y0294707D01*
X0425527Y02954D01*
X042507Y0295995D01*
X0419659Y0301406D01*
X0419064Y0301863D01*
X0418371Y030215D01*
X0417627Y0302248D01*
X0416103D01*
X0415728Y0302464D01*
X0414919Y0302681D01*
D02*
G37*
G36*
X0373919Y0287181D02*
X0373081D01*
X0372272Y0286964D01*
X0371547Y0286545D01*
X0370954Y0285953D01*
X0370536Y0285228D01*
X0370319Y0284419D01*
Y0283581D01*
X0370536Y0282772D01*
X0370954Y0282047D01*
X0371547Y0281454D01*
X0372272Y0281036D01*
X0373081Y0280819D01*
X0373919D01*
X0374728Y0281036D01*
X0375453Y0281454D01*
X0375552Y0281553D01*
X0377071D01*
X0378063Y0280561D01*
X0377955Y0280453D01*
X0377536Y0279728D01*
X0377319Y0278919D01*
Y0278195D01*
X0368061Y0268937D01*
X0367953Y0269045D01*
X0367228Y0269464D01*
X0366419Y0269681D01*
X0365581D01*
X0364772Y0269464D01*
X0364047Y0269045D01*
X0363948Y0268947D01*
X03515D01*
X0350564Y0268761D01*
X034977Y026823D01*
X034497Y0263431D01*
X0344831D01*
X0344022Y0263214D01*
X0343297Y0262795D01*
X0342705Y0262203D01*
X0342286Y0261478D01*
X0342069Y0260669D01*
Y0259831D01*
X0342205Y0259322D01*
X0341901Y0258885D01*
X0341392Y0258857D01*
X0341328Y0258921D01*
X0340603Y0259339D01*
X0339794Y0259556D01*
X0338956D01*
X0338147Y0259339D01*
X0337422Y0258921D01*
X0336829Y0258328D01*
X0336411Y0257603D01*
X0336194Y0256794D01*
Y0255956D01*
X0336411Y0255147D01*
X0336829Y0254422D01*
X0337422Y025383D01*
X0338147Y0253411D01*
X0338956Y0253194D01*
X0339794D01*
X0340603Y0253411D01*
X0341328Y025383D01*
X0341427Y0253928D01*
X0357875D01*
X0358811Y0254114D01*
X0359605Y0254645D01*
X0362779Y0257819D01*
X0362919D01*
X0363728Y0258036D01*
X0364453Y0258454D01*
X0365045Y0259047D01*
X0365464Y0259772D01*
X0365681Y0260581D01*
Y0261419D01*
X0365784Y0261553D01*
X0366584D01*
X0367521Y0261739D01*
X0368315Y026227D01*
X0380591Y0274546D01*
X0381053Y0274355D01*
Y0253438D01*
X0380919Y0253335D01*
X0380081D01*
X0379272Y0253118D01*
X0378547Y0252699D01*
X0377955Y0252107D01*
X0377536Y0251381D01*
X0377319Y0250572D01*
Y0250433D01*
X0376759Y0249874D01*
X0376259Y0250081D01*
Y0250572D01*
X0376043Y0251381D01*
X0375624Y0252107D01*
X0375032Y0252699D01*
X0374306Y0253118D01*
X0373497Y0253335D01*
X0372659D01*
X037185Y0253118D01*
X0371125Y0252699D01*
X0370533Y0252107D01*
X0370152Y0251447D01*
X0352169D01*
X0351233Y0251261D01*
X0351152Y0251207D01*
X0320754D01*
X0317447Y0254514D01*
Y0255448D01*
X0317546Y0255547D01*
X0317964Y0256272D01*
X0318181Y0257081D01*
Y0257919D01*
X0317964Y0258728D01*
X0317546Y0259453D01*
X0316953Y0260046D01*
X0316228Y0260464D01*
X0315419Y0260681D01*
X0314581D01*
X0313772Y0260464D01*
X0313047Y0260046D01*
X0312455Y0259453D01*
X0312036Y0258728D01*
X0311819Y0257919D01*
Y0257828D01*
X0311319Y0257623D01*
X0310728Y0257964D01*
X0309919Y0258181D01*
X0309081D01*
X0308272Y0257964D01*
X0307547Y0257545D01*
X0306955Y0256953D01*
X0306536Y0256228D01*
X0306319Y0255419D01*
Y0255328D01*
X0305819Y0255123D01*
X0305228Y0255464D01*
X0304419Y0255681D01*
X0303581D01*
X0302772Y0255464D01*
X0302047Y0255046D01*
X0301454Y0254453D01*
X0301036Y0253728D01*
X0300819Y0252919D01*
Y0252081D01*
X0301036Y0251272D01*
X0301454Y0250547D01*
X0302047Y0249955D01*
X0302772Y0249536D01*
X0303581Y0249319D01*
X030372D01*
X031002Y024302D01*
X0310814Y0242489D01*
X031175Y0242303D01*
X0364198D01*
X0364297Y0242204D01*
X0365022Y0241786D01*
X0365831Y0241569D01*
X0366669D01*
X0367478Y0241786D01*
X0368203Y0242204D01*
X0368795Y0242797D01*
X0369214Y0243522D01*
X0369431Y0244331D01*
Y0244553D01*
X0376885D01*
X0377092Y0244053D01*
X037422Y0241181D01*
X0374081D01*
X0373272Y0240964D01*
X0372547Y0240546D01*
X0371954Y0239953D01*
X0371536Y0239228D01*
X0371319Y0238419D01*
Y0237581D01*
X0371536Y0236772D01*
X0371954Y0236047D01*
X0372547Y0235455D01*
X0373272Y0235036D01*
X0374081Y0234819D01*
X0374919D01*
X0375728Y0235036D01*
X0376453Y0235455D01*
X0376966Y0235967D01*
X0377495Y0235925D01*
X0377536Y0235772D01*
X0377955Y0235047D01*
X0378547Y0234454D01*
X0379272Y0234036D01*
X0380081Y0233819D01*
X0380919D01*
X0381728Y0234036D01*
X0382453Y0234454D01*
X0383046Y0235047D01*
X0383464Y0235772D01*
X0383511Y0235946D01*
X0388033Y0240467D01*
X038849Y0241063D01*
X0388777Y0241756D01*
X0388875Y02425D01*
Y0255204D01*
X0388964Y0255359D01*
X0389181Y0256168D01*
Y0257006D01*
X0388964Y0257815D01*
X0388545Y025854D01*
X0387953Y0259133D01*
X0387228Y0259551D01*
X0386419Y0259768D01*
X0385947D01*
Y0278585D01*
X0385761Y0279521D01*
X038523Y0280315D01*
X0379815Y028573D01*
X0379021Y0286261D01*
X0378084Y0286447D01*
X0375552D01*
X0375453Y0286545D01*
X0374728Y0286964D01*
X0373919Y0287181D01*
D02*
G37*
G36*
X042465Y0264495D02*
X041835D01*
X0417058Y0264325D01*
X0415853Y0263826D01*
X0414818Y0263032D01*
X0414024Y0261998D01*
X0413525Y0260793D01*
X0413355Y02595D01*
Y0253594D01*
X0413525Y0252302D01*
X0414024Y0251097D01*
X0414818Y0250062D01*
X0415853Y0249268D01*
X0417058Y0248769D01*
X041835Y0248599D01*
X042465D01*
X0425943Y0248769D01*
X0427147Y0249268D01*
X0428182Y0250062D01*
X0428976Y0251097D01*
X0429475Y0252302D01*
X0429645Y0253594D01*
Y02595D01*
X0429475Y0260793D01*
X0428976Y0261998D01*
X0428182Y0263032D01*
X0427147Y0263826D01*
X0425943Y0264325D01*
X042465Y0264495D01*
D02*
G37*
G36*
X0312178Y023965D02*
X0310822D01*
X0309512Y0239299D01*
X0308338Y0238621D01*
X0307379Y0237662D01*
X0306701Y0236488D01*
X030635Y0235178D01*
Y0233822D01*
X0306701Y0232512D01*
X0307379Y0231338D01*
X0308338Y0230379D01*
X0309512Y0229701D01*
X0310822Y022935D01*
X0312178D01*
X0313488Y0229701D01*
X0314662Y0230379D01*
X0315621Y0231338D01*
X0316299Y0232512D01*
X031665Y0233822D01*
Y0235178D01*
X0316299Y0236488D01*
X0315621Y0237662D01*
X0314662Y0238621D01*
X0313488Y0239299D01*
X0312178Y023965D01*
D02*
G37*
G36*
X0366453Y0229453D02*
X0356547D01*
Y0219547D01*
X0366453D01*
Y0229453D01*
D02*
G37*
G36*
X0394632Y0229906D02*
X039325D01*
X0391915Y0229548D01*
X0390719Y0228857D01*
X0389741Y022788D01*
X0389051Y0226683D01*
X0388693Y0225348D01*
Y0223967D01*
X0389051Y0222632D01*
X0389741Y0221435D01*
X0390719Y0220458D01*
X0391915Y0219767D01*
X039325Y0219409D01*
X0394632D01*
X0395967Y0219767D01*
X0397163Y0220458D01*
X039814Y0221435D01*
X0398831Y0222632D01*
X0399189Y0223967D01*
Y0225348D01*
X0398831Y0226683D01*
X039814Y022788D01*
X0397163Y0228857D01*
X0395967Y0229548D01*
X0394632Y0229906D01*
D02*
G37*
%LPD*%
D14*
X03505Y02735D02*
Y02805D01*
Y02885D01*
X03335Y02565D02*
X03505Y02735D01*
X0370106Y0359271D02*
X03705D01*
X0364Y0354D02*
X0364299Y0354299D01*
X0365134D01*
X0370106Y0359271D01*
X03615Y035701D02*
X036153Y035704D01*
Y0357577D01*
X036025Y035375D02*
X03615Y0355D01*
Y035701D01*
X0350219Y035375D02*
X036025D01*
X036153Y0357577D02*
X0363Y0359047D01*
X0325Y02755D02*
X0332D01*
X0320559D02*
X0325D01*
X03205Y0275441D02*
X0320559Y02755D01*
X0332D02*
X0335Y02785D01*
X0323941Y0280559D02*
X0324Y02805D01*
X03205Y0280559D02*
X0323941D01*
X0321219Y0287D02*
X03215Y0287281D01*
X0316Y0287D02*
X0321219D01*
X0378084Y0284D02*
X03835Y0278585D01*
X03735Y0284D02*
X0378084D01*
X03745Y0238D02*
X03835Y0247D01*
Y0278585D01*
X0307937Y0325436D02*
X03125Y033D01*
X0337D01*
X0340347Y02855D02*
X03455D01*
X0335347Y02905D02*
X0340347Y02855D01*
X0371829Y0249D02*
X0372982Y0250153D01*
X0352169Y0249D02*
X0371829D01*
X0351929Y024876D02*
X0352169Y0249D01*
X0372982Y0250153D02*
X0373078D01*
X0315Y02535D02*
Y02575D01*
X03095Y0252D02*
Y0255D01*
Y0252D02*
X03145Y0247D01*
X0304Y02525D02*
X031175Y024475D01*
X036625D01*
X03145Y0247D02*
X0377346D01*
X0315Y02535D02*
X031974Y024876D01*
X0351929D01*
X0377346Y0247D02*
X03805Y0250153D01*
X03625Y0328D02*
Y03335D01*
Y0328D02*
X03775Y0313D01*
X0386387Y0288887D02*
Y0289113D01*
X033865Y033685D02*
X0386387Y0289113D01*
X03805Y0277916D02*
Y02785D01*
X0352832Y0264D02*
X0366584D01*
X03805Y0277916D01*
X0348916Y0260084D02*
X0352832Y0264D01*
X034525Y026025D02*
X03515Y02665D01*
X0366D01*
X0339375Y0256375D02*
X0357875D01*
X03625Y0261D01*
X03465Y028298D02*
X0348Y028448D01*
X03465Y02735D02*
Y028298D01*
X03335Y02595D02*
X0344Y027D01*
X03335Y0250941D02*
Y02565D01*
X0344Y027D02*
Y0284D01*
X03455Y02855D01*
X03595Y0301D02*
Y0308D01*
X0356Y03015D02*
Y03105D01*
X03505Y03D02*
Y03215D01*
X032865Y033685D02*
X033865D01*
X03235Y0342D02*
X03235D01*
X032865Y033685D01*
X03435Y0340644D02*
X037361Y0310533D01*
X03435Y0340644D02*
Y0342D01*
X037361Y031011D02*
Y0310533D01*
X03765Y03425D02*
X0377Y0342D01*
Y03185D02*
Y0342D01*
X03655Y0345969D02*
X0379531D01*
X03625Y0342969D02*
X03655Y0345969D01*
X03855Y0334D02*
Y034D01*
X0379531Y0345969D02*
X03855Y034D01*
X03115Y02915D02*
X0316Y0287D01*
X0348Y02895D02*
X03595Y0301D01*
X0348Y028448D02*
Y02895D01*
X03455Y02855D02*
Y0295D01*
X03505Y03D01*
X0348Y02935D02*
X0356Y03015D01*
X0346468Y0310243D02*
X0346767Y0309944D01*
X0326Y02595D02*
X03335D01*
X03495Y0354469D02*
X0350219Y035375D01*
X03495Y0354469D02*
Y0359D01*
X0293Y02955D02*
X0294488D01*
X0336453Y0364744D02*
Y0383953D01*
X03395Y0359D02*
Y0361697D01*
X0336453Y0364744D02*
X03395Y0361697D01*
X0339Y0377988D02*
X03395Y0378488D01*
X03495D02*
Y03845D01*
X0347Y0387D02*
X0366D01*
X03445Y03845D02*
X0347Y0387D01*
X0366D02*
X037Y0383D01*
X03545Y0376411D02*
X0355263Y0375648D01*
X0357852D01*
X0363Y03705D01*
X03545Y0376411D02*
Y0378488D01*
X03445D02*
Y03845D01*
X037Y0371047D02*
Y0383D01*
X0357756Y0364953D02*
X0363D01*
X03545Y0361697D02*
X0357756Y0364953D01*
X0363D02*
X0363047Y0365D01*
D25*
X03195Y0275441D02*
D03*
Y0280559D02*
D03*
X0325Y0275441D02*
D03*
Y0280559D02*
D03*
D36*
X0363Y0364953D02*
D03*
Y0359047D02*
D03*
D71*
X03565Y02885D02*
X0377247D01*
X0388Y0277747D01*
X03505Y02885D02*
X03565D01*
X0347Y0368744D02*
X0350894Y036485D01*
X0354169Y0362028D02*
X03545Y0361697D01*
X0350894Y036485D02*
X0353504D01*
X0354169Y0362028D02*
Y0364185D01*
X0353504Y036485D02*
X0354169Y0364185D01*
X0393941Y0243994D02*
Y0244342D01*
X0382447Y02325D02*
X0393941Y0243994D01*
X033955Y02325D02*
X0382447D01*
X03805Y0237D02*
X0386Y02425D01*
Y0256587D01*
X03315Y022445D02*
X033955Y02325D01*
X0388Y02645D02*
Y0277747D01*
Y02645D02*
X039Y02625D01*
X03995D01*
X037325Y029825D02*
X0392Y02795D01*
X03505Y0321D02*
X037322Y029828D01*
X0372941Y0298D02*
X0373D01*
X0392Y0266D02*
Y02795D01*
X0337Y0335D02*
X03505Y03215D01*
X0337583Y0341417D02*
X03389Y03401D01*
X0341595Y03374D02*
X03416D01*
X0334083Y0341417D02*
X0337583D01*
X03335Y0342D02*
X0334083Y0341417D01*
X03416Y03374D02*
X04005Y02785D01*
X03389Y0340095D02*
Y03401D01*
Y0340095D02*
X0341595Y03374D01*
X04005Y02785D02*
Y02885D01*
Y0266D02*
Y02785D01*
X0325059Y0299059D02*
X0326Y03D01*
X0318059Y0299059D02*
X0325059D01*
X0392Y0297D02*
X04005Y02885D01*
X03115Y0335D02*
X0337D01*
X0307Y03395D02*
X03115Y0335D01*
X04005Y02635D02*
Y0266D01*
X03995Y02625D02*
X04005Y02635D01*
X04145Y02995D02*
X0414627Y0299373D01*
X0417627D01*
X0423037Y0293963D01*
Y02825D02*
Y0293963D01*
Y02825D02*
X0446D01*
X0447Y02815D01*
X0400381Y0302619D02*
X04005Y03025D01*
X0400381Y0302619D02*
Y0313881D01*
X0406Y03025D02*
Y03135D01*
X0431373Y0338873D01*
Y0340873D02*
X04315Y0341D01*
X0431373Y0338873D02*
Y0340873D01*
X0400381Y0313881D02*
X0423Y03365D01*
D72*
X0293536Y0326036D02*
X029995D01*
X0302Y0328086D02*
Y03815D01*
X0293Y03255D02*
X0293536Y0326036D01*
X029995D02*
X0302Y0328086D01*
X0387882Y0316382D02*
X0412Y03405D01*
X0327874Y0361126D02*
X03335Y03555D01*
Y0342D02*
Y03555D01*
X034655Y03495D02*
X0394D01*
X0414Y03695D01*
X03445Y035155D02*
X034655Y03495D01*
X03865Y0334D02*
X04065Y0354D01*
X03855Y0334D02*
X03865D01*
X0441023Y0345201D02*
X0445761Y0349939D01*
X04065Y0354D02*
X04417D01*
X04447Y0351D02*
X0447D01*
X04417Y0354D02*
X04447Y0351D01*
Y0331D02*
X0447D01*
X0435Y0332799D02*
X0442901D01*
X04447Y0331D01*
X0435Y0345201D02*
X0441023D01*
X0387882Y0311118D02*
Y0316382D01*
Y0311118D02*
X0388Y0311D01*
X0387882Y0309618D02*
Y0311D01*
X0414Y03695D02*
X04273D01*
X0376Y0372054D02*
Y0377D01*
X03705Y0366553D02*
X0376Y0372054D01*
X03705Y0359271D02*
Y0366553D01*
X03445Y035155D02*
Y0359D01*
X031Y03705D02*
Y0388D01*
Y03705D02*
X03175Y0363D01*
X04427Y03695D02*
Y03708D01*
X044415Y037225D02*
X04457D01*
X04465Y037305D01*
Y0382D01*
X04427Y03708D02*
X044415Y037225D01*
D75*
X0447Y02915D02*
D03*
X03235Y0342D02*
D03*
X03335D02*
D03*
X03435D02*
D03*
X0293Y02655D02*
D03*
Y02755D02*
D03*
Y02855D02*
D03*
Y02955D02*
D03*
Y03055D02*
D03*
Y03155D02*
D03*
Y03255D02*
D03*
X03115Y02345D02*
D03*
D76*
X0447Y02815D02*
D03*
X0293Y03355D02*
D03*
X03115Y02245D02*
D03*
D77*
X03535Y0342D02*
D03*
D78*
X04215Y0256547D02*
D03*
Y0212453D02*
D03*
D79*
X0393941Y0244342D02*
D03*
Y0224658D02*
D03*
X0451028Y0244342D02*
D03*
Y02345D02*
D03*
Y0224658D02*
D03*
D80*
X03615Y02245D02*
D03*
D81*
X03315Y022445D02*
D03*
D82*
X0328176Y0237537D02*
D03*
X0344686Y0214779D02*
D03*
X0443077Y021411D02*
D03*
X0408718Y023709D02*
D03*
X0438614Y0253823D02*
D03*
X0443077Y0265202D02*
D03*
X0432367Y029733D02*
D03*
X0414296Y0287067D02*
D03*
X0412Y02775D02*
D03*
X03185Y0378D02*
D03*
X0327874Y0361126D02*
D03*
X0380821Y0368508D02*
D03*
X0303Y0372D02*
D03*
X035Y028D02*
D03*
X02945Y03745D02*
D03*
X03755Y03835D02*
D03*
X0406Y03755D02*
D03*
X0402Y0215D02*
D03*
X043Y0233D02*
D03*
X0347Y0232D02*
D03*
X0323Y02175D02*
D03*
X0303Y02155D02*
D03*
X03005Y02375D02*
D03*
X02965Y0247D02*
D03*
D83*
X0348Y03685D02*
D03*
X035D02*
D03*
X0344Y03665D02*
D03*
X0352Y03705D02*
D03*
Y03685D02*
D03*
X0346Y03705D02*
D03*
X0344Y03685D02*
D03*
X035Y03705D02*
D03*
X0352Y03665D02*
D03*
X0346Y03685D02*
D03*
X0348Y03705D02*
D03*
X0344D02*
D03*
X0348Y03665D02*
D03*
X0346D02*
D03*
X035D02*
D03*
X03565Y02885D02*
D03*
X03805Y0237D02*
D03*
X0364Y0354D02*
D03*
X0335Y02785D02*
D03*
X0324Y02805D02*
D03*
X03215Y0287281D02*
D03*
X03735Y0284D02*
D03*
X03745Y0238D02*
D03*
X0307937Y0325436D02*
D03*
X0337Y033D02*
D03*
X0356Y0311D02*
D03*
X0335347Y02905D02*
D03*
X0315Y02575D02*
D03*
X03095Y0255D02*
D03*
X0304Y02525D02*
D03*
X036625Y024475D02*
D03*
X0373078Y0250153D02*
D03*
X03805D02*
D03*
X03625Y03335D02*
D03*
X03775Y0313D02*
D03*
X0386387Y0288887D02*
D03*
X03805Y02785D02*
D03*
X0366Y02665D02*
D03*
X0348916Y0260084D02*
D03*
X03625Y0261D02*
D03*
X03465Y02735D02*
D03*
X0372941Y0298D02*
D03*
X03595Y0308D02*
D03*
X037361Y031011D02*
D03*
X03765Y03425D02*
D03*
X03625Y0342969D02*
D03*
X0377Y03185D02*
D03*
X0326Y03D02*
D03*
X0318059Y0299059D02*
D03*
X03115Y02915D02*
D03*
X03415Y02765D02*
D03*
X03505Y02885D02*
D03*
X03455Y02855D02*
D03*
X0348Y02935D02*
D03*
X0339Y02735D02*
D03*
X03395Y0293D02*
D03*
X0346767Y0309944D02*
D03*
X03445Y03055D02*
D03*
X03335Y0250941D02*
D03*
X0326Y02595D02*
D03*
X0392Y0266D02*
D03*
X04005D02*
D03*
X0392Y0297D02*
D03*
X034525Y026025D02*
D03*
X0339375Y0256375D02*
D03*
X0307Y03395D02*
D03*
X0386Y0256587D02*
D03*
X04145Y02995D02*
D03*
X0423037Y02825D02*
D03*
X04005Y03025D02*
D03*
X0406D02*
D03*
X0423Y03365D02*
D03*
X04315Y0341D02*
D03*
X0302Y03815D02*
D03*
X0327874Y0361126D02*
D03*
X03855Y0334D02*
D03*
X0414987Y0340293D02*
D03*
X0412159Y0343121D02*
D03*
X0409331Y0340293D02*
D03*
X0410745Y0341707D02*
D03*
X0413573Y033605D02*
D03*
X0410745Y0344536D02*
D03*
X0414987Y0337464D02*
D03*
X0413573Y0341707D02*
D03*
X0412159Y0337464D02*
D03*
X0412159Y0340293D02*
D03*
X0410745Y0338879D02*
D03*
X0407916Y0341707D02*
D03*
X0409331Y0343121D02*
D03*
X0413573Y0338879D02*
D03*
X0416402Y0338879D02*
D03*
X039Y0307D02*
D03*
X0386D02*
D03*
X0388D02*
D03*
X0384Y0311D02*
D03*
X0388D02*
D03*
X0386Y0309D02*
D03*
X0392Y0307D02*
D03*
X039Y0311D02*
D03*
X0384Y0309D02*
D03*
X0386Y0311D02*
D03*
X0392Y0309D02*
D03*
Y0311D02*
D03*
X0384Y0307D02*
D03*
X039Y0309D02*
D03*
X0388D02*
D03*
X0376Y0377D02*
D03*
X031Y0388D02*
D03*
X0318Y0363D02*
D03*
X0336453Y0383953D02*
D03*
X0339Y0377988D02*
D03*
X03495Y03845D02*
D03*
X0363Y03705D02*
D03*
X037Y0371047D02*
D03*
X035Y03685D02*
D03*
X0394Y03495D02*
D03*
D84*
X04265Y0382D02*
D03*
X04465D02*
D03*
D85*
X0447Y0331D02*
D03*
Y0351D02*
D03*
D86*
X0370487Y0359258D02*
D03*
Y0351777D02*
D03*
D87*
X0435Y0345201D02*
D03*
Y0332799D02*
D03*
D88*
X04273Y03695D02*
D03*
X04427D02*
D03*
D89*
X0347Y0368744D02*
D03*
D90*
X03395Y0359D02*
D03*
X03445D02*
D03*
X03495D02*
D03*
X03545D02*
D03*
Y0378488D02*
D03*
X03495D02*
D03*
X03445D02*
D03*
X03395D02*
D03*
D91*
X03335Y02845D02*
X03415Y02765D01*
X0298663Y0271D02*
X03365D01*
X0294163Y02755D02*
X0298663Y0271D01*
X03365D02*
X0339Y02735D01*
X0293Y02755D02*
X0294163D01*
X0296144Y0284677D02*
X0296321Y02845D01*
X0293823Y0284677D02*
X0296144D01*
X0296321Y02845D02*
X03335D01*
X0293Y02855D02*
X0293823Y0284677D01*
X0294488Y02955D02*
X0337D01*
X03395Y0293D01*
X03415Y02765D02*
Y02765D01*
X034121Y03155D02*
X0346468Y0310243D01*
X0293Y03155D02*
X034121D01*
X0293Y03055D02*
X03445D01*
M02*
