G04*
G04 #@! TF.GenerationSoftware,Altium Limited,Altium Designer,21.3.2 (30)*
G04*
G04 Layer_Color=32896*
%FSTAX25Y25*%
%MOIN*%
G70*
G04*
G04 #@! TF.SameCoordinates,665701D7-0C42-49A3-A721-B3261F62B861*
G04*
G04*
G04 #@! TF.FilePolarity,Positive*
G04*
G01*
G75*
%ADD15C,0.00787*%
%ADD17C,0.00500*%
%ADD18C,0.01000*%
D15*
X0378606Y0380744D02*
G03*
X0378606Y0380744I-0000394J0D01*
G01*
D17*
X0398449Y036237D02*
X0398843D01*
X0398449Y0378118D02*
X0398843D01*
Y036237D02*
Y0378118D01*
X0379157D02*
X0379551D01*
X0379157Y036237D02*
X0379551D01*
X0379157D02*
Y0378118D01*
D18*
X04425Y0327499D02*
Y0324D01*
Y0325749D01*
X0441917Y0326333D01*
X0440751D01*
X0440167Y0325749D01*
Y0324D01*
X0437252D02*
X0438418D01*
X0439001Y0324583D01*
Y0325749D01*
X0438418Y0326333D01*
X0437252D01*
X0436668Y0325749D01*
Y0325166D01*
X0439001D01*
X0434919Y0326333D02*
X0433753D01*
X043317Y0325749D01*
Y0324D01*
X0434919D01*
X0435502Y0324583D01*
X0434919Y0325166D01*
X043317D01*
X043142Y0326916D02*
Y0326333D01*
X0432003D01*
X0430837D01*
X043142D01*
Y0324583D01*
X0430837Y0324D01*
X0429088Y0325749D02*
X0426755D01*
X0427921Y0326916D02*
Y0324583D01*
X0441917Y0306916D02*
Y0306333D01*
X04425D01*
X0441334D01*
X0441917D01*
Y0304583D01*
X0441334Y0304D01*
X0439584Y0307499D02*
Y0304D01*
Y0305749D01*
X0439001Y0306333D01*
X0437835D01*
X0437252Y0305749D01*
Y0304D01*
X0434336D02*
X0435502D01*
X0436085Y0304583D01*
Y0305749D01*
X0435502Y0306333D01*
X0434336D01*
X0433753Y0305749D01*
Y0305166D01*
X0436085D01*
X0432586Y0306333D02*
Y0304D01*
Y0305166D01*
X0432003Y0305749D01*
X043142Y0306333D01*
X0430837D01*
X0429088Y0305749D02*
X0426755D01*
X0427921Y0306916D02*
Y0304583D01*
X0441917Y0316916D02*
Y0316333D01*
X04425D01*
X0441334D01*
X0441917D01*
Y0314583D01*
X0441334Y0314D01*
X0439584Y0317499D02*
Y0314D01*
Y0315749D01*
X0439001Y0316333D01*
X0437835D01*
X0437252Y0315749D01*
Y0314D01*
X0434336D02*
X0435502D01*
X0436085Y0314583D01*
Y0315749D01*
X0435502Y0316333D01*
X0434336D01*
X0433753Y0315749D01*
Y0315166D01*
X0436085D01*
X0432586Y0316333D02*
Y0314D01*
Y0315166D01*
X0432003Y0315749D01*
X043142Y0316333D01*
X0430837D01*
X0429088Y0315749D02*
X0426755D01*
X04425Y0337499D02*
Y0334D01*
Y0335749D01*
X0441917Y0336333D01*
X0440751D01*
X0440167Y0335749D01*
Y0334D01*
X0437252D02*
X0438418D01*
X0439001Y0334583D01*
Y0335749D01*
X0438418Y0336333D01*
X0437252D01*
X0436668Y0335749D01*
Y0335166D01*
X0439001D01*
X0434919Y0336333D02*
X0433753D01*
X043317Y0335749D01*
Y0334D01*
X0434919D01*
X0435502Y0334583D01*
X0434919Y0335166D01*
X043317D01*
X043142Y0336916D02*
Y0336333D01*
X0432003D01*
X0430837D01*
X043142D01*
Y0334583D01*
X0430837Y0334D01*
X0429088Y0335749D02*
X0426755D01*
X0425Y0363832D02*
X0425666Y0364499D01*
X0426999D01*
X0427666Y0363832D01*
Y0361166D01*
X0426999Y03605D01*
X0425666D01*
X0425Y0361166D01*
Y0363832D01*
X04385Y0362499D02*
X0441166D01*
X0439833Y0363832D02*
Y0361166D01*
X0445164Y03605D02*
X0442499D01*
X0445164Y0363166D01*
Y0363832D01*
X0444498Y0364499D01*
X0443165D01*
X0442499Y0363832D01*
X0448497Y03605D02*
Y0364499D01*
X0446497Y0362499D01*
X0449163D01*
X0450496Y0363166D02*
X0451829Y03605D01*
X0453162Y0363166D01*
M02*
