G04*
G04 #@! TF.GenerationSoftware,Altium Limited,Altium Designer,21.3.2 (30)*
G04*
G04 Layer_Color=128*
%FSTAX25Y25*%
%MOIN*%
G70*
G04*
G04 #@! TF.SameCoordinates,665701D7-0C42-49A3-A721-B3261F62B861*
G04*
G04*
G04 #@! TF.FilePolarity,Positive*
G04*
G01*
G75*
%ADD105C,0.00200*%
D105*
X0236335Y02895D02*
X0240665D01*
X02385Y0287335D02*
Y0291665D01*
X0236335Y02995D02*
X0240665D01*
X02385Y0297335D02*
Y0301665D01*
X0236335Y03095D02*
X0240665D01*
X02385Y0307335D02*
Y0311665D01*
X0236335Y03195D02*
X0240665D01*
X02385Y0317335D02*
Y0321665D01*
X0236335Y03295D02*
X0240665D01*
X02385Y0327335D02*
Y0331665D01*
X0236335Y03395D02*
X0240665D01*
X02385Y0337335D02*
Y0341665D01*
X0236335Y03495D02*
X0240665D01*
X02385Y0347335D02*
Y0351665D01*
X0236335Y03595D02*
X0240665D01*
X02385Y0357335D02*
Y0361665D01*
X0303835Y02205D02*
X0308165D01*
X0306Y0218335D02*
Y0222665D01*
X0303835Y02105D02*
X0308165D01*
X0306Y0208335D02*
Y0212665D01*
X0344228Y0331D02*
X0347772D01*
X0346Y0329228D02*
Y0332772D01*
X0344228Y0321D02*
X0347772D01*
X0346Y0319228D02*
Y0322772D01*
X0344228Y0311D02*
X0347772D01*
X0346Y0309228D02*
Y0312772D01*
X0344228Y0301D02*
X0347772D01*
X0346Y0299228D02*
Y0302772D01*
X0344228Y0291D02*
X0347772D01*
X0346Y0289228D02*
Y0292772D01*
X0412063Y02505D02*
X0419937D01*
X0416Y0246563D02*
Y0254437D01*
X0412063Y0206405D02*
X0419937D01*
X0416Y0202468D02*
Y0210343D01*
X0386276Y0238295D02*
X0390606D01*
X0388441Y023613D02*
Y0240461D01*
X0386276Y021861D02*
X0390606D01*
X0388441Y0216445D02*
Y0220776D01*
X0443362Y0238295D02*
X0447693D01*
X0445528Y023613D02*
Y0240461D01*
X0443362Y0228453D02*
X0447693D01*
X0445528Y0226287D02*
Y0230618D01*
X0443362Y021861D02*
X0447693D01*
X0445528Y0216445D02*
Y0220776D01*
X0446925Y03155D02*
X0450075D01*
X04485Y0313925D02*
Y0317075D01*
X0446925Y03355D02*
X0450075D01*
X04485Y0333925D02*
Y0337075D01*
X0446925Y03255D02*
X0450075D01*
X04485Y0323925D02*
Y0327075D01*
X0446925Y03055D02*
X0450075D01*
X04485Y0303925D02*
Y0307075D01*
X0280925Y0223D02*
X0284075D01*
X02825Y0221425D02*
Y0224575D01*
X0250925Y022295D02*
X0254075D01*
X02525Y0221375D02*
Y0224525D01*
X0424Y0382D02*
X0429D01*
X04265Y03795D02*
Y03845D01*
X0444Y0382D02*
X0449D01*
X04465Y03795D02*
Y03845D01*
X0367409Y0363626D02*
X036859D01*
X0368Y0363035D02*
Y0364216D01*
X036791Y0362626D02*
X0369091D01*
X03685Y0362035D02*
Y0363216D01*
X036691Y0362626D02*
X0368091D01*
X03675Y0362035D02*
Y0363216D01*
X0366409Y0363626D02*
X036759D01*
X0367Y0363035D02*
Y0364216D01*
X036691Y0364626D02*
X0368091D01*
X03675Y0364035D02*
Y0365216D01*
X0368409Y0363626D02*
X036959D01*
X0369Y0363035D02*
Y0364216D01*
X036791Y0364626D02*
X0369091D01*
X03685Y0364035D02*
Y0365216D01*
X036891Y0364626D02*
X0370091D01*
X03695Y0364035D02*
Y0365216D01*
X036891Y0362626D02*
X0370091D01*
X03695Y0362035D02*
Y0363216D01*
X0369409Y0363626D02*
X037059D01*
X037Y0363035D02*
Y0364216D01*
X027941Y02635D02*
X0280591D01*
X028Y026291D02*
Y026409D01*
X0323909Y03005D02*
X0325091D01*
X03245Y0299909D02*
Y0301091D01*
X0270409Y0276059D02*
X027159D01*
X0271Y0275468D02*
Y027665D01*
X0302213Y0268472D02*
X0303787D01*
X0303Y0267685D02*
Y0269259D01*
X030541Y02715D02*
X0306591D01*
X0306Y027091D02*
Y0272091D01*
X027241Y031D02*
X027359D01*
X0273Y0309409D02*
Y0310591D01*
X027841Y03175D02*
X0279591D01*
X0279Y031691D02*
Y0318091D01*
X0264409Y0348D02*
X0265591D01*
X0265Y034741D02*
Y034859D01*
X030241Y03195D02*
X030359D01*
X0303Y031891D02*
Y0320091D01*
X029741Y0318D02*
X029859D01*
X0298Y0317409D02*
Y031859D01*
X0302961Y0325129D02*
X0304142D01*
X0303551Y0324538D02*
Y0325719D01*
X0301756Y0331347D02*
X0302937D01*
X0302346Y0330756D02*
Y0331937D01*
X0291925Y0292516D02*
X0293106D01*
X0292516Y0291925D02*
Y0293106D01*
X0251909Y0273D02*
X0253091D01*
X02525Y027241D02*
Y027359D01*
X0241183Y0272773D02*
X0242364D01*
X0241773Y0272183D02*
Y0273364D01*
X0302909Y02975D02*
X030409D01*
X03035Y0296909D02*
Y0298091D01*
X034741Y0283D02*
X034859D01*
X0348Y028241D02*
Y0283591D01*
X0302909Y0303D02*
X030409D01*
X03035Y030241D02*
Y030359D01*
X0309409Y0317D02*
X0310591D01*
X031Y0316409D02*
Y031759D01*
X0294409Y02845D02*
X029559D01*
X0295Y028391D02*
Y028509D01*
X0289409Y02855D02*
X0290591D01*
X029Y028491D02*
Y028609D01*
X0288409Y0328D02*
X0289591D01*
X0289Y032741D02*
Y032859D01*
X030891Y03215D02*
X031009D01*
X03095Y032091D02*
Y0322091D01*
X0262382Y028741D02*
X0263957D01*
X0263169Y0286623D02*
Y0288198D01*
X027541Y02905D02*
X027659D01*
X0276Y028991D02*
Y029109D01*
X0271213Y0303D02*
X0272787D01*
X0272Y0302213D02*
Y0303787D01*
X0325969Y03265D02*
X032715D01*
X0326559Y0325909D02*
Y0327091D01*
X0292409Y0304D02*
X029359D01*
X0293Y030341D02*
Y0304591D01*
X032091Y034D02*
X0322091D01*
X03215Y0339409D02*
Y0340591D01*
X0300393Y0281984D02*
X0301574D01*
X0300984Y0281393D02*
Y0282574D01*
X0290588Y0266559D02*
X0292162D01*
X0291375Y0265772D02*
Y0267347D01*
X035546Y0311347D02*
X0357034D01*
X0356247Y0310559D02*
Y0312134D01*
X0296338Y0268374D02*
X0297913D01*
X0297126Y0267587D02*
Y0269162D01*
X0355213Y02685D02*
X0356787D01*
X0356Y0267713D02*
Y0269287D01*
X0355713Y02635D02*
X0357287D01*
X03565Y0262713D02*
Y0264287D01*
X0432909Y0344223D02*
X0434091D01*
X04335Y0343633D02*
Y0344814D01*
X043191Y0344223D02*
X043309D01*
X04325Y0343633D02*
Y0344814D01*
X0432909Y0342223D02*
X0434091D01*
X04335Y0341633D02*
Y0342814D01*
X0259213Y0271D02*
X0260787D01*
X026Y0270213D02*
Y0271787D01*
X0359866Y0251847D02*
X0361441D01*
X0360653Y0251059D02*
Y0252634D01*
X0264713Y0271D02*
X0266287D01*
X02655Y0270213D02*
Y0271787D01*
X0368213Y0251847D02*
X0369787D01*
X0369Y0251059D02*
Y0252634D01*
X0270213Y0271D02*
X0271787D01*
X0271Y0270213D02*
Y0271787D01*
X0376713Y0251847D02*
X0378287D01*
X03775Y0251059D02*
Y0252634D01*
X0318213Y0381D02*
X0319787D01*
X0319Y0380213D02*
Y0381787D01*
X043341Y0343223D02*
X043459D01*
X0434Y0342633D02*
Y0343814D01*
X043341Y0342723D02*
X043459D01*
X0434Y0342133D02*
Y0343314D01*
X043341Y0343723D02*
X043459D01*
X0434Y0343133D02*
Y0344314D01*
X043141Y0343723D02*
X043259D01*
X0432Y0343133D02*
Y0344314D01*
X043141Y0342723D02*
X043259D01*
X0432Y0342133D02*
Y0343314D01*
X0432409Y0342223D02*
X0433591D01*
X0433Y0341633D02*
Y0342814D01*
X043191Y0342223D02*
X043309D01*
X04325Y0341633D02*
Y0342814D01*
X0432409Y0343223D02*
X0433591D01*
X0433Y0342633D02*
Y0343814D01*
X0369409Y0341D02*
X037059D01*
X037Y0340409D02*
Y034159D01*
X040941Y02955D02*
X0410591D01*
X041Y029491D02*
Y0296091D01*
X0432267Y0316643D02*
X0433448D01*
X0432857Y0316052D02*
Y0317233D01*
X0387409Y02905D02*
X0388591D01*
X0388Y028991D02*
Y029109D01*
X0432409Y0302D02*
X0433591D01*
X0433Y030141D02*
Y030259D01*
X0418409Y02775D02*
X0419591D01*
X0419Y0276909D02*
Y0278091D01*
X0387409Y0371D02*
X0388591D01*
X0388Y0370409D02*
Y037159D01*
X038691Y037D02*
X038809D01*
X03875Y0369409D02*
Y037059D01*
X038691Y0372D02*
X038809D01*
X03875Y037141D02*
Y037259D01*
X038591Y0372D02*
X038709D01*
X03865Y037141D02*
Y037259D01*
X0386409Y0371D02*
X0387591D01*
X0387Y0370409D02*
Y037159D01*
X038491Y0372D02*
X038609D01*
X03855Y037141D02*
Y037259D01*
X0384409Y0371D02*
X0385591D01*
X0385Y0370409D02*
Y037159D01*
X038491Y037D02*
X038609D01*
X03855Y0369409D02*
Y037059D01*
X038591Y037D02*
X038709D01*
X03865Y0369409D02*
Y037059D01*
X0385409Y0371D02*
X0386591D01*
X0386Y0370409D02*
Y037159D01*
X039291Y0372D02*
X0394091D01*
X03935Y037141D02*
Y037259D01*
X041741Y03105D02*
X041859D01*
X0418Y030991D02*
Y031109D01*
X041691Y03115D02*
X041809D01*
X04175Y031091D02*
Y031209D01*
X0417909Y03115D02*
X0419091D01*
X04185Y031091D02*
Y031209D01*
X0418409Y03105D02*
X0419591D01*
X0419Y030991D02*
Y031109D01*
X0417909Y03095D02*
X0419091D01*
X04185Y030891D02*
Y031009D01*
X041691Y03095D02*
X041809D01*
X04175Y030891D02*
Y031009D01*
X0418409Y0311D02*
X0419591D01*
X0419Y0310409D02*
Y0311591D01*
X0418409Y031D02*
X0419591D01*
X0419Y0309409D02*
Y0310591D01*
X041741Y03095D02*
X041859D01*
X0418Y030891D02*
Y031009D01*
X0416409Y031D02*
X0417591D01*
X0417Y0309409D02*
Y0310591D01*
X0416409Y0311D02*
X0417591D01*
X0417Y0310409D02*
Y0311591D01*
X036491Y0347D02*
X036609D01*
X03655Y034641D02*
Y034759D01*
X041891Y0350291D02*
X042009D01*
X04195Y03497D02*
Y0350881D01*
X041141Y03505D02*
X0412591D01*
X0412Y0349909D02*
Y0351091D01*
X0390823Y0385619D02*
X0392004D01*
X0391414Y0385028D02*
Y038621D01*
X036891Y0362626D02*
X0370091D01*
X03695Y0362035D02*
Y0363216D01*
X039091Y0354633D02*
X0392091D01*
X03915Y0354043D02*
Y0355224D01*
X039591Y0356D02*
X0397091D01*
X03965Y035541D02*
Y0356591D01*
X037999Y0379108D02*
X0381565D01*
X0380777Y0378321D02*
Y0379896D01*
X0378053Y0389809D02*
X0379234D01*
X0378644Y0389219D02*
Y03904D01*
X040891Y0374D02*
X041009D01*
X04095Y037341D02*
Y037459D01*
X0396713Y0379598D02*
X0398287D01*
X03975Y037881D02*
Y0380385D01*
X0346228Y036361D02*
X0349772D01*
X0348Y0361839D02*
Y0365382D01*
X0346228Y037739D02*
X0349772D01*
X0348Y0375618D02*
Y0379161D01*
X0444228Y0369D02*
X0447772D01*
X0446Y0367228D02*
Y0370772D01*
X0424228Y0369D02*
X0427772D01*
X0426Y0367228D02*
Y0370772D01*
M02*
