G04*
G04 #@! TF.GenerationSoftware,Altium Limited,Altium Designer,21.3.2 (30)*
G04*
G04 Layer_Color=32896*
%FSTAX25Y25*%
%MOIN*%
G70*
G04*
G04 #@! TF.SameCoordinates,0A4AD645-AEA6-451A-A6B0-79CA1E045321*
G04*
G04*
G04 #@! TF.FilePolarity,Positive*
G04*
G01*
G75*
%ADD15C,0.00787*%
%ADD17C,0.00500*%
%ADD18C,0.00400*%
%ADD97C,0.00700*%
%ADD98C,0.00591*%
D15*
X0336606Y0379244D02*
G03*
X0336606Y0379244I-0000394J0D01*
G01*
X0374Y0357107D02*
Y03624D01*
Y03486D02*
Y0354056D01*
X0367Y03486D02*
Y0354056D01*
Y0357107D02*
Y03624D01*
Y03486D02*
X0374D01*
X0367Y03624D02*
X0374D01*
X0435Y0336638D02*
Y0337819D01*
Y0340575D02*
Y0341362D01*
X0433032Y0337819D02*
X0436575D01*
X0433032D02*
X0435Y0340575D01*
X0436575Y0337819D01*
X0433032Y0340575D02*
X0436969D01*
D17*
X0356449Y036087D02*
X0356842D01*
X0356449Y0376618D02*
X0356842D01*
Y036087D02*
Y0376618D01*
X0337158D02*
X0337551D01*
X0337158Y036087D02*
X0337551D01*
X0337158D02*
Y0376618D01*
D18*
X03607Y03673D02*
X03653D01*
Y03566D02*
Y03673D01*
X03607Y03566D02*
X03653D01*
X03607D02*
Y03673D01*
X03614Y03616D02*
Y03624D01*
X03646Y03616D02*
Y03624D01*
D97*
X0373187Y0354616D02*
Y0356417D01*
X0367787Y0354616D02*
Y0356417D01*
D98*
X0437657Y0329945D02*
X0438606D01*
Y0348D01*
Y03485D01*
X0436D02*
X0438606D01*
X0436Y0348D02*
Y03485D01*
Y0348D02*
X0438606D01*
X0431394D02*
X0434D01*
Y03485D01*
X0431394D02*
X0434D01*
X0431394Y0348D02*
Y03485D01*
Y0329945D02*
Y0348D01*
Y0329945D02*
X0432342D01*
M02*
