M48
;Layer_Color=9474304
;FILE_FORMAT=2:5
INCH,LZ
;TYPE=PLATED
T1F00S00C0.01181
T2F00S00C0.02800
T3F00S00C0.03150
T4F00S00C0.04331
%
T01
X0315Y02575
X0326Y02595
X03335Y0250941
X0339375Y0256375
X034525Y026025
X0348916Y0260084
X03625Y0261
X0366Y02665
X036625Y024475
X0373078Y0250153
X03805
X0386Y0256587
X0392Y0266
X04005
X03805Y02785
X03735Y0284
X0372941Y0298
X037361Y031011
X0384Y0311
Y0309
X0386
Y0307
X0388
X039
X0392
Y0309
Y0311
X039
X0388
X0386
X0388Y0309
X039
X0384Y0307
X0392Y0297
X0386387Y0288887
X04005Y03025
X0406
X04145Y02995
X0423037Y02825
X03565Y02885
X03505
X0348Y02935
X03395Y0293
X0335347Y02905
X0335Y02785
X03415Y02765
X0339Y02735
X03465
X03455Y02855
X03445Y03055
X0346767Y0309944
X0356Y0311
X03595Y0308
X0326Y03
X0318059Y0299059
X03215Y0287281
X0324Y02805
X03745Y0238
X03805Y0237
X03095Y0255
X0304Y02525
X03115Y02915
X0307937Y0325436
X0307Y03395
X0302Y03815
X031Y0388
X0336453Y0383953
X0339Y0377988
X0344Y03705
X0346
Y03685
X0348
X035
X0352
Y03705
X035
X0348
Y03665
X0346
X0344
Y03685
X035Y03665
X0352
X0363Y03705
X037Y0371047
X0376Y0377
X03495Y03845
X0364Y0354
X03625Y0342969
Y03335
X03765Y03425
X03855Y0334
X0377Y03185
X03775Y0313
X0394Y03495
X0407916Y0341707
X0409331Y0340293
X0410745Y0341707
X0412159Y0340293
X0413573Y0341707
X0412159Y0343121
X0410745Y0344536
X0409331Y0343121
X0410745Y0338879
X0412159Y0337464
X0413573Y033605
X0414987Y0337464
X0413573Y0338879
X0414987Y0340293
X0416402Y0338879
X0423Y03365
X04315Y0341
X0337Y033
X0327874Y0361126
X0318Y0363
T02
X0323Y02175
X0344686Y0214779
X0347Y0232
X0328176Y0237537
X035Y028
X0412Y02775
X0414296Y0287067
X0432367Y029733
X0443077Y0265202
X0438614Y0253823
X043Y0233
X0408718Y023709
X0402Y0215
X0443077Y021411
X0303Y02155
X03005Y02375
X02965Y0247
X02945Y03745
X0303Y0372
X03185Y0378
X0327874Y0361126
X0380821Y0368508
X03755Y03835
X0406Y03755
X04265Y0382
X04465
X0447Y0351
Y0331
T03
X03315Y022445
X03615Y02245
T04
X0393941Y0224658
Y0244342
X0451028
Y02345
Y0224658
X0447Y02815
Y02915
X0293Y02955
Y02855
Y02755
Y02655
Y03055
X03115Y02345
Y02245
X0293Y03155
Y03255
Y03355
X03235Y0342
X03335
X03435
X03535
M30
