G04*
G04 #@! TF.GenerationSoftware,Altium Limited,Altium Designer,21.3.2 (30)*
G04*
G04 Layer_Physical_Order=2*
G04 Layer_Color=16711680*
%FSTAX25Y25*%
%MOIN*%
G70*
G04*
G04 #@! TF.SameCoordinates,665701D7-0C42-49A3-A721-B3261F62B861*
G04*
G04*
G04 #@! TF.FilePolarity,Positive*
G04*
G01*
G75*
%ADD14C,0.00800*%
%ADD21C,0.02500*%
%ADD80C,0.01700*%
%ADD81C,0.03500*%
%ADD82C,0.06500*%
%ADD83C,0.06000*%
%ADD84C,0.06299*%
%ADD85R,0.06299X0.06299*%
%ADD86C,0.05906*%
%ADD87R,0.05906X0.05906*%
G04:AMPARAMS|DCode=88|XSize=122.05mil|YSize=118.11mil|CornerRadius=29.53mil|HoleSize=0mil|Usage=FLASHONLY|Rotation=0.000|XOffset=0mil|YOffset=0mil|HoleType=Round|Shape=RoundedRectangle|*
%AMROUNDEDRECTD88*
21,1,0.12205,0.05906,0,0,0.0*
21,1,0.06299,0.11811,0,0,0.0*
1,1,0.05906,0.03150,-0.02953*
1,1,0.05906,-0.03150,-0.02953*
1,1,0.05906,-0.03150,0.02953*
1,1,0.05906,0.03150,0.02953*
%
%ADD88ROUNDEDRECTD88*%
%ADD89C,0.06496*%
%ADD90R,0.09000X0.08000*%
%ADD91O,0.09000X0.08000*%
%ADD92R,0.05906X0.05906*%
%ADD93C,0.11000*%
%ADD94C,0.02362*%
%ADD95C,0.02756*%
%ADD96C,0.08000*%
%ADD97R,0.06400X0.09000*%
%ADD98R,0.12992X0.09488*%
G04:AMPARAMS|DCode=99|XSize=77.56mil|YSize=23.62mil|CornerRadius=6.38mil|HoleSize=0mil|Usage=FLASHONLY|Rotation=270.000|XOffset=0mil|YOffset=0mil|HoleType=Round|Shape=RoundedRectangle|*
%AMROUNDEDRECTD99*
21,1,0.07756,0.01087,0,0,270.0*
21,1,0.06480,0.02362,0,0,270.0*
1,1,0.01276,-0.00543,-0.03240*
1,1,0.01276,-0.00543,0.03240*
1,1,0.01276,0.00543,0.03240*
1,1,0.01276,0.00543,-0.03240*
%
%ADD99ROUNDEDRECTD99*%
%ADD100C,0.08000*%
G36*
X0406575Y0382788D02*
Y0376235D01*
X0406285Y0375856D01*
X0406Y0375169D01*
X0400236D01*
X0399958Y0375585D01*
X04001Y0375929D01*
X0400208Y0376748D01*
Y0376788D01*
X0400266Y0376832D01*
X0400887Y0377642D01*
X0401278Y0378585D01*
X0401411Y0379598D01*
X0401278Y038061D01*
X0400887Y0381553D01*
X0400266Y0382363D01*
X0400208Y0382408D01*
Y0383228D01*
X04001Y0384048D01*
X0399784Y0384811D01*
X0399281Y0385466D01*
X0399139Y0385575D01*
X0399309Y0386075D01*
X0403288D01*
X0406575Y0382788D01*
D02*
G37*
G36*
X0374567Y0389474D02*
X0373611Y0388518D01*
X0373074Y0387818D01*
X0372736Y0387003D01*
X0372621Y0386129D01*
Y0369395D01*
X0372159Y0369204D01*
X0359027Y0382336D01*
X0358037Y0383148D01*
X0356908Y0383751D01*
X0355683Y0384123D01*
X0354409Y0384249D01*
X0348327D01*
X0347053Y0384123D01*
X0345828Y0383751D01*
X0344699Y0383148D01*
X0343709Y0382336D01*
X0342897Y0381346D01*
X0342293Y0380217D01*
X0341921Y0378991D01*
X0341796Y0377717D01*
X034192Y037646D01*
X0341892Y0376428D01*
X0341434Y0376239D01*
X0333641Y0384031D01*
X0332754Y0384712D01*
X033172Y0385141D01*
X033061Y0385287D01*
X02475D01*
X0246391Y0385141D01*
X0245357Y0384712D01*
X0244469Y0384031D01*
X0235469Y0375031D01*
X0234788Y0374143D01*
X0234359Y037311D01*
X0234213Y0372D01*
Y036515D01*
X023285D01*
X0232526Y0365515D01*
Y0389974D01*
X0374359D01*
X0374567Y0389474D01*
D02*
G37*
G36*
X0443579D02*
X0443424Y0389427D01*
X0442034Y0388684D01*
X0440816Y0387684D01*
X0439816Y0386466D01*
X0439073Y0385076D01*
X0438616Y0383568D01*
X0438461Y0382D01*
X0438616Y0380432D01*
X0439073Y0378924D01*
X0439816Y0377534D01*
X0440068Y0377226D01*
Y0371692D01*
X0439966Y0371499D01*
X0439594Y0370274D01*
X0439468Y0369D01*
X0439594Y0367726D01*
X0439966Y03665D01*
X0440068Y0366308D01*
Y0357399D01*
X04375Y0354831D01*
X0437Y0355038D01*
Y03625D01*
X04256D01*
Y0357037D01*
X042525D01*
X0424141Y0356891D01*
X0423107Y0356462D01*
X0422219Y0355781D01*
X0421224Y0354787D01*
X0400102D01*
X0399785Y0355287D01*
X0399879Y0356D01*
Y03605D01*
Y0364075D01*
X0424372D01*
X0424814Y0363892D01*
X042625Y0363703D01*
X0427686Y0363892D01*
X0429024Y0364446D01*
X0430173Y0365327D01*
X0431054Y0366476D01*
X0431608Y0367814D01*
X0431798Y036925D01*
Y0378209D01*
X0431931Y0378371D01*
X0432534Y0379501D01*
X0432906Y0380726D01*
X0432982Y03815D01*
X04265D01*
Y0382D01*
D01*
Y03815D01*
X0420018D01*
X0420094Y0380726D01*
X0420466Y0379501D01*
X0420703Y0379058D01*
Y0375169D01*
X0413D01*
X0412715Y0375856D01*
X0412425Y0376235D01*
Y0384D01*
X0412325Y0384757D01*
X0412033Y0385462D01*
X0411568Y0386068D01*
X0408124Y0389512D01*
X0408316Y0389974D01*
X0443505D01*
X0443579Y0389474D01*
D02*
G37*
G36*
X0341511Y0364037D02*
X0341469Y036361D01*
X0341594Y0362336D01*
X0341966Y0361111D01*
X0342569Y0359982D01*
X0343382Y0358992D01*
X0344371Y0358179D01*
X0345061Y0357811D01*
Y035706D01*
X0345176Y0356186D01*
X0345514Y0355371D01*
X0346051Y0354671D01*
X0406343Y0294379D01*
X0406136Y0293879D01*
X0388D01*
X0387125Y0293764D01*
X0386311Y0293426D01*
X0385611Y0292889D01*
X0385074Y029219D01*
X0384736Y0291374D01*
X0384621Y02905D01*
X0384736Y0289626D01*
X0385074Y028881D01*
X0385611Y0288111D01*
X0386311Y0287574D01*
X0387125Y0287236D01*
X0388Y0287121D01*
X04145D01*
X0415375Y0287236D01*
X0416189Y0287574D01*
X0416889Y0288111D01*
X0429121Y0300343D01*
X0429621Y0300135D01*
Y02929D01*
X0417644Y0280923D01*
X0417144Y0280715D01*
X0416375Y0280125D01*
X0415785Y0279356D01*
X0415414Y0278461D01*
X0415287Y02775D01*
X0415414Y0276539D01*
X0415785Y0275644D01*
X0416375Y0274875D01*
X0417144Y0274285D01*
X0418039Y0273914D01*
X0419Y0273787D01*
X0419961Y0273914D01*
X0420856Y0274285D01*
X0421625Y0274875D01*
X0422215Y0275644D01*
X0422423Y0276144D01*
X0435389Y0289111D01*
X0435926Y0289811D01*
X0436264Y0290626D01*
X0436379Y02915D01*
Y0300538D01*
X0436544Y0300937D01*
X0437048Y0301139D01*
X0447713Y0290474D01*
Y0244061D01*
X0447298Y0243784D01*
X0447028Y0243895D01*
X0445528Y0244093D01*
X0444027Y0243895D01*
X0442629Y0243316D01*
X0441428Y0242395D01*
X0440507Y0241194D01*
X0439927Y0239796D01*
X043973Y0238295D01*
X0439927Y0236795D01*
X0440507Y0235397D01*
X0441428Y0234196D01*
X0442629Y0233274D01*
X0443483Y023292D01*
X0443549Y0232425D01*
X044307Y0232057D01*
X0442844Y0231832D01*
X0399447D01*
X0392687Y0238592D01*
X039258Y0239404D01*
X0392152Y0240438D01*
X0391471Y0241325D01*
X0390583Y0242006D01*
X038955Y0242434D01*
X0388941Y0242514D01*
Y0238295D01*
X0388441D01*
Y0237795D01*
X0384222D01*
X0384302Y0237186D01*
X038473Y0236153D01*
X0385411Y0235265D01*
X0386299Y0234585D01*
X0387332Y0234157D01*
X03876Y0234121D01*
X0395658Y0226063D01*
X0396358Y0225526D01*
X0397173Y0225189D01*
X0398047Y0225074D01*
X044295D01*
X0443384Y022474D01*
X0443692Y0224613D01*
Y0224072D01*
X0442629Y0223631D01*
X0441428Y022271D01*
X0440507Y0221509D01*
X0439927Y0220111D01*
X043973Y021861D01*
X0439927Y021711D01*
X0440507Y0215711D01*
X0441428Y0214511D01*
X0442629Y0213589D01*
X0444027Y021301D01*
X0445528Y0212813D01*
X0447028Y021301D01*
X0448426Y0213589D01*
X0449627Y0214511D01*
X0450548Y0215711D01*
X0451128Y021711D01*
X0451325Y021861D01*
X0451128Y0220111D01*
X0450548Y0221509D01*
X0449627Y022271D01*
X0448426Y0223631D01*
X0447363Y0224072D01*
Y0224613D01*
X0447668Y0224739D01*
X0449927D01*
X0451037Y0224885D01*
X0452071Y0225314D01*
X0452958Y0225995D01*
X0453512Y0226549D01*
X0453974Y0226357D01*
Y0201026D01*
X0424496D01*
X0424219Y0201442D01*
X0424462Y0202029D01*
X0424649Y0203453D01*
Y0209358D01*
X0424462Y0210782D01*
X0423913Y0212108D01*
X0423039Y0213247D01*
X04219Y0214121D01*
X0420573Y0214671D01*
X041915Y0214858D01*
X041285D01*
X0411427Y0214671D01*
X0410101Y0214121D01*
X0408961Y0213247D01*
X0408087Y0212108D01*
X0407538Y0210782D01*
X0407351Y0209358D01*
Y0203453D01*
X0407538Y0202029D01*
X0407781Y0201442D01*
X0407504Y0201026D01*
X0232526D01*
Y0287915D01*
X0232996Y0288025D01*
X0233565Y0286651D01*
X0234471Y0285471D01*
X0235651Y0284565D01*
X0237025Y0283996D01*
X02385Y0283802D01*
X0239975Y0283996D01*
X0241349Y0284565D01*
X0242529Y0285471D01*
X0243435Y0286651D01*
X0244004Y0288025D01*
X0244198Y02895D01*
X0244004Y0290975D01*
X0243435Y0292349D01*
X0242529Y0293529D01*
X0241675Y0294185D01*
Y0294815D01*
X0242089Y0295133D01*
X0254334Y0282887D01*
X0254143Y0282425D01*
X02485D01*
X0247743Y0282325D01*
X0247038Y0282033D01*
X0246432Y0281568D01*
X0241285Y0276422D01*
X0240812Y027636D01*
X0239917Y0275989D01*
X0239148Y0275399D01*
X0238558Y027463D01*
X0238187Y0273734D01*
X023806Y0272773D01*
X0238187Y0271812D01*
X0238558Y0270917D01*
X0239148Y0270148D01*
X0239917Y0269558D01*
X0240812Y0269187D01*
X0241773Y026906D01*
X0242734Y0269187D01*
X024363Y0269558D01*
X0244399Y0270148D01*
X0244989Y0270917D01*
X024536Y0271812D01*
X0245422Y0272285D01*
X0249712Y0276575D01*
X025107D01*
X025117Y0276075D01*
X0250811Y0275926D01*
X0250111Y0275389D01*
X0249574Y027469D01*
X0249236Y0273874D01*
X0249121Y0273D01*
Y022504D01*
X0249047Y0224943D01*
X0248649Y0223982D01*
X0248579Y022345D01*
X02525D01*
X0256421D01*
X0256351Y0223982D01*
X0255953Y0224943D01*
X0255879Y022504D01*
Y0269509D01*
X0256379Y0269608D01*
X0256613Y0269044D01*
X0256621Y0269033D01*
Y026246D01*
X0256736Y0261586D01*
X0257074Y0260771D01*
X0257611Y0260071D01*
X0267071Y0250611D01*
X0267771Y0250074D01*
X0268586Y0249736D01*
X026946Y0249621D01*
X0357473D01*
X0357888Y0249081D01*
X0358698Y0248459D01*
X0359641Y0248068D01*
X0359655Y0248066D01*
X0362121Y02456D01*
Y0241551D01*
X0362236Y0240677D01*
X0362574Y0239862D01*
X0363111Y0239162D01*
X0382762Y0219511D01*
X0382643Y021861D01*
X0382841Y021711D01*
X038342Y0215711D01*
X0384341Y0214511D01*
X0385542Y0213589D01*
X038694Y021301D01*
X0388441Y0212813D01*
X0389942Y021301D01*
X039134Y0213589D01*
X0392541Y0214511D01*
X0393462Y0215711D01*
X0394041Y021711D01*
X0394239Y021861D01*
X0394041Y0220111D01*
X0393462Y0221509D01*
X0392541Y022271D01*
X039134Y0223631D01*
X0389942Y022421D01*
X0388441Y0224408D01*
X038754Y0224289D01*
X0368879Y0242951D01*
Y0247D01*
X0368819Y0247455D01*
X0368994Y024792D01*
X0369226Y0247965D01*
X0370012Y0248068D01*
X0370956Y0248459D01*
X0371766Y0249081D01*
X0372387Y0249891D01*
X0372778Y0250834D01*
X0372815Y0251118D01*
X0373289Y0251279D01*
X037372Y0250848D01*
X0373722Y0250834D01*
X0374113Y0249891D01*
X0374734Y0249081D01*
X0375544Y0248459D01*
X0376488Y0248068D01*
X03775Y0247935D01*
X0378512Y0248068D01*
X0379456Y0248459D01*
X0380266Y0249081D01*
X0380887Y0249891D01*
X0381278Y0250834D01*
X0381411Y0251847D01*
X0381278Y0252859D01*
X0380887Y0253802D01*
X0380266Y0254612D01*
X0379456Y0255234D01*
X0378512Y0255625D01*
X0378499Y0255626D01*
X0372236Y0261889D01*
X0371536Y0262426D01*
X0370721Y0262764D01*
X0369847Y0262879D01*
X0360709D01*
X0360379Y0263255D01*
X0360411Y02635D01*
X0360278Y0264512D01*
X0359887Y0265456D01*
X0359266Y0266266D01*
X0359208Y026631D01*
X0359387Y0266544D01*
X0359778Y0267488D01*
X0359911Y02685D01*
X0359778Y0269512D01*
X0359387Y0270456D01*
X0358766Y0271266D01*
X0357956Y0271887D01*
X0357012Y0272278D01*
X0356Y0272411D01*
X0354988Y0272278D01*
X0354363Y027202D01*
X035408Y0272443D01*
X0356568Y0274932D01*
X0357033Y0275537D01*
X0357325Y0276243D01*
X0357425Y0277D01*
Y0307637D01*
X0358203Y0307959D01*
X0359013Y0308581D01*
X0359634Y0309391D01*
X0360025Y0310334D01*
X0360158Y0311347D01*
X0360025Y0312359D01*
X0359634Y0313302D01*
X0359013Y0314112D01*
X0358203Y0314734D01*
X0357259Y0315125D01*
X0356247Y0315258D01*
X0355379Y0315144D01*
X0354879Y0315453D01*
Y03355D01*
X0354764Y0336374D01*
X0354426Y033719D01*
X0353889Y0337889D01*
X0349389Y0342389D01*
X0348689Y0342926D01*
X0347874Y0343264D01*
X0347Y0343379D01*
X0322962D01*
X0322461Y0343586D01*
X03215Y0343713D01*
X0320539Y0343586D01*
X0320038Y0343379D01*
X03045D01*
X0303625Y0343264D01*
X0302811Y0342926D01*
X0302111Y0342389D01*
X0299957Y0340236D01*
X029942Y0339536D01*
X0299083Y0338721D01*
X0298968Y0337846D01*
Y0332808D01*
X029876Y0332307D01*
X0298638Y0331379D01*
X0289D01*
X0288125Y0331264D01*
X0287311Y0330926D01*
X0287046Y0330723D01*
X0268429Y034934D01*
X0268215Y0349856D01*
X0267625Y0350625D01*
X0266856Y0351215D01*
X0265961Y0351586D01*
X0265Y0351713D01*
X0264039Y0351586D01*
X0263144Y0351215D01*
X0262375Y0350625D01*
X0261785Y0349856D01*
X0261414Y0348961D01*
X0261287Y0348D01*
X0261414Y0347039D01*
X0261785Y0346144D01*
X0262375Y0345375D01*
X0263144Y0344785D01*
X0264039Y0344414D01*
X0265Y0344287D01*
X0265185Y0344311D01*
X0266155Y0343341D01*
X0265964Y0342879D01*
X0243028D01*
X0242529Y0343529D01*
X0241349Y0344435D01*
X0239975Y0345004D01*
X0239839Y0345022D01*
X0239772Y0345535D01*
X0240593Y0345875D01*
X0241459Y034654D01*
X0242125Y0347407D01*
X0242543Y0348417D01*
X024262Y0349D01*
X02385D01*
X023438D01*
X0234457Y0348417D01*
X0234875Y0347407D01*
X0235541Y034654D01*
X0236407Y0345875D01*
X0237228Y0345535D01*
X0237161Y0345022D01*
X0237025Y0345004D01*
X0235651Y0344435D01*
X0234471Y0343529D01*
X0233565Y0342349D01*
X0232996Y0340975D01*
X0232526Y0341085D01*
Y0353485D01*
X023285Y035385D01*
X0236853D01*
X0236952Y035335D01*
X0236407Y0353125D01*
X0235541Y035246D01*
X0234875Y0351593D01*
X0234457Y0350583D01*
X023438Y035D01*
X02385D01*
X024262D01*
X0242543Y0350583D01*
X0242125Y0351593D01*
X0241459Y035246D01*
X0240593Y0353125D01*
X0240048Y035335D01*
X0240147Y035385D01*
X024415D01*
Y036515D01*
X0242787D01*
Y0370224D01*
X0249276Y0376713D01*
X0328835D01*
X0341511Y0364037D01*
D02*
G37*
G36*
X0348327Y0371186D02*
X0351703D01*
X0362913Y0359976D01*
X0362469Y0359531D01*
X0361788Y0358643D01*
X0361359Y035761D01*
X0361213Y03565D01*
Y0349718D01*
X0360751Y0349527D01*
X035215Y0358128D01*
X0352175Y0358628D01*
X0352618Y0358992D01*
X0353431Y0359982D01*
X0354034Y0361111D01*
X0354406Y0362336D01*
X0354531Y036361D01*
X0354406Y0364884D01*
X0354034Y036611D01*
X0353431Y0367239D01*
X0352618Y0368229D01*
X0351629Y0369041D01*
X03505Y0369644D01*
X0349274Y0370016D01*
X0348Y0370142D01*
X0347573Y03701D01*
X0346849Y0370823D01*
X0347038Y0371281D01*
X034707Y0371309D01*
X0348327Y0371186D01*
D02*
G37*
G36*
X0377792Y0362126D02*
Y035726D01*
X03779Y0356441D01*
X0378216Y0355677D01*
X0378719Y0355022D01*
X0379374Y0354519D01*
X0380138Y0354203D01*
X0380957Y0354095D01*
X0382043D01*
X0382213Y0353946D01*
Y035255D01*
X0382359Y0351441D01*
X0382788Y0350407D01*
X0383469Y0349519D01*
X0385519Y0347469D01*
X0386407Y0346788D01*
X0387441Y0346359D01*
X038855Y0346213D01*
X0418237D01*
X0418391Y034615D01*
X04195Y0346004D01*
X042061Y034615D01*
X0420762Y0346213D01*
X0421831D01*
X0422023Y0345751D01*
X0421054Y0344782D01*
X037D01*
X0369707Y0344744D01*
X0369355Y0345202D01*
X0369641Y034589D01*
X0369787Y0347D01*
Y0354724D01*
X0371503Y0356441D01*
X0372Y0356592D01*
X0373129Y0357195D01*
X0374118Y0358008D01*
X0374931Y0358997D01*
X0375534Y0360126D01*
X0375906Y0361352D01*
X0376031Y0362626D01*
X0375971Y036324D01*
X0376451Y0363467D01*
X0377792Y0362126D01*
D02*
G37*
G36*
X0453974Y0377951D02*
Y0342D01*
X0445598D01*
Y0346143D01*
X0445547Y0346523D01*
Y0347187D01*
X044686Y03485D01*
X0446861Y03485D01*
X04524D01*
Y0352662D01*
X0452634Y03531D01*
X0453006Y0354326D01*
X0453131Y03556D01*
Y037747D01*
X0453184Y0377534D01*
X0453474Y0378077D01*
X0453974Y0377951D01*
D02*
G37*
G36*
X0344115Y0336121D02*
X034325Y0335763D01*
X0342111Y0334889D01*
X0341237Y033375D01*
X0340688Y0332423D01*
X03405Y0331D01*
X0340688Y0329576D01*
X0341237Y032825D01*
X0342111Y0327111D01*
X0343193Y0326281D01*
X0343224Y0326D01*
X0343193Y0325719D01*
X0342111Y0324889D01*
X0341237Y032375D01*
X0340688Y0322424D01*
X03405Y0321D01*
X0340688Y0319577D01*
X0341237Y031825D01*
X0342111Y0317111D01*
X034325Y0316237D01*
X0344577Y0315688D01*
X0346Y03155D01*
X0347424Y0315688D01*
X0347705Y0315804D01*
X0348121Y0315527D01*
Y0314941D01*
X0347621Y0314607D01*
X0347032Y0314851D01*
X03465Y0314921D01*
Y0311D01*
Y0307079D01*
X0347032Y0307149D01*
X0347621Y0307393D01*
X0348121Y0307059D01*
Y0306473D01*
X0347705Y0306196D01*
X0347424Y0306312D01*
X0346Y03065D01*
X0344577Y0306312D01*
X034325Y0305763D01*
X0342111Y0304889D01*
X034172Y0304379D01*
X03369D01*
X0334119Y0307159D01*
X0334311Y0307621D01*
X034391D01*
X0344007Y0307547D01*
X0344968Y0307149D01*
X03455Y0307079D01*
Y0311D01*
Y0314921D01*
X0344968Y0314851D01*
X0344007Y0314453D01*
X034391Y0314379D01*
X03319D01*
X0329938Y031634D01*
Y03265D01*
X0329823Y0327375D01*
X0329485Y0328189D01*
X0328948Y0328889D01*
X0327448Y0330389D01*
X0326748Y0330926D01*
X0325934Y0331264D01*
X0325059Y0331379D01*
X0306055D01*
X0305933Y0332307D01*
X0305725Y0332808D01*
Y0336447D01*
X03059Y0336621D01*
X0320038D01*
X0320539Y0336414D01*
X03215Y0336287D01*
X0322461Y0336414D01*
X0322962Y0336621D01*
X0344015D01*
X0344115Y0336121D01*
D02*
G37*
G36*
X0272114Y0333841D02*
X0271923Y0333379D01*
X0242645D01*
X0242529Y0333529D01*
X0241675Y0334185D01*
Y0334815D01*
X0242529Y0335471D01*
X0243028Y0336121D01*
X0269834D01*
X0272114Y0333841D01*
D02*
G37*
G36*
X032318Y0318752D02*
X0322718Y031856D01*
X0321889Y0319389D01*
X0321189Y0319926D01*
X0320374Y0320264D01*
X03195Y0320379D01*
X0313527D01*
X0313131Y0320879D01*
X0313213Y03215D01*
X0313086Y0322461D01*
X0312715Y0323356D01*
X0312129Y0324121D01*
X0312153Y0324313D01*
X0312257Y0324621D01*
X032318D01*
Y0318752D01*
D02*
G37*
G36*
X0277689Y0321033D02*
X0277591Y0320542D01*
X027731Y0320426D01*
X0276611Y0319889D01*
X0276074Y031919D01*
X0275736Y0318374D01*
X0275621Y03175D01*
Y0314459D01*
X0274668Y0313506D01*
X0273127D01*
X0272252Y031339D01*
X0271437Y0313053D01*
X0270737Y0312516D01*
X0270611Y0312389D01*
X0270074Y0311689D01*
X0269736Y0310875D01*
X0269621Y031D01*
X0269515Y0309879D01*
X0244148D01*
X0244004Y0310975D01*
X0243435Y0312349D01*
X0242529Y0313529D01*
X0241675Y0314185D01*
Y0314815D01*
X0242529Y0315471D01*
X0243028Y0316121D01*
X02435D01*
X0244374Y0316236D01*
X0245189Y0316574D01*
X0245889Y0317111D01*
X02524Y0323621D01*
X02751D01*
X0277689Y0321033D01*
D02*
G37*
G36*
X0440321Y032196D02*
X044147Y0321078D01*
X0442807Y0320524D01*
X044401Y0320366D01*
X0444371Y0320069D01*
X0445501Y0319466D01*
X044588Y0319351D01*
X0445981Y0318797D01*
X0445541Y031846D01*
X0444875Y0317593D01*
X0444457Y0316583D01*
X044438Y0316D01*
X04485D01*
X045262D01*
X0452543Y0316583D01*
X0452125Y0317593D01*
X045146Y031846D01*
X0451019Y0318797D01*
X045112Y0319351D01*
X04515Y0319466D01*
X0452629Y0320069D01*
X0453474Y0320763D01*
X0453974Y0320567D01*
Y0308329D01*
X0453484Y0308232D01*
X0453435Y0308349D01*
X0452529Y0309529D01*
X0451349Y0310435D01*
X0449975Y0311004D01*
X0449839Y0311022D01*
X0449772Y0311535D01*
X0450593Y0311875D01*
X045146Y0312541D01*
X0452125Y0313407D01*
X0452543Y0314417D01*
X045262Y0315D01*
X04485D01*
X044438D01*
X0444457Y0314417D01*
X0444875Y0313407D01*
X0445541Y0312541D01*
X0446407Y0311875D01*
X0447228Y0311535D01*
X0447161Y0311022D01*
X0447025Y0311004D01*
X0445651Y0310435D01*
X0444471Y0309529D01*
X0443565Y0308349D01*
X0443268Y0307632D01*
X0442778Y0307535D01*
X0437287Y0313026D01*
Y0313141D01*
X0438023Y03141D01*
X0438602Y0315499D01*
X04388Y0317D01*
Y0322828D01*
X0439262Y0323019D01*
X0440321Y032196D01*
D02*
G37*
G36*
X0308144Y0313785D02*
X0309039Y0313414D01*
X031Y0313287D01*
X0310961Y0313414D01*
X0311462Y0313621D01*
X03181D01*
X032455Y0307172D01*
X0324358Y030671D01*
X0314842D01*
X0313967Y0306595D01*
X0313446Y0306379D01*
X0304962D01*
X0304461Y0306586D01*
X0303909Y0306659D01*
Y0310142D01*
X0307808Y0314042D01*
X0308144Y0313785D01*
D02*
G37*
G36*
X0289621Y03091D02*
Y0305462D01*
X0289414Y0304961D01*
X0289287Y0304D01*
X0289414Y0303039D01*
X0289785Y0302144D01*
X0290375Y0301375D01*
X0291144Y0300785D01*
X0292039Y0300414D01*
X0293Y0300287D01*
X0293961Y0300414D01*
X0294856Y0300785D01*
X0295625Y0301375D01*
X0295959Y0301809D01*
X0296459Y0301639D01*
Y0300595D01*
X0293042Y0297179D01*
X0292416Y0297259D01*
X0292074Y0297705D01*
X0280889Y0308889D01*
X0280565Y0309138D01*
X0280521Y0309802D01*
X0281389Y031067D01*
X0281926Y031137D01*
X0282264Y0312185D01*
X0282379Y0313059D01*
Y0315689D01*
X0282841Y0315881D01*
X0289621Y03091D01*
D02*
G37*
G36*
X04272Y0339578D02*
Y0319402D01*
X0424098Y03163D01*
X0419D01*
X0417499Y0316102D01*
X04161Y0315523D01*
X0414899Y0314601D01*
X0413977Y03134D01*
X0413398Y0312001D01*
X04132Y03105D01*
X0413398Y0308999D01*
X0413977Y03076D01*
X0414899Y0306399D01*
X04161Y0305477D01*
X0417499Y0304898D01*
X0419Y03047D01*
X0423269D01*
X042346Y0304238D01*
X0414141Y0294919D01*
X0413667Y0295153D01*
X0413713Y02955D01*
X0413586Y0296461D01*
X0413215Y0297356D01*
X0412625Y0298125D01*
X0411856Y0298715D01*
X0411356Y0298923D01*
X0373523Y0336756D01*
X0373714Y0337218D01*
X042262D01*
X0423599Y0337347D01*
X0424511Y0337724D01*
X0425295Y0338326D01*
X0426738Y0339769D01*
X04272Y0339578D01*
D02*
G37*
G36*
X0268621Y0303D02*
Y0297641D01*
X026399Y029301D01*
X026078Y02898D01*
X0260243Y02891D01*
X0259906Y0288285D01*
X0259823Y0287662D01*
X0259296Y0287483D01*
X0245219Y0301559D01*
X024452Y0302096D01*
X0243705Y0302434D01*
X0243626Y0302444D01*
X0243524Y0302621D01*
X0243812Y0303121D01*
X0268515D01*
X0268621Y0303D01*
D02*
G37*
G36*
X0286306Y0293916D02*
Y0290655D01*
X0286421Y028978D01*
X0286621Y0289297D01*
Y0286962D01*
X0286414Y0286461D01*
X0286287Y02855D01*
X028607Y0285252D01*
X0266443D01*
X0266252Y0285714D01*
X0267658Y0287121D01*
X0276D01*
X0276874Y0287236D01*
X027769Y0287574D01*
X0278389Y0288111D01*
X0278926Y028881D01*
X0279264Y0289626D01*
X0279379Y02905D01*
X0279264Y0291374D01*
X0278926Y029219D01*
X0278389Y0292889D01*
X027769Y0293426D01*
X0276874Y0293764D01*
X0276Y0293879D01*
X0274975D01*
X0274754Y0294327D01*
X0274926Y0294552D01*
X0275264Y0295367D01*
X0275379Y0296241D01*
Y0303D01*
X0275485Y0303121D01*
X02771D01*
X0286306Y0293916D01*
D02*
G37*
G36*
X0321121Y02854D02*
X03106Y0274879D01*
X02835D01*
X0282626Y0274764D01*
X0282519Y027472D01*
X0282389Y0274889D01*
X0281166Y0276113D01*
X0281357Y0276575D01*
X0303031D01*
X0303788Y0276675D01*
X0304494Y0276967D01*
X03051Y0277432D01*
X0305568Y02779D01*
X0306033Y0278506D01*
X0306325Y0279212D01*
X0306425Y0279969D01*
Y0295265D01*
X0306715Y0295644D01*
X0307086Y0296539D01*
X0307213Y02975D01*
X0307086Y0298461D01*
X0306813Y0299121D01*
X0307104Y0299621D01*
X031451D01*
X0315385Y0299736D01*
X0315906Y0299952D01*
X0321121D01*
Y02854D01*
D02*
G37*
G36*
X0267639Y0276199D02*
X0267621Y0276059D01*
X0267736Y0275184D01*
X0267968Y0274624D01*
X0267558Y0274309D01*
X0267456Y0274387D01*
X0266512Y0274778D01*
X02655Y0274911D01*
X0264488Y0274778D01*
X0263544Y0274387D01*
X026275Y0273778D01*
X0261956Y0274387D01*
X0261012Y0274778D01*
X026Y0274911D01*
X0258988Y0274778D01*
X0258044Y0274387D01*
X0257234Y0273766D01*
X0256613Y0272956D01*
X0256379Y0272392D01*
X0255879Y0272491D01*
Y0273D01*
X0255764Y0273874D01*
X0255426Y027469D01*
X0254889Y0275389D01*
X0254189Y0275926D01*
X025383Y0276075D01*
X025393Y0276575D01*
X026731D01*
X0267639Y0276199D01*
D02*
G37*
G36*
X0334621Y02916D02*
Y0286496D01*
X0334736Y0285621D01*
X0335074Y0284806D01*
X0335611Y0284107D01*
X0339107Y0280611D01*
X0339806Y0280074D01*
X0340621Y0279736D01*
X0341496Y0279621D01*
X0346538D01*
X0347039Y0279414D01*
X0348Y0279287D01*
X0348961Y0279414D01*
X0349856Y0279785D01*
X0350625Y0280375D01*
X0351075Y028096D01*
X0351575Y0280791D01*
Y0278212D01*
X0344788Y0271425D01*
X0317357D01*
X0317165Y0271887D01*
X0326889Y0281611D01*
X0327426Y0282311D01*
X0327764Y0283125D01*
X0327879Y0284D01*
Y0297689D01*
X0328341Y0297881D01*
X0334621Y02916D01*
D02*
G37*
%LPC*%
G36*
X0427Y0388482D02*
Y03825D01*
X0432982D01*
X0432906Y0383274D01*
X0432534Y03845D01*
X0431931Y0385629D01*
X0431118Y0386618D01*
X0430129Y0387431D01*
X0429Y0388034D01*
X0427774Y0388406D01*
X0427Y0388482D01*
D02*
G37*
G36*
X0426D02*
X0425226Y0388406D01*
X0424001Y0388034D01*
X0422871Y0387431D01*
X0421882Y0386618D01*
X0421069Y0385629D01*
X0420466Y03845D01*
X0420094Y0383274D01*
X0420018Y03825D01*
X0426D01*
Y0388482D01*
D02*
G37*
G36*
X041915Y0258953D02*
X041285D01*
X0411427Y0258765D01*
X0410101Y0258216D01*
X0408961Y0257342D01*
X0408087Y0256203D01*
X0407538Y0254876D01*
X0407351Y0253453D01*
Y0247547D01*
X0407538Y0246124D01*
X0408087Y0244797D01*
X0408961Y0243658D01*
X0410101Y0242784D01*
X0411427Y0242235D01*
X041285Y0242047D01*
X041915D01*
X0420573Y0242235D01*
X04219Y0242784D01*
X0423039Y0243658D01*
X0423913Y0244797D01*
X0424462Y0246124D01*
X0424649Y0247547D01*
Y0253453D01*
X0424462Y0254876D01*
X0423913Y0256203D01*
X0423039Y0257342D01*
X04219Y0258216D01*
X0420573Y0258765D01*
X041915Y0258953D01*
D02*
G37*
G36*
X0387941Y0242514D02*
X0387332Y0242434D01*
X0386299Y0242006D01*
X0385411Y0241325D01*
X038473Y0240438D01*
X0384302Y0239404D01*
X0384222Y0238795D01*
X0387941D01*
Y0242514D01*
D02*
G37*
G36*
X0256421Y022245D02*
X0253D01*
Y0219029D01*
X0253532Y0219099D01*
X0254493Y0219497D01*
X0255319Y0220131D01*
X0255953Y0220957D01*
X0256351Y0221918D01*
X0256421Y022245D01*
D02*
G37*
G36*
X0252D02*
X0248579D01*
X0248649Y0221918D01*
X0249047Y0220957D01*
X0249681Y0220131D01*
X0250507Y0219497D01*
X0251468Y0219099D01*
X0252Y0219029D01*
Y022245D01*
D02*
G37*
G36*
X0287953Y0228453D02*
X0277047D01*
Y0217547D01*
X0287953D01*
Y0228453D01*
D02*
G37*
G36*
X0306Y0226198D02*
X0304525Y0226004D01*
X0303151Y0225435D01*
X0301971Y0224529D01*
X0301065Y0223349D01*
X0300496Y0221975D01*
X0300302Y02205D01*
X0300496Y0219025D01*
X0301065Y0217651D01*
X0301971Y0216471D01*
X0303151Y0215565D01*
X0304154Y021515D01*
X0304054Y021465D01*
X030185D01*
Y0211D01*
X0306D01*
X031015D01*
Y021465D01*
X0307946D01*
X0307846Y021515D01*
X0308849Y0215565D01*
X0310029Y0216471D01*
X0310935Y0217651D01*
X0311504Y0219025D01*
X0311698Y02205D01*
X0311504Y0221975D01*
X0310935Y0223349D01*
X0310029Y0224529D01*
X0308849Y0225435D01*
X0307475Y0226004D01*
X0306Y0226198D01*
D02*
G37*
G36*
X031015Y021D02*
X03065D01*
Y020635D01*
X031015D01*
Y021D01*
D02*
G37*
G36*
X03055D02*
X030185D01*
Y020635D01*
X03055D01*
Y021D01*
D02*
G37*
%LPD*%
D14*
X03545Y0277D02*
Y0309448D01*
X0356247Y0311195D02*
Y0311347D01*
X03545Y0309448D02*
X0356247Y0311195D01*
X0346Y02685D02*
X03545Y0277D01*
X03035Y0279969D02*
Y02975D01*
X0241773Y0272773D02*
X02485Y02795D01*
X0303031D01*
X03035Y0279969D01*
X0303028Y02685D02*
X0346D01*
X0303Y0268472D02*
X0303028Y02685D01*
X0265Y0348D02*
X0265633D01*
X0288014Y0325619D01*
X0290088D01*
X0290579Y0325129D01*
X0303551D01*
X0299384Y0312016D02*
X03055Y0318133D01*
Y032318D01*
X0303551Y0325129D02*
X03055Y032318D01*
X0299384Y0299384D02*
Y0312016D01*
X0300984Y0311354D02*
X0309201Y0319571D01*
Y0321201D02*
X03095Y03215D01*
X0300984Y0282016D02*
Y0311354D01*
X0309201Y0319571D02*
Y0321201D01*
X0292516Y0292516D02*
X0299384Y0299384D01*
X0300984Y0281984D02*
X0301Y0282D01*
X0300984Y0282016D02*
X0301Y0282D01*
X0389Y0389D02*
X04045D01*
X04095Y0374D02*
Y0384D01*
X04045Y0389D02*
X04095Y0384D01*
X03865Y03865D02*
X0389Y0389D01*
X0391414Y0385619D02*
X0391457Y0385576D01*
Y0380031D02*
X03915Y0379988D01*
X03865D02*
Y03865D01*
X0391457Y0380031D02*
Y0385576D01*
D21*
X042262Y0341D02*
X043012Y03485D01*
X0439015D01*
X037Y0341D02*
X042262D01*
D80*
X0433Y0309D02*
Y031125D01*
X028Y02635D02*
Y0268D01*
X03245Y0284D02*
Y03005D01*
X0312Y02715D02*
X03245Y0284D01*
X0327669Y0303331D02*
X0338Y0293D01*
X0314842Y0303331D02*
X0327669D01*
X03035Y0303D02*
X031451D01*
X0314842Y0303331D01*
X0306Y02715D02*
X0312D01*
X0338Y0286496D02*
Y0293D01*
X0341496Y0283D02*
X0348D01*
X0338Y0286496D02*
X0341496Y0283D01*
X031Y0317D02*
X03195D01*
X03355Y0301D02*
X0346D01*
X03195Y0317D02*
X03355Y0301D01*
X0326559Y0314941D02*
Y03265D01*
Y0314941D02*
X03305Y0311D01*
X0346D01*
X028Y0268D02*
Y02725D01*
X0276441Y0276059D02*
X028Y02725D01*
X0271Y0276059D02*
X0276441D01*
X028Y0268D02*
X02835Y02715D01*
X0306D01*
X0276068Y0310127D02*
X0279Y0313059D01*
X0273Y031D02*
X0273127Y0310127D01*
X0276068D01*
X0279Y0313059D02*
Y03175D01*
X02785Y03065D02*
X0289685Y0295315D01*
X0238795Y03095D02*
X0241795Y03065D01*
X02785D01*
X02385Y03095D02*
X0238795D01*
X0288233Y03225D02*
X03D01*
X02385Y03395D02*
X0271234D01*
X0288233Y03225D01*
X03D02*
X0303Y03195D01*
X0287536D02*
X02965D01*
X0298Y0318D01*
X0289Y0328D02*
X0325059D01*
X0326559Y03265D01*
X0302346Y0331347D02*
Y0337846D01*
X0289685Y0290655D02*
X029Y029034D01*
Y02855D02*
Y029034D01*
X0289685Y0290655D02*
Y0295315D01*
X02525Y022295D02*
Y0273D01*
X026Y026246D02*
X026946Y0253D01*
X026Y026246D02*
Y0271D01*
X024283Y029917D02*
X0260127Y0281873D01*
X0293878D01*
X02385Y02995D02*
X023883Y029917D01*
X024283D01*
X03215Y034D02*
X0347D01*
X03515Y03355D01*
Y02965D02*
Y03355D01*
X0346Y0291D02*
X03515Y02965D01*
X0293878Y0281873D02*
X0294873Y0282869D01*
Y0284373D01*
X0295Y02845D01*
X0266379Y029062D02*
X0272Y0296241D01*
Y0303D01*
X0293Y0304D02*
Y03105D01*
X02765Y0327D02*
X0293Y03105D01*
X0239Y033D02*
X0277035D01*
X0287536Y03195D01*
X0251Y0327D02*
X02765D01*
X0302346Y0337846D02*
X03045Y034D01*
X0266379Y029062D02*
X02665Y02905D01*
X0263169Y028741D02*
X0266379Y029062D01*
X02665Y02905D02*
X0276D01*
X02385Y03195D02*
X02435D01*
X0251Y0327D01*
X02385Y03295D02*
X0239Y033D01*
X03045Y034D02*
X03215D01*
X0297126Y0268374D02*
X0301Y02645D01*
X0351714D01*
X0355714Y02685D01*
X0356476Y02635D02*
X03565D01*
X0291375Y0266559D02*
X0295934Y0262D01*
X0354976D01*
X0356476Y02635D01*
X0355714Y02685D02*
X0356D01*
X0271Y02655D02*
X0277Y02595D01*
X0271Y02655D02*
Y0271D01*
X0277Y02595D02*
X0369847D01*
X03775Y0251847D01*
X0364846Y0256D02*
X0369Y0251847D01*
X02735Y0256D02*
X0364846D01*
X02655Y0264D02*
X02735Y0256D01*
X0359214Y0253D02*
X0360368Y0251847D01*
X0360653D01*
X026946Y0253D02*
X0359214D01*
X0360653Y0251847D02*
X03655Y0247D01*
X02655Y0264D02*
Y0271D01*
X03655Y0241551D02*
Y0247D01*
Y0241551D02*
X0388441Y021861D01*
Y0238059D02*
X0398047Y0228453D01*
X0388441Y0238059D02*
Y0238295D01*
X0398047Y0228453D02*
X0445528D01*
X0439015Y03485D02*
X0441Y0350485D01*
X034844Y035706D02*
Y0363171D01*
Y035706D02*
X041Y02955D01*
X0348Y036361D02*
X034844Y0363171D01*
X04145Y02905D02*
X0433Y0309D01*
X0388Y02905D02*
X04145D01*
X0433Y02915D02*
Y0302D01*
X0419Y02775D02*
X0433Y02915D01*
X03915Y0354633D02*
Y03605D01*
X03965Y0356D02*
Y03605D01*
X03815D02*
Y0363197D01*
X0376Y0368697D02*
X03815Y0363197D01*
X0376Y0368697D02*
Y0386129D01*
X0378596Y0388725D02*
Y0388809D01*
X0376Y0386129D02*
X0378596Y0388725D01*
X0394646Y036635D02*
X039615D01*
X03965Y0366D01*
X03945Y0366496D02*
Y0369622D01*
Y0366496D02*
X0394646Y036635D01*
X03965Y03605D02*
Y0366D01*
D81*
X0425378Y0369622D02*
X0426Y0369D01*
X0445528Y0228453D02*
X0446101Y0229026D01*
X0449927D02*
X0452Y0231099D01*
X0446101Y0229026D02*
X0449927D01*
X0452Y0231099D02*
Y029225D01*
X0433Y031125D02*
X0434125Y0310125D01*
X0452Y029225D01*
X0433Y0316643D02*
Y0317D01*
Y031125D02*
Y0316643D01*
X03655Y03565D02*
X03695Y03605D01*
X02385Y03595D02*
Y0372D01*
X02475Y0381D02*
X0319D01*
X02385Y0372D02*
X02475Y0381D01*
X0319D02*
X033061D01*
X0348Y036361D01*
X042525Y035275D02*
X042985D01*
X04195Y03505D02*
X0423D01*
X042525Y035275D01*
X042985D02*
X04313Y03542D01*
Y03555D01*
X03655Y0347D02*
Y03565D01*
X0412Y03505D02*
X04195D01*
X038855D02*
X0412D01*
X04195Y0350291D02*
Y03505D01*
X0348Y037739D02*
X0348327Y0377717D01*
X03865Y035255D02*
Y03605D01*
Y035255D02*
X038855Y03505D01*
X042625Y038175D02*
X04265Y0382D01*
X0426Y0369D02*
X042625Y036925D01*
X04466Y03556D02*
X04467Y03555D01*
X04465Y0382D02*
X04466Y03819D01*
D82*
X04265Y03105D02*
X0433Y0317D01*
Y0342223D02*
Y0343223D01*
X0419Y03105D02*
X04265D01*
X0433Y0317D02*
Y0341723D01*
D83*
X03945Y0369622D02*
X0425378D01*
X0447459Y03255D02*
X04485D01*
X0444243Y0325883D02*
X0447076D01*
X0447459Y03255D01*
X044Y0346193D02*
Y0349485D01*
Y0346193D02*
X044005Y0346143D01*
Y0330076D02*
X0444243Y0325883D01*
X044005Y0330076D02*
Y0346143D01*
X0444515Y0354D02*
X04465D01*
X0441Y0350485D02*
X0444515Y0354D01*
X04467Y03542D02*
Y03555D01*
X04465Y0354D02*
X04467Y03542D01*
X042625Y036925D02*
Y038175D01*
D84*
X02385Y02895D02*
D03*
Y02995D02*
D03*
Y03095D02*
D03*
Y03195D02*
D03*
Y03295D02*
D03*
Y03395D02*
D03*
Y03495D02*
D03*
X0306Y02205D02*
D03*
X04485Y03155D02*
D03*
Y03055D02*
D03*
D85*
X02385Y03595D02*
D03*
X0306Y02105D02*
D03*
D86*
X0346Y0331D02*
D03*
Y0321D02*
D03*
Y0311D02*
D03*
Y0301D02*
D03*
X02525Y022295D02*
D03*
D87*
X0346Y0291D02*
D03*
D88*
X0416Y02505D02*
D03*
Y0206405D02*
D03*
D89*
X0388441Y0238295D02*
D03*
Y021861D02*
D03*
X0445528Y0238295D02*
D03*
Y0228453D02*
D03*
Y021861D02*
D03*
D90*
X04485Y03355D02*
D03*
D91*
Y03255D02*
D03*
D92*
X02825Y0223D02*
D03*
D93*
X04265Y0382D02*
D03*
X04465D02*
D03*
D94*
X0368Y0363626D02*
D03*
X03685Y0362626D02*
D03*
X03675D02*
D03*
X0367Y0363626D02*
D03*
X03675Y0364626D02*
D03*
X0369Y0363626D02*
D03*
X03685Y0364626D02*
D03*
X03695D02*
D03*
Y0362626D02*
D03*
X037Y0363626D02*
D03*
X028Y02635D02*
D03*
X03245Y03005D02*
D03*
X0271Y0276059D02*
D03*
X0306Y02715D02*
D03*
X0273Y031D02*
D03*
X0279Y03175D02*
D03*
X0265Y0348D02*
D03*
X0303Y03195D02*
D03*
X0298Y0318D02*
D03*
X0303551Y0325129D02*
D03*
X0302346Y0331347D02*
D03*
X0292516Y0292516D02*
D03*
X02525Y0273D02*
D03*
X0241773Y0272773D02*
D03*
X03035Y02975D02*
D03*
X0348Y0283D02*
D03*
X03035Y0303D02*
D03*
X031Y0317D02*
D03*
X0295Y02845D02*
D03*
X029Y02855D02*
D03*
X0289Y0328D02*
D03*
X03095Y03215D02*
D03*
X0276Y02905D02*
D03*
X0326559Y03265D02*
D03*
X0293Y0304D02*
D03*
X03215Y034D02*
D03*
X0300984Y0281984D02*
D03*
X04335Y0344223D02*
D03*
X04325D02*
D03*
X04335Y0342223D02*
D03*
X0434Y0343223D02*
D03*
Y0342723D02*
D03*
Y0343723D02*
D03*
X0432D02*
D03*
Y0342723D02*
D03*
X0433Y0342223D02*
D03*
X04325D02*
D03*
X0433Y0343223D02*
D03*
X037Y0341D02*
D03*
X041Y02955D02*
D03*
X0432857Y0316643D02*
D03*
X0388Y02905D02*
D03*
X0433Y0302D02*
D03*
X0419Y02775D02*
D03*
X0388Y0371D02*
D03*
X03875Y037D02*
D03*
Y0372D02*
D03*
X03865D02*
D03*
X0387Y0371D02*
D03*
X03855Y0372D02*
D03*
X0385Y0371D02*
D03*
X03855Y037D02*
D03*
X03865D02*
D03*
X0386Y0371D02*
D03*
X03935Y0372D02*
D03*
X0418Y03105D02*
D03*
X04175Y03115D02*
D03*
X04185D02*
D03*
X0419Y03105D02*
D03*
X04185Y03095D02*
D03*
X04175D02*
D03*
X0419Y0311D02*
D03*
Y031D02*
D03*
X0418Y03095D02*
D03*
X0417Y031D02*
D03*
Y0311D02*
D03*
X03655Y0347D02*
D03*
X04195Y0350291D02*
D03*
X0412Y03505D02*
D03*
X0391414Y0385619D02*
D03*
X03695Y0362626D02*
D03*
X03915Y0354633D02*
D03*
X03965Y0356D02*
D03*
X0378644Y0389809D02*
D03*
X04095Y0374D02*
D03*
D95*
X0303Y0268472D02*
D03*
X0263169Y028741D02*
D03*
X0272Y0303D02*
D03*
X0291375Y0266559D02*
D03*
X0356247Y0311347D02*
D03*
X0297126Y0268374D02*
D03*
X0356Y02685D02*
D03*
X03565Y02635D02*
D03*
X026Y0271D02*
D03*
X0360653Y0251847D02*
D03*
X02655Y0271D02*
D03*
X0369Y0251847D02*
D03*
X0271Y0271D02*
D03*
X03775Y0251847D02*
D03*
X0319Y0381D02*
D03*
X0380777Y0379108D02*
D03*
X03975Y0379598D02*
D03*
D96*
X0348Y036361D02*
D03*
Y037739D02*
D03*
X0446Y0369D02*
D03*
X0426D02*
D03*
D97*
X04313Y03555D02*
D03*
X04467D02*
D03*
D98*
X0389Y0370244D02*
D03*
D99*
X03815Y03605D02*
D03*
X03865D02*
D03*
X03915D02*
D03*
X03965D02*
D03*
Y0379988D02*
D03*
X03915D02*
D03*
X03865D02*
D03*
X03815D02*
D03*
D100*
X0354409Y0377717D02*
X03695Y0362626D01*
X04466Y03556D02*
Y03819D01*
X0348327Y0377717D02*
X0354409D01*
M02*
