G04*
G04 #@! TF.GenerationSoftware,Altium Limited,Altium Designer,21.3.2 (30)*
G04*
G04 Layer_Color=128*
%FSTAX25Y25*%
%MOIN*%
G70*
G04*
G04 #@! TF.SameCoordinates,0A4AD645-AEA6-451A-A6B0-79CA1E045321*
G04*
G04*
G04 #@! TF.FilePolarity,Positive*
G04*
G01*
G75*
%ADD100C,0.00200*%
D100*
X0444835Y02915D02*
X0449165D01*
X0447Y0289335D02*
Y0293665D01*
X0444835Y02815D02*
X0449165D01*
X0447Y0279335D02*
Y0283665D01*
X0321335Y0342D02*
X0325665D01*
X03235Y0339835D02*
Y0344165D01*
X0331335Y0342D02*
X0335665D01*
X03335Y0339835D02*
Y0344165D01*
X0341335Y0342D02*
X0345665D01*
X03435Y0339835D02*
Y0344165D01*
X0351335Y0342D02*
X0355665D01*
X03535Y0339835D02*
Y0344165D01*
X0290835Y02655D02*
X0295165D01*
X0293Y0263335D02*
Y0267665D01*
X0290835Y02755D02*
X0295165D01*
X0293Y0273335D02*
Y0277665D01*
X0290835Y02855D02*
X0295165D01*
X0293Y0283335D02*
Y0287665D01*
X0290835Y02955D02*
X0295165D01*
X0293Y0293335D02*
Y0297665D01*
X0290835Y03055D02*
X0295165D01*
X0293Y0303335D02*
Y0307665D01*
X0290835Y03155D02*
X0295165D01*
X0293Y0313335D02*
Y0317665D01*
X0290835Y03255D02*
X0295165D01*
X0293Y0323335D02*
Y0327665D01*
X0290835Y03355D02*
X0295165D01*
X0293Y0333335D02*
Y0337665D01*
X0309335Y02345D02*
X0313665D01*
X03115Y0232335D02*
Y0236665D01*
X0309335Y02245D02*
X0313665D01*
X03115Y0222335D02*
Y0226665D01*
X0417563Y0256547D02*
X0425437D01*
X04215Y025261D02*
Y0260484D01*
X0417563Y0212453D02*
X0425437D01*
X04215Y0208516D02*
Y021639D01*
X0391776Y0244342D02*
X0396106D01*
X0393941Y0242177D02*
Y0246508D01*
X0391776Y0224658D02*
X0396106D01*
X0393941Y0222492D02*
Y0226823D01*
X0448862Y0244342D02*
X0453193D01*
X0451028Y0242177D02*
Y0246508D01*
X0448862Y02345D02*
X0453193D01*
X0451028Y0232335D02*
Y0236665D01*
X0448862Y0224658D02*
X0453193D01*
X0451028Y0222492D02*
Y0226823D01*
X0359925Y02245D02*
X0363075D01*
X03615Y0222925D02*
Y0226075D01*
X0329925Y022445D02*
X0333075D01*
X03315Y0222875D02*
Y0226025D01*
X0326776Y0237537D02*
X0329576D01*
X0328176Y0236137D02*
Y0238936D01*
X0343286Y0214779D02*
X0346086D01*
X0344686Y021338D02*
Y0216179D01*
X0441677Y021411D02*
X0444477D01*
X0443077Y021271D02*
Y021551D01*
X0407318Y023709D02*
X0410118D01*
X0408718Y023569D02*
Y023849D01*
X0437214Y0253823D02*
X0440014D01*
X0438614Y0252424D02*
Y0255223D01*
X0441677Y0265202D02*
X0444477D01*
X0443077Y0263802D02*
Y0266602D01*
X0430967Y029733D02*
X0433767D01*
X0432367Y029593D02*
Y029873D01*
X0412896Y0287067D02*
X0415696D01*
X0414296Y0285667D02*
Y0288467D01*
X04106Y02775D02*
X04134D01*
X0412Y02761D02*
Y02789D01*
X03171Y0378D02*
X03199D01*
X03185Y03766D02*
Y03794D01*
X0326474Y0361126D02*
X0329274D01*
X0327874Y0359726D02*
Y0362526D01*
X0379421Y0368508D02*
X0382221D01*
X0380821Y0367108D02*
Y0369908D01*
X03016Y0372D02*
X03044D01*
X0303Y03706D02*
Y03734D01*
X03486Y028D02*
X03514D01*
X035Y02786D02*
Y02814D01*
X02931Y03745D02*
X02959D01*
X02945Y03731D02*
Y03759D01*
X03741Y03835D02*
X03769D01*
X03755Y03821D02*
Y03849D01*
X04046Y03755D02*
X04074D01*
X0406Y03741D02*
Y03769D01*
X04006Y0215D02*
X04034D01*
X0402Y02136D02*
Y02164D01*
X04286Y0233D02*
X04314D01*
X043Y02316D02*
Y02344D01*
X03456Y0232D02*
X03484D01*
X0347Y02306D02*
Y02334D01*
X03216Y02175D02*
X03244D01*
X0323Y02161D02*
Y02189D01*
X03016Y02155D02*
X03044D01*
X0303Y02141D02*
Y02169D01*
X02991Y02375D02*
X03019D01*
X03005Y02361D02*
Y02389D01*
X02951Y0247D02*
X02979D01*
X02965Y02456D02*
Y02484D01*
X034741Y03685D02*
X034859D01*
X0348Y036791D02*
Y0369091D01*
X034941Y03685D02*
X035059D01*
X035Y036791D02*
Y0369091D01*
X0343409Y03665D02*
X034459D01*
X0344Y036591D02*
Y0367091D01*
X035141Y03705D02*
X035259D01*
X0352Y036991D02*
Y0371091D01*
X035141Y03685D02*
X035259D01*
X0352Y036791D02*
Y0369091D01*
X0345409Y03705D02*
X034659D01*
X0346Y036991D02*
Y0371091D01*
X0343409Y03685D02*
X034459D01*
X0344Y036791D02*
Y0369091D01*
X034941Y03705D02*
X035059D01*
X035Y036991D02*
Y0371091D01*
X035141Y03665D02*
X035259D01*
X0352Y036591D02*
Y0367091D01*
X0345409Y03685D02*
X034659D01*
X0346Y036791D02*
Y0369091D01*
X034741Y03705D02*
X034859D01*
X0348Y036991D02*
Y0371091D01*
X0343409Y03705D02*
X034459D01*
X0344Y036991D02*
Y0371091D01*
X034741Y03665D02*
X034859D01*
X0348Y036591D02*
Y0367091D01*
X0345409Y03665D02*
X034659D01*
X0346Y036591D02*
Y0367091D01*
X034941Y03665D02*
X035059D01*
X035Y036591D02*
Y0367091D01*
X0355909Y02885D02*
X035709D01*
X03565Y028791D02*
Y028909D01*
X0379909Y0237D02*
X038109D01*
X03805Y0236409D02*
Y0237591D01*
X0363409Y0354D02*
X0364591D01*
X0364Y035341D02*
Y0354591D01*
X0334409Y02785D02*
X0335591D01*
X0335Y0277909D02*
Y027909D01*
X032341Y02805D02*
X032459D01*
X0324Y0279909D02*
Y028109D01*
X032091Y0287281D02*
X0322091D01*
X03215Y028669D02*
Y0287872D01*
X0372909Y0284D02*
X0374091D01*
X03735Y028341D02*
Y0284591D01*
X0373909Y0238D02*
X0375091D01*
X03745Y0237409D02*
Y0238591D01*
X0307346Y0325436D02*
X0308527D01*
X0307937Y0324846D02*
Y0326027D01*
X0336409Y033D02*
X0337591D01*
X0337Y032941D02*
Y0330591D01*
X035541Y0311D02*
X0356591D01*
X0356Y0310409D02*
Y0311591D01*
X0334756Y02905D02*
X0335937D01*
X0335347Y028991D02*
Y029109D01*
X0314409Y02575D02*
X0315591D01*
X0315Y0256909D02*
Y025809D01*
X030891Y0255D02*
X031009D01*
X03095Y025441D02*
Y0255591D01*
X030341Y02525D02*
X0304591D01*
X0304Y0251909D02*
Y0253091D01*
X0365659Y024475D02*
X0366841D01*
X036625Y024416D02*
Y024534D01*
X0372488Y0250153D02*
X0373669D01*
X0373078Y0249563D02*
Y0250744D01*
X0379909Y0250153D02*
X038109D01*
X03805Y0249563D02*
Y0250744D01*
X036191Y03335D02*
X036309D01*
X03625Y0332909D02*
Y033409D01*
X0376909Y0313D02*
X0378091D01*
X03775Y0312409D02*
Y0313591D01*
X0385797Y0288887D02*
X0386978D01*
X0386387Y0288297D02*
Y0289478D01*
X0379909Y02785D02*
X038109D01*
X03805Y0277909D02*
Y027909D01*
X0365409Y02665D02*
X036659D01*
X0366Y026591D02*
Y0267091D01*
X0348325Y0260084D02*
X0349506D01*
X0348916Y0259494D02*
Y0260675D01*
X036191Y0261D02*
X036309D01*
X03625Y0260409D02*
Y0261591D01*
X034591Y02735D02*
X0347091D01*
X03465Y0272909D02*
Y0274091D01*
X037235Y0298D02*
X0373532D01*
X0372941Y029741D02*
Y029859D01*
X035891Y0308D02*
X036009D01*
X03595Y030741D02*
Y0308591D01*
X037302Y031011D02*
X0374201D01*
X037361Y030952D02*
Y0310701D01*
X0375909Y03425D02*
X0377091D01*
X03765Y034191D02*
Y0343091D01*
X036191Y0342969D02*
X036309D01*
X03625Y0342378D02*
Y034356D01*
X037641Y03185D02*
X037759D01*
X0377Y031791D02*
Y0319091D01*
X032541Y03D02*
X032659D01*
X0326Y029941D02*
Y030059D01*
X0317469Y0299059D02*
X031865D01*
X0318059Y0298468D02*
Y029965D01*
X031091Y02915D02*
X031209D01*
X03115Y029091D02*
Y0292091D01*
X034091Y02765D02*
X0342091D01*
X03415Y0275909D02*
Y0277091D01*
X0349909Y02885D02*
X0351091D01*
X03505Y028791D02*
Y028909D01*
X034491Y02855D02*
X0346091D01*
X03455Y028491D02*
Y028609D01*
X034741Y02935D02*
X034859D01*
X0348Y029291D02*
Y0294091D01*
X0338409Y02735D02*
X0339591D01*
X0339Y0272909D02*
Y0274091D01*
X033891Y0293D02*
X034009D01*
X03395Y0292409D02*
Y029359D01*
X0346176Y0309944D02*
X0347357D01*
X0346767Y0309353D02*
Y0310534D01*
X034391Y03055D02*
X0345091D01*
X03445Y0304909D02*
Y030609D01*
X0332909Y0250941D02*
X033409D01*
X03335Y025035D02*
Y0251532D01*
X032541Y02595D02*
X032659D01*
X0326Y025891D02*
Y026009D01*
X0391409Y0266D02*
X039259D01*
X0392Y0265409D02*
Y026659D01*
X0399909Y0266D02*
X040109D01*
X04005Y0265409D02*
Y026659D01*
X0391409Y0297D02*
X039259D01*
X0392Y029641D02*
Y029759D01*
X0344659Y026025D02*
X0345841D01*
X034525Y025966D02*
Y0260841D01*
X0338785Y0256375D02*
X0339966D01*
X0339375Y0255785D02*
Y0256965D01*
X030641Y03395D02*
X0307591D01*
X0307Y033891D02*
Y034009D01*
X0385409Y0256587D02*
X0386591D01*
X0386Y0255996D02*
Y0257178D01*
X0413909Y02995D02*
X0415091D01*
X04145Y0298909D02*
Y0300091D01*
X0422447Y02825D02*
X0423628D01*
X0423037Y0281909D02*
Y028309D01*
X0399909Y03025D02*
X040109D01*
X04005Y0301909D02*
Y0303091D01*
X0405409Y03025D02*
X0406591D01*
X0406Y0301909D02*
Y0303091D01*
X0422409Y03365D02*
X0423591D01*
X0423Y033591D02*
Y033709D01*
X0430909Y0341D02*
X0432091D01*
X04315Y0340409D02*
Y034159D01*
X030141Y03815D02*
X030259D01*
X0302Y0380909D02*
Y038209D01*
X0327284Y0361126D02*
X0328465D01*
X0327874Y0360535D02*
Y0361717D01*
X038491Y0334D02*
X038609D01*
X03855Y033341D02*
Y0334591D01*
X0414397Y0340293D02*
X0415578D01*
X0414987Y0339702D02*
Y0340883D01*
X0411568Y0343121D02*
X0412749D01*
X0412159Y0342531D02*
Y0343712D01*
X040874Y0340293D02*
X0409921D01*
X0409331Y0339702D02*
Y0340883D01*
X0410154Y0341707D02*
X0411335D01*
X0410745Y0341117D02*
Y0342298D01*
X0412983Y033605D02*
X0414164D01*
X0413573Y033546D02*
Y0336641D01*
X0410154Y0344536D02*
X0411335D01*
X0410745Y0343945D02*
Y0345126D01*
X0414397Y0337464D02*
X0415578D01*
X0414987Y0336874D02*
Y0338055D01*
X0412983Y0341707D02*
X0414164D01*
X0413573Y0341117D02*
Y0342298D01*
X0411568Y0337464D02*
X0412749D01*
X0412159Y0336874D02*
Y0338055D01*
X0411568Y0340293D02*
X0412749D01*
X0412159Y0339702D02*
Y0340883D01*
X0410154Y0338879D02*
X0411335D01*
X0410745Y0338288D02*
Y0339469D01*
X0407326Y0341707D02*
X0408507D01*
X0407916Y0341117D02*
Y0342298D01*
X040874Y0343121D02*
X0409921D01*
X0409331Y0342531D02*
Y0343712D01*
X0412983Y0338879D02*
X0414164D01*
X0413573Y0338288D02*
Y0339469D01*
X0415811Y0338879D02*
X0416992D01*
X0416402Y0338288D02*
Y0339469D01*
X0389409Y0307D02*
X0390591D01*
X039Y030641D02*
Y0307591D01*
X0385409Y0307D02*
X0386591D01*
X0386Y030641D02*
Y0307591D01*
X0387409Y0307D02*
X0388591D01*
X0388Y030641D02*
Y0307591D01*
X038341Y0311D02*
X0384591D01*
X0384Y0310409D02*
Y0311591D01*
X0387409Y0311D02*
X0388591D01*
X0388Y0310409D02*
Y0311591D01*
X0385409Y0309D02*
X0386591D01*
X0386Y030841D02*
Y0309591D01*
X0391409Y0307D02*
X039259D01*
X0392Y030641D02*
Y0307591D01*
X0389409Y0311D02*
X0390591D01*
X039Y0310409D02*
Y0311591D01*
X038341Y0309D02*
X0384591D01*
X0384Y030841D02*
Y0309591D01*
X0385409Y0311D02*
X0386591D01*
X0386Y0310409D02*
Y0311591D01*
X0391409Y0309D02*
X039259D01*
X0392Y030841D02*
Y0309591D01*
X0391409Y0311D02*
X039259D01*
X0392Y0310409D02*
Y0311591D01*
X038341Y0307D02*
X0384591D01*
X0384Y030641D02*
Y0307591D01*
X0389409Y0309D02*
X0390591D01*
X039Y030841D02*
Y0309591D01*
X0387409Y0309D02*
X0388591D01*
X0388Y030841D02*
Y0309591D01*
X037541Y0377D02*
X037659D01*
X0376Y037641D02*
Y037759D01*
X04251Y0382D02*
X04279D01*
X04265Y03806D02*
Y03834D01*
X0309409Y0388D02*
X0310591D01*
X031Y0387409D02*
Y0388591D01*
X0317409Y0363D02*
X031859D01*
X0318Y0362409D02*
Y0363591D01*
X0335862Y0383953D02*
X0337043D01*
X0336453Y0383362D02*
Y0384543D01*
X0338409Y0377988D02*
X0339591D01*
X0339Y0377398D02*
Y0378579D01*
X0348909Y03845D02*
X0350091D01*
X03495Y038391D02*
Y038509D01*
X0362409Y03705D02*
X0363591D01*
X0363Y036991D02*
Y0371091D01*
X0369409Y0371047D02*
X037059D01*
X037Y0370457D02*
Y0371638D01*
X034941Y03685D02*
X035059D01*
X035Y036791D02*
Y0369091D01*
X0393409Y03495D02*
X039459D01*
X0394Y0348909D02*
Y0350091D01*
X04451Y0382D02*
X04479D01*
X04465Y03806D02*
Y03834D01*
X04456Y0331D02*
X04484D01*
X0447Y03296D02*
Y03324D01*
X04456Y0351D02*
X04484D01*
X0447Y03496D02*
Y03524D01*
M02*
