G04*
G04 #@! TF.GenerationSoftware,Altium Limited,Altium Designer,21.3.2 (30)*
G04*
G04 Layer_Color=2752767*
%FSTAX24Y24*%
%MOIN*%
G70*
G04*
G04 #@! TF.SameCoordinates,587B8423-3D13-4A71-8966-67BAEF8921A1*
G04*
G04*
G04 #@! TF.FilePolarity,Positive*
G04*
G01*
G75*
%ADD100C,0.0020*%
%ADD101C,0.0027*%
D100*
X04462Y02907D02*
Y02923D01*
X04478D01*
Y02907D01*
X04462D01*
Y02807D02*
Y02823D01*
X04478D01*
Y02807D01*
X04462D01*
X03227Y03412D02*
Y03428D01*
X03243D01*
Y03412D01*
X03227D01*
X03327D02*
Y03428D01*
X03343D01*
Y03412D01*
X03327D01*
X03427D02*
Y03428D01*
X03443D01*
Y03412D01*
X03427D01*
X03527D02*
Y03428D01*
X03543D01*
Y03412D01*
X03527D01*
X02922Y02647D02*
Y02663D01*
X02938D01*
Y02647D01*
X02922D01*
Y02747D02*
Y02763D01*
X02938D01*
Y02747D01*
X02922D01*
Y02847D02*
Y02863D01*
X02938D01*
Y02847D01*
X02922D01*
Y02947D02*
Y02963D01*
X02938D01*
Y02947D01*
X02922D01*
Y03047D02*
Y03063D01*
X02938D01*
Y03047D01*
X02922D01*
Y03147D02*
Y03163D01*
X02938D01*
Y03147D01*
X02922D01*
Y03247D02*
Y03263D01*
X02938D01*
Y03247D01*
X02922D01*
Y03347D02*
Y03363D01*
X02938D01*
Y03347D01*
X02922D01*
X03107Y02337D02*
Y02353D01*
X03123D01*
Y02337D01*
X03107D01*
Y02237D02*
Y02253D01*
X03123D01*
Y02237D01*
X03107D01*
X039314Y024354D02*
Y024514D01*
X039474D01*
Y024354D01*
X039314D01*
Y022386D02*
Y022546D01*
X039474D01*
Y022386D01*
X039314D01*
X045023Y024354D02*
Y024514D01*
X045183D01*
Y024354D01*
X045023D01*
Y02337D02*
Y02353D01*
X045183D01*
Y02337D01*
X045023D01*
Y022386D02*
Y022546D01*
X045183D01*
Y022386D01*
X045023D01*
X03615Y02237D02*
X03607Y02253D01*
X03623D01*
X03615Y02237D01*
X03315Y022365D02*
X03307Y022525D01*
X03323D01*
X03315Y022365D01*
X032818Y023674D02*
X032858Y023714D01*
X032898D01*
X032858Y023754D01*
X032898Y023794D01*
X032858D01*
X032818Y023834D01*
X032778Y023794D01*
X032738D01*
X032778Y023754D01*
X032738Y023714D01*
X032778D01*
X032818Y023674D01*
X034469Y021398D02*
X034509Y021438D01*
X034549D01*
X034509Y021478D01*
X034549Y021518D01*
X034509D01*
X034469Y021558D01*
X034429Y021518D01*
X034389D01*
X034429Y021478D01*
X034389Y021438D01*
X034429D01*
X034469Y021398D01*
X044308Y021331D02*
X044348Y021371D01*
X044388D01*
X044348Y021411D01*
X044388Y021451D01*
X044348D01*
X044308Y021491D01*
X044268Y021451D01*
X044228D01*
X044268Y021411D01*
X044228Y021371D01*
X044268D01*
X044308Y021331D01*
X040872Y023629D02*
X040912Y023669D01*
X040952D01*
X040912Y023709D01*
X040952Y023749D01*
X040912D01*
X040872Y023789D01*
X040832Y023749D01*
X040792D01*
X040832Y023709D01*
X040792Y023669D01*
X040832D01*
X040872Y023629D01*
X043861Y025302D02*
X043901Y025342D01*
X043941D01*
X043901Y025382D01*
X043941Y025422D01*
X043901D01*
X043861Y025462D01*
X043821Y025422D01*
X043781D01*
X043821Y025382D01*
X043781Y025342D01*
X043821D01*
X043861Y025302D01*
X044308Y02644D02*
X044348Y02648D01*
X044388D01*
X044348Y02652D01*
X044388Y02656D01*
X044348D01*
X044308Y0266D01*
X044268Y02656D01*
X044228D01*
X044268Y02652D01*
X044228Y02648D01*
X044268D01*
X044308Y02644D01*
X043237Y029653D02*
X043277Y029693D01*
X043317D01*
X043277Y029733D01*
X043317Y029773D01*
X043277D01*
X043237Y029813D01*
X043197Y029773D01*
X043157D01*
X043197Y029733D01*
X043157Y029693D01*
X043197D01*
X043237Y029653D01*
X04143Y028627D02*
X04147Y028667D01*
X04151D01*
X04147Y028707D01*
X04151Y028747D01*
X04147D01*
X04143Y028787D01*
X04139Y028747D01*
X04135D01*
X04139Y028707D01*
X04135Y028667D01*
X04139D01*
X04143Y028627D01*
X0412Y02767D02*
X04124Y02771D01*
X04128D01*
X04124Y02775D01*
X04128Y02779D01*
X04124D01*
X0412Y02783D01*
X04116Y02779D01*
X04112D01*
X04116Y02775D01*
X04112Y02771D01*
X04116D01*
X0412Y02767D01*
X03185Y03772D02*
X03189Y03776D01*
X03193D01*
X03189Y0378D01*
X03193Y03784D01*
X03189D01*
X03185Y03788D01*
X03181Y03784D01*
X03177D01*
X03181Y0378D01*
X03177Y03776D01*
X03181D01*
X03185Y03772D01*
X032787Y036033D02*
X032827Y036073D01*
X032867D01*
X032827Y036113D01*
X032867Y036153D01*
X032827D01*
X032787Y036193D01*
X032747Y036153D01*
X032707D01*
X032747Y036113D01*
X032707Y036073D01*
X032747D01*
X032787Y036033D01*
X038082Y036771D02*
X038122Y036811D01*
X038162D01*
X038122Y036851D01*
X038162Y036891D01*
X038122D01*
X038082Y036931D01*
X038042Y036891D01*
X038002D01*
X038042Y036851D01*
X038002Y036811D01*
X038042D01*
X038082Y036771D01*
X0303Y03712D02*
X03034Y03716D01*
X03038D01*
X03034Y0372D01*
X03038Y03724D01*
X03034D01*
X0303Y03728D01*
X03026Y03724D01*
X03022D01*
X03026Y0372D01*
X03022Y03716D01*
X03026D01*
X0303Y03712D01*
X035Y02792D02*
X03504Y02796D01*
X03508D01*
X03504Y028D01*
X03508Y02804D01*
X03504D01*
X035Y02808D01*
X03496Y02804D01*
X03492D01*
X03496Y028D01*
X03492Y02796D01*
X03496D01*
X035Y02792D01*
X02945Y03737D02*
X02949Y03741D01*
X02953D01*
X02949Y03745D01*
X02953Y03749D01*
X02949D01*
X02945Y03753D01*
X02941Y03749D01*
X02937D01*
X02941Y03745D01*
X02937Y03741D01*
X02941D01*
X02945Y03737D01*
X03755Y03827D02*
X03759Y03831D01*
X03763D01*
X03759Y03835D01*
X03763Y03839D01*
X03759D01*
X03755Y03843D01*
X03751Y03839D01*
X03747D01*
X03751Y03835D01*
X03747Y03831D01*
X03751D01*
X03755Y03827D01*
X0406Y03747D02*
X04064Y03751D01*
X04068D01*
X04064Y03755D01*
X04068Y03759D01*
X04064D01*
X0406Y03763D01*
X04056Y03759D01*
X04052D01*
X04056Y03755D01*
X04052Y03751D01*
X04056D01*
X0406Y03747D01*
X0402Y02142D02*
X04024Y02146D01*
X04028D01*
X04024Y0215D01*
X04028Y02154D01*
X04024D01*
X0402Y02158D01*
X04016Y02154D01*
X04012D01*
X04016Y0215D01*
X04012Y02146D01*
X04016D01*
X0402Y02142D01*
X043Y02322D02*
X04304Y02326D01*
X04308D01*
X04304Y0233D01*
X04308Y02334D01*
X04304D01*
X043Y02338D01*
X04296Y02334D01*
X04292D01*
X04296Y0233D01*
X04292Y02326D01*
X04296D01*
X043Y02322D01*
X0347Y02312D02*
X03474Y02316D01*
X03478D01*
X03474Y0232D01*
X03478Y02324D01*
X03474D01*
X0347Y02328D01*
X03466Y02324D01*
X03462D01*
X03466Y0232D01*
X03462Y02316D01*
X03466D01*
X0347Y02312D01*
X0323Y02167D02*
X03234Y02171D01*
X03238D01*
X03234Y02175D01*
X03238Y02179D01*
X03234D01*
X0323Y02183D01*
X03226Y02179D01*
X03222D01*
X03226Y02175D01*
X03222Y02171D01*
X03226D01*
X0323Y02167D01*
X0303Y02147D02*
X03034Y02151D01*
X03038D01*
X03034Y02155D01*
X03038Y02159D01*
X03034D01*
X0303Y02163D01*
X03026Y02159D01*
X03022D01*
X03026Y02155D01*
X03022Y02151D01*
X03026D01*
X0303Y02147D01*
X03005Y02367D02*
X03009Y02371D01*
X03013D01*
X03009Y02375D01*
X03013Y02379D01*
X03009D01*
X03005Y02383D01*
X03001Y02379D01*
X02997D01*
X03001Y02375D01*
X02997Y02371D01*
X03001D01*
X03005Y02367D01*
X02965Y02462D02*
X02969Y02466D01*
X02973D01*
X02969Y0247D01*
X02973Y02474D01*
X02969D01*
X02965Y02478D01*
X02961Y02474D01*
X02957D01*
X02961Y0247D01*
X02957Y02466D01*
X02961D01*
X02965Y02462D01*
X03472Y03677D02*
X03476Y03685D01*
X03472Y03693D01*
X0348Y03689D01*
X03488Y03693D01*
X03484Y03685D01*
X03488Y03677D01*
X0348Y03681D01*
X03472Y03677D01*
X03492D02*
X03496Y03685D01*
X03492Y03693D01*
X035Y03689D01*
X03508Y03693D01*
X03504Y03685D01*
X03508Y03677D01*
X035Y03681D01*
X03492Y03677D01*
X03432Y03657D02*
X03436Y03665D01*
X03432Y03673D01*
X0344Y03669D01*
X03448Y03673D01*
X03444Y03665D01*
X03448Y03657D01*
X0344Y03661D01*
X03432Y03657D01*
X03512Y03697D02*
X03516Y03705D01*
X03512Y03713D01*
X0352Y03709D01*
X03528Y03713D01*
X03524Y03705D01*
X03528Y03697D01*
X0352Y03701D01*
X03512Y03697D01*
Y03677D02*
X03516Y03685D01*
X03512Y03693D01*
X0352Y03689D01*
X03528Y03693D01*
X03524Y03685D01*
X03528Y03677D01*
X0352Y03681D01*
X03512Y03677D01*
X03452Y03697D02*
X03456Y03705D01*
X03452Y03713D01*
X0346Y03709D01*
X03468Y03713D01*
X03464Y03705D01*
X03468Y03697D01*
X0346Y03701D01*
X03452Y03697D01*
X03432Y03677D02*
X03436Y03685D01*
X03432Y03693D01*
X0344Y03689D01*
X03448Y03693D01*
X03444Y03685D01*
X03448Y03677D01*
X0344Y03681D01*
X03432Y03677D01*
X03492Y03697D02*
X03496Y03705D01*
X03492Y03713D01*
X035Y03709D01*
X03508Y03713D01*
X03504Y03705D01*
X03508Y03697D01*
X035Y03701D01*
X03492Y03697D01*
X03512Y03657D02*
X03516Y03665D01*
X03512Y03673D01*
X0352Y03669D01*
X03528Y03673D01*
X03524Y03665D01*
X03528Y03657D01*
X0352Y03661D01*
X03512Y03657D01*
X03452Y03677D02*
X03456Y03685D01*
X03452Y03693D01*
X0346Y03689D01*
X03468Y03693D01*
X03464Y03685D01*
X03468Y03677D01*
X0346Y03681D01*
X03452Y03677D01*
X03472Y03697D02*
X03476Y03705D01*
X03472Y03713D01*
X0348Y03709D01*
X03488Y03713D01*
X03484Y03705D01*
X03488Y03697D01*
X0348Y03701D01*
X03472Y03697D01*
X03432D02*
X03436Y03705D01*
X03432Y03713D01*
X0344Y03709D01*
X03448Y03713D01*
X03444Y03705D01*
X03448Y03697D01*
X0344Y03701D01*
X03432Y03697D01*
X03472Y03657D02*
X03476Y03665D01*
X03472Y03673D01*
X0348Y03669D01*
X03488Y03673D01*
X03484Y03665D01*
X03488Y03657D01*
X0348Y03661D01*
X03472Y03657D01*
X03452D02*
X03456Y03665D01*
X03452Y03673D01*
X0346Y03669D01*
X03468Y03673D01*
X03464Y03665D01*
X03468Y03657D01*
X0346Y03661D01*
X03452Y03657D01*
X03492D02*
X03496Y03665D01*
X03492Y03673D01*
X035Y03669D01*
X03508Y03673D01*
X03504Y03665D01*
X03508Y03657D01*
X035Y03661D01*
X03492Y03657D01*
X03557Y02877D02*
X03561Y02885D01*
X03557Y02893D01*
X03565Y02889D01*
X03573Y02893D01*
X03569Y02885D01*
X03573Y02877D01*
X03565Y02881D01*
X03557Y02877D01*
X03797Y02362D02*
X03801Y0237D01*
X03797Y02378D01*
X03805Y02374D01*
X03813Y02378D01*
X03809Y0237D01*
X03813Y02362D01*
X03805Y02366D01*
X03797Y02362D01*
X03632Y03532D02*
X03636Y0354D01*
X03632Y03548D01*
X0364Y03544D01*
X03648Y03548D01*
X03644Y0354D01*
X03648Y03532D01*
X0364Y03536D01*
X03632Y03532D01*
X03342Y02777D02*
X03346Y02785D01*
X03342Y02793D01*
X0335Y02789D01*
X03358Y02793D01*
X03354Y02785D01*
X03358Y02777D01*
X0335Y02781D01*
X03342Y02777D01*
X03232Y02797D02*
X03236Y02805D01*
X03232Y02813D01*
X0324Y02809D01*
X03248Y02813D01*
X03244Y02805D01*
X03248Y02797D01*
X0324Y02801D01*
X03232Y02797D01*
X03207Y028648D02*
X03211Y028728D01*
X03207Y028808D01*
X03215Y028768D01*
X03223Y028808D01*
X03219Y028728D01*
X03223Y028648D01*
X03215Y028688D01*
X03207Y028648D01*
X03727Y02832D02*
X03731Y0284D01*
X03727Y02848D01*
X03735Y02844D01*
X03743Y02848D01*
X03739Y0284D01*
X03743Y02832D01*
X03735Y02836D01*
X03727Y02832D01*
X03737Y02372D02*
X03741Y0238D01*
X03737Y02388D01*
X03745Y02384D01*
X03753Y02388D01*
X03749Y0238D01*
X03753Y02372D01*
X03745Y02376D01*
X03737Y02372D01*
X030714Y032464D02*
X030754Y032544D01*
X030714Y032624D01*
X030794Y032584D01*
X030874Y032624D01*
X030834Y032544D01*
X030874Y032464D01*
X030794Y032504D01*
X030714Y032464D01*
X03362Y03292D02*
X03366Y033D01*
X03362Y03308D01*
X0337Y03304D01*
X03378Y03308D01*
X03374Y033D01*
X03378Y03292D01*
X0337Y03296D01*
X03362Y03292D01*
X03552Y03102D02*
X03556Y0311D01*
X03552Y03118D01*
X0356Y03114D01*
X03568Y03118D01*
X03564Y0311D01*
X03568Y03102D01*
X0356Y03106D01*
X03552Y03102D01*
X033455Y02897D02*
X033495Y02905D01*
X033455Y02913D01*
X033535Y02909D01*
X033615Y02913D01*
X033575Y02905D01*
X033615Y02897D01*
X033535Y02901D01*
X033455Y02897D01*
X03142Y02567D02*
X03146Y02575D01*
X03142Y02583D01*
X0315Y02579D01*
X03158Y02583D01*
X03154Y02575D01*
X03158Y02567D01*
X0315Y02571D01*
X03142Y02567D01*
X03087Y02542D02*
X03091Y0255D01*
X03087Y02558D01*
X03095Y02554D01*
X03103Y02558D01*
X03099Y0255D01*
X03103Y02542D01*
X03095Y02546D01*
X03087Y02542D01*
X03032Y02517D02*
X03036Y02525D01*
X03032Y02533D01*
X0304Y02529D01*
X03048Y02533D01*
X03044Y02525D01*
X03048Y02517D01*
X0304Y02521D01*
X03032Y02517D01*
X036545Y024395D02*
X036585Y024475D01*
X036545Y024555D01*
X036625Y024515D01*
X036705Y024555D01*
X036665Y024475D01*
X036705Y024395D01*
X036625Y024435D01*
X036545Y024395D01*
X037228Y024935D02*
X037268Y025015D01*
X037228Y025095D01*
X037308Y025055D01*
X037388Y025095D01*
X037348Y025015D01*
X037388Y024935D01*
X037308Y024975D01*
X037228Y024935D01*
X03797D02*
X03801Y025015D01*
X03797Y025095D01*
X03805Y025055D01*
X03813Y025095D01*
X03809Y025015D01*
X03813Y024935D01*
X03805Y024975D01*
X03797Y024935D01*
X03617Y03327D02*
X03621Y03335D01*
X03617Y03343D01*
X03625Y03339D01*
X03633Y03343D01*
X03629Y03335D01*
X03633Y03327D01*
X03625Y03331D01*
X03617Y03327D01*
X03767Y03122D02*
X03771Y0313D01*
X03767Y03138D01*
X03775Y03134D01*
X03783Y03138D01*
X03779Y0313D01*
X03783Y03122D01*
X03775Y03126D01*
X03767Y03122D01*
X038559Y028809D02*
X038599Y028889D01*
X038559Y028969D01*
X038639Y028929D01*
X038719Y028969D01*
X038679Y028889D01*
X038719Y028809D01*
X038639Y028849D01*
X038559Y028809D01*
X03797Y02777D02*
X03801Y02785D01*
X03797Y02793D01*
X03805Y02789D01*
X03813Y02793D01*
X03809Y02785D01*
X03813Y02777D01*
X03805Y02781D01*
X03797Y02777D01*
X03652Y02657D02*
X03656Y02665D01*
X03652Y02673D01*
X0366Y02669D01*
X03668Y02673D01*
X03664Y02665D01*
X03668Y02657D01*
X0366Y02661D01*
X03652Y02657D01*
X034812Y025928D02*
X034852Y026008D01*
X034812Y026088D01*
X034892Y026048D01*
X034972Y026088D01*
X034932Y026008D01*
X034972Y025928D01*
X034892Y025968D01*
X034812Y025928D01*
X03617Y02602D02*
X03621Y0261D01*
X03617Y02618D01*
X03625Y02614D01*
X03633Y02618D01*
X03629Y0261D01*
X03633Y02602D01*
X03625Y02606D01*
X03617Y02602D01*
X03457Y02727D02*
X03461Y02735D01*
X03457Y02743D01*
X03465Y02739D01*
X03473Y02743D01*
X03469Y02735D01*
X03473Y02727D01*
X03465Y02731D01*
X03457Y02727D01*
X037214Y02972D02*
X037254Y0298D01*
X037214Y02988D01*
X037294Y02984D01*
X037374Y02988D01*
X037334Y0298D01*
X037374Y02972D01*
X037294Y02976D01*
X037214Y02972D01*
X03587Y03072D02*
X03591Y0308D01*
X03587Y03088D01*
X03595Y03084D01*
X03603Y03088D01*
X03599Y0308D01*
X03603Y03072D01*
X03595Y03076D01*
X03587Y03072D01*
X037281Y030931D02*
X037321Y031011D01*
X037281Y031091D01*
X037361Y031051D01*
X037441Y031091D01*
X037401Y031011D01*
X037441Y030931D01*
X037361Y030971D01*
X037281Y030931D01*
X03757Y03417D02*
X03761Y03425D01*
X03757Y03433D01*
X03765Y03429D01*
X03773Y03433D01*
X03769Y03425D01*
X03773Y03417D01*
X03765Y03421D01*
X03757Y03417D01*
X03617Y034217D02*
X03621Y034297D01*
X03617Y034377D01*
X03625Y034337D01*
X03633Y034377D01*
X03629Y034297D01*
X03633Y034217D01*
X03625Y034257D01*
X03617Y034217D01*
X03762Y03177D02*
X03766Y03185D01*
X03762Y03193D01*
X0377Y03189D01*
X03778Y03193D01*
X03774Y03185D01*
X03778Y03177D01*
X0377Y03181D01*
X03762Y03177D01*
X03252Y02992D02*
X03256Y03D01*
X03252Y03008D01*
X0326Y03004D01*
X03268Y03008D01*
X03264Y03D01*
X03268Y02992D01*
X0326Y02996D01*
X03252Y02992D01*
X031726Y029826D02*
X031766Y029906D01*
X031726Y029986D01*
X031806Y029946D01*
X031886Y029986D01*
X031846Y029906D01*
X031886Y029826D01*
X031806Y029866D01*
X031726Y029826D01*
X03107Y02907D02*
X03111Y02915D01*
X03107Y02923D01*
X03115Y02919D01*
X03123Y02923D01*
X03119Y02915D01*
X03123Y02907D01*
X03115Y02911D01*
X03107Y02907D01*
X03407Y02757D02*
X03411Y02765D01*
X03407Y02773D01*
X03415Y02769D01*
X03423Y02773D01*
X03419Y02765D01*
X03423Y02757D01*
X03415Y02761D01*
X03407Y02757D01*
X03497Y02877D02*
X03501Y02885D01*
X03497Y02893D01*
X03505Y02889D01*
X03513Y02893D01*
X03509Y02885D01*
X03513Y02877D01*
X03505Y02881D01*
X03497Y02877D01*
X03447Y02847D02*
X03451Y02855D01*
X03447Y02863D01*
X03455Y02859D01*
X03463Y02863D01*
X03459Y02855D01*
X03463Y02847D01*
X03455Y02851D01*
X03447Y02847D01*
X03472Y02927D02*
X03476Y02935D01*
X03472Y02943D01*
X0348Y02939D01*
X03488Y02943D01*
X03484Y02935D01*
X03488Y02927D01*
X0348Y02931D01*
X03472Y02927D01*
X03382Y02727D02*
X03386Y02735D01*
X03382Y02743D01*
X0339Y02739D01*
X03398Y02743D01*
X03394Y02735D01*
X03398Y02727D01*
X0339Y02731D01*
X03382Y02727D01*
X03387Y02922D02*
X03391Y0293D01*
X03387Y02938D01*
X03395Y02934D01*
X03403Y02938D01*
X03399Y0293D01*
X03403Y02922D01*
X03395Y02926D01*
X03387Y02922D01*
X034597Y030914D02*
X034637Y030994D01*
X034597Y031074D01*
X034677Y031034D01*
X034757Y031074D01*
X034717Y030994D01*
X034757Y030914D01*
X034677Y030954D01*
X034597Y030914D01*
X03437Y03047D02*
X03441Y03055D01*
X03437Y03063D01*
X03445Y03059D01*
X03453Y03063D01*
X03449Y03055D01*
X03453Y03047D01*
X03445Y03051D01*
X03437Y03047D01*
X03327Y025014D02*
X03331Y025094D01*
X03327Y025174D01*
X03335Y025134D01*
X03343Y025174D01*
X03339Y025094D01*
X03343Y025014D01*
X03335Y025054D01*
X03327Y025014D01*
X03252Y02587D02*
X03256Y02595D01*
X03252Y02603D01*
X0326Y02599D01*
X03268Y02603D01*
X03264Y02595D01*
X03268Y02587D01*
X0326Y02591D01*
X03252Y02587D01*
X03912Y02652D02*
X03916Y0266D01*
X03912Y02668D01*
X0392Y02664D01*
X03928Y02668D01*
X03924Y0266D01*
X03928Y02652D01*
X0392Y02656D01*
X03912Y02652D01*
X03997D02*
X04001Y0266D01*
X03997Y02668D01*
X04005Y02664D01*
X04013Y02668D01*
X04009Y0266D01*
X04013Y02652D01*
X04005Y02656D01*
X03997Y02652D01*
X03912Y02962D02*
X03916Y0297D01*
X03912Y02978D01*
X0392Y02974D01*
X03928Y02978D01*
X03924Y0297D01*
X03928Y02962D01*
X0392Y02966D01*
X03912Y02962D01*
X034445Y025945D02*
X034485Y026025D01*
X034445Y026105D01*
X034525Y026065D01*
X034605Y026105D01*
X034565Y026025D01*
X034605Y025945D01*
X034525Y025985D01*
X034445Y025945D01*
X033858Y025557D02*
X033898Y025638D01*
X033858Y025717D01*
X033937Y025677D01*
X034018Y025717D01*
X033977Y025638D01*
X034018Y025557D01*
X033937Y025598D01*
X033858Y025557D01*
X03062Y03387D02*
X03066Y03395D01*
X03062Y03403D01*
X0307Y03399D01*
X03078Y03403D01*
X03074Y03395D01*
X03078Y03387D01*
X0307Y03391D01*
X03062Y03387D01*
X03852Y025579D02*
X03856Y025659D01*
X03852Y025739D01*
X0386Y025699D01*
X03868Y025739D01*
X03864Y025659D01*
X03868Y025579D01*
X0386Y025619D01*
X03852Y025579D01*
X04137Y02987D02*
X04141Y02995D01*
X04137Y03003D01*
X04145Y02999D01*
X04153Y03003D01*
X04149Y02995D01*
X04153Y02987D01*
X04145Y02991D01*
X04137Y02987D01*
X042224Y02817D02*
X042264Y02825D01*
X042224Y02833D01*
X042304Y02829D01*
X042384Y02833D01*
X042344Y02825D01*
X042384Y02817D01*
X042304Y02821D01*
X042224Y02817D01*
X03997Y03017D02*
X04001Y03025D01*
X03997Y03033D01*
X04005Y03029D01*
X04013Y03033D01*
X04009Y03025D01*
X04013Y03017D01*
X04005Y03021D01*
X03997Y03017D01*
X04052D02*
X04056Y03025D01*
X04052Y03033D01*
X0406Y03029D01*
X04068Y03033D01*
X04064Y03025D01*
X04068Y03017D01*
X0406Y03021D01*
X04052Y03017D01*
X04222Y03357D02*
X04226Y03365D01*
X04222Y03373D01*
X0423Y03369D01*
X04238Y03373D01*
X04234Y03365D01*
X04238Y03357D01*
X0423Y03361D01*
X04222Y03357D01*
X04307Y03402D02*
X04311Y0341D01*
X04307Y03418D01*
X04315Y03414D01*
X04323Y03418D01*
X04319Y0341D01*
X04323Y03402D01*
X04315Y03406D01*
X04307Y03402D01*
X03012Y03807D02*
X03016Y03815D01*
X03012Y03823D01*
X0302Y03819D01*
X03028Y03823D01*
X03024Y03815D01*
X03028Y03807D01*
X0302Y03811D01*
X03012Y03807D01*
X032707Y036033D02*
X032747Y036113D01*
X032707Y036193D01*
X032787Y036153D01*
X032867Y036193D01*
X032827Y036113D01*
X032867Y036033D01*
X032787Y036073D01*
X032707Y036033D01*
X03847Y03332D02*
X03851Y0334D01*
X03847Y03348D01*
X03855Y03344D01*
X03863Y03348D01*
X03859Y0334D01*
X03863Y03332D01*
X03855Y03336D01*
X03847Y03332D01*
X041419Y033949D02*
X041459Y034029D01*
X041419Y034109D01*
X041499Y034069D01*
X041579Y034109D01*
X041539Y034029D01*
X041579Y033949D01*
X041499Y033989D01*
X041419Y033949D01*
X041136Y034232D02*
X041176Y034312D01*
X041136Y034392D01*
X041216Y034352D01*
X041296Y034392D01*
X041256Y034312D01*
X041296Y034232D01*
X041216Y034272D01*
X041136Y034232D01*
X040853Y033949D02*
X040893Y034029D01*
X040853Y034109D01*
X040933Y034069D01*
X041013Y034109D01*
X040973Y034029D01*
X041013Y033949D01*
X040933Y033989D01*
X040853Y033949D01*
X040994Y034091D02*
X041034Y034171D01*
X040994Y034251D01*
X041074Y034211D01*
X041154Y034251D01*
X041114Y034171D01*
X041154Y034091D01*
X041074Y034131D01*
X040994Y034091D01*
X041277Y033525D02*
X041317Y033605D01*
X041277Y033685D01*
X041357Y033645D01*
X041437Y033685D01*
X041397Y033605D01*
X041437Y033525D01*
X041357Y033565D01*
X041277Y033525D01*
X040994Y034374D02*
X041034Y034454D01*
X040994Y034534D01*
X041074Y034494D01*
X041154Y034534D01*
X041114Y034454D01*
X041154Y034374D01*
X041074Y034414D01*
X040994Y034374D01*
X041419Y033666D02*
X041459Y033746D01*
X041419Y033826D01*
X041499Y033786D01*
X041579Y033826D01*
X041539Y033746D01*
X041579Y033666D01*
X041499Y033706D01*
X041419Y033666D01*
X041277Y034091D02*
X041317Y034171D01*
X041277Y034251D01*
X041357Y034211D01*
X041437Y034251D01*
X041397Y034171D01*
X041437Y034091D01*
X041357Y034131D01*
X041277Y034091D01*
X041136Y033666D02*
X041176Y033746D01*
X041136Y033826D01*
X041216Y033786D01*
X041296Y033826D01*
X041256Y033746D01*
X041296Y033666D01*
X041216Y033706D01*
X041136Y033666D01*
X041136Y033949D02*
X041176Y034029D01*
X041136Y034109D01*
X041216Y034069D01*
X041296Y034109D01*
X041256Y034029D01*
X041296Y033949D01*
X041216Y033989D01*
X041136Y033949D01*
X040994Y033808D02*
X041034Y033888D01*
X040994Y033968D01*
X041074Y033928D01*
X041154Y033968D01*
X041114Y033888D01*
X041154Y033808D01*
X041074Y033848D01*
X040994Y033808D01*
X040712Y034091D02*
X040752Y034171D01*
X040712Y034251D01*
X040792Y034211D01*
X040872Y034251D01*
X040832Y034171D01*
X040872Y034091D01*
X040792Y034131D01*
X040712Y034091D01*
X040853Y034232D02*
X040893Y034312D01*
X040853Y034392D01*
X040933Y034352D01*
X041013Y034392D01*
X040973Y034312D01*
X041013Y034232D01*
X040933Y034272D01*
X040853Y034232D01*
X041277Y033808D02*
X041317Y033888D01*
X041277Y033968D01*
X041357Y033928D01*
X041437Y033968D01*
X041397Y033888D01*
X041437Y033808D01*
X041357Y033848D01*
X041277Y033808D01*
X04156Y033808D02*
X0416Y033888D01*
X04156Y033968D01*
X04164Y033928D01*
X04172Y033968D01*
X04168Y033888D01*
X04172Y033808D01*
X04164Y033848D01*
X04156Y033808D01*
X03892Y03062D02*
X03896Y0307D01*
X03892Y03078D01*
X039Y03074D01*
X03908Y03078D01*
X03904Y0307D01*
X03908Y03062D01*
X039Y03066D01*
X03892Y03062D01*
X03852D02*
X03856Y0307D01*
X03852Y03078D01*
X0386Y03074D01*
X03868Y03078D01*
X03864Y0307D01*
X03868Y03062D01*
X0386Y03066D01*
X03852Y03062D01*
X03872D02*
X03876Y0307D01*
X03872Y03078D01*
X0388Y03074D01*
X03888Y03078D01*
X03884Y0307D01*
X03888Y03062D01*
X0388Y03066D01*
X03872Y03062D01*
X03832Y03102D02*
X03836Y0311D01*
X03832Y03118D01*
X0384Y03114D01*
X03848Y03118D01*
X03844Y0311D01*
X03848Y03102D01*
X0384Y03106D01*
X03832Y03102D01*
X03872D02*
X03876Y0311D01*
X03872Y03118D01*
X0388Y03114D01*
X03888Y03118D01*
X03884Y0311D01*
X03888Y03102D01*
X0388Y03106D01*
X03872Y03102D01*
X03852Y03082D02*
X03856Y0309D01*
X03852Y03098D01*
X0386Y03094D01*
X03868Y03098D01*
X03864Y0309D01*
X03868Y03082D01*
X0386Y03086D01*
X03852Y03082D01*
X03912Y03062D02*
X03916Y0307D01*
X03912Y03078D01*
X0392Y03074D01*
X03928Y03078D01*
X03924Y0307D01*
X03928Y03062D01*
X0392Y03066D01*
X03912Y03062D01*
X03892Y03102D02*
X03896Y0311D01*
X03892Y03118D01*
X039Y03114D01*
X03908Y03118D01*
X03904Y0311D01*
X03908Y03102D01*
X039Y03106D01*
X03892Y03102D01*
X03832Y03082D02*
X03836Y0309D01*
X03832Y03098D01*
X0384Y03094D01*
X03848Y03098D01*
X03844Y0309D01*
X03848Y03082D01*
X0384Y03086D01*
X03832Y03082D01*
X03852Y03102D02*
X03856Y0311D01*
X03852Y03118D01*
X0386Y03114D01*
X03868Y03118D01*
X03864Y0311D01*
X03868Y03102D01*
X0386Y03106D01*
X03852Y03102D01*
X03912Y03082D02*
X03916Y0309D01*
X03912Y03098D01*
X0392Y03094D01*
X03928Y03098D01*
X03924Y0309D01*
X03928Y03082D01*
X0392Y03086D01*
X03912Y03082D01*
Y03102D02*
X03916Y0311D01*
X03912Y03118D01*
X0392Y03114D01*
X03928Y03118D01*
X03924Y0311D01*
X03928Y03102D01*
X0392Y03106D01*
X03912Y03102D01*
X03832Y03062D02*
X03836Y0307D01*
X03832Y03078D01*
X0384Y03074D01*
X03848Y03078D01*
X03844Y0307D01*
X03848Y03062D01*
X0384Y03066D01*
X03832Y03062D01*
X03892Y03082D02*
X03896Y0309D01*
X03892Y03098D01*
X039Y03094D01*
X03908Y03098D01*
X03904Y0309D01*
X03908Y03082D01*
X039Y03086D01*
X03892Y03082D01*
X03872D02*
X03876Y0309D01*
X03872Y03098D01*
X0388Y03094D01*
X03888Y03098D01*
X03884Y0309D01*
X03888Y03082D01*
X0388Y03086D01*
X03872Y03082D01*
X03752Y03762D02*
X03756Y0377D01*
X03752Y03778D01*
X0376Y03774D01*
X03768Y03778D01*
X03764Y0377D01*
X03768Y03762D01*
X0376Y03766D01*
X03752Y03762D01*
X04265Y03812D02*
X04269Y03816D01*
X04273D01*
X04269Y0382D01*
X04273Y03824D01*
X04269D01*
X04265Y03828D01*
X04261Y03824D01*
X04257D01*
X04261Y0382D01*
X04257Y03816D01*
X04261D01*
X04265Y03812D01*
X03092Y03872D02*
X03096Y0388D01*
X03092Y03888D01*
X031Y03884D01*
X03108Y03888D01*
X03104Y0388D01*
X03108Y03872D01*
X031Y03876D01*
X03092Y03872D01*
X03172Y03622D02*
X03176Y0363D01*
X03172Y03638D01*
X0318Y03634D01*
X03188Y03638D01*
X03184Y0363D01*
X03188Y03622D01*
X0318Y03626D01*
X03172Y03622D01*
X033565Y038315D02*
X033605Y038395D01*
X033565Y038475D01*
X033645Y038435D01*
X033725Y038475D01*
X033685Y038395D01*
X033725Y038315D01*
X033645Y038355D01*
X033565Y038315D01*
X03382Y037719D02*
X03386Y037799D01*
X03382Y037879D01*
X0339Y037839D01*
X03398Y037879D01*
X03394Y037799D01*
X03398Y037719D01*
X0339Y037759D01*
X03382Y037719D01*
X03487Y03837D02*
X03491Y03845D01*
X03487Y03853D01*
X03495Y03849D01*
X03503Y03853D01*
X03499Y03845D01*
X03503Y03837D01*
X03495Y03841D01*
X03487Y03837D01*
X03622Y03697D02*
X03626Y03705D01*
X03622Y03713D01*
X0363Y03709D01*
X03638Y03713D01*
X03634Y03705D01*
X03638Y03697D01*
X0363Y03701D01*
X03622Y03697D01*
X03692Y037025D02*
X03696Y037105D01*
X03692Y037185D01*
X037Y037145D01*
X03708Y037185D01*
X03704Y037105D01*
X03708Y037025D01*
X037Y037065D01*
X03692Y037025D01*
X03492Y03677D02*
X03496Y03685D01*
X03492Y03693D01*
X035Y03689D01*
X03508Y03693D01*
X03504Y03685D01*
X03508Y03677D01*
X035Y03681D01*
X03492Y03677D01*
X03932Y03487D02*
X03936Y03495D01*
X03932Y03503D01*
X0394Y03499D01*
X03948Y03503D01*
X03944Y03495D01*
X03948Y03487D01*
X0394Y03491D01*
X03932Y03487D01*
X04465Y03812D02*
X04469Y03816D01*
X04473D01*
X04469Y0382D01*
X04473Y03824D01*
X04469D01*
X04465Y03828D01*
X04461Y03824D01*
X04457D01*
X04461Y0382D01*
X04457Y03816D01*
X04461D01*
X04465Y03812D01*
X0447Y03302D02*
X04474Y03306D01*
X04478D01*
X04474Y0331D01*
X04478Y03314D01*
X04474D01*
X0447Y03318D01*
X04466Y03314D01*
X04462D01*
X04466Y0331D01*
X04462Y03306D01*
X04466D01*
X0447Y03302D01*
Y03502D02*
X04474Y03506D01*
X04478D01*
X04474Y0351D01*
X04478Y03514D01*
X04474D01*
X0447Y03518D01*
X04466Y03514D01*
X04462D01*
X04466Y0351D01*
X04462Y03506D01*
X04466D01*
X0447Y03502D01*
D101*
X04223Y025655D02*
G03*
X04223Y025655I-00008J0D01*
G01*
Y021245D02*
G03*
X04223Y021245I-00008J0D01*
G01*
M02*
