G04*
G04 #@! TF.GenerationSoftware,Altium Limited,Altium Designer,21.3.2 (30)*
G04*
G04 Layer_Color=8421504*
%FSTAX24Y24*%
%MOIN*%
G70*
G04*
G04 #@! TF.SameCoordinates,587B8423-3D13-4A71-8966-67BAEF8921A1*
G04*
G04*
G04 #@! TF.FilePolarity,Positive*
G04*
G01*
G75*
%ADD20R,0.0118X0.0669*%
%ADD21R,0.0669X0.0118*%
%ADD22R,0.0787X0.1614*%
%ADD23R,0.0472X0.0335*%
G04:AMPARAMS|DCode=24|XSize=39.4mil|YSize=35.4mil|CornerRadius=4.4mil|HoleSize=0mil|Usage=FLASHONLY|Rotation=90.000|XOffset=0mil|YOffset=0mil|HoleType=Round|Shape=RoundedRectangle|*
%AMROUNDEDRECTD24*
21,1,0.0394,0.0266,0,0,90.0*
21,1,0.0305,0.0354,0,0,90.0*
1,1,0.0089,0.0133,0.0153*
1,1,0.0089,0.0133,-0.0153*
1,1,0.0089,-0.0133,-0.0153*
1,1,0.0089,-0.0133,0.0153*
%
%ADD24ROUNDEDRECTD24*%
%ADD25R,0.0335X0.0276*%
%ADD26R,0.0276X0.0335*%
%ADD27R,0.0394X0.0551*%
%ADD28R,0.0472X0.0315*%
G04:AMPARAMS|DCode=29|XSize=39.4mil|YSize=35.4mil|CornerRadius=4.4mil|HoleSize=0mil|Usage=FLASHONLY|Rotation=0.000|XOffset=0mil|YOffset=0mil|HoleType=Round|Shape=RoundedRectangle|*
%AMROUNDEDRECTD29*
21,1,0.0394,0.0266,0,0,0.0*
21,1,0.0305,0.0354,0,0,0.0*
1,1,0.0089,0.0153,-0.0133*
1,1,0.0089,-0.0153,-0.0133*
1,1,0.0089,-0.0153,0.0133*
1,1,0.0089,0.0153,0.0133*
%
%ADD29ROUNDEDRECTD29*%
%ADD30R,0.0500X0.0550*%
G04:AMPARAMS|DCode=31|XSize=135.8mil|YSize=70.9mil|CornerRadius=0mil|HoleSize=0mil|Usage=FLASHONLY|Rotation=315.000|XOffset=0mil|YOffset=0mil|HoleType=Round|Shape=Rectangle|*
%AMROTATEDRECTD31*
4,1,4,-0.0731,0.0230,-0.0230,0.0731,0.0731,-0.0230,0.0230,-0.0731,-0.0731,0.0230,0.0*
%
%ADD31ROTATEDRECTD31*%

%ADD32R,0.0787X0.1575*%
%ADD33R,0.0984X0.0472*%
%ADD34R,0.2559X0.2362*%
%ADD35R,0.0669X0.0984*%
%ADD36R,0.0374X0.0394*%
G04:AMPARAMS|DCode=37|XSize=33.5mil|YSize=27.6mil|CornerRadius=0mil|HoleSize=0mil|Usage=FLASHONLY|Rotation=135.000|XOffset=0mil|YOffset=0mil|HoleType=Round|Shape=Rectangle|*
%AMROTATEDRECTD37*
4,1,4,0.0216,-0.0021,0.0021,-0.0216,-0.0216,0.0021,-0.0021,0.0216,0.0216,-0.0021,0.0*
%
%ADD37ROTATEDRECTD37*%

%ADD38O,0.0709X0.0236*%
%ADD39R,0.0394X0.0374*%
%ADD40R,0.1220X0.0709*%
D20*
X033517Y029969D02*
D03*
X033714D02*
D03*
X033911D02*
D03*
X034108D02*
D03*
X034305D02*
D03*
X034502D02*
D03*
X034698D02*
D03*
X034895D02*
D03*
X035092D02*
D03*
X035289D02*
D03*
X035486D02*
D03*
X035683D02*
D03*
Y026632D02*
D03*
X035486D02*
D03*
X035289D02*
D03*
X035092D02*
D03*
X034895D02*
D03*
X034698D02*
D03*
X034502D02*
D03*
X034305D02*
D03*
X034108D02*
D03*
X033911D02*
D03*
X033714D02*
D03*
X033517D02*
D03*
D21*
X036268Y029383D02*
D03*
Y029186D02*
D03*
Y028989D02*
D03*
Y028792D02*
D03*
Y028595D02*
D03*
Y028398D02*
D03*
Y028202D02*
D03*
Y028005D02*
D03*
Y027808D02*
D03*
Y027611D02*
D03*
Y027414D02*
D03*
Y027217D02*
D03*
X032931D02*
D03*
Y027414D02*
D03*
Y027611D02*
D03*
Y027808D02*
D03*
Y028005D02*
D03*
Y028202D02*
D03*
Y028398D02*
D03*
Y028595D02*
D03*
Y028792D02*
D03*
Y028989D02*
D03*
Y029186D02*
D03*
Y029383D02*
D03*
D22*
X0394Y038413D02*
D03*
Y034987D02*
D03*
D23*
X037942Y033398D02*
D03*
X03696Y03377D02*
D03*
X036958Y033012D02*
D03*
X037458Y021262D02*
D03*
X03746Y02202D02*
D03*
X038442Y021648D02*
D03*
D24*
X037635Y0344D02*
D03*
X036965D02*
D03*
X031215Y0305D02*
D03*
X031885D02*
D03*
X038435Y02735D02*
D03*
X037765D02*
D03*
X041685Y0266D02*
D03*
X041015D02*
D03*
X037635Y03235D02*
D03*
X036965D02*
D03*
D25*
X0304Y026556D02*
D03*
Y026044D02*
D03*
X0372Y029194D02*
D03*
Y029706D02*
D03*
X0315Y026556D02*
D03*
Y026044D02*
D03*
X03095Y026556D02*
D03*
Y026044D02*
D03*
X03775Y029194D02*
D03*
Y029706D02*
D03*
X0383Y029194D02*
D03*
Y029706D02*
D03*
X033937Y025606D02*
D03*
Y025094D02*
D03*
X0357Y025606D02*
D03*
Y025094D02*
D03*
X034525D02*
D03*
Y025606D02*
D03*
X03335Y025094D02*
D03*
Y025606D02*
D03*
X035113Y025094D02*
D03*
Y025606D02*
D03*
D26*
X031806Y02985D02*
D03*
X031294D02*
D03*
Y02715D02*
D03*
X031806D02*
D03*
X033706Y0309D02*
D03*
X033194D02*
D03*
X039194Y0266D02*
D03*
X039706D02*
D03*
X041744Y02995D02*
D03*
X042256D02*
D03*
D27*
X031117Y027752D02*
D03*
Y029248D02*
D03*
X031983Y027752D02*
D03*
Y029248D02*
D03*
D28*
X030772Y03255D02*
D03*
X033528D02*
D03*
D29*
X03625Y033665D02*
D03*
Y034335D02*
D03*
X0343Y032085D02*
D03*
Y031415D02*
D03*
X03495Y032085D02*
D03*
Y031415D02*
D03*
X0357Y032085D02*
D03*
Y031415D02*
D03*
X0365Y025015D02*
D03*
Y025685D02*
D03*
X03805D02*
D03*
Y025015D02*
D03*
X0373Y025685D02*
D03*
Y025015D02*
D03*
X0392Y028565D02*
D03*
Y029235D02*
D03*
X04005Y029381D02*
D03*
Y03005D02*
D03*
X0326Y025685D02*
D03*
Y025015D02*
D03*
X03625Y032985D02*
D03*
Y032315D02*
D03*
X0406Y029381D02*
D03*
Y03005D02*
D03*
X0392Y027365D02*
D03*
Y028035D02*
D03*
X0432Y027785D02*
D03*
Y027115D02*
D03*
Y029035D02*
D03*
Y028365D02*
D03*
X03745Y022765D02*
D03*
Y023435D02*
D03*
D30*
X032Y0313D02*
D03*
X0311D02*
D03*
X03245Y0388D02*
D03*
X03155D02*
D03*
D31*
X041227Y034027D02*
D03*
X042773Y035573D02*
D03*
D32*
X0302Y0359D02*
D03*
Y038183D02*
D03*
D33*
X038788Y032696D02*
D03*
X038788Y030896D02*
D03*
D34*
X041524Y031796D02*
D03*
D35*
X03275Y037687D02*
D03*
Y036113D02*
D03*
D36*
X037Y036495D02*
D03*
Y035905D02*
D03*
X0363D02*
D03*
Y036495D02*
D03*
X0318Y035705D02*
D03*
Y036295D02*
D03*
X0363Y037105D02*
D03*
Y037695D02*
D03*
X037Y037105D02*
D03*
Y037695D02*
D03*
D37*
X042931Y034281D02*
D03*
X042569Y033919D02*
D03*
D38*
X042312Y02725D02*
D03*
Y02775D02*
D03*
Y02825D02*
D03*
Y02875D02*
D03*
X040088Y02725D02*
D03*
Y02775D02*
D03*
Y02825D02*
D03*
Y02875D02*
D03*
D39*
X033055Y03885D02*
D03*
X033645D02*
D03*
X034405D02*
D03*
X034995D02*
D03*
X035655D02*
D03*
X036245D02*
D03*
D40*
X03465Y035866D02*
D03*
Y037834D02*
D03*
M02*
