G04*
G04 #@! TF.GenerationSoftware,Altium Limited,Altium Designer,21.3.2 (30)*
G04*
G04 Layer_Color=32896*
%FSTAX24Y24*%
%MOIN*%
G70*
G04*
G04 #@! TF.SameCoordinates,587B8423-3D13-4A71-8966-67BAEF8921A1*
G04*
G04*
G04 #@! TF.FilePolarity,Positive*
G04*
G01*
G75*
%ADD15C,0.0079*%
%ADD17C,0.0050*%
%ADD18C,0.0040*%
%ADD97C,0.0070*%
%ADD98C,0.0059*%
D15*
X033661Y037924D02*
G03*
X033661Y037924I-000039J0D01*
G01*
X0374Y035711D02*
Y03624D01*
Y03486D02*
Y035406D01*
X0367Y03486D02*
Y035406D01*
Y035711D02*
Y03624D01*
Y03486D02*
X0374D01*
X0367Y03624D02*
X0374D01*
X0435Y033664D02*
Y033782D01*
Y034057D02*
Y034136D01*
X043303Y033782D02*
X043657D01*
X043303D02*
X0435Y034057D01*
X043657Y033782D01*
X043303Y034057D02*
X043697D01*
D17*
X035645Y036087D02*
X035684D01*
X035645Y037662D02*
X035684D01*
Y036087D02*
Y037662D01*
X033716D02*
X033755D01*
X033716Y036087D02*
X033755D01*
X033716D02*
Y037662D01*
D18*
X03607Y03673D02*
X03653D01*
Y03566D02*
Y03673D01*
X03607Y03566D02*
X03653D01*
X03607D02*
Y03673D01*
X03614Y03616D02*
Y03624D01*
X03646Y03616D02*
Y03624D01*
D97*
X037319Y035462D02*
Y035642D01*
X036779Y035462D02*
Y035642D01*
D98*
X043766Y032994D02*
X043861D01*
Y0348D01*
Y03485D01*
X0436D02*
X043861D01*
X0436Y0348D02*
Y03485D01*
Y0348D02*
X043861D01*
X043139D02*
X0434D01*
Y03485D01*
X043139D02*
X0434D01*
X043139Y0348D02*
Y03485D01*
Y032994D02*
Y0348D01*
Y032994D02*
X043234D01*
M02*
