G04*
G04 #@! TF.GenerationSoftware,Altium Limited,Altium Designer,21.3.2 (30)*
G04*
G04 Layer_Color=128*
%FSTAX24Y24*%
%MOIN*%
G70*
G04*
G04 #@! TF.SameCoordinates,587B8423-3D13-4A71-8966-67BAEF8921A1*
G04*
G04*
G04 #@! TF.FilePolarity,Positive*
G04*
G01*
G75*
%ADD25R,0.0335X0.0276*%
%ADD36R,0.0374X0.0394*%
%ADD86R,0.0551X0.0472*%
%ADD87R,0.0374X0.0354*%
%ADD88R,0.0640X0.0900*%
G04:AMPARAMS|DCode=90|XSize=77.6mil|YSize=23.6mil|CornerRadius=6.4mil|HoleSize=0mil|Usage=FLASHONLY|Rotation=270.000|XOffset=0mil|YOffset=0mil|HoleType=Round|Shape=RoundedRectangle|*
%AMROUNDEDRECTD90*
21,1,0.0776,0.0109,0,0,270.0*
21,1,0.0648,0.0236,0,0,270.0*
1,1,0.0128,-0.0054,-0.0324*
1,1,0.0128,-0.0054,0.0324*
1,1,0.0128,0.0054,0.0324*
1,1,0.0128,0.0054,-0.0324*
%
%ADD90ROUNDEDRECTD90*%
G36*
X034647Y036506D02*
Y036821D01*
X034159D01*
Y036506D01*
X034647D01*
D02*
G37*
G36*
X034647Y036928D02*
Y037243D01*
X034159D01*
Y036928D01*
X034647D01*
D02*
G37*
G36*
X035242Y036506D02*
Y036821D01*
X034753D01*
Y036506D01*
X035242D01*
D02*
G37*
G36*
X035243Y036928D02*
Y037243D01*
X034753D01*
Y036928D01*
X035243D01*
D02*
G37*
D25*
X03195Y027544D02*
D03*
Y028056D02*
D03*
X0325Y027544D02*
D03*
Y028056D02*
D03*
D36*
X0363Y036495D02*
D03*
Y035905D02*
D03*
D86*
X037049Y035926D02*
D03*
Y035178D02*
D03*
D87*
X0435Y03452D02*
D03*
Y03328D02*
D03*
D88*
X04273Y03695D02*
D03*
X04427D02*
D03*
D90*
X03395Y0359D02*
D03*
X03445D02*
D03*
X03495D02*
D03*
X03545D02*
D03*
Y037849D02*
D03*
X03495D02*
D03*
X03445D02*
D03*
X03395D02*
D03*
M02*
