G04*
G04 #@! TF.GenerationSoftware,Altium Limited,Altium Designer,21.3.2 (30)*
G04*
G04 Layer_Color=8388736*
%FSTAX24Y24*%
%MOIN*%
G70*
G04*
G04 #@! TF.SameCoordinates,587B8423-3D13-4A71-8966-67BAEF8921A1*
G04*
G04*
G04 #@! TF.FilePolarity,Negative*
G04*
G01*
G75*
%ADD41R,0.0178X0.0729*%
%ADD42R,0.0729X0.0178*%
%ADD43R,0.0867X0.1694*%
%ADD44R,0.0552X0.0415*%
G04:AMPARAMS|DCode=45|XSize=47.4mil|YSize=43.4mil|CornerRadius=8.4mil|HoleSize=0mil|Usage=FLASHONLY|Rotation=90.000|XOffset=0mil|YOffset=0mil|HoleType=Round|Shape=RoundedRectangle|*
%AMROUNDEDRECTD45*
21,1,0.0474,0.0266,0,0,90.0*
21,1,0.0305,0.0434,0,0,90.0*
1,1,0.0169,0.0133,0.0153*
1,1,0.0169,0.0133,-0.0153*
1,1,0.0169,-0.0133,-0.0153*
1,1,0.0169,-0.0133,0.0153*
%
%ADD45ROUNDEDRECTD45*%
%ADD46R,0.0415X0.0356*%
%ADD47R,0.0356X0.0415*%
%ADD48R,0.0474X0.0631*%
%ADD49R,0.0552X0.0395*%
G04:AMPARAMS|DCode=50|XSize=47.4mil|YSize=43.4mil|CornerRadius=8.4mil|HoleSize=0mil|Usage=FLASHONLY|Rotation=0.000|XOffset=0mil|YOffset=0mil|HoleType=Round|Shape=RoundedRectangle|*
%AMROUNDEDRECTD50*
21,1,0.0474,0.0266,0,0,0.0*
21,1,0.0305,0.0434,0,0,0.0*
1,1,0.0169,0.0153,-0.0133*
1,1,0.0169,-0.0153,-0.0133*
1,1,0.0169,-0.0153,0.0133*
1,1,0.0169,0.0153,0.0133*
%
%ADD50ROUNDEDRECTD50*%
%ADD51R,0.0580X0.0630*%
G04:AMPARAMS|DCode=52|XSize=143.8mil|YSize=78.9mil|CornerRadius=0mil|HoleSize=0mil|Usage=FLASHONLY|Rotation=315.000|XOffset=0mil|YOffset=0mil|HoleType=Round|Shape=Rectangle|*
%AMROTATEDRECTD52*
4,1,4,-0.0787,0.0230,-0.0230,0.0787,0.0787,-0.0230,0.0230,-0.0787,-0.0787,0.0230,0.0*
%
%ADD52ROTATEDRECTD52*%

%ADD53R,0.0867X0.1655*%
%ADD54R,0.1064X0.0552*%
%ADD55R,0.2639X0.2442*%
%ADD56R,0.0749X0.1064*%
%ADD57R,0.0434X0.0454*%
G04:AMPARAMS|DCode=58|XSize=41.5mil|YSize=35.6mil|CornerRadius=0mil|HoleSize=0mil|Usage=FLASHONLY|Rotation=135.000|XOffset=0mil|YOffset=0mil|HoleType=Round|Shape=Rectangle|*
%AMROTATEDRECTD58*
4,1,4,0.0272,-0.0021,0.0021,-0.0272,-0.0272,0.0021,-0.0021,0.0272,0.0272,-0.0021,0.0*
%
%ADD58ROTATEDRECTD58*%

%ADD59O,0.0789X0.0316*%
%ADD60R,0.0454X0.0434*%
%ADD61R,0.1300X0.0789*%
%ADD62C,0.0710*%
%ADD63R,0.0710X0.0710*%
%ADD64R,0.0710X0.0710*%
G04:AMPARAMS|DCode=65|XSize=130mil|YSize=126.1mil|CornerRadius=33.5mil|HoleSize=0mil|Usage=FLASHONLY|Rotation=0.000|XOffset=0mil|YOffset=0mil|HoleType=Round|Shape=RoundedRectangle|*
%AMROUNDEDRECTD65*
21,1,0.1300,0.0591,0,0,0.0*
21,1,0.0630,0.1261,0,0,0.0*
1,1,0.0671,0.0315,-0.0295*
1,1,0.0671,-0.0315,-0.0295*
1,1,0.0671,-0.0315,0.0295*
1,1,0.0671,0.0315,0.0295*
%
%ADD65ROUNDEDRECTD65*%
%ADD66C,0.0730*%
%ADD67R,0.0671X0.0671*%
%ADD68C,0.0671*%
%ADD69C,0.1180*%
%ADD70C,0.1280*%
D41*
X033517Y029969D02*
D03*
X033714D02*
D03*
X033911D02*
D03*
X034108D02*
D03*
X034305D02*
D03*
X034502D02*
D03*
X034698D02*
D03*
X034895D02*
D03*
X035092D02*
D03*
X035289D02*
D03*
X035486D02*
D03*
X035683D02*
D03*
Y026632D02*
D03*
X035486D02*
D03*
X035289D02*
D03*
X035092D02*
D03*
X034895D02*
D03*
X034698D02*
D03*
X034502D02*
D03*
X034305D02*
D03*
X034108D02*
D03*
X033911D02*
D03*
X033714D02*
D03*
X033517D02*
D03*
D42*
X036268Y029383D02*
D03*
Y029186D02*
D03*
Y028989D02*
D03*
Y028792D02*
D03*
Y028595D02*
D03*
Y028398D02*
D03*
Y028202D02*
D03*
Y028005D02*
D03*
Y027808D02*
D03*
Y027611D02*
D03*
Y027414D02*
D03*
Y027217D02*
D03*
X032931D02*
D03*
Y027414D02*
D03*
Y027611D02*
D03*
Y027808D02*
D03*
Y028005D02*
D03*
Y028202D02*
D03*
Y028398D02*
D03*
Y028595D02*
D03*
Y028792D02*
D03*
Y028989D02*
D03*
Y029186D02*
D03*
Y029383D02*
D03*
D43*
X0394Y038413D02*
D03*
Y034987D02*
D03*
D44*
X037942Y033398D02*
D03*
X03696Y03377D02*
D03*
X036958Y033012D02*
D03*
X037458Y021262D02*
D03*
X03746Y02202D02*
D03*
X038442Y021648D02*
D03*
D45*
X037635Y0344D02*
D03*
X036965D02*
D03*
X031215Y0305D02*
D03*
X031885D02*
D03*
X038435Y02735D02*
D03*
X037765D02*
D03*
X041685Y0266D02*
D03*
X041015D02*
D03*
X037635Y03235D02*
D03*
X036965D02*
D03*
D46*
X0304Y026556D02*
D03*
Y026044D02*
D03*
X0372Y029194D02*
D03*
Y029706D02*
D03*
X0315Y026556D02*
D03*
Y026044D02*
D03*
X03095Y026556D02*
D03*
Y026044D02*
D03*
X03775Y029194D02*
D03*
Y029706D02*
D03*
X0383Y029194D02*
D03*
Y029706D02*
D03*
X033937Y025606D02*
D03*
Y025094D02*
D03*
X0357Y025606D02*
D03*
Y025094D02*
D03*
X034525D02*
D03*
Y025606D02*
D03*
X03335Y025094D02*
D03*
Y025606D02*
D03*
X035113Y025094D02*
D03*
Y025606D02*
D03*
D47*
X031806Y02985D02*
D03*
X031294D02*
D03*
Y02715D02*
D03*
X031806D02*
D03*
X033706Y0309D02*
D03*
X033194D02*
D03*
X039194Y0266D02*
D03*
X039706D02*
D03*
X041744Y02995D02*
D03*
X042256D02*
D03*
D48*
X031117Y027752D02*
D03*
Y029248D02*
D03*
X031983Y027752D02*
D03*
Y029248D02*
D03*
D49*
X030772Y03255D02*
D03*
X033528D02*
D03*
D50*
X03625Y033665D02*
D03*
Y034335D02*
D03*
X0343Y032085D02*
D03*
Y031415D02*
D03*
X03495Y032085D02*
D03*
Y031415D02*
D03*
X0357Y032085D02*
D03*
Y031415D02*
D03*
X0365Y025015D02*
D03*
Y025685D02*
D03*
X03805D02*
D03*
Y025015D02*
D03*
X0373Y025685D02*
D03*
Y025015D02*
D03*
X0392Y028565D02*
D03*
Y029235D02*
D03*
X04005Y029381D02*
D03*
Y03005D02*
D03*
X0326Y025685D02*
D03*
Y025015D02*
D03*
X03625Y032985D02*
D03*
Y032315D02*
D03*
X0406Y029381D02*
D03*
Y03005D02*
D03*
X0392Y027365D02*
D03*
Y028035D02*
D03*
X0432Y027785D02*
D03*
Y027115D02*
D03*
Y029035D02*
D03*
Y028365D02*
D03*
X03745Y022765D02*
D03*
Y023435D02*
D03*
D51*
X032Y0313D02*
D03*
X0311D02*
D03*
X03245Y0388D02*
D03*
X03155D02*
D03*
D52*
X041227Y034027D02*
D03*
X042773Y035573D02*
D03*
D53*
X0302Y0359D02*
D03*
Y038183D02*
D03*
D54*
X038788Y032696D02*
D03*
X038788Y030896D02*
D03*
D55*
X041524Y031796D02*
D03*
D56*
X03275Y037687D02*
D03*
Y036113D02*
D03*
D57*
X037Y036495D02*
D03*
Y035905D02*
D03*
X0363D02*
D03*
Y036495D02*
D03*
X0318Y035705D02*
D03*
Y036295D02*
D03*
X0363Y037105D02*
D03*
Y037695D02*
D03*
X037Y037105D02*
D03*
Y037695D02*
D03*
D58*
X042931Y034281D02*
D03*
X042569Y033919D02*
D03*
D59*
X042312Y02725D02*
D03*
Y02775D02*
D03*
Y02825D02*
D03*
Y02875D02*
D03*
X040088Y02725D02*
D03*
Y02775D02*
D03*
Y02825D02*
D03*
Y02875D02*
D03*
D60*
X033055Y03885D02*
D03*
X033645D02*
D03*
X034405D02*
D03*
X034995D02*
D03*
X035655D02*
D03*
X036245D02*
D03*
D61*
X03465Y035866D02*
D03*
Y037834D02*
D03*
D62*
X0447Y02915D02*
D03*
X03235Y0342D02*
D03*
X03335D02*
D03*
X03435D02*
D03*
X0293Y02655D02*
D03*
Y02755D02*
D03*
Y02855D02*
D03*
Y02955D02*
D03*
Y03055D02*
D03*
Y03155D02*
D03*
Y03255D02*
D03*
X03115Y02345D02*
D03*
D63*
X0447Y02815D02*
D03*
X0293Y03355D02*
D03*
X03115Y02245D02*
D03*
D64*
X03535Y0342D02*
D03*
D65*
X04215Y025655D02*
D03*
Y021245D02*
D03*
D66*
X039394Y024434D02*
D03*
Y022466D02*
D03*
X045103Y024434D02*
D03*
Y02345D02*
D03*
Y022466D02*
D03*
D67*
X03615Y02245D02*
D03*
D68*
X03315Y022445D02*
D03*
D69*
X04265Y0382D02*
D03*
X04465D02*
D03*
D70*
X0447Y0331D02*
D03*
Y0351D02*
D03*
M02*
