G04*
G04 #@! TF.GenerationSoftware,Altium Limited,Altium Designer,21.3.2 (30)*
G04*
G04 Layer_Color=65535*
%FSTAX24Y24*%
%MOIN*%
G70*
G04*
G04 #@! TF.SameCoordinates,587B8423-3D13-4A71-8966-67BAEF8921A1*
G04*
G04*
G04 #@! TF.FilePolarity,Positive*
G04*
G01*
G75*
%ADD10C,0.0098*%
%ADD11C,0.0039*%
%ADD12C,0.0157*%
%ADD13C,0.0236*%
%ADD14C,0.0080*%
%ADD15C,0.0079*%
%ADD16C,0.0100*%
%ADD17C,0.0050*%
%ADD18C,0.0040*%
%ADD19R,0.1000X0.0500*%
D10*
X033232Y029717D02*
G03*
X033232Y029717I-000049J0D01*
G01*
X037449Y033699D02*
G03*
X037449Y033699I-000049J0D01*
G01*
X042361Y026876D02*
G03*
X042361Y026876I-000049J0D01*
G01*
X037949Y021949D02*
G03*
X037949Y021949I-000049J0D01*
G01*
D11*
X03092Y029661D02*
G03*
X03092Y029661I-00002J0D01*
G01*
D12*
X03931Y033174D02*
G03*
X03931Y033174I-000079J0D01*
G01*
D13*
X041584Y02739D02*
G03*
X041584Y02739I-000118J0D01*
G01*
D14*
X033109Y021005D02*
G03*
X033095Y02102I001539J001448D01*
G01*
X03795Y03365D02*
Y03405D01*
X03695D02*
X03795D01*
Y03275D02*
Y03315D01*
X03695Y03275D02*
X03795D01*
X03745Y021D02*
X03845D01*
Y0214D01*
X03745Y0223D02*
X03845D01*
Y0219D02*
Y0223D01*
D15*
X034689Y038425D02*
G03*
X034689Y038425I-000039J0D01*
G01*
X03336Y02706D02*
Y02954D01*
Y02706D02*
X03584D01*
Y02954D01*
X03336D02*
X03584D01*
X0442Y02765D02*
Y02965D01*
Y02765D02*
X0452D01*
Y02965D01*
X0442D02*
X0452D01*
X042035Y03393D02*
X04287Y034765D01*
X04113Y034835D02*
X041965Y03567D01*
X03485Y0337D02*
Y0347D01*
X03585Y0337D02*
Y0347D01*
X03185Y0337D02*
X03585D01*
X03185Y0347D02*
X03585D01*
X03185Y0337D02*
Y0347D01*
X03275Y036703D02*
Y036782D01*
Y037057D02*
Y037097D01*
X032593Y036782D02*
X032947D01*
X03275Y037057D02*
X032947Y036782D01*
X032593D02*
X03275Y037057D01*
X032553D02*
X032947D01*
X03285Y038376D02*
X0334D01*
Y03545D02*
Y038376D01*
X03285Y0383D02*
Y038376D01*
Y0383D02*
X0334D01*
X0321D02*
X03265D01*
Y038376D01*
X033213Y03545D02*
X0334D01*
X0321Y038376D02*
X03265D01*
X0321Y03545D02*
X032287D01*
X0321D02*
Y038376D01*
X0298Y02605D02*
Y03405D01*
X0288D02*
X0298D01*
X0288Y02605D02*
Y03405D01*
Y02605D02*
X0298D01*
X0288Y03305D02*
X0298D01*
X03065Y02195D02*
Y02395D01*
Y02195D02*
X03165D01*
Y02395D01*
X03065D02*
X03165D01*
X044748Y021009D02*
Y02217D01*
Y02473D02*
Y025891D01*
X042898Y021009D02*
X044748D01*
X039552D02*
X041402D01*
X039552D02*
Y022033D01*
Y022899D02*
Y024001D01*
Y024867D02*
Y025891D01*
X041402D01*
X042898D02*
X044748D01*
X041859Y026996D02*
Y029004D01*
X040541Y026996D02*
Y029004D01*
Y026996D02*
X041859D01*
X040541Y029004D02*
X041859D01*
D16*
X037372Y038728D02*
X041428D01*
X037372Y035428D02*
X038128Y034672D01*
X037372Y035428D02*
Y038728D01*
X038128Y034672D02*
X040672D01*
X041428Y035428D01*
Y038728D01*
X03104Y03283D02*
Y03328D01*
Y03182D02*
Y03227D01*
X03265Y0323D02*
Y0328D01*
X03165D02*
X03265D01*
X03165Y0323D02*
Y0328D01*
Y0323D02*
X03265D01*
X03104Y03182D02*
X03326D01*
X03104Y03328D02*
X03326D01*
Y03283D02*
Y03328D01*
Y03182D02*
Y03227D01*
X028901Y038341D02*
X031499D01*
X028901Y036176D02*
X029334Y035743D01*
X028901Y036176D02*
Y038341D01*
X029334Y035743D02*
X031066D01*
X031499Y036176D01*
Y038341D01*
X039556Y033095D02*
X040213D01*
X039556Y030497D02*
Y033095D01*
Y030497D02*
X040213D01*
X039371Y032544D02*
X039556D01*
X039371Y03284D02*
X039556D01*
X039371Y032544D02*
Y03284D01*
X039371Y03104D02*
X039556D01*
X039371Y030744D02*
Y03104D01*
Y030744D02*
X039556D01*
X040213Y030497D02*
X041957D01*
X040213Y033095D02*
X041957D01*
X029197Y0208D02*
X02893D01*
Y020867D01*
X028997Y020933D01*
X029197D01*
X028997D01*
X02893Y021D01*
X028997Y021067D01*
X029197D01*
X02893Y021267D02*
Y0214D01*
X028997Y021466D01*
X029197D01*
Y021267D01*
X02913Y0212D01*
X029064Y021267D01*
Y021466D01*
X02893Y021866D02*
Y021666D01*
X028997Y0216D01*
X02913D01*
X029197Y021666D01*
Y021866D01*
X028797Y022D02*
X029197D01*
X028997D01*
X02893Y022066D01*
Y0222D01*
X028997Y022266D01*
X029197D01*
X028864Y022866D02*
X02893D01*
Y022799D01*
Y022933D01*
Y022866D01*
X02913D01*
X029197Y022933D01*
X02893Y023133D02*
X029197D01*
X029064D01*
X028997Y023199D01*
X02893Y023266D01*
Y023333D01*
Y023599D02*
Y023732D01*
X028997Y023799D01*
X029197D01*
Y023599D01*
X02913Y023532D01*
X029064Y023599D01*
Y023799D01*
X029197Y023932D02*
X02893D01*
Y023999D01*
X028997Y024066D01*
X029197D01*
X028997D01*
X02893Y024132D01*
X028997Y024199D01*
X029197D01*
X028797Y024732D02*
X029197D01*
X028997D01*
X02893Y024799D01*
Y024932D01*
X028997Y024999D01*
X029197D01*
X02893Y025199D02*
Y025332D01*
X028997Y025399D01*
X029197D01*
Y025199D01*
X02913Y025132D01*
X029064Y025199D01*
Y025399D01*
X029197Y025532D02*
X02893D01*
Y025732D01*
X028997Y025798D01*
X029197D01*
X029517Y021067D02*
X029917D01*
Y020867D01*
X02985Y0208D01*
X029717D01*
X02965Y020867D01*
Y021067D01*
Y021267D02*
Y0214D01*
X029717Y021466D01*
X029917D01*
Y021267D01*
X02985Y0212D01*
X029783Y021267D01*
Y021466D01*
X029917Y022D02*
X02965D01*
Y0222D01*
X029717Y022266D01*
X029917D01*
X02965Y022466D02*
Y022599D01*
X029717Y022666D01*
X029917D01*
Y022466D01*
X02985Y022399D01*
X029783Y022466D01*
Y022666D01*
X029917Y022799D02*
X02965D01*
Y022999D01*
X029717Y023066D01*
X029917D01*
X03005Y023333D02*
Y023399D01*
X029983Y023466D01*
X02965D01*
Y023266D01*
X029717Y023199D01*
X02985D01*
X029917Y023266D01*
Y023466D01*
X03185Y0233D02*
X032117D01*
X031983D01*
X031917Y023367D01*
X03185Y023433D01*
Y0235D01*
Y0237D02*
X03205D01*
X032117Y023767D01*
Y023966D01*
X03185D01*
X032117Y0241D02*
X03185D01*
Y0243D01*
X031917Y024366D01*
X032117D01*
X03225Y024633D02*
Y0247D01*
X032183Y024766D01*
X03185D01*
Y024566D01*
X031917Y0245D01*
X03205D01*
X032117Y024566D01*
Y024766D01*
X044017Y030133D02*
X04395Y0302D01*
X043817D01*
X04375Y030133D01*
Y030067D01*
X043817Y03D01*
X04395D01*
X044017Y029933D01*
Y029867D01*
X04395Y0298D01*
X043817D01*
X04375Y029867D01*
X04435Y0298D02*
X044217D01*
X04415Y029867D01*
Y03D01*
X044217Y030067D01*
X04435D01*
X044416Y03D01*
Y029933D01*
X04415D01*
X04455Y0298D02*
Y030067D01*
X04475D01*
X044816Y03D01*
Y0298D01*
X04495Y03D02*
X045216D01*
X044067Y027483D02*
X044Y02755D01*
X043867D01*
X0438Y027483D01*
Y027417D01*
X043867Y02735D01*
X044D01*
X044067Y027283D01*
Y027217D01*
X044Y02715D01*
X043867D01*
X0438Y027217D01*
X0444Y02715D02*
X044267D01*
X0442Y027217D01*
Y02735D01*
X044267Y027417D01*
X0444D01*
X044466Y02735D01*
Y027283D01*
X0442D01*
X0446Y02715D02*
Y027417D01*
X0448D01*
X044866Y02735D01*
Y02715D01*
X045Y02735D02*
X045266D01*
X045133Y027483D02*
Y027217D01*
X04365Y0324D02*
Y032D01*
Y0322D01*
X043717Y032267D01*
X04385D01*
X043917Y0322D01*
Y032D01*
X04425D02*
X044117D01*
X04405Y032067D01*
Y0322D01*
X044117Y032267D01*
X04425D01*
X044316Y0322D01*
Y032133D01*
X04405D01*
X044516Y032267D02*
X04465D01*
X044716Y0322D01*
Y032D01*
X044516D01*
X04445Y032067D01*
X044516Y032133D01*
X044716D01*
X044916Y032333D02*
Y032267D01*
X04485D01*
X044983D01*
X044916D01*
Y032067D01*
X044983Y032D01*
X045183Y0322D02*
X045449D01*
X0437Y0363D02*
Y0359D01*
Y0361D01*
X043767Y036167D01*
X0439D01*
X043967Y0361D01*
Y0359D01*
X0443D02*
X044167D01*
X0441Y035967D01*
Y0361D01*
X044167Y036167D01*
X0443D01*
X044366Y0361D01*
Y036033D01*
X0441D01*
X044566Y036167D02*
X0447D01*
X044766Y0361D01*
Y0359D01*
X044566D01*
X0445Y035967D01*
X044566Y036033D01*
X044766D01*
X044966Y036233D02*
Y036167D01*
X0449D01*
X045033D01*
X044966D01*
Y035967D01*
X045033Y0359D01*
X045233Y0361D02*
X045499D01*
X045366Y036233D02*
Y035967D01*
X0423Y037333D02*
X042367Y0374D01*
X0425D01*
X042567Y037333D01*
Y037067D01*
X0425Y037D01*
X042367D01*
X0423Y037067D01*
Y037333D01*
X0427Y0372D02*
X042966D01*
X042833Y037333D02*
Y037067D01*
X044417Y037D02*
X04415D01*
X044417Y037267D01*
Y037333D01*
X04435Y0374D01*
X044217D01*
X04415Y037333D01*
X04475Y037D02*
Y0374D01*
X04455Y0372D01*
X044816D01*
X04495D02*
X045216D01*
X045083Y037333D02*
Y037067D01*
X0315Y03485D02*
X031633D01*
X031567D01*
Y035117D01*
X0315D01*
X0319Y03485D02*
X032033D01*
X0321Y034917D01*
Y03505D01*
X032033Y035117D01*
X0319D01*
X031833Y03505D01*
Y034917D01*
X0319Y03485D01*
X032633Y035183D02*
X0327Y03525D01*
X032833D01*
X0329Y035183D01*
Y034917D01*
X032833Y03485D01*
X0327D01*
X032633Y034917D01*
Y035183D01*
X033699Y035117D02*
X033499D01*
X033433Y03505D01*
Y034917D01*
X033499Y03485D01*
X033699D01*
X033833D02*
X033966D01*
X033899D01*
Y03525D01*
X033833D01*
X034166Y03485D02*
Y03525D01*
Y034983D02*
X034366Y035117D01*
X034166Y034983D02*
X034366Y03485D01*
X034966Y035183D02*
X035032Y03525D01*
X035165D01*
X035232Y035183D01*
Y035117D01*
X035165Y03505D01*
X035099D01*
X035165D01*
X035232Y034983D01*
Y034917D01*
X035165Y03485D01*
X035032D01*
X034966Y034917D01*
X035365Y03485D02*
Y034917D01*
X035432D01*
Y03485D01*
X035365D01*
X035699Y035183D02*
X035765Y03525D01*
X035899D01*
X035965Y035183D01*
Y035117D01*
X035899Y03505D01*
X035832D01*
X035899D01*
X035965Y034983D01*
Y034917D01*
X035899Y03485D01*
X035765D01*
X035699Y034917D01*
X03Y0258D02*
X03035D01*
Y026033D01*
X03Y026383D02*
Y02615D01*
X03035D01*
Y026383D01*
X030175Y02615D02*
Y026267D01*
X03Y0265D02*
X03035D01*
Y026675D01*
X030292Y026733D01*
X030058D01*
X03Y026675D01*
Y0265D01*
X03035Y0272D02*
X030117D01*
X03Y027316D01*
X030117Y027433D01*
X03035D01*
X030175D01*
Y0272D01*
X03Y027783D02*
Y027549D01*
X030175D01*
X030117Y027666D01*
Y027724D01*
X030175Y027783D01*
X030292D01*
X03035Y027724D01*
Y027608D01*
X030292Y027549D01*
X03035Y028249D02*
X030117D01*
X03Y028366D01*
X030117Y028482D01*
X03035D01*
X030175D01*
Y028249D01*
X03Y028599D02*
Y028832D01*
X030058D01*
X030292Y028599D01*
X03035D01*
Y029299D02*
X030117D01*
X03Y029416D01*
X030117Y029532D01*
X03035D01*
X030175D01*
Y029299D01*
X030058Y029649D02*
X03Y029707D01*
Y029824D01*
X030058Y029882D01*
X030292D01*
X03035Y029824D01*
Y029707D01*
X030292Y029649D01*
X030058D01*
X03Y030349D02*
X03035D01*
Y030523D01*
X030292Y030582D01*
X030233D01*
X030175Y030523D01*
Y030349D01*
Y030523D01*
X030117Y030582D01*
X030058D01*
X03Y030523D01*
Y030349D01*
Y030698D02*
Y030932D01*
X030058D01*
X030292Y030698D01*
X03035D01*
X03Y031398D02*
X03035D01*
Y031573D01*
X030292Y031631D01*
X030233D01*
X030175Y031573D01*
Y031398D01*
Y031573D01*
X030117Y031631D01*
X030058D01*
X03Y031573D01*
Y031398D01*
Y031981D02*
X030058Y031865D01*
X030175Y031748D01*
X030292D01*
X03035Y031806D01*
Y031923D01*
X030292Y031981D01*
X030233D01*
X030175Y031923D01*
Y031748D01*
X030058Y032448D02*
X03Y032506D01*
Y032623D01*
X030058Y032681D01*
X030292D01*
X03035Y032623D01*
Y032506D01*
X030292Y032448D01*
X030058D01*
Y033148D02*
X03Y033206D01*
Y033323D01*
X030058Y033381D01*
X030117D01*
X030175Y033323D01*
Y033264D01*
Y033323D01*
X030233Y033381D01*
X030292D01*
X03035Y033323D01*
Y033206D01*
X030292Y033148D01*
X030117Y033498D02*
X03035Y033614D01*
X030117Y033731D01*
X030058Y033847D02*
X03Y033906D01*
Y034022D01*
X030058Y034081D01*
X030117D01*
X030175Y034022D01*
Y033964D01*
Y034022D01*
X030233Y034081D01*
X030292D01*
X03035Y034022D01*
Y033906D01*
X030292Y033847D01*
X035595Y02243D02*
X035195D01*
X035395Y02223D02*
Y02263D01*
D17*
X03724Y03424D02*
X03736D01*
X03724Y03456D02*
X03736D01*
X03609Y03394D02*
Y03406D01*
X03641Y03394D02*
Y03406D01*
X03446Y03169D02*
Y03181D01*
X03414Y03169D02*
Y03181D01*
X03511Y03169D02*
Y03181D01*
X03479Y03169D02*
Y03181D01*
X03586Y03169D02*
Y03181D01*
X03554Y03169D02*
Y03181D01*
X03634Y02529D02*
Y02541D01*
X03666Y02529D02*
Y02541D01*
X03149Y03066D02*
X03161D01*
X03149Y03034D02*
X03161D01*
X03821Y02529D02*
Y02541D01*
X03789Y02529D02*
Y02541D01*
X03746Y02529D02*
Y02541D01*
X03714Y02529D02*
Y02541D01*
X03804Y02719D02*
X03816D01*
X03804Y02751D02*
X03816D01*
X03904Y02884D02*
Y02896D01*
X03936Y02884D02*
Y02896D01*
X03989Y029655D02*
Y029775D01*
X04021Y029655D02*
Y029775D01*
X03276Y02529D02*
Y02541D01*
X03244Y02529D02*
Y02541D01*
X03641Y03259D02*
Y03271D01*
X03609Y03259D02*
Y03271D01*
X04044Y029655D02*
Y029775D01*
X04076Y029655D02*
Y029775D01*
X03904Y02764D02*
Y02776D01*
X03936Y02764D02*
Y02776D01*
X04129Y02644D02*
X04141D01*
X04129Y02676D02*
X04141D01*
X04336Y02739D02*
Y02751D01*
X04304Y02739D02*
Y02751D01*
X04336Y02864D02*
Y02876D01*
X04304Y02864D02*
Y02876D01*
X03724Y03219D02*
X03736D01*
X03724Y03251D02*
X03736D01*
X03729Y02304D02*
Y02316D01*
X03761Y02304D02*
Y02316D01*
X033508Y03563D02*
X033916D01*
X033508D02*
Y03807D01*
X033916D01*
X035384Y03563D02*
X035792D01*
Y03807D01*
X035384D02*
X035792D01*
D18*
X0311Y03095D02*
Y031D01*
Y03095D02*
X032D01*
Y031D01*
X0311Y0316D02*
Y03165D01*
X032D01*
Y0316D02*
Y03165D01*
X03677Y03673D02*
X03723D01*
X03677Y03566D02*
Y03673D01*
Y03566D02*
X03723D01*
Y03673D01*
X03716Y03616D02*
Y03624D01*
X03684Y03616D02*
Y03624D01*
X03282Y03862D02*
Y03908D01*
Y03862D02*
X03389D01*
Y03908D01*
X03282D02*
X03389D01*
X03331Y03901D02*
X03339D01*
X03331Y03869D02*
X03339D01*
X03614Y03616D02*
Y03624D01*
X03646Y03616D02*
Y03624D01*
X03653Y03566D02*
Y03673D01*
X03607Y03566D02*
X03653D01*
X03607D02*
Y03673D01*
X03653D01*
X03164Y03596D02*
Y03604D01*
X03196Y03596D02*
Y03604D01*
X03203Y03546D02*
Y03653D01*
X03157Y03546D02*
X03203D01*
X03157D02*
Y03653D01*
X03203D01*
X03417Y03862D02*
Y03908D01*
Y03862D02*
X03524D01*
Y03908D01*
X03417D02*
X03524D01*
X03466Y03901D02*
X03474D01*
X03466Y03869D02*
X03474D01*
X03155Y03845D02*
Y0385D01*
Y03845D02*
X03245D01*
Y0385D01*
X03155Y0391D02*
Y03915D01*
X03245D01*
Y0391D02*
Y03915D01*
X03614Y03736D02*
Y03744D01*
X03646Y03736D02*
Y03744D01*
X03653Y03686D02*
Y03793D01*
X03607Y03686D02*
X03653D01*
X03607D02*
Y03793D01*
X03653D01*
X03591Y03901D02*
X03599D01*
X03591Y03869D02*
X03599D01*
X03541Y03862D02*
X03648D01*
X03541D02*
Y03908D01*
X03648D01*
Y03862D02*
Y03908D01*
X03684Y03736D02*
Y03744D01*
X03716Y03736D02*
Y03744D01*
X03723Y03686D02*
Y03793D01*
X03677Y03686D02*
X03723D01*
X03677D02*
Y03793D01*
X03723D01*
D19*
X03215Y03255D02*
D03*
M02*
