M48
;Layer_Color=9474304
;FILE_FORMAT=2:4
INCH,LZ
;TYPE=PLATED
T1F00S00C0.0118
T2F00S00C0.0280
T3F00S00C0.0315
T4F00S00C0.0433
%
T01
X0315Y02575
X0326Y02595
X03335Y025094
X033937Y025638
X034525Y026025
X034892Y026008
X03625Y0261
X0366Y02665
X036625Y024475
X037308Y025015
X03805
X0386Y025659
X0392Y0266
X04005
X03805Y02785
X03735Y0284
X037294Y0298
X037361Y031011
X0384Y0311
Y0309
X0386
Y0307
X0388
X039
X0392
Y0309
Y0311
X039
X0388
X0386
X0388Y0309
X039
X0384Y0307
X0392Y0297
X038639Y028889
X04005Y03025
X0406
X04145Y02995
X042304Y02825
X03565Y02885
X03505
X0348Y02935
X03395Y0293
X033535Y02905
X0335Y02785
X03415Y02765
X0339Y02735
X03465
X03455Y02855
X03445Y03055
X034677Y030994
X0356Y0311
X03595Y0308
X0326Y03
X031806Y029906
X03215Y028728
X0324Y02805
X03745Y0238
X03805Y0237
X03095Y0255
X0304Y02525
X03115Y02915
X030794Y032544
X0307Y03395
X0302Y03815
X031Y0388
X033645Y038395
X0339Y037799
X0344Y03705
X0346
Y03685
X0348
X035
X0352
Y03705
X035
X0348
Y03665
X0346
X0344
Y03685
X035Y03665
X0352
X0363Y03705
X037Y037105
X0376Y0377
X03495Y03845
X0364Y0354
X03625Y034297
Y03335
X03765Y03425
X03855Y0334
X0377Y03185
X03775Y0313
X0394Y03495
X040792Y034171
X040933Y034029
X041074Y034171
X041216Y034029
X041357Y034171
X041216Y034312
X041074Y034454
X040933Y034312
X041074Y033888
X041216Y033746
X041357Y033605
X041499Y033746
X041357Y033888
X041499Y034029
X04164Y033888
X0423Y03365
X04315Y0341
X0337Y033
X032787Y036113
X0318Y0363
T02
X0323Y02175
X034469Y021478
X0347Y0232
X032818Y023754
X035Y028
X0412Y02775
X04143Y028707
X043237Y029733
X044308Y02652
X043861Y025382
X043Y0233
X040872Y023709
X0402Y0215
X044308Y021411
X0303Y02155
X03005Y02375
X02965Y0247
X02945Y03745
X0303Y0372
X03185Y0378
X032787Y036113
X038082Y036851
X03755Y03835
X0406Y03755
X04265Y0382
X04465
X0447Y0351
Y0331
T03
X03315Y022445
X03615Y02245
T04
X039394Y022466
Y024434
X045103
Y02345
Y022466
X0447Y02815
Y02915
X0293Y02955
Y02855
Y02755
Y02655
Y03055
X03115Y02345
Y02245
X0293Y03155
Y03255
Y03355
X03235Y0342
X03335
X03435
X03535
M30
